<?xml version="1.0" encoding="UTF-8" standalone="no"?>
<!DOCTYPE svg PUBLIC "-//W3C//DTD SVG 1.1//EN" "http://www.w3.org/Graphics/SVG/1.1/DTD/svg11.dtd">
<!-- Created with matplotlib (http://matplotlib.org/) -->
<svg height="469pt" version="1.1" viewBox="0 0 710 469" width="710pt" xmlns="http://www.w3.org/2000/svg" xmlns:xlink="http://www.w3.org/1999/xlink">
 <defs>
  <style type="text/css">
*{stroke-linecap:butt;stroke-linejoin:round;}
  </style>
 </defs>
 <g id="figure_1">
  <g id="patch_1">
   <path d="M 0 469.458125  L 710.403125 469.458125  L 710.403125 0  L 0 0  z " style="fill:#ffffff;"/>
  </g>
  <g id="axes_1">
   <g id="patch_2">
    <path d="M 30.103125 445.58  L 699.703125 445.58  L 699.703125 10.7  L 30.103125 10.7  z " style="fill:#ffffff;"/>
   </g>
   <g id="matplotlib.axis_1">
    <g id="xtick_1">
     <g id="line2d_1">
      <path clip-path="url(#pc91b83b250)" d="M 30.103125 445.58  L 30.103125 10.7  " style="fill:none;stroke:#b0b0b0;stroke-linecap:square;stroke-width:0.8;"/>
     </g>
     <g id="line2d_2">
      <defs>
       <path d="M 0 0  L 0 3.5  " id="m03ca9c5e9a" style="stroke:#000000;stroke-width:0.8;"/>
      </defs>
      <g>
       <use style="stroke:#000000;stroke-width:0.8;" x="30.103125" xlink:href="#m03ca9c5e9a" y="445.58"/>
      </g>
     </g>
     <g id="text_1">
      <!-- 0 -->
      <defs>
       <path d="M 31.78125 66.40625  Q 24.171875 66.40625 20.328125 58.90625  Q 16.5 51.421875 16.5 36.375  Q 16.5 21.390625 20.328125 13.890625  Q 24.171875 6.390625 31.78125 6.390625  Q 39.453125 6.390625 43.28125 13.890625  Q 47.125 21.390625 47.125 36.375  Q 47.125 51.421875 43.28125 58.90625  Q 39.453125 66.40625 31.78125 66.40625  M 31.78125 74.21875  Q 44.046875 74.21875 50.515625 64.515625  Q 56.984375 54.828125 56.984375 36.375  Q 56.984375 17.96875 50.515625 8.265625  Q 44.046875 -1.421875 31.78125 -1.421875  Q 19.53125 -1.421875 13.0625 8.265625  Q 6.59375 17.96875 6.59375 36.375  Q 6.59375 54.828125 13.0625 64.515625  Q 19.53125 74.21875 31.78125 74.21875  " id="DejaVuSans-30"/>
      </defs>
      <g transform="translate(26.921875 460.178437)scale(0.1 -0.1)">
       <use xlink:href="#DejaVuSans-30"/>
      </g>
     </g>
    </g>
    <g id="xtick_2">
     <g id="line2d_3">
      <path clip-path="url(#pc91b83b250)" d="M 164.291502 445.58  L 164.291502 10.7  " style="fill:none;stroke:#b0b0b0;stroke-linecap:square;stroke-width:0.8;"/>
     </g>
     <g id="line2d_4">
      <g>
       <use style="stroke:#000000;stroke-width:0.8;" x="164.291502" xlink:href="#m03ca9c5e9a" y="445.58"/>
      </g>
     </g>
     <g id="text_2">
      <!-- 100 -->
      <defs>
       <path d="M 12.40625 8.296875  L 28.515625 8.296875  L 28.515625 63.921875  L 10.984375 60.40625  L 10.984375 69.390625  L 28.421875 72.90625  L 38.28125 72.90625  L 38.28125 8.296875  L 54.390625 8.296875  L 54.390625 0  L 12.40625 0  z " id="DejaVuSans-31"/>
      </defs>
      <g transform="translate(154.747752 460.178437)scale(0.1 -0.1)">
       <use xlink:href="#DejaVuSans-31"/>
       <use x="63.623047" xlink:href="#DejaVuSans-30"/>
       <use x="127.246094" xlink:href="#DejaVuSans-30"/>
      </g>
     </g>
    </g>
    <g id="xtick_3">
     <g id="line2d_5">
      <path clip-path="url(#pc91b83b250)" d="M 298.479879 445.58  L 298.479879 10.7  " style="fill:none;stroke:#b0b0b0;stroke-linecap:square;stroke-width:0.8;"/>
     </g>
     <g id="line2d_6">
      <g>
       <use style="stroke:#000000;stroke-width:0.8;" x="298.479879" xlink:href="#m03ca9c5e9a" y="445.58"/>
      </g>
     </g>
     <g id="text_3">
      <!-- 200 -->
      <defs>
       <path d="M 19.1875 8.296875  L 53.609375 8.296875  L 53.609375 0  L 7.328125 0  L 7.328125 8.296875  Q 12.9375 14.109375 22.625 23.890625  Q 32.328125 33.6875 34.8125 36.53125  Q 39.546875 41.84375 41.421875 45.53125  Q 43.3125 49.21875 43.3125 52.78125  Q 43.3125 58.59375 39.234375 62.25  Q 35.15625 65.921875 28.609375 65.921875  Q 23.96875 65.921875 18.8125 64.3125  Q 13.671875 62.703125 7.8125 59.421875  L 7.8125 69.390625  Q 13.765625 71.78125 18.9375 73  Q 24.125 74.21875 28.421875 74.21875  Q 39.75 74.21875 46.484375 68.546875  Q 53.21875 62.890625 53.21875 53.421875  Q 53.21875 48.921875 51.53125 44.890625  Q 49.859375 40.875 45.40625 35.40625  Q 44.1875 33.984375 37.640625 27.21875  Q 31.109375 20.453125 19.1875 8.296875  " id="DejaVuSans-32"/>
      </defs>
      <g transform="translate(288.936129 460.178437)scale(0.1 -0.1)">
       <use xlink:href="#DejaVuSans-32"/>
       <use x="63.623047" xlink:href="#DejaVuSans-30"/>
       <use x="127.246094" xlink:href="#DejaVuSans-30"/>
      </g>
     </g>
    </g>
    <g id="xtick_4">
     <g id="line2d_7">
      <path clip-path="url(#pc91b83b250)" d="M 432.668255 445.58  L 432.668255 10.7  " style="fill:none;stroke:#b0b0b0;stroke-linecap:square;stroke-width:0.8;"/>
     </g>
     <g id="line2d_8">
      <g>
       <use style="stroke:#000000;stroke-width:0.8;" x="432.668255" xlink:href="#m03ca9c5e9a" y="445.58"/>
      </g>
     </g>
     <g id="text_4">
      <!-- 300 -->
      <defs>
       <path d="M 40.578125 39.3125  Q 47.65625 37.796875 51.625 33  Q 55.609375 28.21875 55.609375 21.1875  Q 55.609375 10.40625 48.1875 4.484375  Q 40.765625 -1.421875 27.09375 -1.421875  Q 22.515625 -1.421875 17.65625 -0.515625  Q 12.796875 0.390625 7.625 2.203125  L 7.625 11.71875  Q 11.71875 9.328125 16.59375 8.109375  Q 21.484375 6.890625 26.8125 6.890625  Q 36.078125 6.890625 40.9375 10.546875  Q 45.796875 14.203125 45.796875 21.1875  Q 45.796875 27.640625 41.28125 31.265625  Q 36.765625 34.90625 28.71875 34.90625  L 20.21875 34.90625  L 20.21875 43.015625  L 29.109375 43.015625  Q 36.375 43.015625 40.234375 45.921875  Q 44.09375 48.828125 44.09375 54.296875  Q 44.09375 59.90625 40.109375 62.90625  Q 36.140625 65.921875 28.71875 65.921875  Q 24.65625 65.921875 20.015625 65.03125  Q 15.375 64.15625 9.8125 62.3125  L 9.8125 71.09375  Q 15.4375 72.65625 20.34375 73.4375  Q 25.25 74.21875 29.59375 74.21875  Q 40.828125 74.21875 47.359375 69.109375  Q 53.90625 64.015625 53.90625 55.328125  Q 53.90625 49.265625 50.4375 45.09375  Q 46.96875 40.921875 40.578125 39.3125  " id="DejaVuSans-33"/>
      </defs>
      <g transform="translate(423.124505 460.178437)scale(0.1 -0.1)">
       <use xlink:href="#DejaVuSans-33"/>
       <use x="63.623047" xlink:href="#DejaVuSans-30"/>
       <use x="127.246094" xlink:href="#DejaVuSans-30"/>
      </g>
     </g>
    </g>
    <g id="xtick_5">
     <g id="line2d_9">
      <path clip-path="url(#pc91b83b250)" d="M 566.856632 445.58  L 566.856632 10.7  " style="fill:none;stroke:#b0b0b0;stroke-linecap:square;stroke-width:0.8;"/>
     </g>
     <g id="line2d_10">
      <g>
       <use style="stroke:#000000;stroke-width:0.8;" x="566.856632" xlink:href="#m03ca9c5e9a" y="445.58"/>
      </g>
     </g>
     <g id="text_5">
      <!-- 400 -->
      <defs>
       <path d="M 37.796875 64.3125  L 12.890625 25.390625  L 37.796875 25.390625  z M 35.203125 72.90625  L 47.609375 72.90625  L 47.609375 25.390625  L 58.015625 25.390625  L 58.015625 17.1875  L 47.609375 17.1875  L 47.609375 0  L 37.796875 0  L 37.796875 17.1875  L 4.890625 17.1875  L 4.890625 26.703125  z " id="DejaVuSans-34"/>
      </defs>
      <g transform="translate(557.312882 460.178437)scale(0.1 -0.1)">
       <use xlink:href="#DejaVuSans-34"/>
       <use x="63.623047" xlink:href="#DejaVuSans-30"/>
       <use x="127.246094" xlink:href="#DejaVuSans-30"/>
      </g>
     </g>
    </g>
   </g>
   <g id="matplotlib.axis_2">
    <g id="ytick_1">
     <g id="line2d_11">
      <path clip-path="url(#pc91b83b250)" d="M 30.103125 430.920373  L 699.703125 430.920373  " style="fill:none;stroke:#b0b0b0;stroke-linecap:square;stroke-width:0.8;"/>
     </g>
     <g id="line2d_12">
      <defs>
       <path d="M 0 0  L -3.5 0  " id="m6da147a0ae" style="stroke:#000000;stroke-width:0.8;"/>
      </defs>
      <g>
       <use style="stroke:#000000;stroke-width:0.8;" x="30.103125" xlink:href="#m6da147a0ae" y="430.920373"/>
      </g>
     </g>
     <g id="text_6">
      <!-- 1.0 -->
      <defs>
       <path d="M 10.6875 12.40625  L 21 12.40625  L 21 0  L 10.6875 0  z " id="DejaVuSans-2e"/>
      </defs>
      <g transform="translate(7.2 434.719592)scale(0.1 -0.1)">
       <use xlink:href="#DejaVuSans-31"/>
       <use x="63.623047" xlink:href="#DejaVuSans-2e"/>
       <use x="95.410156" xlink:href="#DejaVuSans-30"/>
      </g>
     </g>
    </g>
    <g id="ytick_2">
     <g id="line2d_13">
      <path clip-path="url(#pc91b83b250)" d="M 30.103125 342.864433  L 699.703125 342.864433  " style="fill:none;stroke:#b0b0b0;stroke-linecap:square;stroke-width:0.8;"/>
     </g>
     <g id="line2d_14">
      <g>
       <use style="stroke:#000000;stroke-width:0.8;" x="30.103125" xlink:href="#m6da147a0ae" y="342.864433"/>
      </g>
     </g>
     <g id="text_7">
      <!-- 1.2 -->
      <g transform="translate(7.2 346.663652)scale(0.1 -0.1)">
       <use xlink:href="#DejaVuSans-31"/>
       <use x="63.623047" xlink:href="#DejaVuSans-2e"/>
       <use x="95.410156" xlink:href="#DejaVuSans-32"/>
      </g>
     </g>
    </g>
    <g id="ytick_3">
     <g id="line2d_15">
      <path clip-path="url(#pc91b83b250)" d="M 30.103125 254.808494  L 699.703125 254.808494  " style="fill:none;stroke:#b0b0b0;stroke-linecap:square;stroke-width:0.8;"/>
     </g>
     <g id="line2d_16">
      <g>
       <use style="stroke:#000000;stroke-width:0.8;" x="30.103125" xlink:href="#m6da147a0ae" y="254.808494"/>
      </g>
     </g>
     <g id="text_8">
      <!-- 1.4 -->
      <g transform="translate(7.2 258.607712)scale(0.1 -0.1)">
       <use xlink:href="#DejaVuSans-31"/>
       <use x="63.623047" xlink:href="#DejaVuSans-2e"/>
       <use x="95.410156" xlink:href="#DejaVuSans-34"/>
      </g>
     </g>
    </g>
    <g id="ytick_4">
     <g id="line2d_17">
      <path clip-path="url(#pc91b83b250)" d="M 30.103125 166.752554  L 699.703125 166.752554  " style="fill:none;stroke:#b0b0b0;stroke-linecap:square;stroke-width:0.8;"/>
     </g>
     <g id="line2d_18">
      <g>
       <use style="stroke:#000000;stroke-width:0.8;" x="30.103125" xlink:href="#m6da147a0ae" y="166.752554"/>
      </g>
     </g>
     <g id="text_9">
      <!-- 1.6 -->
      <defs>
       <path d="M 33.015625 40.375  Q 26.375 40.375 22.484375 35.828125  Q 18.609375 31.296875 18.609375 23.390625  Q 18.609375 15.53125 22.484375 10.953125  Q 26.375 6.390625 33.015625 6.390625  Q 39.65625 6.390625 43.53125 10.953125  Q 47.40625 15.53125 47.40625 23.390625  Q 47.40625 31.296875 43.53125 35.828125  Q 39.65625 40.375 33.015625 40.375  M 52.59375 71.296875  L 52.59375 62.3125  Q 48.875 64.0625 45.09375 64.984375  Q 41.3125 65.921875 37.59375 65.921875  Q 27.828125 65.921875 22.671875 59.328125  Q 17.53125 52.734375 16.796875 39.40625  Q 19.671875 43.65625 24.015625 45.921875  Q 28.375 48.1875 33.59375 48.1875  Q 44.578125 48.1875 50.953125 41.515625  Q 57.328125 34.859375 57.328125 23.390625  Q 57.328125 12.15625 50.6875 5.359375  Q 44.046875 -1.421875 33.015625 -1.421875  Q 20.359375 -1.421875 13.671875 8.265625  Q 6.984375 17.96875 6.984375 36.375  Q 6.984375 53.65625 15.1875 63.9375  Q 23.390625 74.21875 37.203125 74.21875  Q 40.921875 74.21875 44.703125 73.484375  Q 48.484375 72.75 52.59375 71.296875  " id="DejaVuSans-36"/>
      </defs>
      <g transform="translate(7.2 170.551772)scale(0.1 -0.1)">
       <use xlink:href="#DejaVuSans-31"/>
       <use x="63.623047" xlink:href="#DejaVuSans-2e"/>
       <use x="95.410156" xlink:href="#DejaVuSans-36"/>
      </g>
     </g>
    </g>
    <g id="ytick_5">
     <g id="line2d_19">
      <path clip-path="url(#pc91b83b250)" d="M 30.103125 78.696614  L 699.703125 78.696614  " style="fill:none;stroke:#b0b0b0;stroke-linecap:square;stroke-width:0.8;"/>
     </g>
     <g id="line2d_20">
      <g>
       <use style="stroke:#000000;stroke-width:0.8;" x="30.103125" xlink:href="#m6da147a0ae" y="78.696614"/>
      </g>
     </g>
     <g id="text_10">
      <!-- 1.8 -->
      <defs>
       <path d="M 31.78125 34.625  Q 24.75 34.625 20.71875 30.859375  Q 16.703125 27.09375 16.703125 20.515625  Q 16.703125 13.921875 20.71875 10.15625  Q 24.75 6.390625 31.78125 6.390625  Q 38.8125 6.390625 42.859375 10.171875  Q 46.921875 13.96875 46.921875 20.515625  Q 46.921875 27.09375 42.890625 30.859375  Q 38.875 34.625 31.78125 34.625  M 21.921875 38.8125  Q 15.578125 40.375 12.03125 44.71875  Q 8.5 49.078125 8.5 55.328125  Q 8.5 64.0625 14.71875 69.140625  Q 20.953125 74.21875 31.78125 74.21875  Q 42.671875 74.21875 48.875 69.140625  Q 55.078125 64.0625 55.078125 55.328125  Q 55.078125 49.078125 51.53125 44.71875  Q 48 40.375 41.703125 38.8125  Q 48.828125 37.15625 52.796875 32.3125  Q 56.78125 27.484375 56.78125 20.515625  Q 56.78125 9.90625 50.3125 4.234375  Q 43.84375 -1.421875 31.78125 -1.421875  Q 19.734375 -1.421875 13.25 4.234375  Q 6.78125 9.90625 6.78125 20.515625  Q 6.78125 27.484375 10.78125 32.3125  Q 14.796875 37.15625 21.921875 38.8125  M 18.3125 54.390625  Q 18.3125 48.734375 21.84375 45.5625  Q 25.390625 42.390625 31.78125 42.390625  Q 38.140625 42.390625 41.71875 45.5625  Q 45.3125 48.734375 45.3125 54.390625  Q 45.3125 60.0625 41.71875 63.234375  Q 38.140625 66.40625 31.78125 66.40625  Q 25.390625 66.40625 21.84375 63.234375  Q 18.3125 60.0625 18.3125 54.390625  " id="DejaVuSans-38"/>
      </defs>
      <g transform="translate(7.2 82.495833)scale(0.1 -0.1)">
       <use xlink:href="#DejaVuSans-31"/>
       <use x="63.623047" xlink:href="#DejaVuSans-2e"/>
       <use x="95.410156" xlink:href="#DejaVuSans-38"/>
      </g>
     </g>
    </g>
   </g>
   <g id="line2d_21">
    <path clip-path="url(#pc91b83b250)" d="M 30.103125 170.926364  L 31.445009 172.337504  L 32.786893 179.425256  L 34.128776 176.570995  L 35.47066 179.425256  L 36.812544 168.135415  L 38.154428 166.746547  L 39.496311 159.849672  L 40.838195 176.570995  L 42.180079 176.570995  L 43.521963 168.135415  L 44.863846 146.388787  L 46.20573 146.388787  L 47.547614 135.905442  L 48.889498 133.31903  L 50.231382 137.200213  L 51.573265 145.066752  L 52.915149 141.115914  L 54.257033 135.905442  L 55.598917 116.895627  L 56.9408 118.135606  L 58.282684 121.884663  L 59.624568 126.930881  L 60.966452 125.665918  L 63.650219 128.199488  L 64.992103 151.725576  L 66.333987 158.486657  L 67.67587 149.044826  L 69.017754 128.199488  L 70.359638 128.199488  L 71.701522 110.739753  L 73.043406 108.296632  L 74.385289 115.65913  L 75.727173 119.387069  L 77.069057 124.404579  L 78.410941 115.65913  L 79.752824 109.520401  L 81.094708 113.188636  L 82.436592 113.188636  L 83.778476 108.296632  L 85.120359 93.938538  L 86.462243 84.62018  L 87.804127 91.594141  L 89.146011 96.30306  L 90.487895 90.426607  L 91.829778 82.324752  L 93.171662 75.494961  L 94.513546 82.324752  L 95.85543 85.779793  L 97.197313 96.30306  L 98.539197 96.30306  L 99.881081 101.062886  L 102.564848 101.062886  L 103.906732 92.764779  L 105.248616 85.779793  L 107.932384 102.259008  L 109.274267 111.962492  L 110.616151 91.594141  L 111.958035 86.935053  L 113.299919 88.093352  L 114.641802 82.324752  L 115.983686 67.667974  L 117.32557 55.632962  L 118.667454 57.793033  L 120.009337 56.711673  L 121.351221 49.202004  L 122.693105 47.083573  L 124.034989 47.083573  L 125.376872 51.337516  L 126.718756 68.776616  L 128.06064 74.369295  L 129.402524 72.126559  L 130.744408 63.254088  L 132.086291 34.562927  L 133.428175 35.591172  L 134.770059 30.467273  L 136.111943 35.591172  L 137.453826 38.697039  L 138.79571 44.968545  L 140.137594 54.556888  L 141.479478 51.337516  L 144.163245 38.697039  L 145.505129 53.476564  L 146.847013 55.632962  L 148.188897 64.351657  L 149.53078 56.711673  L 150.872664 54.556888  L 152.214548 50.271877  L 153.556432 56.711673  L 154.898315 55.632962  L 156.240199 50.271877  L 157.582083 41.824972  L 158.923967 53.476564  L 160.26585 68.776616  L 161.607734 74.369295  L 162.949618 74.369295  L 164.291502 62.152239  L 165.633386 71.002309  L 166.975269 83.47097  L 168.317153 81.181511  L 169.659037 71.002309  L 171.000921 67.667974  L 172.342804 51.337516  L 173.684688 46.028168  L 175.026572 42.870338  L 176.368456 44.968545  L 177.710339 54.556888  L 179.052223 67.667974  L 180.394107 68.776616  L 181.735991 75.494961  L 183.077874 81.181511  L 184.419758 80.03393  L 185.761642 80.03393  L 187.103526 78.896614  L 188.44541 85.779793  L 189.787293 91.594141  L 191.129177 93.938538  L 193.812945 105.874734  L 195.154828 123.138793  L 196.496712 108.296632  L 197.838596 129.479929  L 199.18048 134.614468  L 200.522363 118.135606  L 201.864247 126.930881  L 203.206131 133.31903  L 205.889899 149.044826  L 207.231782 146.388787  L 208.573666 151.725576  L 209.91555 145.066752  L 211.257434 143.740239  L 212.599317 143.740239  L 213.941201 138.498802  L 215.283085 141.115914  L 216.624969 146.388787  L 217.966852 147.714804  L 219.308736 147.714804  L 220.65062 143.740239  L 223.334388 143.740239  L 224.676271 157.127849  L 227.360039 168.135415  L 228.701923 166.746547  L 230.043806 166.746547  L 232.727574 137.200213  L 234.069458 133.31903  L 235.411341 128.199488  L 236.753225 133.31903  L 238.095109 130.755913  L 239.436993 130.755913  L 240.778877 129.479929  L 242.12076 110.739753  L 243.462644 113.188636  L 244.804528 120.634095  L 246.146412 123.138793  L 247.488295 120.634095  L 248.830179 132.035606  L 250.172063 128.199488  L 251.513947 121.884663  L 252.85583 121.884663  L 254.197714 123.138793  L 255.539598 121.884663  L 256.881482 121.884663  L 258.223365 125.665918  L 259.565249 134.614468  L 260.907133 135.905442  L 262.249017 135.905442  L 263.590901 137.200213  L 264.932784 132.035606  L 266.274668 135.905442  L 268.958436 146.388787  L 270.300319 141.115914  L 271.642203 145.066752  L 272.984087 134.614468  L 274.325971 133.31903  L 275.667854 118.135606  L 278.351622 128.199488  L 279.693506 135.905442  L 281.03539 142.426121  L 282.377273 142.426121  L 283.719157 149.044826  L 285.061041 153.067789  L 286.402925 151.725576  L 287.744808 133.31903  L 289.086692 108.296632  L 290.428576 110.739753  L 291.77046 104.668763  L 293.112343 95.122989  L 294.454227 84.62018  L 295.796111 81.181511  L 298.479879 90.426607  L 299.821762 92.764779  L 301.163646 107.084018  L 302.50553 113.188636  L 303.847414 113.188636  L 306.531181 98.672733  L 307.873065 101.062886  L 309.214949 104.668763  L 310.556832 119.387069  L 311.898716 113.188636  L 313.2406 102.259008  L 314.582484 104.668763  L 315.924367 120.634095  L 317.266251 123.138793  L 318.608135 119.387069  L 319.950019 113.188636  L 321.291903 113.188636  L 322.633786 111.962492  L 323.97567 111.962492  L 325.317554 107.084018  L 326.659438 101.062886  L 328.001321 101.062886  L 329.343205 103.458387  L 330.685089 111.962492  L 332.026973 113.188636  L 333.368856 102.259008  L 334.71074 95.122989  L 336.052624 104.668763  L 337.394508 111.962492  L 338.736392 104.668763  L 340.078275 95.122989  L 341.420159 107.084018  L 342.762043 113.188636  L 344.103927 108.296632  L 345.44581 93.938538  L 346.787694 95.122989  L 348.129578 99.870006  L 349.471462 114.426097  L 350.813345 113.188636  L 353.497113 130.755913  L 354.838997 134.614468  L 356.180881 134.614468  L 357.522764 129.479929  L 358.864648 126.930881  L 360.206532 128.199488  L 361.548416 120.634095  L 362.890299 124.404579  L 364.232183 132.035606  L 365.574067 130.755913  L 366.915951 138.498802  L 368.257834 129.479929  L 369.599718 121.884663  L 370.941602 115.65913  L 372.283486 119.387069  L 373.625369 129.479929  L 374.967253 128.199488  L 376.309137 137.200213  L 377.651021 154.414105  L 378.992905 154.414105  L 380.334788 151.725576  L 381.676672 151.725576  L 383.018556 159.849672  L 384.36044 151.725576  L 387.044207 157.127849  L 388.386091 162.597232  L 389.727975 173.744149  L 391.069858 169.528678  L 392.411742 172.337504  L 393.753626 162.597232  L 395.09551 162.597232  L 396.437394 179.425256  L 397.779277 179.425256  L 399.121161 176.570995  L 400.463045 170.926364  L 401.804929 175.155303  L 403.146812 182.288934  L 404.488696 178.000372  L 405.83058 170.926364  L 407.172464 166.746547  L 408.514347 157.127849  L 409.856231 165.353185  L 411.198115 182.288934  L 412.539999 183.737027  L 413.881883 183.737027  L 415.223766 188.082111  L 416.56565 189.549415  L 417.907534 195.439564  L 419.249418 196.922116  L 420.591301 196.922116  L 421.933185 193.952531  L 423.275069 188.082111  L 424.616953 176.570995  L 425.958836 175.155303  L 427.30072 162.597232  L 428.642604 162.597232  L 429.984488 165.353185  L 431.326371 166.746547  L 432.668255 182.288934  L 434.010139 178.000372  L 435.352023 170.926364  L 436.693907 175.155303  L 438.03579 185.180629  L 439.377674 178.000372  L 440.719558 183.737027  L 442.061442 186.62898  L 443.403325 198.409678  L 444.745209 186.62898  L 446.087093 191.012233  L 447.428977 199.902283  L 448.77086 199.902283  L 450.112744 207.461665  L 451.454628 207.461665  L 452.796512 213.598101  L 454.138396 222.961111  L 455.480279 208.985329  L 456.822163 208.985329  L 458.164047 213.598101  L 459.505931 210.514283  L 460.847814 205.93354  L 462.189698 186.62898  L 463.531582 191.012233  L 464.873466 191.012233  L 466.215349 198.409678  L 467.557233 204.420383  L 468.899117 208.985329  L 470.241001 199.902283  L 471.582885 208.985329  L 472.924768 213.598101  L 474.266652 213.598101  L 475.608536 224.539466  L 476.95042 221.388394  L 478.292303 215.143187  L 479.634187 219.821274  L 480.976071 221.388394  L 482.317955 224.539466  L 483.659838 216.693714  L 485.001722 215.143187  L 486.343606 196.922116  L 487.68549 180.854767  L 489.027373 179.425256  L 490.369257 179.425256  L 491.711141 175.155303  L 493.053025 179.425256  L 494.394909 193.952531  L 495.736792 196.922116  L 497.078676 202.912409  L 498.42056 191.012233  L 499.762444 182.288934  L 501.104327 182.288934  L 502.446211 189.549415  L 503.788095 185.180629  L 505.129979 178.000372  L 506.471862 173.744149  L 507.813746 176.570995  L 509.15563 170.926364  L 510.497514 159.849672  L 511.839398 165.353185  L 513.181281 169.528678  L 514.523165 165.353185  L 517.206933 173.744149  L 518.548816 192.479928  L 519.8907 191.012233  L 521.232584 186.62898  L 522.574468 185.180629  L 523.916351 185.180629  L 525.258235 182.288934  L 526.600119 185.180629  L 527.942003 185.180629  L 529.283887 191.012233  L 530.62577 193.952531  L 531.967654 188.082111  L 533.309538 191.012233  L 534.651422 191.012233  L 535.993305 189.549415  L 537.335189 202.912409  L 540.018957 191.012233  L 542.702724 191.012233  L 544.044608 189.549415  L 545.386492 192.479928  L 546.728376 182.288934  L 548.070259 173.744149  L 550.754027 182.288934  L 552.095911 183.737027  L 554.779678 189.549415  L 556.121562 179.425256  L 557.463446 182.288934  L 558.805329 189.549415  L 560.147213 185.180629  L 561.489097 186.62898  L 562.830981 186.62898  L 564.172864 188.082111  L 565.514748 191.012233  L 566.856632 191.012233  L 568.198516 189.549415  L 569.5404 189.549415  L 570.882283 195.439564  L 572.224167 192.479928  L 573.566051 201.409582  L 574.907935 201.409582  L 576.249818 199.902283  L 577.591702 205.93354  L 578.933586 213.598101  L 580.27547 216.693714  L 581.617353 212.048566  L 582.959237 210.514283  L 584.301121 221.388394  L 585.643005 234.151018  L 586.984889 250.637445  L 588.326772 235.770077  L 591.01054 239.036641  L 593.694307 222.961111  L 595.036191 207.461665  L 596.378075 219.821274  L 597.719959 227.723463  L 599.061842 230.920369  L 600.403726 239.036641  L 601.74561 242.317068  L 603.087494 230.920369  L 604.429378 229.319014  L 605.771261 230.920369  L 607.113145 222.961111  L 608.455029 221.388394  L 611.138796 221.388394  L 612.48068 226.133673  L 613.822564 222.961111  L 615.164448 227.723463  L 616.506331 239.036641  L 617.848215 254.016629  L 619.190099 264.290453  L 620.531983 259.129057  L 621.873866 262.563256  L 623.21575 267.77649  L 624.557634 264.290453  L 625.899518 262.563256  L 627.241402 266.03559  L 628.583285 260.842808  L 629.925169 260.842808  L 631.267053 257.411029  L 632.608937 243.966493  L 633.95082 237.395111  L 635.292704 243.966493  L 636.634588 262.563256  L 637.976472 257.411029  L 640.660239 240.673799  L 642.002123 226.133673  L 643.344007 230.920369  L 644.685891 226.133673  L 646.027774 212.048566  L 647.369658 210.514283  L 648.711542 212.048566  L 650.053426 215.143187  L 651.395309 216.693714  L 652.737193 219.821274  L 654.079077 221.388394  L 655.420961 227.723463  L 656.762844 229.319014  L 658.104728 222.961111  L 659.446612 219.821274  L 660.788496 221.388394  L 662.13038 216.693714  L 663.472263 216.693714  L 664.814147 224.539466  L 666.156031 226.133673  L 667.497915 226.133673  L 668.839798 227.723463  L 670.181682 221.388394  L 671.523566 216.693714  L 674.207333 210.514283  L 675.549217 201.409582  L 676.891101 198.409678  L 678.232985 193.952531  L 679.574868 198.409678  L 680.916752 205.93354  L 682.258636 229.319014  L 683.60052 218.249721  L 684.942404 215.143187  L 686.284287 210.514283  L 687.626171 213.598101  L 688.968055 218.249721  L 690.309939 218.249721  L 691.651822 219.821274  L 692.993706 213.598101  L 694.33559 216.693714  L 695.677474 216.693714  L 697.019357 213.598101  L 698.361241 221.388394  L 699.703125 226.133673  L 699.703125 226.133673  " style="fill:none;stroke:#0000ff;stroke-linecap:square;stroke-width:1.5;"/>
   </g>
   <g id="line2d_22">
    <path clip-path="url(#pc91b83b250)" d="M 30.103125 199.880636  L 39.496311 198.101312  L 40.838195 197.92627  L 43.521963 198.101404  L 44.863846 198.315648  L 52.915149 197.083271  L 54.257033 196.811369  L 55.598917 196.42484  L 58.282684 195.224193  L 60.966452 194.366299  L 64.992103 193.242849  L 67.67587 193.140787  L 69.017754 193.195942  L 73.043406 192.737715  L 79.752824 190.820176  L 83.778476 188.941252  L 85.120359 188.202706  L 87.804127 186.333906  L 91.829778 183.326142  L 94.513546 180.898849  L 95.85543 179.606596  L 99.881081 176.325966  L 105.248616 172.100825  L 111.958035 166.400268  L 113.299919 165.077787  L 115.983686 162.742328  L 117.32557 161.381892  L 120.009337 158.232393  L 125.376872 151.70974  L 126.718756 150.292649  L 130.744408 146.950516  L 132.086291 145.658886  L 134.770059 142.259191  L 136.111943 140.424439  L 138.79571 137.418979  L 141.479478 134.878831  L 145.505129 131.190833  L 152.214548 125.652961  L 154.898315 122.958043  L 161.607734 115.572227  L 166.975269 110.4722  L 171.000921 107.685102  L 172.342804 106.669423  L 179.052223 100.719007  L 188.44541 94.323614  L 195.154828 91.187352  L 196.496712 90.742083  L 197.838596 90.149345  L 205.889899 88.212568  L 209.91555 88.366536  L 212.599317 88.518934  L 216.624969 88.529491  L 220.65062 89.237012  L 230.043806 90.227375  L 231.38569 90.5486  L 236.753225 91.278178  L 242.12076 91.739341  L 244.804528 91.718934  L 246.146412 91.821746  L 248.830179 92.365197  L 251.513947 92.968013  L 254.197714 93.559829  L 256.881482 94.286527  L 267.616552 96.778178  L 270.300319 97.539071  L 271.642203 97.782016  L 275.667854 99.00183  L 277.009738 99.300254  L 278.351622 99.762511  L 281.03539 101.018168  L 283.719157 102.509323  L 287.744808 105.078769  L 289.086692 105.616623  L 293.112343 106.566249  L 295.796111 107.479492  L 303.847414 110.102883  L 306.531181 111.231197  L 311.898716 112.844686  L 314.582484 113.76651  L 315.924367 114.166152  L 318.608135 115.315053  L 319.950019 115.961403  L 321.291903 116.459004  L 326.659438 117.830089  L 329.343205 118.227193  L 330.685089 118.412834  L 333.368856 119.133507  L 337.394508 120.481964  L 338.736392 121.040246  L 340.078275 121.457845  L 342.762043 122.005866  L 345.44581 122.545939  L 349.471462 122.962331  L 356.180881 124.110769  L 360.206532 124.361685  L 364.232183 124.307995  L 366.915951 124.210967  L 369.599718 123.982176  L 373.625369 123.285495  L 376.309137 123.080831  L 378.992905 123.115078  L 388.386091 123.40347  L 391.069858 123.415632  L 392.411742 123.438817  L 395.09551 123.822225  L 396.437394 124.06621  L 400.463045 125.259102  L 403.146812 125.974484  L 405.83058 127.110825  L 408.514347 127.893325  L 411.198115 128.475086  L 413.881883 129.441268  L 417.907534 131.061771  L 421.933185 132.787761  L 424.616953 133.706292  L 428.642604 134.616145  L 432.668255 135.166781  L 436.693907 136.151909  L 442.061442 137.957693  L 448.77086 139.823457  L 450.112744 140.378317  L 454.138396 142.918453  L 460.847814 148.151062  L 462.189698 149.094135  L 467.557233 151.825194  L 471.582885 154.399391  L 474.266652 155.982789  L 478.292303 158.749156  L 480.976071 160.352811  L 486.343606 163.914999  L 489.027373 165.328582  L 491.711141 166.614659  L 494.394909 167.693237  L 497.078676 169.305676  L 498.42056 170.124373  L 510.497514 175.960265  L 517.206933 177.749795  L 518.548816 178.075876  L 525.258235 180.666154  L 530.62577 182.440256  L 535.993305 184.753991  L 538.677073 185.812843  L 544.044608 187.126838  L 549.412143 188.084715  L 558.805329 188.910478  L 566.856632 189.449771  L 569.5404 189.807177  L 572.224167 190.328077  L 574.907935 190.560273  L 585.643005 191.800285  L 586.984889 192.280119  L 592.352424 194.756255  L 593.694307 195.291037  L 599.061842 196.721008  L 600.403726 197.102172  L 603.087494 198.098975  L 607.113145 199.094743  L 609.796913 199.540034  L 613.822564 199.990741  L 616.506331 200.108453  L 617.848215 200.35888  L 621.873866 201.5617  L 623.21575 202.033615  L 625.899518 203.320496  L 628.583285 204.480304  L 632.608937 205.861876  L 635.292704 206.351694  L 639.318355 207.221817  L 642.002123 207.677419  L 648.711542 207.936283  L 652.737193 208.804451  L 656.762844 209.807785  L 659.446612 210.244832  L 662.13038 210.810736  L 667.497915 212.052746  L 674.207333 214.211854  L 676.891101 214.853871  L 679.574868 215.262949  L 682.258636 215.436708  L 684.942404 216.068034  L 694.33559 217.720506  L 699.703125 218.502903  L 699.703125 218.502903  " style="fill:none;stroke:#add8e6;stroke-linecap:square;stroke-width:1.5;"/>
   </g>
   <g id="line2d_23">
    <path clip-path="url(#pc91b83b250)" d="M 30.103125 171.484235  L 35.47066 170.035246  L 38.154428 169.408589  L 40.838195 168.77569  L 42.180079 168.884982  L 43.521963 169.116498  L 44.863846 169.652498  L 48.889498 168.179654  L 50.231382 167.476293  L 51.573265 166.904355  L 52.915149 166.524296  L 54.257033 165.899863  L 55.598917 165.043782  L 58.282684 162.253959  L 59.624568 161.130614  L 64.992103 157.679593  L 66.333987 157.475396  L 67.67587 157.475396  L 69.017754 157.604599  L 70.359638 157.239765  L 71.701522 157.122376  L 73.043406 156.34376  L 74.385289 155.33661  L 78.410941 152.926398  L 79.752824 151.792508  L 85.120359 146.615464  L 86.462243 144.866969  L 87.804127 142.884614  L 93.171662 135.758505  L 94.513546 133.672656  L 97.197313 130.087657  L 99.881081 127.199702  L 105.248616 121.956319  L 106.5905 120.420214  L 107.932384 119.088867  L 109.274267 117.974084  L 110.616151 117.087656  L 114.641802 113.202107  L 115.983686 111.78421  L 117.32557 110.081193  L 120.009337 106.408423  L 122.693105 102.817669  L 126.718756 97.192923  L 129.402524 94.509305  L 132.086291 91.793465  L 134.770059 87.960641  L 138.79571 82.449166  L 140.137594 80.830498  L 142.821361 78.003011  L 146.847013 73.480852  L 148.188897 72.22832  L 150.872664 69.964181  L 153.556432 67.553357  L 156.240199 65.676591  L 157.582083 64.728718  L 158.923967 63.609354  L 160.26585 62.817301  L 161.607734 62.318989  L 165.633386 61.136229  L 168.317153 60.231864  L 169.659037 59.823828  L 172.342804 58.720524  L 175.026572 57.114319  L 177.710339 55.462859  L 179.052223 54.78069  L 181.735991 53.969074  L 185.761642 53.618238  L 188.44541 53.341572  L 191.129177 53.124364  L 193.812945 53.215996  L 201.864247 54.52979  L 205.889899 55.468508  L 217.966852 55.196796  L 230.043806 54.465369  L 231.38569 54.273215  L 234.069458 54.221044  L 239.436993 54.283161  L 246.146412 54.37282  L 251.513947 55.015646  L 254.197714 55.440594  L 256.881482 56.039505  L 259.565249 56.405964  L 272.984087 57.950006  L 277.009738 58.78025  L 278.351622 59.290023  L 282.377273 61.477815  L 287.744808 65.200265  L 289.086692 65.796642  L 291.77046 66.624244  L 293.112343 67.167019  L 295.796111 69.129689  L 299.821762 72.032709  L 303.847414 74.575562  L 306.531181 76.841681  L 309.214949 78.367202  L 310.556832 78.982927  L 317.266251 83.583018  L 318.608135 84.75219  L 319.950019 86.154997  L 321.291903 87.211319  L 323.97567 88.485392  L 325.317554 89.065954  L 326.659438 89.88306  L 328.001321 90.423616  L 330.685089 91.072018  L 333.368856 92.543139  L 336.052624 94.866191  L 338.736392 97.927969  L 340.078275 99.117061  L 341.420159 99.764686  L 344.103927 101.317331  L 345.44581 101.845923  L 348.129578 102.50815  L 353.497113 104.288262  L 356.180881 104.945839  L 357.522764 105.017744  L 358.864648 105.244492  L 370.941602 105.053012  L 373.625369 104.784769  L 387.044207 104.537779  L 389.727975 104.638911  L 397.779277 104.005586  L 400.463045 103.664883  L 404.488696 103.588606  L 411.198115 104.084856  L 413.881883 104.072493  L 419.249418 104.15372  L 425.958836 104.056448  L 429.984488 104.372638  L 435.352023 104.643208  L 436.693907 104.793646  L 439.377674 105.345014  L 442.061442 105.676142  L 446.087093 105.790263  L 450.112744 105.884909  L 454.138396 107.180143  L 455.480279 107.779841  L 462.189698 112.649709  L 464.873466 113.972003  L 466.215349 114.595938  L 467.557233 115.352081  L 471.582885 117.93503  L 474.266652 119.144809  L 476.95042 120.837944  L 480.976071 122.56953  L 485.001722 124.900864  L 486.343606 125.759163  L 489.027373 127.844158  L 491.711141 130.010288  L 494.394909 131.754217  L 495.736792 132.949058  L 497.078676 134.352434  L 498.42056 135.549303  L 499.762444 136.574389  L 501.104327 137.752131  L 502.446211 139.206012  L 503.788095 140.405814  L 506.471862 142.601631  L 510.497514 147.127587  L 514.523165 149.897523  L 518.548816 151.690034  L 522.574468 154.42585  L 525.258235 156.595547  L 529.283887 159.071281  L 530.62577 160.085859  L 531.967654 161.369317  L 534.651422 164.322736  L 538.677073 167.712587  L 548.070259 171.651091  L 550.754027 172.256714  L 553.437794 172.580562  L 554.779678 172.767959  L 557.463446 173.476963  L 560.147213 173.622451  L 562.830981 173.952846  L 568.198516 174.569742  L 569.5404 174.907758  L 570.882283 175.484709  L 572.224167 175.90633  L 580.27547 176.419944  L 584.301121 176.460648  L 586.984889 176.561479  L 588.326772 176.391552  L 593.694307 177.923711  L 596.378075 178.410511  L 599.061842 179.148081  L 609.796913 180.173802  L 613.822564 180.299218  L 617.848215 180.242761  L 619.190099 180.043914  L 620.531983 179.698257  L 623.21575 179.258946  L 631.267053 179.019713  L 636.634588 179.248203  L 639.318355 179.088862  L 648.711542 179.339602  L 652.737193 180.548332  L 655.420961 181.535911  L 658.104728 182.044562  L 659.446612 182.194959  L 660.788496 182.477773  L 663.472263 183.312867  L 664.814147 183.605558  L 666.156031 184.012745  L 668.839798 185.192182  L 671.523566 186.472222  L 672.86545 187.399649  L 675.549217 188.846944  L 676.891101 189.519291  L 678.232985 190.058746  L 679.574868 190.440574  L 680.916752 190.529854  L 682.258636 190.739862  L 687.626171 192.491024  L 692.993706 194.014217  L 698.361241 195.417233  L 699.703125 195.613728  L 699.703125 195.613728  " style="fill:none;stroke:#add8e6;stroke-dasharray:5.6,2.4;stroke-dashoffset:0;stroke-width:1.5;"/>
   </g>
   <g id="line2d_24">
    <path clip-path="url(#pc91b83b250)" d="M 30.103125 228.277038  L 31.445009 228.131654  L 34.128776 227.625586  L 36.812544 227.220711  L 39.496311 227.08391  L 47.547614 227.131119  L 52.915149 227.642247  L 55.598917 227.805898  L 60.966452 228.486485  L 64.992103 228.806105  L 71.701522 228.903062  L 75.727173 229.568773  L 79.752824 229.847843  L 82.436592 229.917457  L 87.804127 229.783198  L 89.146011 229.584997  L 93.171662 228.549839  L 94.513546 228.125042  L 95.85543 227.392175  L 97.197313 226.865392  L 99.881081 225.45223  L 102.564848 223.864845  L 103.906732 222.980664  L 107.932384 220.676052  L 109.274267 219.538567  L 113.299919 215.633872  L 117.32557 212.68259  L 118.667454 211.55174  L 124.034989 205.58347  L 125.376872 204.414055  L 126.718756 203.392375  L 129.402524 201.672706  L 130.744408 200.681501  L 132.086291 199.524307  L 133.428175 198.186106  L 134.770059 196.55774  L 136.111943 194.749882  L 140.137594 191.32471  L 144.163245 188.367045  L 146.847013 186.681607  L 152.214548 182.538773  L 153.556432 181.10734  L 154.898315 179.358294  L 161.607734 168.825465  L 165.633386 162.057025  L 166.975269 160.312338  L 172.342804 154.618323  L 177.710339 148.056295  L 180.394107 145.247325  L 181.735991 143.642112  L 184.419758 140.061192  L 187.103526 136.706114  L 188.44541 135.305657  L 191.129177 132.967103  L 196.496712 127.791044  L 197.838596 126.326283  L 201.864247 123.893873  L 204.548015 121.63835  L 205.889899 120.956627  L 208.573666 121.019289  L 211.257434 121.624881  L 212.599317 121.765416  L 215.283085 121.679829  L 216.624969 121.789143  L 220.65062 123.430975  L 224.676271 124.436996  L 226.018155 125.045809  L 228.701923 125.55897  L 230.043806 125.98938  L 231.38569 126.823985  L 234.069458 127.709265  L 235.411341 128.087574  L 242.12076 129.136521  L 244.804528 129.104977  L 246.146412 129.270672  L 248.830179 130.006511  L 251.513947 130.920381  L 254.197714 131.679065  L 256.881482 132.53355  L 260.907133 133.748579  L 267.616552 136.193553  L 270.300319 137.412243  L 271.642203 137.83223  L 272.984087 138.505236  L 275.667854 139.513818  L 278.351622 140.234998  L 281.03539 141.305119  L 285.061041 143.386606  L 287.744808 144.957274  L 289.086692 145.436603  L 293.112343 145.965479  L 295.796111 145.829294  L 298.479879 145.556026  L 301.163646 145.427341  L 305.189297 145.689857  L 307.873065 145.604757  L 310.556832 145.661854  L 313.2406 145.843073  L 315.924367 145.749204  L 318.608135 145.877916  L 321.291903 145.706689  L 326.659438 145.777118  L 330.685089 145.753649  L 333.368856 145.723876  L 334.71074 145.454467  L 337.394508 144.602494  L 340.078275 143.79863  L 344.103927 143.322628  L 352.155229 142.895109  L 354.838997 143.083354  L 357.522764 143.395055  L 358.864648 143.521362  L 366.915951 143.260216  L 369.599718 142.835667  L 372.283486 142.079392  L 374.967253 141.580489  L 377.651021 141.38505  L 381.676672 141.77466  L 383.018556 141.929508  L 384.36044 142.269086  L 385.702323 142.421855  L 388.386091 142.225978  L 389.727975 142.075727  L 391.069858 142.280672  L 392.411742 142.359184  L 396.437394 143.923501  L 399.121161 145.955542  L 400.463045 146.853321  L 403.146812 148.420799  L 404.488696 149.552848  L 405.83058 150.533161  L 408.514347 151.91077  L 411.198115 152.865316  L 415.223766 155.794667  L 417.907534 157.96279  L 421.933185 161.551116  L 423.275069 162.570822  L 424.616953 163.429137  L 427.30072 164.605007  L 429.984488 165.217673  L 432.668255 165.831923  L 439.377674 168.943164  L 443.403325 170.909797  L 444.745209 171.833105  L 447.428977 173.049738  L 448.77086 173.884131  L 450.112744 174.871725  L 454.138396 178.656763  L 455.480279 180.187701  L 460.847814 184.576524  L 462.189698 185.538561  L 464.873466 186.839077  L 467.557233 188.298308  L 472.924768 191.804262  L 476.95042 194.98113  L 478.292303 196.109267  L 480.976071 198.136092  L 485.001722 201.209456  L 486.343606 202.070835  L 487.68549 202.575613  L 491.711141 203.219029  L 494.394909 203.632258  L 499.762444 204.991853  L 501.104327 205.107781  L 502.446211 205.106666  L 505.129979 205.431258  L 506.471862 205.447065  L 511.839398 204.650293  L 514.523165 204.443542  L 518.548816 204.461717  L 521.232584 204.755285  L 522.574468 204.817749  L 526.600119 204.735852  L 531.967654 204.712325  L 534.651422 204.159709  L 537.335189 203.831837  L 545.386492 204.263208  L 548.070259 204.2414  L 550.754027 204.169434  L 565.514748 204.519773  L 569.5404 204.706597  L 570.882283 204.670005  L 574.907935 204.985774  L 578.933586 205.475468  L 584.301121 206.584818  L 585.643005 207.103379  L 586.984889 207.998759  L 588.326772 209.426721  L 593.694307 212.658362  L 595.036191 213.137724  L 596.378075 213.340453  L 597.719959 213.731308  L 600.403726 214.917071  L 603.087494 216.639698  L 605.771261 217.686111  L 607.113145 218.247868  L 609.796913 218.906266  L 613.822564 219.682264  L 616.506331 219.92383  L 617.848215 220.474999  L 619.190099 221.424368  L 620.531983 222.614897  L 623.21575 224.808284  L 625.899518 227.463647  L 629.925169 230.817016  L 632.608937 232.64372  L 633.95082 233.158957  L 635.292704 233.499393  L 636.634588 233.961324  L 639.318355 235.354772  L 640.660239 235.884929  L 642.002123 236.198245  L 648.711542 236.532965  L 652.737193 237.06057  L 656.762844 237.810104  L 658.104728 238.110956  L 666.156031 239.290525  L 670.181682 240.046015  L 671.523566 240.200004  L 676.891101 240.188451  L 680.916752 240.094873  L 682.258636 240.133554  L 683.60052 240.378069  L 687.626171 240.614842  L 691.651822 240.883034  L 695.677474 241.145007  L 699.703125 241.392078  L 699.703125 241.392078  " style="fill:none;stroke:#add8e6;stroke-dasharray:5.6,2.4;stroke-dashoffset:0;stroke-width:1.5;"/>
   </g>
   <g id="line2d_25">
    <path clip-path="url(#pc91b83b250)" d="M 30.103125 286.519  L 31.445009 297.589932  L 32.786893 294.798964  L 36.812544 289.257809  L 38.154428 294.798964  L 39.496311 295.727322  L 40.838195 298.5242  L 42.180079 293.872559  L 43.521963 292.013762  L 44.863846 293.872559  L 47.547614 293.872559  L 48.889498 291.093193  L 50.231382 291.093193  L 51.573265 298.5242  L 52.915149 294.798964  L 54.257033 287.430044  L 55.598917 283.785526  L 56.9408 281.980293  L 58.282684 271.279078  L 59.624568 250.637445  L 60.966452 242.317068  L 62.308335 241.494667  L 63.650219 239.854459  L 64.992103 240.673799  L 66.333987 243.141008  L 67.67587 237.395111  L 69.017754 232.537891  L 70.359638 230.920369  L 71.701522 227.723463  L 73.043406 230.118964  L 74.385289 234.151018  L 75.727173 237.395111  L 77.069057 230.118964  L 78.410941 228.520516  L 79.752824 224.539466  L 81.094708 221.388394  L 82.436592 229.319014  L 83.778476 233.343716  L 85.120359 226.133673  L 86.462243 227.723463  L 87.804127 230.118964  L 89.146011 235.770077  L 90.487895 235.770077  L 93.171662 229.319014  L 94.513546 227.723463  L 95.85543 224.539466  L 97.197313 230.920369  L 98.539197 235.770077  L 101.222965 235.770077  L 102.564848 226.92785  L 103.906732 225.340925  L 105.248616 226.92785  L 106.5905 234.151018  L 107.932384 239.036641  L 109.274267 240.673799  L 110.616151 240.673799  L 111.958035 239.036641  L 113.299919 234.151018  L 114.641802 231.733539  L 115.983686 212.048566  L 117.32557 206.701806  L 118.667454 202.160354  L 120.009337 195.439564  L 121.351221 186.62898  L 122.693105 192.479928  L 124.034989 195.439564  L 125.376872 194.700155  L 126.718756 205.176311  L 128.06064 210.514283  L 129.402524 205.93354  L 130.744408 210.514283  L 132.086291 215.917768  L 133.428175 214.369966  L 134.770059 204.420383  L 136.111943 205.93354  L 137.453826 214.369966  L 138.79571 207.461665  L 140.137594 210.514283  L 141.479478 203.66575  L 142.821361 198.409678  L 144.163245 196.922116  L 145.505129 203.66575  L 146.847013 219.821274  L 148.188897 221.388394  L 149.53078 223.749581  L 150.872664 229.319014  L 152.214548 235.770077  L 153.556432 234.151018  L 154.898315 235.770077  L 156.240199 230.920369  L 157.582083 229.319014  L 158.923967 236.581844  L 160.26585 241.494667  L 161.607734 240.673799  L 164.291502 240.673799  L 166.975269 256.559972  L 168.317153 254.862779  L 169.659037 248.127988  L 171.000921 239.036641  L 172.342804 222.961111  L 173.684688 228.520516  L 175.026572 232.537891  L 176.368456 237.395111  L 177.710339 245.632754  L 179.052223 239.036641  L 180.394107 241.494667  L 181.735991 248.962886  L 183.077874 259.129057  L 185.761642 259.129057  L 187.103526 256.559972  L 188.44541 262.563256  L 189.787293 255.710558  L 191.129177 254.016629  L 192.471061 259.985099  L 193.812945 267.77649  L 195.154828 274.821115  L 196.496712 271.279078  L 197.838596 276.597174  L 199.18048 280.18243  L 200.522363 282.881984  L 201.864247 303.237631  L 203.206131 309.917452  L 204.548015 306.082783  L 205.889899 305.132355  L 207.231782 302.293318  L 208.573666 298.5242  L 209.91555 293.872559  L 211.257434 291.093193  L 212.599317 291.093193  L 213.941201 287.430044  L 215.283085 285.598192  L 216.624969 291.093193  L 217.966852 292.013762  L 219.308736 292.013762  L 220.65062 284.690927  L 221.992504 269.524301  L 224.676271 278.380426  L 226.018155 283.785526  L 227.360039 281.980293  L 228.701923 281.980293  L 230.043806 280.18243  L 231.38569 272.17039  L 232.727574 262.563256  L 234.069458 256.559972  L 235.411341 254.016629  L 236.753225 259.985099  L 238.095109 269.524301  L 239.436993 276.597174  L 240.778877 274.821115  L 242.12076 280.18243  L 243.462644 283.785526  L 244.804528 285.598192  L 246.146412 283.785526  L 247.488295 279.286245  L 250.172063 259.129057  L 251.513947 257.411029  L 252.85583 252.329193  L 254.197714 240.673799  L 255.539598 243.966493  L 256.881482 251.487894  L 258.223365 257.411029  L 259.565249 262.563256  L 260.907133 266.03559  L 262.249017 266.03559  L 263.590901 263.426008  L 264.932784 259.129057  L 266.274668 266.03559  L 267.616552 260.842808  L 268.958436 266.03559  L 270.300319 260.842808  L 271.642203 262.563256  L 272.984087 250.637445  L 274.325971 243.966493  L 275.667854 247.294671  L 277.009738 243.966493  L 278.351622 222.961111  L 279.693506 232.537891  L 281.03539 235.770077  L 282.377273 230.920369  L 283.719157 232.537891  L 285.061041 229.319014  L 287.744808 232.537891  L 289.086692 208.985329  L 291.77046 205.93354  L 293.112343 215.143187  L 294.454227 213.598101  L 295.796111 208.985329  L 297.137995 215.143187  L 298.479879 207.461665  L 299.821762 205.93354  L 301.163646 215.143187  L 302.50553 221.388394  L 303.847414 222.961111  L 305.189297 215.143187  L 306.531181 218.249721  L 307.873065 219.821274  L 309.214949 219.821274  L 310.556832 221.388394  L 311.898716 221.388394  L 313.2406 219.821274  L 314.582484 204.420383  L 315.924367 208.985329  L 317.266251 208.985329  L 318.608135 204.420383  L 319.950019 201.409582  L 321.291903 201.409582  L 322.633786 193.952531  L 323.97567 199.902283  L 326.659438 215.143187  L 328.001321 213.598101  L 329.343205 215.143187  L 330.685089 230.920369  L 332.026973 237.395111  L 333.368856 237.395111  L 334.71074 248.962886  L 336.052624 250.637445  L 337.394508 255.710558  L 338.736392 254.016629  L 340.078275 262.563256  L 341.420159 267.77649  L 342.762043 274.821115  L 344.103927 271.279078  L 345.44581 262.563256  L 346.787694 240.673799  L 349.471462 243.966493  L 350.813345 250.637445  L 352.155229 247.294671  L 353.497113 252.329193  L 354.838997 264.290453  L 357.522764 264.290453  L 358.864648 254.016629  L 360.206532 247.294671  L 361.548416 250.637445  L 362.890299 248.962886  L 364.232183 250.637445  L 365.574067 247.294671  L 366.915951 254.016629  L 368.257834 252.329193  L 369.599718 248.962886  L 370.941602 260.842808  L 372.283486 269.524301  L 374.967253 266.03559  L 376.309137 266.03559  L 377.651021 285.598192  L 378.992905 285.598192  L 383.018556 280.18243  L 384.36044 274.821115  L 385.702323 278.380426  L 387.044207 283.785526  L 389.727975 287.430044  L 392.411742 298.5242  L 393.753626 309.917452  L 395.09551 309.917452  L 396.437394 307.989817  L 397.779277 309.917452  L 399.121161 306.082783  L 400.463045 307.989817  L 401.804929 319.633969  L 403.146812 321.600745  L 404.488696 329.569769  L 405.83058 327.567152  L 407.172464 339.734976  L 409.856231 323.576346  L 411.198115 306.082783  L 412.539999 323.576346  L 413.881883 321.600745  L 415.223766 311.841205  L 416.56565 307.989817  L 417.907534 321.600745  L 419.249418 313.7734  L 420.591301 307.989817  L 421.933185 315.714112  L 423.275069 325.573602  L 424.616953 321.600745  L 425.958836 296.657642  L 427.30072 315.714112  L 428.642604 319.633969  L 429.984488 317.67594  L 431.326371 319.633969  L 432.668255 317.67594  L 435.352023 329.569769  L 436.693907 329.569769  L 438.03579 323.576346  L 440.719558 323.576346  L 442.061442 325.573602  L 444.745209 325.573602  L 446.087093 319.633969  L 447.428977 317.67594  L 448.77086 323.576346  L 450.112744 335.645905  L 451.454628 341.807071  L 452.796512 337.685693  L 454.138396 348.042261  L 455.480279 345.954038  L 456.822163 345.954038  L 458.164047 354.380636  L 459.505931 339.734976  L 460.847814 339.734976  L 462.189698 337.685693  L 463.531582 354.380636  L 464.873466 360.811594  L 466.215349 360.811594  L 467.557233 358.662069  L 468.899117 352.262205  L 470.241001 333.615523  L 471.582885 343.875672  L 472.924768 352.262205  L 474.266652 352.262205  L 476.95042 348.042261  L 478.292303 339.734976  L 479.634187 348.042261  L 480.976071 358.662069  L 482.317955 356.509309  L 485.001722 369.530289  L 486.343606 367.33788  L 487.68549 360.811594  L 489.027373 369.530289  L 490.369257 376.188093  L 491.711141 392.10627  L 493.053025 403.858981  L 494.394909 382.933597  L 495.736792 378.425131  L 497.078676 401.474117  L 498.42056 401.474117  L 499.762444 389.798812  L 501.104327 376.188093  L 502.446211 376.188093  L 503.788095 382.933597  L 505.129979 382.933597  L 506.471862 387.503384  L 507.813746 382.933597  L 509.15563 385.219862  L 510.497514 378.425131  L 511.839398 387.503384  L 513.181281 382.933597  L 514.523165 387.503384  L 515.865049 399.11717  L 517.206933 399.11717  L 518.548816 401.474117  L 519.8907 401.474117  L 521.232584 399.11717  L 522.574468 406.241519  L 523.916351 403.858981  L 525.258235 403.858981  L 526.600119 396.772773  L 527.942003 382.933597  L 529.283887 373.948132  L 530.62577 373.948132  L 531.967654 356.509309  L 533.309538 358.662069  L 534.651422 358.662069  L 535.993305 350.153918  L 537.335189 345.954038  L 538.677073 333.615523  L 540.018957 335.645905  L 541.36084 335.645905  L 544.044608 343.875672  L 545.386492 343.875672  L 546.728376 341.807071  L 548.070259 348.042261  L 549.412143 352.262205  L 550.754027 367.33788  L 552.095911 369.530289  L 553.437794 369.530289  L 554.779678 367.33788  L 556.121562 369.530289  L 557.463446 373.948132  L 558.805329 373.948132  L 560.147213 365.142386  L 561.489097 358.662069  L 562.830981 358.662069  L 564.172864 356.509309  L 565.514748 358.662069  L 566.856632 362.971665  L 568.198516 360.811594  L 569.5404 360.811594  L 570.882283 352.262205  L 572.224167 358.662069  L 574.907935 362.971665  L 576.249818 360.811594  L 577.591702 367.33788  L 578.933586 376.188093  L 580.27547 387.503384  L 581.617353 382.933597  L 582.959237 380.673593  L 584.301121 380.673593  L 585.643005 376.188093  L 586.984889 382.933597  L 588.326772 380.673593  L 589.668656 387.503384  L 591.01054 401.474117  L 592.352424 411.045625  L 593.694307 408.63702  L 595.036191 403.858981  L 596.378075 406.241519  L 597.719959 418.367268  L 599.061842 420.829847  L 600.403726 425.812727  L 601.74561 425.812727  L 603.087494 420.829847  L 604.429378 423.322198  L 605.771261 415.918385  L 607.113145 406.241519  L 608.455029 406.241519  L 609.796913 396.772773  L 611.138796 396.772773  L 612.48068 406.241519  L 613.822564 406.241519  L 615.164448 411.045625  L 616.506331 413.483048  L 617.848215 420.829847  L 619.190099 418.367268  L 620.531983 401.474117  L 621.873866 394.440794  L 623.21575 396.772773  L 624.557634 389.798812  L 625.899518 378.425131  L 627.241402 378.425131  L 628.583285 387.503384  L 629.925169 387.503384  L 631.267053 392.10627  L 633.95082 392.10627  L 635.292704 382.933597  L 636.634588 382.933597  L 637.976472 396.772773  L 639.318355 389.798812  L 640.660239 394.440794  L 642.002123 382.933597  L 643.344007 385.219862  L 644.685891 378.425131  L 646.027774 380.673593  L 647.369658 380.673593  L 648.711542 378.425131  L 650.053426 382.933597  L 651.395309 367.33788  L 652.737193 369.530289  L 654.079077 376.188093  L 655.420961 373.948132  L 658.104728 360.811594  L 659.446612 362.971665  L 660.788496 354.380636  L 662.13038 358.662069  L 663.472263 358.662069  L 664.814147 369.530289  L 666.156031 371.733669  L 667.497915 385.219862  L 668.839798 380.673593  L 670.181682 367.33788  L 671.523566 365.142386  L 676.891101 373.948132  L 678.232985 365.142386  L 679.574868 365.142386  L 680.916752 378.425131  L 682.258636 371.733669  L 683.60052 369.530289  L 684.942404 378.425131  L 686.284287 373.948132  L 687.626171 367.33788  L 688.968055 345.954038  L 690.309939 350.153918  L 691.651822 350.153918  L 692.993706 345.954038  L 694.33559 343.875672  L 695.677474 337.685693  L 697.019357 341.807071  L 698.361241 362.971665  L 699.703125 373.948132  L 699.703125 373.948132  " style="fill:none;stroke:#008000;stroke-linecap:square;stroke-width:1.5;"/>
   </g>
   <g id="line2d_26">
    <path clip-path="url(#pc91b83b250)" d="M 30.103125 291.340971  L 34.128776 290.459261  L 38.154428 289.851041  L 39.496311 289.796441  L 46.20573 290.450108  L 50.231382 291.115579  L 51.573265 291.258558  L 54.257033 291.769026  L 56.9408 291.941322  L 59.624568 292.059418  L 62.308335 291.623857  L 66.333987 290.717457  L 78.410941 290.28156  L 86.462243 288.946501  L 89.146011 288.736931  L 93.171662 288.796238  L 95.85543 288.399044  L 98.539197 287.846812  L 101.222965 287.031449  L 113.299919 281.507269  L 118.667454 278.879594  L 121.351221 277.123194  L 125.376872 273.944733  L 128.06064 271.941618  L 134.770059 267.16054  L 137.453826 264.959738  L 142.821361 261.204681  L 146.847013 257.998814  L 157.582083 251.005316  L 160.26585 249.420036  L 164.291502 247.395005  L 165.633386 246.777764  L 166.975269 246.364753  L 171.000921 245.576926  L 172.342804 245.219062  L 177.710339 243.047035  L 180.394107 242.218807  L 183.077874 241.47735  L 185.761642 241.111206  L 188.44541 240.850387  L 191.129177 240.507101  L 195.154828 239.697687  L 201.864247 239.047255  L 204.548015 239.220241  L 208.573666 239.501488  L 212.599317 239.563413  L 216.624969 239.424815  L 219.308736 239.569324  L 221.992504 240.025892  L 224.676271 240.522962  L 230.043806 241.89848  L 232.727574 242.639268  L 235.411341 243.149941  L 238.095109 243.503738  L 240.778877 244.232754  L 244.804528 245.595606  L 250.172063 247.26956  L 254.197714 247.809487  L 256.881482 248.039468  L 263.590901 249.212496  L 268.958436 250.346544  L 272.984087 250.922023  L 277.009738 251.230168  L 278.351622 251.496151  L 279.693506 251.631645  L 282.377273 252.220879  L 285.061041 252.92379  L 289.086692 253.735967  L 297.137995 253.722941  L 298.479879 253.799688  L 301.163646 253.729385  L 303.847414 253.915648  L 306.531181 254.272085  L 307.873065 254.393618  L 313.2406 254.294794  L 314.582484 254.161887  L 318.608135 253.508134  L 321.291903 253.007543  L 330.685089 250.696783  L 332.026973 250.553386  L 333.368856 250.539707  L 337.394508 250.981173  L 346.787694 251.964091  L 350.813345 251.536634  L 358.864648 251.199498  L 361.548416 250.737262  L 362.890299 250.468557  L 370.941602 247.777024  L 373.625369 247.322035  L 377.651021 246.786421  L 383.018556 246.596009  L 385.702323 246.692204  L 391.069858 246.767768  L 392.411742 246.87405  L 393.753626 247.093665  L 397.779277 248.382705  L 400.463045 249.103462  L 403.146812 249.738508  L 407.172464 250.814938  L 411.198115 252.167411  L 412.539999 252.558692  L 420.591301 255.867882  L 423.275069 256.660424  L 425.958836 257.641364  L 428.642604 258.36809  L 435.352023 260.845375  L 442.061442 264.504891  L 450.112744 269.05157  L 454.138396 272.324555  L 466.215349 282.332231  L 468.899117 284.716237  L 470.241001 285.819911  L 472.924768 287.788924  L 476.95042 291.19766  L 482.317955 295.953334  L 485.001722 298.654325  L 487.68549 301.400193  L 490.369257 303.913532  L 495.736792 309.198808  L 497.078676 310.27766  L 499.762444 312.749329  L 501.104327 313.880847  L 507.813746 318.60371  L 513.181281 323.241103  L 521.232584 330.117001  L 529.283887 337.566494  L 531.967654 339.621529  L 535.993305 341.918945  L 538.677073 343.285918  L 542.702724 344.535296  L 545.386492 345.547362  L 557.463446 350.613556  L 561.489097 352.188961  L 564.172864 352.936463  L 568.198516 353.764842  L 570.882283 354.184064  L 572.224167 354.423113  L 573.566051 354.861273  L 576.249818 355.516325  L 578.933586 356.418979  L 580.27547 356.873873  L 584.301121 358.65415  L 586.984889 359.568211  L 588.326772 360.287178  L 591.01054 361.394085  L 599.061842 365.660108  L 608.455029 371.25747  L 609.796913 371.995517  L 612.48068 373.114878  L 617.848215 375.3109  L 620.531983 376.468087  L 624.557634 377.930854  L 625.899518 378.226005  L 629.925169 378.759908  L 631.267053 379.053585  L 633.95082 379.942929  L 636.634588 380.530558  L 637.976472 380.803722  L 642.002123 382.013663  L 646.027774 382.583959  L 652.737193 382.972673  L 656.762844 382.47907  L 658.104728 382.386676  L 662.13038 381.431817  L 667.497915 380.934689  L 670.181682 380.896827  L 678.232985 380.016224  L 682.258636 379.238262  L 688.968055 377.997642  L 691.651822 377.491194  L 694.33559 377.204949  L 698.361241 376.837368  L 699.703125 376.979182  L 699.703125 376.979182  " style="fill:none;stroke:#90ee90;stroke-linecap:square;stroke-width:1.5;"/>
   </g>
   <g id="line2d_27">
    <path clip-path="url(#pc91b83b250)" d="M 30.103125 260.109445  L 31.445009 259.940621  L 32.786893 259.871037  L 39.496311 259.411595  L 44.863846 259.947063  L 46.20573 260.137624  L 50.231382 261.053623  L 51.573265 261.238225  L 54.257033 261.923402  L 56.9408 262.162681  L 59.624568 262.351895  L 60.966452 262.011854  L 63.650219 260.799006  L 64.992103 260.099361  L 66.333987 259.579424  L 70.359638 259.15017  L 71.701522 259.229248  L 73.043406 259.189425  L 75.727173 258.799603  L 77.069057 258.709974  L 78.410941 258.416487  L 81.094708 257.156196  L 82.436592 256.338185  L 83.778476 255.791961  L 85.120359 255.504853  L 87.804127 254.768079  L 89.146011 254.541373  L 90.487895 254.611701  L 91.829778 254.886986  L 93.171662 254.714262  L 94.513546 254.341749  L 98.539197 252.513935  L 102.564848 250.219597  L 107.932384 246.518281  L 111.958035 244.36934  L 114.641802 242.880622  L 115.983686 242.081467  L 118.667454 239.646147  L 121.351221 236.70837  L 122.693105 234.956171  L 125.376872 231.93566  L 126.718756 230.490203  L 129.402524 228.274588  L 130.744408 227.152271  L 133.428175 225.311642  L 136.111943 223.499575  L 137.453826 222.529345  L 138.79571 221.723409  L 146.847013 216.099938  L 149.53078 215.052241  L 152.214548 214.330275  L 160.26585 213.620471  L 164.291502 213.537389  L 171.000921 213.182768  L 172.342804 212.993675  L 175.026572 212.378159  L 177.710339 212.121375  L 184.419758 211.870239  L 192.471061 211.836131  L 197.838596 212.254182  L 203.206131 212.462872  L 207.231782 212.022413  L 211.257434 211.878632  L 213.941201 211.941669  L 216.624969 212.0077  L 221.992504 211.810141  L 230.043806 212.446855  L 239.436993 213.949146  L 242.12076 214.580058  L 244.804528 215.258103  L 247.488295 215.839403  L 250.172063 216.472641  L 259.565249 217.921072  L 263.590901 218.612266  L 268.958436 219.915065  L 272.984087 220.469731  L 277.009738 220.88022  L 278.351622 221.353314  L 279.693506 221.655774  L 281.03539 222.203393  L 282.377273 222.958615  L 285.061041 224.697827  L 289.086692 226.664414  L 295.796111 226.531531  L 298.479879 226.83658  L 299.821762 226.686899  L 301.163646 226.651847  L 302.50553 226.749269  L 303.847414 227.125657  L 306.531181 228.098169  L 307.873065 228.423591  L 311.898716 228.349461  L 313.2406 228.209243  L 314.582484 227.940881  L 317.266251 226.875775  L 319.950019 225.974012  L 322.633786 224.60068  L 323.97567 223.723757  L 325.317554 223.004717  L 330.685089 220.92618  L 332.026973 220.728912  L 333.368856 220.70953  L 338.736392 221.52738  L 340.078275 221.600444  L 344.103927 222.136559  L 346.787694 222.212041  L 350.813345 221.773602  L 360.206532 221.452024  L 362.890299 221.178866  L 365.574067 221.169073  L 370.941602 221.231544  L 384.36044 221.530895  L 392.411742 221.43035  L 395.09551 221.118368  L 400.463045 220.618151  L 403.146812 220.24209  L 405.83058 219.660524  L 407.172464 219.376306  L 408.514347 218.947348  L 409.856231 218.658229  L 411.198115 218.501336  L 413.881883 218.481348  L 415.223766 218.498881  L 417.907534 218.926199  L 423.275069 219.185078  L 425.958836 219.201088  L 428.642604 219.411145  L 434.010139 219.795309  L 438.03579 220.511777  L 439.377674 220.836794  L 440.719558 221.475926  L 446.087093 223.553984  L 450.112744 225.389067  L 459.505931 232.351139  L 463.531582 235.901432  L 467.557233 238.787454  L 471.582885 242.080908  L 475.608536 245.525094  L 480.976071 251.873727  L 483.659838 255.497989  L 486.343606 259.499765  L 489.027373 262.920319  L 491.711141 266.258208  L 493.053025 267.407879  L 494.394909 268.321975  L 495.736792 269.486355  L 497.078676 270.456986  L 505.129979 275.052394  L 506.471862 275.757599  L 507.813746 276.624577  L 511.839398 280.805212  L 514.523165 283.417693  L 515.865049 284.683575  L 519.8907 287.664804  L 521.232584 288.946471  L 527.942003 296.558946  L 530.62577 299.805043  L 531.967654 301.602787  L 533.309538 303.06867  L 535.993305 305.700532  L 538.677073 308.446028  L 542.702724 310.944678  L 545.386492 312.992641  L 548.070259 315.365983  L 553.437794 319.669474  L 554.779678 320.573929  L 558.805329 322.663696  L 562.830981 324.870498  L 565.514748 325.797805  L 572.224167 327.407039  L 573.566051 328.211907  L 576.249818 329.189812  L 577.591702 329.902816  L 578.933586 330.754551  L 580.27547 331.348379  L 581.617353 332.122103  L 582.959237 333.05485  L 584.301121 333.819148  L 586.984889 335.03539  L 588.326772 336.356706  L 591.01054 337.929954  L 595.036191 340.121785  L 596.378075 340.797386  L 603.087494 343.596737  L 607.113145 345.621832  L 611.138796 348.526236  L 612.48068 349.177926  L 617.848215 351.184662  L 621.873866 352.560449  L 624.557634 353.915222  L 625.899518 354.284708  L 629.925169 354.983681  L 631.267053 355.390022  L 632.608937 356.221346  L 633.95082 356.828404  L 639.318355 358.680936  L 640.660239 359.411261  L 642.002123 359.984364  L 646.027774 360.856828  L 648.711542 361.138416  L 651.395309 361.522958  L 654.079077 361.204127  L 658.104728 360.830022  L 663.472263 359.492199  L 666.156031 359.116523  L 668.839798 358.993257  L 670.181682 358.975201  L 676.891101 358.178429  L 679.574868 357.77646  L 680.916752 357.525575  L 683.60052 357.265953  L 686.284287 357.000943  L 688.968055 356.675576  L 690.309939 356.173008  L 692.993706 355.491357  L 695.677474 355.028311  L 697.019357 354.624338  L 698.361241 354.457751  L 699.703125 354.743453  L 699.703125 354.743453  " style="fill:none;stroke:#90ee90;stroke-dasharray:5.6,2.4;stroke-dashoffset:0;stroke-width:1.5;"/>
   </g>
   <g id="line2d_28">
    <path clip-path="url(#pc91b83b250)" d="M 30.103125 322.572497  L 35.47066 320.76025  L 38.154428 320.250835  L 39.496311 320.181287  L 51.573265 321.27889  L 54.257033 321.614651  L 58.282684 321.757904  L 69.017754 321.89098  L 71.701522 321.930451  L 77.069057 322.07018  L 81.094708 322.405897  L 83.778476 322.658543  L 90.487895 322.916031  L 91.829778 322.841088  L 95.85543 323.036327  L 98.539197 323.179689  L 101.222965 322.991709  L 102.564848 322.639638  L 106.5905 322.097613  L 107.932384 321.753507  L 110.616151 320.664206  L 111.958035 320.170829  L 113.299919 319.348766  L 115.983686 318.4943  L 120.009337 317.811485  L 121.351221 317.538018  L 122.693105 317.1061  L 126.718756 315.317032  L 128.06064 314.572363  L 129.402524 313.690993  L 130.744408 312.950936  L 134.770059 309.867569  L 136.111943 308.497251  L 138.79571 306.342673  L 140.137594 305.554585  L 141.479478 304.594053  L 148.188897 298.671899  L 150.872664 295.971682  L 152.214548 294.600074  L 160.26585 285.2196  L 162.949618 282.490296  L 165.633386 280.067678  L 166.975269 279.312968  L 169.659037 278.505281  L 172.342804 277.444449  L 176.368456 274.977818  L 177.710339 273.972695  L 179.052223 273.316392  L 180.394107 272.475125  L 183.077874 271.097572  L 184.419758 270.643309  L 191.129177 269.193293  L 192.471061 268.636364  L 193.812945 267.888972  L 195.154828 267.324943  L 199.18048 266.231998  L 201.864247 265.578795  L 203.206131 265.710196  L 205.889899 266.538055  L 208.573666 267.061307  L 211.257434 267.248194  L 212.599317 267.248194  L 215.283085 266.883616  L 216.624969 266.841929  L 219.308736 267.238734  L 220.65062 267.674697  L 221.992504 268.241643  L 224.676271 269.032474  L 227.360039 270.18764  L 232.727574 272.390116  L 235.411341 272.92623  L 238.095109 273.318438  L 239.436993 273.715084  L 243.462644 275.310022  L 248.830179 277.708881  L 250.172063 278.066478  L 254.197714 278.572636  L 256.881482 278.708779  L 259.565249 279.048516  L 263.590901 279.812726  L 270.300319 281.018497  L 274.325971 281.451347  L 279.693506 281.607516  L 282.377273 281.483142  L 286.402925 281.018678  L 289.086692 280.80752  L 302.50553 280.786649  L 310.556832 280.367711  L 315.924367 280.464198  L 322.633786 280.746321  L 325.317554 280.884071  L 328.001321 280.780639  L 332.026973 280.37786  L 334.71074 280.407013  L 341.420159 280.999594  L 345.44581 281.678893  L 346.787694 281.716142  L 350.813345 281.299665  L 356.180881 281.082964  L 360.206532 280.570629  L 362.890299 279.758249  L 364.232183 278.900503  L 366.915951 276.903861  L 370.941602 274.322503  L 372.283486 273.734679  L 377.651021 272.152196  L 383.018556 271.649282  L 384.36044 271.838758  L 389.727975 271.929239  L 391.069858 272.043526  L 392.411742 272.31775  L 393.753626 272.869115  L 399.121161 276.861969  L 401.804929 278.2464  L 407.172464 282.253569  L 408.514347 283.615018  L 411.198115 285.833485  L 412.539999 286.577369  L 415.223766 288.875784  L 420.591301 292.655839  L 423.275069 294.13577  L 425.958836 296.08164  L 427.30072 296.558891  L 429.984488 298.213983  L 434.010139 300.679793  L 435.352023 301.688251  L 438.03579 303.976947  L 447.428977 310.960869  L 450.112744 312.714073  L 454.138396 316.156879  L 456.822163 318.734815  L 458.164047 319.937738  L 459.505931 321.322323  L 463.531582 324.248984  L 466.215349 326.952908  L 468.899117 329.588781  L 470.241001 330.71164  L 471.582885 331.455485  L 472.924768 332.369058  L 475.608536 334.441333  L 478.292303 336.093673  L 480.976071 337.412067  L 483.659838 338.993675  L 485.001722 339.733805  L 491.711141 344.252938  L 493.053025 345.789698  L 494.394909 347.65  L 497.078676 350.098334  L 499.762444 353.546285  L 501.104327 354.917422  L 505.129979 358.211781  L 509.15563 361.557283  L 510.497514 362.557484  L 511.839398 363.395895  L 513.181281 364.436046  L 515.865049 366.312183  L 521.232584 371.287531  L 522.574468 372.318282  L 525.258235 374.569874  L 526.600119 375.612637  L 527.942003 376.425427  L 529.283887 376.993171  L 531.967654 377.640271  L 537.335189 378.165097  L 541.36084 378.139727  L 546.728376 378.02053  L 549.412143 377.932441  L 550.754027 377.96359  L 553.437794 378.423648  L 557.463446 379.305336  L 560.147213 380.016433  L 562.830981 380.35196  L 572.224167 381.439186  L 574.907935 381.669953  L 580.27547 382.399367  L 581.617353 382.854476  L 586.984889 384.101032  L 588.326772 384.217649  L 589.668656 384.475262  L 591.01054 384.858216  L 592.352424 385.491373  L 595.036191 387.102567  L 597.719959 388.494442  L 601.74561 391.656267  L 603.087494 392.752251  L 607.113145 395.449649  L 609.796913 396.382554  L 612.48068 397.051829  L 616.506331 398.763852  L 617.848215 399.437137  L 620.531983 401.019901  L 621.873866 401.40471  L 625.899518 402.167303  L 629.925169 402.536136  L 636.634588 403.386056  L 637.976472 403.488364  L 639.318355 403.738684  L 651.395309 404.569892  L 652.737193 404.534966  L 654.079077 404.364953  L 655.420961 404.054974  L 658.104728 403.943331  L 660.788496 403.295614  L 662.13038 403.131018  L 672.86545 402.635119  L 678.232985 402.002169  L 683.60052 400.754178  L 686.284287 399.983437  L 688.968055 399.319709  L 691.651822 399.15159  L 694.33559 399.112096  L 699.703125 399.214911  L 699.703125 399.214911  " style="fill:none;stroke:#90ee90;stroke-dasharray:5.6,2.4;stroke-dashoffset:0;stroke-width:1.5;"/>
   </g>
   <g id="patch_3">
    <path d="M 30.103125 445.58  L 30.103125 10.7  " style="fill:none;stroke:#000000;stroke-linecap:square;stroke-linejoin:miter;stroke-width:0.8;"/>
   </g>
   <g id="patch_4">
    <path d="M 699.703125 445.58  L 699.703125 10.7  " style="fill:none;stroke:#000000;stroke-linecap:square;stroke-linejoin:miter;stroke-width:0.8;"/>
   </g>
   <g id="patch_5">
    <path d="M 30.103125 445.58  L 699.703125 445.58  " style="fill:none;stroke:#000000;stroke-linecap:square;stroke-linejoin:miter;stroke-width:0.8;"/>
   </g>
   <g id="patch_6">
    <path d="M 30.103125 10.7  L 699.703125 10.7  " style="fill:none;stroke:#000000;stroke-linecap:square;stroke-linejoin:miter;stroke-width:0.8;"/>
   </g>
  </g>
 </g>
 <defs>
  <clipPath id="pc91b83b250">
   <rect height="434.88" width="669.6" x="30.103125" y="10.7"/>
  </clipPath>
 </defs>
</svg>