<?xml version="1.0" encoding="UTF-8" standalone="no"?>
<!DOCTYPE svg PUBLIC "-//W3C//DTD SVG 1.1//EN" "http://www.w3.org/Graphics/SVG/1.1/DTD/svg11.dtd">
<!-- Created with matplotlib (http://matplotlib.org/) -->
<svg height="469pt" version="1.1" viewBox="0 0 709 469" width="709pt" xmlns="http://www.w3.org/2000/svg" xmlns:xlink="http://www.w3.org/1999/xlink">
 <defs>
  <style type="text/css">
*{stroke-linecap:butt;stroke-linejoin:round;}
  </style>
 </defs>
 <g id="figure_1">
  <g id="patch_1">
   <path d="M 0 469.458125  L 709.242188 469.458125  L 709.242188 0  L 0 0  z " style="fill:#ffffff;"/>
  </g>
  <g id="axes_1">
   <g id="patch_2">
    <path d="M 28.942188 445.58  L 698.542188 445.58  L 698.542188 10.7  L 28.942188 10.7  z " style="fill:#ffffff;"/>
   </g>
   <g id="matplotlib.axis_1">
    <g id="xtick_1">
     <g id="line2d_1">
      <path clip-path="url(#pbdfb11544d)" d="M 28.942188 445.58  L 28.942188 10.7  " style="fill:none;stroke:#b0b0b0;stroke-linecap:square;stroke-width:0.8;"/>
     </g>
     <g id="line2d_2">
      <defs>
       <path d="M 0 0  L 0 3.5  " id="m392ec01323" style="stroke:#000000;stroke-width:0.8;"/>
      </defs>
      <g>
       <use style="stroke:#000000;stroke-width:0.8;" x="28.942188" xlink:href="#m392ec01323" y="445.58"/>
      </g>
     </g>
     <g id="text_1">
      <!-- 0 -->
      <defs>
       <path d="M 31.78125 66.40625  Q 24.171875 66.40625 20.328125 58.90625  Q 16.5 51.421875 16.5 36.375  Q 16.5 21.390625 20.328125 13.890625  Q 24.171875 6.390625 31.78125 6.390625  Q 39.453125 6.390625 43.28125 13.890625  Q 47.125 21.390625 47.125 36.375  Q 47.125 51.421875 43.28125 58.90625  Q 39.453125 66.40625 31.78125 66.40625  M 31.78125 74.21875  Q 44.046875 74.21875 50.515625 64.515625  Q 56.984375 54.828125 56.984375 36.375  Q 56.984375 17.96875 50.515625 8.265625  Q 44.046875 -1.421875 31.78125 -1.421875  Q 19.53125 -1.421875 13.0625 8.265625  Q 6.59375 17.96875 6.59375 36.375  Q 6.59375 54.828125 13.0625 64.515625  Q 19.53125 74.21875 31.78125 74.21875  " id="DejaVuSans-30"/>
      </defs>
      <g transform="translate(25.760938 460.178437)scale(0.1 -0.1)">
       <use xlink:href="#DejaVuSans-30"/>
      </g>
     </g>
    </g>
    <g id="xtick_2">
     <g id="line2d_3">
      <path clip-path="url(#pbdfb11544d)" d="M 163.130564 445.58  L 163.130564 10.7  " style="fill:none;stroke:#b0b0b0;stroke-linecap:square;stroke-width:0.8;"/>
     </g>
     <g id="line2d_4">
      <g>
       <use style="stroke:#000000;stroke-width:0.8;" x="163.130564" xlink:href="#m392ec01323" y="445.58"/>
      </g>
     </g>
     <g id="text_2">
      <!-- 100 -->
      <defs>
       <path d="M 12.40625 8.296875  L 28.515625 8.296875  L 28.515625 63.921875  L 10.984375 60.40625  L 10.984375 69.390625  L 28.421875 72.90625  L 38.28125 72.90625  L 38.28125 8.296875  L 54.390625 8.296875  L 54.390625 0  L 12.40625 0  z " id="DejaVuSans-31"/>
      </defs>
      <g transform="translate(153.586814 460.178437)scale(0.1 -0.1)">
       <use xlink:href="#DejaVuSans-31"/>
       <use x="63.623047" xlink:href="#DejaVuSans-30"/>
       <use x="127.246094" xlink:href="#DejaVuSans-30"/>
      </g>
     </g>
    </g>
    <g id="xtick_3">
     <g id="line2d_5">
      <path clip-path="url(#pbdfb11544d)" d="M 297.318941 445.58  L 297.318941 10.7  " style="fill:none;stroke:#b0b0b0;stroke-linecap:square;stroke-width:0.8;"/>
     </g>
     <g id="line2d_6">
      <g>
       <use style="stroke:#000000;stroke-width:0.8;" x="297.318941" xlink:href="#m392ec01323" y="445.58"/>
      </g>
     </g>
     <g id="text_3">
      <!-- 200 -->
      <defs>
       <path d="M 19.1875 8.296875  L 53.609375 8.296875  L 53.609375 0  L 7.328125 0  L 7.328125 8.296875  Q 12.9375 14.109375 22.625 23.890625  Q 32.328125 33.6875 34.8125 36.53125  Q 39.546875 41.84375 41.421875 45.53125  Q 43.3125 49.21875 43.3125 52.78125  Q 43.3125 58.59375 39.234375 62.25  Q 35.15625 65.921875 28.609375 65.921875  Q 23.96875 65.921875 18.8125 64.3125  Q 13.671875 62.703125 7.8125 59.421875  L 7.8125 69.390625  Q 13.765625 71.78125 18.9375 73  Q 24.125 74.21875 28.421875 74.21875  Q 39.75 74.21875 46.484375 68.546875  Q 53.21875 62.890625 53.21875 53.421875  Q 53.21875 48.921875 51.53125 44.890625  Q 49.859375 40.875 45.40625 35.40625  Q 44.1875 33.984375 37.640625 27.21875  Q 31.109375 20.453125 19.1875 8.296875  " id="DejaVuSans-32"/>
      </defs>
      <g transform="translate(287.775191 460.178437)scale(0.1 -0.1)">
       <use xlink:href="#DejaVuSans-32"/>
       <use x="63.623047" xlink:href="#DejaVuSans-30"/>
       <use x="127.246094" xlink:href="#DejaVuSans-30"/>
      </g>
     </g>
    </g>
    <g id="xtick_4">
     <g id="line2d_7">
      <path clip-path="url(#pbdfb11544d)" d="M 431.507318 445.58  L 431.507318 10.7  " style="fill:none;stroke:#b0b0b0;stroke-linecap:square;stroke-width:0.8;"/>
     </g>
     <g id="line2d_8">
      <g>
       <use style="stroke:#000000;stroke-width:0.8;" x="431.507318" xlink:href="#m392ec01323" y="445.58"/>
      </g>
     </g>
     <g id="text_4">
      <!-- 300 -->
      <defs>
       <path d="M 40.578125 39.3125  Q 47.65625 37.796875 51.625 33  Q 55.609375 28.21875 55.609375 21.1875  Q 55.609375 10.40625 48.1875 4.484375  Q 40.765625 -1.421875 27.09375 -1.421875  Q 22.515625 -1.421875 17.65625 -0.515625  Q 12.796875 0.390625 7.625 2.203125  L 7.625 11.71875  Q 11.71875 9.328125 16.59375 8.109375  Q 21.484375 6.890625 26.8125 6.890625  Q 36.078125 6.890625 40.9375 10.546875  Q 45.796875 14.203125 45.796875 21.1875  Q 45.796875 27.640625 41.28125 31.265625  Q 36.765625 34.90625 28.71875 34.90625  L 20.21875 34.90625  L 20.21875 43.015625  L 29.109375 43.015625  Q 36.375 43.015625 40.234375 45.921875  Q 44.09375 48.828125 44.09375 54.296875  Q 44.09375 59.90625 40.109375 62.90625  Q 36.140625 65.921875 28.71875 65.921875  Q 24.65625 65.921875 20.015625 65.03125  Q 15.375 64.15625 9.8125 62.3125  L 9.8125 71.09375  Q 15.4375 72.65625 20.34375 73.4375  Q 25.25 74.21875 29.59375 74.21875  Q 40.828125 74.21875 47.359375 69.109375  Q 53.90625 64.015625 53.90625 55.328125  Q 53.90625 49.265625 50.4375 45.09375  Q 46.96875 40.921875 40.578125 39.3125  " id="DejaVuSans-33"/>
      </defs>
      <g transform="translate(421.963568 460.178437)scale(0.1 -0.1)">
       <use xlink:href="#DejaVuSans-33"/>
       <use x="63.623047" xlink:href="#DejaVuSans-30"/>
       <use x="127.246094" xlink:href="#DejaVuSans-30"/>
      </g>
     </g>
    </g>
    <g id="xtick_5">
     <g id="line2d_9">
      <path clip-path="url(#pbdfb11544d)" d="M 565.695695 445.58  L 565.695695 10.7  " style="fill:none;stroke:#b0b0b0;stroke-linecap:square;stroke-width:0.8;"/>
     </g>
     <g id="line2d_10">
      <g>
       <use style="stroke:#000000;stroke-width:0.8;" x="565.695695" xlink:href="#m392ec01323" y="445.58"/>
      </g>
     </g>
     <g id="text_5">
      <!-- 400 -->
      <defs>
       <path d="M 37.796875 64.3125  L 12.890625 25.390625  L 37.796875 25.390625  z M 35.203125 72.90625  L 47.609375 72.90625  L 47.609375 25.390625  L 58.015625 25.390625  L 58.015625 17.1875  L 47.609375 17.1875  L 47.609375 0  L 37.796875 0  L 37.796875 17.1875  L 4.890625 17.1875  L 4.890625 26.703125  z " id="DejaVuSans-34"/>
      </defs>
      <g transform="translate(556.151945 460.178437)scale(0.1 -0.1)">
       <use xlink:href="#DejaVuSans-34"/>
       <use x="63.623047" xlink:href="#DejaVuSans-30"/>
       <use x="127.246094" xlink:href="#DejaVuSans-30"/>
      </g>
     </g>
    </g>
   </g>
   <g id="matplotlib.axis_2">
    <g id="ytick_1">
     <g id="line2d_11">
      <path clip-path="url(#pbdfb11544d)" d="M 28.942188 444.000018  L 698.542188 444.000018  " style="fill:none;stroke:#b0b0b0;stroke-linecap:square;stroke-width:0.8;"/>
     </g>
     <g id="line2d_12">
      <defs>
       <path d="M 0 0  L -3.5 0  " id="m6150195b7e" style="stroke:#000000;stroke-width:0.8;"/>
      </defs>
      <g>
       <use style="stroke:#000000;stroke-width:0.8;" x="28.942188" xlink:href="#m6150195b7e" y="444.000018"/>
      </g>
     </g>
     <g id="text_6">
      <!-- −4 -->
      <defs>
       <path d="M 10.59375 35.5  L 73.1875 35.5  L 73.1875 27.203125  L 10.59375 27.203125  z " id="DejaVuSans-2212"/>
      </defs>
      <g transform="translate(7.2 447.799237)scale(0.1 -0.1)">
       <use xlink:href="#DejaVuSans-2212"/>
       <use x="83.789062" xlink:href="#DejaVuSans-34"/>
      </g>
     </g>
    </g>
    <g id="ytick_2">
     <g id="line2d_13">
      <path clip-path="url(#pbdfb11544d)" d="M 28.942188 380.713614  L 698.542188 380.713614  " style="fill:none;stroke:#b0b0b0;stroke-linecap:square;stroke-width:0.8;"/>
     </g>
     <g id="line2d_14">
      <g>
       <use style="stroke:#000000;stroke-width:0.8;" x="28.942188" xlink:href="#m6150195b7e" y="380.713614"/>
      </g>
     </g>
     <g id="text_7">
      <!-- −3 -->
      <g transform="translate(7.2 384.512833)scale(0.1 -0.1)">
       <use xlink:href="#DejaVuSans-2212"/>
       <use x="83.789062" xlink:href="#DejaVuSans-33"/>
      </g>
     </g>
    </g>
    <g id="ytick_3">
     <g id="line2d_15">
      <path clip-path="url(#pbdfb11544d)" d="M 28.942188 317.42721  L 698.542188 317.42721  " style="fill:none;stroke:#b0b0b0;stroke-linecap:square;stroke-width:0.8;"/>
     </g>
     <g id="line2d_16">
      <g>
       <use style="stroke:#000000;stroke-width:0.8;" x="28.942188" xlink:href="#m6150195b7e" y="317.42721"/>
      </g>
     </g>
     <g id="text_8">
      <!-- −2 -->
      <g transform="translate(7.2 321.226429)scale(0.1 -0.1)">
       <use xlink:href="#DejaVuSans-2212"/>
       <use x="83.789062" xlink:href="#DejaVuSans-32"/>
      </g>
     </g>
    </g>
    <g id="ytick_4">
     <g id="line2d_17">
      <path clip-path="url(#pbdfb11544d)" d="M 28.942188 254.140806  L 698.542188 254.140806  " style="fill:none;stroke:#b0b0b0;stroke-linecap:square;stroke-width:0.8;"/>
     </g>
     <g id="line2d_18">
      <g>
       <use style="stroke:#000000;stroke-width:0.8;" x="28.942188" xlink:href="#m6150195b7e" y="254.140806"/>
      </g>
     </g>
     <g id="text_9">
      <!-- −1 -->
      <g transform="translate(7.2 257.940025)scale(0.1 -0.1)">
       <use xlink:href="#DejaVuSans-2212"/>
       <use x="83.789062" xlink:href="#DejaVuSans-31"/>
      </g>
     </g>
    </g>
    <g id="ytick_5">
     <g id="line2d_19">
      <path clip-path="url(#pbdfb11544d)" d="M 28.942188 190.854403  L 698.542188 190.854403  " style="fill:none;stroke:#b0b0b0;stroke-linecap:square;stroke-width:0.8;"/>
     </g>
     <g id="line2d_20">
      <g>
       <use style="stroke:#000000;stroke-width:0.8;" x="28.942188" xlink:href="#m6150195b7e" y="190.854403"/>
      </g>
     </g>
     <g id="text_10">
      <!-- 0 -->
      <g transform="translate(15.579688 194.653621)scale(0.1 -0.1)">
       <use xlink:href="#DejaVuSans-30"/>
      </g>
     </g>
    </g>
    <g id="ytick_6">
     <g id="line2d_21">
      <path clip-path="url(#pbdfb11544d)" d="M 28.942188 127.567999  L 698.542188 127.567999  " style="fill:none;stroke:#b0b0b0;stroke-linecap:square;stroke-width:0.8;"/>
     </g>
     <g id="line2d_22">
      <g>
       <use style="stroke:#000000;stroke-width:0.8;" x="28.942188" xlink:href="#m6150195b7e" y="127.567999"/>
      </g>
     </g>
     <g id="text_11">
      <!-- 1 -->
      <g transform="translate(15.579688 131.367217)scale(0.1 -0.1)">
       <use xlink:href="#DejaVuSans-31"/>
      </g>
     </g>
    </g>
    <g id="ytick_7">
     <g id="line2d_23">
      <path clip-path="url(#pbdfb11544d)" d="M 28.942188 64.281595  L 698.542188 64.281595  " style="fill:none;stroke:#b0b0b0;stroke-linecap:square;stroke-width:0.8;"/>
     </g>
     <g id="line2d_24">
      <g>
       <use style="stroke:#000000;stroke-width:0.8;" x="28.942188" xlink:href="#m6150195b7e" y="64.281595"/>
      </g>
     </g>
     <g id="text_12">
      <!-- 2 -->
      <g transform="translate(15.579688 68.080814)scale(0.1 -0.1)">
       <use xlink:href="#DejaVuSans-32"/>
      </g>
     </g>
    </g>
   </g>
   <g id="line2d_25">
    <path clip-path="url(#pbdfb11544d)" d="M 28.942188 126.324684  L 30.284071 130.322003  L 31.625955 146.953275  L 32.967839 141.274323  L 34.309723 148.288224  L 35.651606 123.970479  L 36.99349 121.730148  L 38.335374 107.32812  L 39.677258 144.491738  L 41.019141 144.283482  L 42.361025 125.425877  L 43.702909 76.203213  L 45.044793 77.70211  L 46.386676 56.195335  L 47.72856 52.911082  L 49.070444 63.672862  L 50.412328 82.011498  L 51.754212 74.948266  L 53.096095 66.159183  L 54.437979 30.467273  L 55.779863 38.261917  L 57.121747 50.079085  L 58.46363 63.178953  L 59.805514 63.428364  L 62.489282 73.043736  L 63.831165 116.972561  L 65.173049 129.362431  L 66.514933 112.608386  L 67.856817 75.281584  L 69.198701 76.253661  L 70.540584 45.780276  L 71.882468 44.017587  L 73.224352 59.753259  L 74.566236 68.272796  L 75.908119 78.805702  L 77.250003 66.188652  L 78.591887 59.020483  L 79.933771 68.156872  L 81.275654 71.013091  L 82.617538 66.185659  L 83.959422 47.405597  L 85.301306 37.75505  L 86.64319 52.860461  L 87.985073 63.486744  L 89.326957 58.457863  L 90.668841 50.747992  L 92.010725 45.365  L 93.352608 58.758213  L 94.694492 66.591786  L 96.036376 83.382099  L 97.37826 85.624877  L 98.720143 93.897515  L 101.403911 97.527164  L 102.745795 88.687483  L 104.087678 81.91031  L 108.11333 120.076166  L 109.455214 95.662988  L 110.797097 91.40765  L 112.138981 94.484837  L 113.480865 89.04452  L 114.822749 72.778732  L 116.164632 60.398685  L 117.506516 65.916974  L 118.8484 66.879313  L 120.190284 59.931289  L 121.532167 59.87495  L 122.874051 62.449259  L 124.215935 70.329223  L 125.557819 93.700293  L 126.899703 102.195031  L 128.241586 101.131295  L 129.58347 92.273556  L 130.925354 60.327924  L 132.267238 64.254068  L 133.609121 60.557948  L 134.951005 68.728928  L 136.292889 74.886398  L 137.634773 84.416793  L 138.976656 97.471177  L 140.31854 95.495659  L 143.002308 84.862115  L 144.344192 103.636999  L 145.686075 107.611794  L 147.027959 118.7802  L 148.369843 111.463764  L 149.711727 110.423919  L 151.05361 106.991704  L 152.395494 115.483329  L 153.737378 115.30931  L 155.079262 110.09457  L 156.421145 101.319856  L 157.763029 115.867365  L 159.104913 134.538441  L 160.446797 141.88864  L 161.78868 142.586803  L 163.130564 128.239897  L 164.472448 139.941835  L 165.814332 156.568568  L 167.156216 154.436991  L 168.498099 142.053875  L 169.839983 138.534082  L 171.181867 117.823375  L 172.523751 111.651853  L 173.865634 108.442609  L 175.207518 112.258818  L 176.549402 126.32956  L 177.891286 145.32202  L 179.233169 147.682476  L 180.575053 157.951624  L 181.916937 166.941788  L 183.258821 166.143112  L 184.600705 167.022222  L 185.942588 166.178067  L 187.284472 177.660631  L 188.626356 187.606188  L 189.96824 192.269744  L 192.652007 213.939507  L 193.993891 244.411339  L 195.335775 220.840784  L 196.677658 259.657662  L 198.019542 270.37281  L 199.361426 242.261157  L 200.70331 259.682617  L 202.045194 273.921971  L 204.728961 308.42855  L 206.070845 303.113341  L 207.412729 313.415321  L 208.754612 299.562936  L 210.096496 296.347761  L 211.43838 295.971023  L 212.780264 286.0684  L 214.122147 291.197167  L 215.464031 300.948965  L 216.805915 301.939605  L 218.147799 300.416746  L 219.489682 291.72932  L 222.17345 290.062877  L 223.515334 313.644218  L 224.857218 321.776001  L 226.199101 330.893121  L 227.540985 327.609774  L 228.882869 326.26692  L 230.224753 297.584374  L 231.566636 271.307353  L 232.90852 263.802813  L 234.250404 254.332676  L 235.592288 262.760086  L 236.934171 257.976929  L 238.276055 257.792941  L 239.617939 255.218717  L 240.959823 223.008371  L 242.301707 227.197918  L 243.64359 239.801455  L 244.985474 243.778304  L 246.327358 238.994715  L 247.669242 257.552328  L 249.011125 250.261927  L 250.353009 239.073549  L 251.694893 238.522319  L 253.036777 239.962056  L 254.37866 237.149911  L 255.720544 236.520356  L 257.062428 242.17934  L 258.404312 256.374498  L 259.746196 257.677333  L 261.088079 256.900939  L 262.429963 258.24054  L 263.771847 249.088203  L 265.113731 254.596057  L 267.797498 269.468081  L 269.139382 260.019245  L 270.481266 265.572628  L 271.823149 248.027418  L 273.165033 245.202152  L 274.506917 220.744515  L 277.190684 235.321006  L 278.532568 246.594478  L 279.874452 255.901779  L 281.216336 254.83102  L 282.55822 264.239371  L 283.900103 269.447423  L 285.241987 266.084822  L 286.583871 235.671141  L 287.925755 195.113776  L 289.267638 198.567347  L 290.609522 188.37331  L 291.951406 172.473261  L 293.29329 154.285364  L 294.635173 147.456405  L 297.318941 160.441888  L 298.660825 163.300676  L 300.002709 187.250761  L 301.344592 197.197701  L 302.686476 196.351192  L 305.370244 167.743288  L 306.712127 171.224636  L 308.054011 177.079307  L 309.395895 204.26488  L 310.737779 191.515028  L 312.079662 169.296247  L 313.421546 172.864509  L 314.76343 203.814925  L 316.105314 207.997172  L 317.447198 199.286312  L 318.789081 184.967128  L 320.130965 183.77795  L 321.472849 180.204069  L 322.814733 179.415079  L 324.156616 167.733916  L 325.4985 152.884859  L 326.840384 151.913435  L 328.182268 156.889152  L 329.524151 175.92365  L 330.866035 177.807902  L 332.207919 150.692252  L 333.549803 131.140237  L 334.891686 152.283143  L 336.23357 168.501381  L 337.575454 146.025748  L 338.917338 116.253692  L 340.259222 148.698152  L 341.601105 164.8012  L 342.942989 148.598435  L 344.284873 103.392658  L 345.626757 105.829777  L 346.96864 119.33508  L 348.310524 163.824386  L 349.652408 158.701678  L 352.336175 214.242676  L 353.678059 226.243502  L 355.019943 225.539704  L 356.361827 208.247112  L 357.703711 199.279899  L 359.045594 203.547981  L 360.387478 178.689496  L 361.729362 191.104555  L 363.071246 216.449487  L 364.413129 212.251658  L 365.755013 238.322189  L 367.096897 208.737021  L 368.438781 183.813582  L 369.780664 163.499771  L 371.122548 176.892727  L 372.464432 212.044027  L 373.806316 208.151708  L 375.1482 239.508391  L 376.490083 299.108296  L 377.831967 298.290385  L 379.173851 288.420074  L 380.515735 288.052843  L 381.857618 314.922467  L 383.199502 285.866225  L 384.541386 294.190343  L 385.88327 303.560225  L 387.225153 322.634518  L 388.567037 361.210838  L 389.908921 345.549482  L 391.250805 354.414757  L 392.592689 318.89635  L 393.934572 316.327076  L 395.276456 367.287072  L 396.61834 360.541206  L 397.960224 346.062265  L 399.302107 324.691929  L 400.643991 333.503911  L 401.985875 349.630533  L 403.327759 332.477418  L 404.669642 309.242591  L 406.011526 295.340998  L 407.35341 267.887904  L 408.695294 288.201293  L 410.037177 330.487566  L 411.379061 330.275883  L 412.720945 326.303722  L 414.062829 333.224291  L 415.404713 332.581728  L 416.746596 342.307364  L 418.08848 340.89514  L 419.430364 336.198496  L 420.772248 325.43183  L 422.114131 309.245052  L 423.456015 282.122682  L 424.797899 277.664761  L 426.139783 249.934935  L 427.481666 249.25772  L 428.82355 254.422707  L 430.165434 256.754664  L 431.507318 288.104616  L 432.849202 277.797543  L 434.191085 262.037667  L 435.532969 269.570004  L 436.874853 288.357824  L 438.216737 272.16643  L 439.55862 282.164346  L 440.900504 286.272084  L 442.242388 307.552975  L 443.584272 282.481085  L 444.926155 289.456283  L 446.268039 304.676476  L 447.609923 302.483809  L 448.951807 313.934843  L 450.293691 310.989387  L 451.635574 319.165486  L 452.977458 332.596191  L 454.319342 304.480598  L 455.661226 302.464396  L 457.003109 308.699843  L 458.344993 301.181199  L 459.686877 291.246958  L 461.028761 256.034337  L 462.370644 262.58765  L 463.712528 261.389734  L 465.054412 273.057358  L 466.396296 282.115062  L 467.738179 288.55382  L 469.080063 271.122256  L 470.421947 285.592047  L 471.763831 291.765486  L 473.105715 289.835561  L 474.447598 306.919962  L 475.789482 299.221706  L 477.131366 286.383439  L 478.47325 292.447487  L 479.815133 293.088047  L 481.157017 296.420647  L 482.498901 281.365722  L 483.840785 277.25264  L 485.182668 245.60099  L 486.524552 217.882219  L 487.866436 214.654364  L 489.20832 213.82708  L 490.550204 205.620581  L 491.892087 212.291613  L 493.233971 237.095403  L 494.575855 241.587136  L 495.917739 251.702813  L 497.259622 229.087659  L 498.601506 212.14024  L 499.94339 211.260283  L 501.285274 224.260604  L 502.627157 214.924187  L 503.969041 199.870006  L 505.310925 190.290073  L 506.652809 194.752803  L 507.994693 181.375234  L 509.336576 155.492392  L 510.67846 166.297607  L 512.020344 174.318931  L 513.362228 163.432515  L 516.045995 181.352784  L 517.387879 225.402501  L 518.729763 221.023917  L 520.071646 209.365988  L 521.41353 204.816898  L 522.755414 203.76706  L 524.097298 195.121014  L 525.439181 201.813889  L 526.781065 200.791795  L 528.122949 216.009101  L 529.464833 223.446225  L 530.806717 205.576274  L 532.1486 213.305635  L 533.490484 212.36773  L 534.832368 206.596436  L 536.174252 251.006829  L 538.858019 207.989123  L 541.541787 206.201393  L 542.88367 199.834262  L 544.225554 209.986203  L 545.567438 170.137914  L 546.909322 135.696926  L 549.593089 167.357971  L 550.934973 172.76673  L 553.618741 194.982631  L 554.960624 152.972741  L 556.302508 163.758172  L 557.644392 193.480613  L 558.986276 175.151702  L 560.328159 180.793874  L 561.670043 180.191667  L 563.011927 185.809748  L 564.353811 197.821187  L 565.695695 197.38425  L 567.037578 190.569509  L 568.379462 189.759538  L 569.721346 214.109592  L 571.06323 200.297288  L 572.405113 239.169721  L 573.746997 238.451621  L 575.088881 231.137107  L 576.430765 257.027035  L 577.772648 289.512457  L 579.114532 301.262256  L 580.456416 279.455582  L 581.7983 271.768008  L 583.140183 316.341034  L 584.482067 365.997129  L 585.823951 425.812727  L 587.165835 355.074226  L 589.849602 358.296508  L 591.191486 323.543087  L 592.53337 291.683948  L 593.875254 233.623189  L 595.217137 277.624835  L 596.559021 304.891293  L 597.900905 314.018556  L 599.242789 339.824193  L 600.584672 346.881167  L 601.926556 302.886066  L 603.26844 294.984015  L 604.610324 298.314232  L 605.952208 269.714463  L 607.294091 263.22831  L 609.977859 261.294402  L 611.319743 275.958485  L 612.661626 264.678663  L 614.00351 279.406263  L 615.345394 315.183351  L 616.687278 359.664597  L 618.029161 385.257804  L 619.371045 361.830962  L 620.712929 365.649934  L 622.054813 373.541148  L 623.396697 356.648226  L 624.73858 346.147355  L 626.080464 349.928967  L 627.422348 331.565613  L 628.764232 327.603493  L 630.106115 315.752917  L 631.447999 280.896902  L 632.789883 264.068053  L 634.131767 278.541592  L 635.47365 320.308241  L 636.815534 305.863613  L 639.499302 264.819338  L 640.841185 231.807982  L 642.183069 242.301198  L 643.524953 231.516742  L 644.866837 200.141666  L 646.208721 196.806904  L 647.550604 199.955165  L 648.892488 206.286048  L 650.234372 209.144094  L 651.576256 215.529239  L 652.918139 218.354622  L 654.260023 231.998049  L 655.601907 234.950591  L 656.943791 219.939241  L 658.285674 212.460869  L 659.627558 215.492499  L 660.969442 204.197218  L 662.311326 203.601329  L 663.65321 221.028989  L 664.995093 224.014781  L 666.336977 223.264694  L 667.678861 226.173622  L 669.020745 210.618672  L 670.362628 198.764296  L 673.046396 181.864823  L 674.38828 158.495799  L 675.730163 149.776405  L 677.072047 137.410849  L 678.413931 147.885794  L 679.755815 166.903962  L 681.097699 226.428227  L 682.439582 197.179702  L 683.781466 188.45802  L 685.12335 175.714247  L 686.465234 183.082754  L 687.807117 194.722024  L 689.149001 194.015498  L 690.490885 197.638833  L 691.832769 180.322393  L 693.174652 188.070263  L 694.516536 187.471188  L 695.85842 178.375937  L 697.200304 199.242628  L 698.542188 211.952758  L 698.542188 211.952758  " style="fill:none;stroke:#0000ff;stroke-linecap:square;stroke-width:1.5;"/>
   </g>
   <g id="line2d_26">
    <path clip-path="url(#pbdfb11544d)" d="M 28.942188 181.083339  L 30.284071 204.243704  L 31.625955 199.155027  L 34.309723 192.663073  L 35.651606 189.280216  L 36.99349 201.155005  L 38.335374 203.207407  L 39.677258 208.796461  L 41.019141 198.819168  L 42.361025 194.726422  L 43.702909 198.323424  L 45.044793 197.999796  L 46.386676 197.505829  L 47.72856 191.169664  L 49.070444 190.807274  L 50.412328 206.171233  L 51.754212 197.794238  L 53.096095 181.653772  L 54.437979 173.644589  L 55.779863 169.684943  L 57.121747 146.730279  L 58.46363 102.612521  L 59.805514 85.858078  L 61.147398 85.751682  L 62.489282 84.122947  L 63.831165 87.728952  L 65.173049 94.15779  L 66.514933 82.821238  L 67.856817 73.142817  L 69.198701 70.676608  L 70.540584 63.968331  L 71.882468 68.934051  L 73.224352 77.804006  L 74.566236 84.733884  L 75.908119 70.452586  L 77.250003 68.192379  L 78.591887 62.207477  L 79.933771 58.184829  L 81.275654 75.92995  L 82.617538 85.075361  L 83.959422 72.253496  L 85.301306 76.432546  L 86.64319 81.763534  L 87.985073 92.827586  L 89.326957 92.653123  L 90.668841 85.940082  L 92.010725 80.411873  L 93.352608 78.461724  L 94.694492 74.175418  L 96.036376 87.422669  L 97.37826 97.577274  L 100.062027 100.639596  L 101.403911 86.859629  L 102.745795 86.210913  L 104.087678 91.031908  L 105.429562 105.23484  L 106.771446 114.981179  L 108.11333 119.018763  L 109.455214 120.221145  L 110.797097 118.663495  L 112.138981 111.655454  L 113.480865 109.000977  L 114.822749 77.820484  L 116.164632 71.599819  L 117.506516 67.100688  L 118.8484 59.468299  L 120.190284 49.147653  L 121.532167 62.122568  L 122.874051 69.796963  L 124.215935 71.472946  L 125.557819 89.796336  L 126.899703 99.663992  L 128.241586 94.462306  L 129.58347 103.023131  L 130.925354 112.417767  L 132.267238 111.395568  L 133.609121 97.881442  L 134.951005 101.409844  L 136.292889 115.398003  L 137.634773 106.235397  L 138.976656 112.254417  L 140.31854 103.281965  L 141.660424 96.721924  L 143.002308 95.971192  L 144.344192 107.591901  L 145.686075 133.188913  L 147.027959 136.463159  L 148.369843 140.939523  L 149.711727 150.404299  L 151.05361 161.375183  L 152.395494 159.612717  L 153.737378 163.084311  L 155.079262 155.826779  L 156.421145 153.885954  L 157.763029 167.268559  L 159.104913 176.843951  L 160.446797 176.360596  L 163.130564 178.291175  L 165.814332 210.437216  L 167.156216 207.698193  L 168.498099 195.184592  L 169.839983 178.077064  L 171.181867 147.142727  L 172.523751 158.962358  L 173.865634 167.759403  L 175.207518 178.368999  L 176.549402 196.14583  L 177.891286 183.320146  L 179.233169 189.339738  L 180.575053 205.948743  L 181.916937 228.568943  L 183.258821 229.343885  L 184.600705 229.834554  L 185.942588 224.592925  L 187.284472 238.190506  L 188.626356 223.805343  L 189.96824 220.658619  L 191.310123 234.862453  L 192.652007 253.886262  L 193.993891 271.312464  L 195.335775 264.194674  L 196.677658 277.675731  L 198.019542 286.893299  L 199.361426 294.365393  L 200.70331 343.96945  L 202.045194 359.22471  L 203.387077 347.928022  L 204.728961 343.936507  L 206.070845 336.001048  L 207.412729 326.389952  L 208.754612 315.256903  L 210.096496 308.649607  L 211.43838 308.649607  L 212.780264 300.914124  L 214.122147 297.297717  L 215.464031 310.119538  L 216.805915 311.631381  L 218.147799 310.807083  L 219.489682 292.694203  L 220.831566 257.017739  L 223.515334 274.891714  L 224.857218 285.48517  L 226.199101 279.889675  L 227.540985 278.464487  L 228.882869 273.119934  L 230.224753 254.63178  L 231.566636 233.236978  L 232.90852 219.826518  L 234.250404 213.950418  L 235.592288 226.278249  L 236.934171 246.087151  L 238.276055 260.24452  L 239.617939 255.386239  L 240.959823 265.62926  L 242.301707 271.920533  L 243.64359 274.302927  L 244.985474 269.10493  L 246.327358 258.479281  L 249.011125 215.225183  L 250.353009 211.294341  L 251.694893 200.482748  L 253.036777 176.174762  L 254.37866 182.743356  L 255.720544 197.970261  L 257.062428 209.775541  L 258.404312 220.005801  L 259.746196 226.728493  L 261.088079 226.186435  L 262.429963 220.250327  L 263.771847 210.761802  L 265.113731 224.558324  L 266.455614 213.130618  L 267.797498 223.481909  L 269.139382 212.20405  L 270.481266 215.430318  L 271.823149 190.262988  L 273.165033 176.188952  L 274.506917 182.931514  L 275.848801 175.708023  L 277.190684 130.943649  L 278.532568 150.542813  L 279.874452 156.494757  L 281.216336 144.787131  L 282.55822 146.640528  L 283.900103 137.929322  L 286.583871 142.357833  L 287.925755 86.238794  L 290.609522 79.098574  L 291.951406 100.933405  L 293.29329 97.376384  L 294.635173 86.673035  L 295.977057 100.715809  L 297.318941 82.092209  L 298.660825 79.022638  L 300.002709 100.669625  L 301.344592 115.011116  L 302.686476 117.730029  L 304.02836 97.60947  L 305.370244 103.755253  L 306.712127 106.604997  L 308.054011 106.604997  L 309.395895 110.508718  L 310.737779 110.631559  L 312.079662 107.217868  L 313.421546 70.799478  L 314.76343 83.759287  L 316.105314 85.34478  L 317.447198 75.988975  L 318.789081 70.678645  L 320.130965 72.941009  L 321.472849 58.475861  L 322.814733 74.782482  L 325.4985 111.709581  L 326.840384 109.49839  L 328.182268 114.111132  L 329.524151 148.813665  L 330.866035 162.933041  L 332.207919 162.967401  L 333.549803 187.243835  L 334.891686 190.443054  L 336.23357 200.955904  L 337.575454 197.016708  L 338.917338 215.139174  L 340.259222 225.86897  L 341.601105 240.423509  L 342.942989 232.291835  L 344.284873 213.467611  L 345.626757 166.838512  L 348.310524 174.432946  L 349.652408 188.942419  L 350.994292 181.923718  L 352.336175 192.748712  L 353.678059 218.328309  L 355.019943 218.403484  L 356.361827 218.641047  L 357.703711 196.867359  L 359.045594 182.897052  L 360.387478 190.639819  L 361.729362 187.601089  L 363.071246 192.215424  L 364.413129 185.882245  L 365.755013 202.171918  L 367.096897 199.455086  L 368.438781 192.669509  L 369.780664 222.004207  L 371.122548 243.983345  L 373.806316 237.305272  L 375.1482 238.125088  L 376.490083 287.687929  L 377.831967 288.092792  L 381.857618 275.696163  L 383.199502 261.644313  L 384.541386 270.554903  L 385.88327 284.149521  L 388.567037 293.058358  L 391.250805 319.324408  L 392.592689 345.105503  L 393.934572 340.68111  L 395.276456 331.795135  L 396.61834 332.393063  L 397.960224 320.037884  L 399.302107 321.68343  L 400.643991 344.831582  L 401.985875 345.039311  L 403.327759 358.021599  L 404.669642 349.255874  L 406.011526 369.851679  L 407.35341 348.024766  L 408.695294 328.419231  L 410.037177 292.205989  L 411.379061 322.971592  L 412.720945 316.02589  L 414.062829 295.444099  L 415.404713 286.428066  L 416.746596 308.629997  L 418.08848 292.347166  L 419.430364 280.519883  L 420.772248 292.323902  L 422.114131 307.231373  L 423.456015 298.206953  L 424.797899 255.089111  L 426.139783 285.542741  L 427.481666 290.382156  L 428.82355 285.436627  L 430.165434 287.014059  L 431.507318 282.238611  L 434.191085 297.343468  L 435.532969 295.095131  L 436.874853 283.862798  L 439.55862 280.431043  L 440.900504 281.744907  L 443.584272 278.4012  L 444.926155 268.115542  L 446.268039 263.934854  L 447.609923 271.288196  L 448.951807 287.379239  L 450.293691 294.62121  L 451.635574 286.811856  L 452.977458 300.177862  L 454.319342 295.037381  L 455.661226 293.113983  L 457.003109 303.388484  L 458.344993 280.335143  L 459.686877 278.954735  L 461.028761 274.714892  L 462.370644 297.309494  L 463.712528 304.464046  L 465.054412 302.163262  L 466.396296 297.064359  L 467.738179 286.118479  L 469.080063 258.234575  L 470.421947 271.730348  L 471.763831 282.381316  L 473.105715 280.908296  L 475.789482 272.448388  L 477.131366 259.409661  L 478.47325 270.708438  L 479.815133 285.584863  L 481.157017 281.464919  L 483.840785 300.044802  L 485.182668 295.795794  L 486.524552 284.562011  L 487.866436 297.543293  L 489.20832 307.224343  L 490.550204 331.79901  L 491.892087 347.912454  L 493.233971 310.437985  L 494.575855 301.174583  L 495.917739 335.791574  L 497.259622 332.093708  L 499.94339 286.94433  L 501.285274 285.215788  L 502.627157 293.829242  L 503.969041 291.768665  L 505.310925 296.73433  L 506.652809 287.836093  L 507.994693 289.994016  L 509.336576 278.29349  L 510.67846 291.086289  L 512.020344 282.557972  L 513.362228 288.413138  L 514.704111 305.008013  L 516.045995 302.83677  L 517.387879 304.396042  L 518.729763 302.288786  L 520.071646 296.919896  L 521.41353 306.585469  L 522.755414 301.207091  L 524.097298 299.795826  L 525.439181 287.315894  L 526.781065 264.454987  L 528.122949 249.253011  L 529.464833 248.580415  L 530.806717 218.965981  L 532.1486 221.766092  L 533.490484 220.941895  L 534.832368 205.24382  L 536.174252 196.790614  L 537.516135 173.288201  L 538.858019 176.082198  L 540.199903 175.129355  L 542.88367 188.6728  L 544.225554 187.604634  L 545.567438 182.29178  L 546.909322 193.667995  L 548.251206 201.301469  L 549.593089 231.88945  L 550.934973 235.774763  L 552.276857 234.982042  L 553.618741 229.394545  L 554.960624 233.400791  L 556.302508 242.324246  L 557.644392 241.450915  L 558.986276 220.901503  L 560.328159 205.468413  L 561.670043 204.658505  L 563.011927 199.053075  L 564.353811 203.393526  L 565.695695 212.84348  L 567.037578 207.216329  L 568.379462 206.822144  L 569.721346 186.376526  L 571.06323 200.784355  L 573.746997 209.483467  L 575.088881 203.583721  L 576.430765 218.612786  L 577.772648 239.603441  L 579.114532 266.795405  L 580.456416 254.338206  L 581.7983 247.833881  L 583.140183 246.965989  L 584.482067 234.555002  L 585.823951 251.129218  L 587.165835 244.768214  L 588.507719 262.245048  L 589.849602 298.956472  L 591.191486 323.256531  L 592.53337 314.186721  L 593.875254 299.284934  L 595.217137 303.933054  L 596.559021 334.335878  L 597.900905 337.264085  L 599.242789 346.96597  L 600.584672 342.973811  L 601.926556 326.43911  L 603.26844 329.961843  L 604.610324 308.132205  L 605.952208 281.554353  L 607.294091 280.562111  L 608.635975 255.153458  L 609.977859 254.372185  L 611.319743 278.437234  L 612.661626 276.965453  L 614.00351 288.34315  L 615.345394 292.928983  L 616.687278 310.256797  L 618.029161 301.237218  L 619.371045 255.311625  L 620.712929 236.094828  L 622.054813 241.352001  L 623.396697 222.12905  L 624.73858 191.380771  L 626.080464 190.993086  L 627.422348 214.710329  L 628.764232 214.127361  L 630.106115 225.762818  L 632.789883 224.157015  L 634.131767 198.17003  L 635.47365 197.508368  L 636.815534 235.405417  L 638.157418 214.981976  L 639.499302 227.357265  L 640.841185 193.497217  L 642.183069 199.525539  L 643.524953 179.153733  L 644.866837 185.289923  L 646.208721 185.010706  L 647.550604 178.10091  L 648.892488 190.851076  L 650.234372 144.665874  L 651.576256 151.400336  L 652.918139 171.509759  L 654.260023 165.523926  L 656.943791 127.513898  L 658.285674 134.89448  L 659.627558 110.615197  L 660.969442 124.445718  L 662.311326 125.157383  L 663.65321 157.284968  L 664.995093 164.009769  L 666.336977 203.222313  L 667.678861 190.155595  L 669.020745 151.710548  L 670.362628 145.866359  L 675.730163 172.834179  L 677.072047 148.040151  L 678.413931 148.799066  L 679.755815 187.9502  L 681.097699 169.078909  L 682.439582 163.26344  L 683.781466 190.037521  L 685.12335 177.473276  L 686.465234 158.555998  L 687.807117 95.745212  L 689.149001 109.864049  L 690.490885 110.981538  L 691.832769 99.882692  L 693.174652 94.571212  L 694.516536 77.800114  L 695.85842 91.16474  L 697.200304 151.644147  L 698.542188 182.227555  L 698.542188 182.227555  " style="fill:none;stroke:#008000;stroke-linecap:square;stroke-width:1.5;"/>
   </g>
   <g id="patch_3">
    <path d="M 28.942188 445.58  L 28.942188 10.7  " style="fill:none;stroke:#000000;stroke-linecap:square;stroke-linejoin:miter;stroke-width:0.8;"/>
   </g>
   <g id="patch_4">
    <path d="M 698.542188 445.58  L 698.542188 10.7  " style="fill:none;stroke:#000000;stroke-linecap:square;stroke-linejoin:miter;stroke-width:0.8;"/>
   </g>
   <g id="patch_5">
    <path d="M 28.942188 445.58  L 698.542188 445.58  " style="fill:none;stroke:#000000;stroke-linecap:square;stroke-linejoin:miter;stroke-width:0.8;"/>
   </g>
   <g id="patch_6">
    <path d="M 28.942188 10.7  L 698.542188 10.7  " style="fill:none;stroke:#000000;stroke-linecap:square;stroke-linejoin:miter;stroke-width:0.8;"/>
   </g>
  </g>
 </g>
 <defs>
  <clipPath id="pbdfb11544d">
   <rect height="434.88" width="669.6" x="28.942188" y="10.7"/>
  </clipPath>
 </defs>
</svg>