<?xml version="1.0" encoding="UTF-8" standalone="no"?>
<!DOCTYPE svg PUBLIC "-//W3C//DTD SVG 1.1//EN" "http://www.w3.org/Graphics/SVG/1.1/DTD/svg11.dtd">
<!-- Created with matplotlib (http://matplotlib.org/) -->
<svg height="469pt" version="1.1" viewBox="0 0 709 469" width="709pt" xmlns="http://www.w3.org/2000/svg" xmlns:xlink="http://www.w3.org/1999/xlink">
 <defs>
  <style type="text/css">
*{stroke-linecap:butt;stroke-linejoin:round;}
  </style>
 </defs>
 <g id="figure_1">
  <g id="patch_1">
   <path d="M 0 469.458125  L 709.242188 469.458125  L 709.242188 0  L 0 0  z " style="fill:#ffffff;"/>
  </g>
  <g id="axes_1">
   <g id="patch_2">
    <path d="M 28.942188 445.58  L 698.542188 445.58  L 698.542188 10.7  L 28.942188 10.7  z " style="fill:#ffffff;"/>
   </g>
   <g id="matplotlib.axis_1">
    <g id="xtick_1">
     <g id="line2d_1">
      <path clip-path="url(#p1299c54da7)" d="M 28.942188 445.58  L 28.942188 10.7  " style="fill:none;stroke:#b0b0b0;stroke-linecap:square;stroke-width:0.8;"/>
     </g>
     <g id="line2d_2">
      <defs>
       <path d="M 0 0  L 0 3.5  " id="m38c20de189" style="stroke:#000000;stroke-width:0.8;"/>
      </defs>
      <g>
       <use style="stroke:#000000;stroke-width:0.8;" x="28.942188" xlink:href="#m38c20de189" y="445.58"/>
      </g>
     </g>
     <g id="text_1">
      <!-- 0 -->
      <defs>
       <path d="M 31.78125 66.40625  Q 24.171875 66.40625 20.328125 58.90625  Q 16.5 51.421875 16.5 36.375  Q 16.5 21.390625 20.328125 13.890625  Q 24.171875 6.390625 31.78125 6.390625  Q 39.453125 6.390625 43.28125 13.890625  Q 47.125 21.390625 47.125 36.375  Q 47.125 51.421875 43.28125 58.90625  Q 39.453125 66.40625 31.78125 66.40625  M 31.78125 74.21875  Q 44.046875 74.21875 50.515625 64.515625  Q 56.984375 54.828125 56.984375 36.375  Q 56.984375 17.96875 50.515625 8.265625  Q 44.046875 -1.421875 31.78125 -1.421875  Q 19.53125 -1.421875 13.0625 8.265625  Q 6.59375 17.96875 6.59375 36.375  Q 6.59375 54.828125 13.0625 64.515625  Q 19.53125 74.21875 31.78125 74.21875  " id="DejaVuSans-30"/>
      </defs>
      <g transform="translate(25.760938 460.178437)scale(0.1 -0.1)">
       <use xlink:href="#DejaVuSans-30"/>
      </g>
     </g>
    </g>
    <g id="xtick_2">
     <g id="line2d_3">
      <path clip-path="url(#p1299c54da7)" d="M 163.130564 445.58  L 163.130564 10.7  " style="fill:none;stroke:#b0b0b0;stroke-linecap:square;stroke-width:0.8;"/>
     </g>
     <g id="line2d_4">
      <g>
       <use style="stroke:#000000;stroke-width:0.8;" x="163.130564" xlink:href="#m38c20de189" y="445.58"/>
      </g>
     </g>
     <g id="text_2">
      <!-- 100 -->
      <defs>
       <path d="M 12.40625 8.296875  L 28.515625 8.296875  L 28.515625 63.921875  L 10.984375 60.40625  L 10.984375 69.390625  L 28.421875 72.90625  L 38.28125 72.90625  L 38.28125 8.296875  L 54.390625 8.296875  L 54.390625 0  L 12.40625 0  z " id="DejaVuSans-31"/>
      </defs>
      <g transform="translate(153.586814 460.178437)scale(0.1 -0.1)">
       <use xlink:href="#DejaVuSans-31"/>
       <use x="63.623047" xlink:href="#DejaVuSans-30"/>
       <use x="127.246094" xlink:href="#DejaVuSans-30"/>
      </g>
     </g>
    </g>
    <g id="xtick_3">
     <g id="line2d_5">
      <path clip-path="url(#p1299c54da7)" d="M 297.318941 445.58  L 297.318941 10.7  " style="fill:none;stroke:#b0b0b0;stroke-linecap:square;stroke-width:0.8;"/>
     </g>
     <g id="line2d_6">
      <g>
       <use style="stroke:#000000;stroke-width:0.8;" x="297.318941" xlink:href="#m38c20de189" y="445.58"/>
      </g>
     </g>
     <g id="text_3">
      <!-- 200 -->
      <defs>
       <path d="M 19.1875 8.296875  L 53.609375 8.296875  L 53.609375 0  L 7.328125 0  L 7.328125 8.296875  Q 12.9375 14.109375 22.625 23.890625  Q 32.328125 33.6875 34.8125 36.53125  Q 39.546875 41.84375 41.421875 45.53125  Q 43.3125 49.21875 43.3125 52.78125  Q 43.3125 58.59375 39.234375 62.25  Q 35.15625 65.921875 28.609375 65.921875  Q 23.96875 65.921875 18.8125 64.3125  Q 13.671875 62.703125 7.8125 59.421875  L 7.8125 69.390625  Q 13.765625 71.78125 18.9375 73  Q 24.125 74.21875 28.421875 74.21875  Q 39.75 74.21875 46.484375 68.546875  Q 53.21875 62.890625 53.21875 53.421875  Q 53.21875 48.921875 51.53125 44.890625  Q 49.859375 40.875 45.40625 35.40625  Q 44.1875 33.984375 37.640625 27.21875  Q 31.109375 20.453125 19.1875 8.296875  " id="DejaVuSans-32"/>
      </defs>
      <g transform="translate(287.775191 460.178437)scale(0.1 -0.1)">
       <use xlink:href="#DejaVuSans-32"/>
       <use x="63.623047" xlink:href="#DejaVuSans-30"/>
       <use x="127.246094" xlink:href="#DejaVuSans-30"/>
      </g>
     </g>
    </g>
    <g id="xtick_4">
     <g id="line2d_7">
      <path clip-path="url(#p1299c54da7)" d="M 431.507318 445.58  L 431.507318 10.7  " style="fill:none;stroke:#b0b0b0;stroke-linecap:square;stroke-width:0.8;"/>
     </g>
     <g id="line2d_8">
      <g>
       <use style="stroke:#000000;stroke-width:0.8;" x="431.507318" xlink:href="#m38c20de189" y="445.58"/>
      </g>
     </g>
     <g id="text_4">
      <!-- 300 -->
      <defs>
       <path d="M 40.578125 39.3125  Q 47.65625 37.796875 51.625 33  Q 55.609375 28.21875 55.609375 21.1875  Q 55.609375 10.40625 48.1875 4.484375  Q 40.765625 -1.421875 27.09375 -1.421875  Q 22.515625 -1.421875 17.65625 -0.515625  Q 12.796875 0.390625 7.625 2.203125  L 7.625 11.71875  Q 11.71875 9.328125 16.59375 8.109375  Q 21.484375 6.890625 26.8125 6.890625  Q 36.078125 6.890625 40.9375 10.546875  Q 45.796875 14.203125 45.796875 21.1875  Q 45.796875 27.640625 41.28125 31.265625  Q 36.765625 34.90625 28.71875 34.90625  L 20.21875 34.90625  L 20.21875 43.015625  L 29.109375 43.015625  Q 36.375 43.015625 40.234375 45.921875  Q 44.09375 48.828125 44.09375 54.296875  Q 44.09375 59.90625 40.109375 62.90625  Q 36.140625 65.921875 28.71875 65.921875  Q 24.65625 65.921875 20.015625 65.03125  Q 15.375 64.15625 9.8125 62.3125  L 9.8125 71.09375  Q 15.4375 72.65625 20.34375 73.4375  Q 25.25 74.21875 29.59375 74.21875  Q 40.828125 74.21875 47.359375 69.109375  Q 53.90625 64.015625 53.90625 55.328125  Q 53.90625 49.265625 50.4375 45.09375  Q 46.96875 40.921875 40.578125 39.3125  " id="DejaVuSans-33"/>
      </defs>
      <g transform="translate(421.963568 460.178437)scale(0.1 -0.1)">
       <use xlink:href="#DejaVuSans-33"/>
       <use x="63.623047" xlink:href="#DejaVuSans-30"/>
       <use x="127.246094" xlink:href="#DejaVuSans-30"/>
      </g>
     </g>
    </g>
    <g id="xtick_5">
     <g id="line2d_9">
      <path clip-path="url(#p1299c54da7)" d="M 565.695695 445.58  L 565.695695 10.7  " style="fill:none;stroke:#b0b0b0;stroke-linecap:square;stroke-width:0.8;"/>
     </g>
     <g id="line2d_10">
      <g>
       <use style="stroke:#000000;stroke-width:0.8;" x="565.695695" xlink:href="#m38c20de189" y="445.58"/>
      </g>
     </g>
     <g id="text_5">
      <!-- 400 -->
      <defs>
       <path d="M 37.796875 64.3125  L 12.890625 25.390625  L 37.796875 25.390625  z M 35.203125 72.90625  L 47.609375 72.90625  L 47.609375 25.390625  L 58.015625 25.390625  L 58.015625 17.1875  L 47.609375 17.1875  L 47.609375 0  L 37.796875 0  L 37.796875 17.1875  L 4.890625 17.1875  L 4.890625 26.703125  z " id="DejaVuSans-34"/>
      </defs>
      <g transform="translate(556.151945 460.178437)scale(0.1 -0.1)">
       <use xlink:href="#DejaVuSans-34"/>
       <use x="63.623047" xlink:href="#DejaVuSans-30"/>
       <use x="127.246094" xlink:href="#DejaVuSans-30"/>
      </g>
     </g>
    </g>
   </g>
   <g id="matplotlib.axis_2">
    <g id="ytick_1">
     <g id="line2d_11">
      <path clip-path="url(#p1299c54da7)" d="M 28.942188 444.687796  L 698.542188 444.687796  " style="fill:none;stroke:#b0b0b0;stroke-linecap:square;stroke-width:0.8;"/>
     </g>
     <g id="line2d_12">
      <defs>
       <path d="M 0 0  L -3.5 0  " id="m6e5a26c77e" style="stroke:#000000;stroke-width:0.8;"/>
      </defs>
      <g>
       <use style="stroke:#000000;stroke-width:0.8;" x="28.942188" xlink:href="#m6e5a26c77e" y="444.687796"/>
      </g>
     </g>
     <g id="text_6">
      <!-- −3 -->
      <defs>
       <path d="M 10.59375 35.5  L 73.1875 35.5  L 73.1875 27.203125  L 10.59375 27.203125  z " id="DejaVuSans-2212"/>
      </defs>
      <g transform="translate(7.2 448.487014)scale(0.1 -0.1)">
       <use xlink:href="#DejaVuSans-2212"/>
       <use x="83.789062" xlink:href="#DejaVuSans-33"/>
      </g>
     </g>
    </g>
    <g id="ytick_2">
     <g id="line2d_13">
      <path clip-path="url(#p1299c54da7)" d="M 28.942188 365.974126  L 698.542188 365.974126  " style="fill:none;stroke:#b0b0b0;stroke-linecap:square;stroke-width:0.8;"/>
     </g>
     <g id="line2d_14">
      <g>
       <use style="stroke:#000000;stroke-width:0.8;" x="28.942188" xlink:href="#m6e5a26c77e" y="365.974126"/>
      </g>
     </g>
     <g id="text_7">
      <!-- −2 -->
      <g transform="translate(7.2 369.773345)scale(0.1 -0.1)">
       <use xlink:href="#DejaVuSans-2212"/>
       <use x="83.789062" xlink:href="#DejaVuSans-32"/>
      </g>
     </g>
    </g>
    <g id="ytick_3">
     <g id="line2d_15">
      <path clip-path="url(#p1299c54da7)" d="M 28.942188 287.260456  L 698.542188 287.260456  " style="fill:none;stroke:#b0b0b0;stroke-linecap:square;stroke-width:0.8;"/>
     </g>
     <g id="line2d_16">
      <g>
       <use style="stroke:#000000;stroke-width:0.8;" x="28.942188" xlink:href="#m6e5a26c77e" y="287.260456"/>
      </g>
     </g>
     <g id="text_8">
      <!-- −1 -->
      <g transform="translate(7.2 291.059675)scale(0.1 -0.1)">
       <use xlink:href="#DejaVuSans-2212"/>
       <use x="83.789062" xlink:href="#DejaVuSans-31"/>
      </g>
     </g>
    </g>
    <g id="ytick_4">
     <g id="line2d_17">
      <path clip-path="url(#p1299c54da7)" d="M 28.942188 208.546786  L 698.542188 208.546786  " style="fill:none;stroke:#b0b0b0;stroke-linecap:square;stroke-width:0.8;"/>
     </g>
     <g id="line2d_18">
      <g>
       <use style="stroke:#000000;stroke-width:0.8;" x="28.942188" xlink:href="#m6e5a26c77e" y="208.546786"/>
      </g>
     </g>
     <g id="text_9">
      <!-- 0 -->
      <g transform="translate(15.579688 212.346005)scale(0.1 -0.1)">
       <use xlink:href="#DejaVuSans-30"/>
      </g>
     </g>
    </g>
    <g id="ytick_5">
     <g id="line2d_19">
      <path clip-path="url(#p1299c54da7)" d="M 28.942188 129.833116  L 698.542188 129.833116  " style="fill:none;stroke:#b0b0b0;stroke-linecap:square;stroke-width:0.8;"/>
     </g>
     <g id="line2d_20">
      <g>
       <use style="stroke:#000000;stroke-width:0.8;" x="28.942188" xlink:href="#m6e5a26c77e" y="129.833116"/>
      </g>
     </g>
     <g id="text_10">
      <!-- 1 -->
      <g transform="translate(15.579688 133.632335)scale(0.1 -0.1)">
       <use xlink:href="#DejaVuSans-31"/>
      </g>
     </g>
    </g>
    <g id="ytick_6">
     <g id="line2d_21">
      <path clip-path="url(#p1299c54da7)" d="M 28.942188 51.119447  L 698.542188 51.119447  " style="fill:none;stroke:#b0b0b0;stroke-linecap:square;stroke-width:0.8;"/>
     </g>
     <g id="line2d_22">
      <g>
       <use style="stroke:#000000;stroke-width:0.8;" x="28.942188" xlink:href="#m6e5a26c77e" y="51.119447"/>
      </g>
     </g>
     <g id="text_11">
      <!-- 2 -->
      <g transform="translate(15.579688 54.918665)scale(0.1 -0.1)">
       <use xlink:href="#DejaVuSans-32"/>
      </g>
     </g>
    </g>
   </g>
   <g id="line2d_23">
    <path clip-path="url(#p1299c54da7)" d="M 28.942188 140.439667  L 30.284071 116.605264  L 31.625955 143.619863  L 32.967839 140.524113  L 34.309723 153.354723  L 35.651606 127.316558  L 36.99349 109.760607  L 38.335374 89.295097  L 39.677258 128.566562  L 41.019141 140.716989  L 42.361025 122.352914  L 43.702909 56.657448  L 45.044793 58.924248  L 46.386676 32.789168  L 47.72856 36.585042  L 49.070444 50.42094  L 50.412328 54.120751  L 51.754212 55.75477  L 53.096095 64.898191  L 54.437979 30.467273  L 55.779863 45.086895  L 57.121747 88.335024  L 58.46363 159.500536  L 59.805514 180.649401  L 61.147398 186.898477  L 62.489282 194.766807  L 63.831165 244.919081  L 65.173049 252.333228  L 66.514933 245.59512  L 67.856817 211.206919  L 69.198701 215.483351  L 70.540584 185.925047  L 71.882468 177.556461  L 73.224352 186.095826  L 74.566236 188.072996  L 75.908119 218.936134  L 77.250003 206.054613  L 78.591887 204.582901  L 79.933771 220.949705  L 82.617538 185.052359  L 83.959422 177.641739  L 85.301306 160.440914  L 86.64319 172.598039  L 87.985073 172.053556  L 89.326957 166.015781  L 90.668841 164.775954  L 92.010725 164.956571  L 93.352608 184.04017  L 94.694492 199.114501  L 96.036376 203.52125  L 97.37826 193.680764  L 98.720143 202.018355  L 100.062027 202.469688  L 101.403911 221.814736  L 102.745795 211.627067  L 104.087678 197.201625  L 105.429562 195.078021  L 106.771446 198.121034  L 108.11333 209.861951  L 109.455214 178.002111  L 110.797097 174.646811  L 112.138981 187.190504  L 113.480865 183.725563  L 114.822749 202.276011  L 116.164632 194.615163  L 117.506516 207.074519  L 118.8484 217.764375  L 120.190284 221.95914  L 121.532167 205.751268  L 122.874051 199.40794  L 124.215935 207.12426  L 125.557819 213.402407  L 126.899703 211.694814  L 128.241586 216.841468  L 129.58347 195.176797  L 130.925354 143.759053  L 132.267238 149.913648  L 133.609121 162.124981  L 134.951005 167.899274  L 136.292889 158.159706  L 137.634773 181.409481  L 140.31854 198.86242  L 141.660424 200.176597  L 143.002308 194.72966  L 144.344192 203.627801  L 145.686075 176.734757  L 147.027959 186.553269  L 148.369843 171.885749  L 149.711727 158.820427  L 151.05361 140.906299  L 152.395494 153.66002  L 153.737378 149.12572  L 155.079262 151.666481  L 156.421145 143.1667  L 157.763029 144.615573  L 159.104913 155.928503  L 160.446797 165.671634  L 161.78868 165.334505  L 163.130564 146.294556  L 164.472448 140.056614  L 165.814332 141.546629  L 167.156216 142.302152  L 168.498099 142.464446  L 169.839983 159.364449  L 171.181867 172.080284  L 172.523751 149.703445  L 173.865634 134.770395  L 175.207518 126.320989  L 176.549402 121.711471  L 177.891286 161.285894  L 179.233169 156.734773  L 180.575053 148.849455  L 181.916937 131.896838  L 183.258821 129.939621  L 184.600705 130.422753  L 185.942588 135.892195  L 187.284472 133.261601  L 188.626356 163.523397  L 189.96824 173.237582  L 191.310123 168.774634  L 192.652007 158.862249  L 193.993891 175.088  L 195.335775 154.62456  L 196.677658 186.13647  L 198.019542 187.999114  L 199.361426 143.741151  L 200.70331 103.713433  L 202.045194 102.449881  L 203.387077 138.075524  L 204.728961 164.383089  L 206.070845 167.642073  L 207.412729 192.409342  L 208.754612 189.027116  L 210.096496 193.246131  L 211.43838 192.777556  L 212.780264 190.082134  L 214.122147 200.959111  L 215.464031 197.140712  L 216.805915 196.492455  L 218.147799 195.623607  L 219.489682 207.346694  L 220.831566 250.707386  L 222.17345 238.396106  L 223.515334 256.745952  L 224.857218 253.684198  L 226.199101 271.983293  L 227.540985 269.672173  L 228.882869 274.649362  L 230.224753 261.969893  L 231.566636 255.897539  L 232.90852 263.24314  L 235.592288 253.921765  L 236.934171 223.334924  L 238.276055 205.497589  L 239.617939 208.338428  L 240.959823 155.536244  L 242.301707 152.922183  L 243.64359 165.634923  L 244.985474 177.046313  L 246.327358 184.312487  L 247.669242 233.728718  L 249.011125 252.124404  L 250.353009 243.097705  L 251.694893 255.859226  L 253.036777 287.883448  L 254.37866 276.215974  L 255.720544 256.494201  L 257.062428 248.849629  L 258.404312 253.781046  L 259.746196 247.039996  L 261.088079 246.748536  L 262.429963 255.797837  L 263.771847 256.215978  L 265.113731 245.906788  L 266.455614 269.384088  L 267.797498 265.742963  L 269.139382 268.017845  L 270.481266 270.912239  L 271.823149 280.392396  L 273.165033 294.383268  L 274.506917 255.577426  L 275.848801 273.693842  L 277.190684 338.368112  L 278.532568 328.012874  L 279.874452 332.186162  L 281.216336 345.415969  L 282.55822 354.812585  L 283.900103 372.124928  L 285.241987 365.188031  L 286.583871 324.606991  L 287.925755 343.962118  L 289.267638 352.547151  L 290.609522 344.45932  L 291.951406 297.525844  L 293.29329 279.328414  L 294.635173 284.14726  L 295.977057 274.553704  L 297.318941 305.995691  L 298.660825 313.3692  L 300.002709 316.233723  L 301.344592 310.767916  L 302.686476 306.333355  L 304.02836 313.740157  L 305.370244 288.133123  L 306.712127 288.918692  L 308.054011 296.200551  L 309.395895 325.157797  L 310.737779 309.147141  L 312.079662 285.757952  L 313.421546 335.492112  L 314.76343 357.868272  L 316.105314 361.098034  L 317.447198 361.900197  L 318.789081 350.695263  L 320.130965 346.402342  L 321.472849 359.948563  L 322.814733 338.685571  L 325.4985 259.759322  L 326.840384 261.301306  L 328.182268 261.752764  L 329.524151 242.265346  L 330.866035 227.047677  L 332.207919 193.279336  L 333.549803 138.766869  L 334.891686 161.084671  L 336.23357 168.180856  L 337.575454 145.125808  L 338.917338 85.556085  L 340.259222 112.564111  L 341.601105 114.490098  L 342.942989 104.451525  L 344.284873 71.638967  L 345.626757 132.66601  L 346.96864 144.700345  L 348.310524 195.352187  L 349.652408 170.934289  L 350.994292 213.618732  L 352.336175 235.280313  L 353.678059 218.391458  L 355.019943 217.422595  L 356.361827 195.619132  L 357.703711 211.547428  L 359.045594 234.231772  L 360.387478 193.683343  L 361.729362 212.904289  L 363.071246 238.688364  L 364.413129 241.344246  L 365.755013 253.509375  L 367.096897 220.091369  L 368.438781 197.532058  L 369.780664 135.78078  L 371.122548 125.101553  L 372.464432 172.987961  L 373.806316 172.286487  L 375.1482 210.267296  L 376.490083 222.751085  L 377.831967 221.230236  L 379.173851 214.017397  L 380.515735 218.485786  L 381.857618 257.335248  L 383.199502 238.67325  L 384.541386 237.943814  L 385.88327 232.689219  L 387.225153 250.742743  L 388.567037 293.312731  L 389.908921 257.173994  L 391.250805 252.191076  L 392.592689 175.948653  L 393.934572 178.255992  L 395.276456 252.690559  L 396.61834 243.556575  L 397.960224 240.915105  L 399.302107 212.288663  L 400.643991 194.45778  L 401.985875 214.257207  L 403.327759 176.775725  L 404.669642 158.779503  L 406.011526 115.872709  L 407.35341 108.875039  L 408.695294 158.52496  L 410.037177 256.160226  L 411.379061 217.631636  L 412.720945 221.330036  L 414.062829 255.53662  L 415.404713 265.951283  L 416.746596 250.433654  L 418.08848 268.929254  L 419.430364 277.798122  L 420.772248 249.725402  L 422.114131 211.051338  L 423.456015 188.541667  L 424.797899 236.62568  L 426.139783 164.2589  L 427.481666 157.397486  L 428.82355 169.972632  L 430.165434 170.911088  L 431.507318 215.842741  L 432.849202 193.406212  L 434.191085 164.634524  L 435.532969 176.799423  L 436.874853 214.13756  L 438.216737 196.170919  L 439.55862 210.702616  L 440.900504 214.177548  L 442.242388 242.760203  L 443.584272 213.621221  L 444.926155 235.089739  L 446.268039 259.219954  L 447.609923 247.346924  L 448.951807 241.575824  L 450.293691 228.905017  L 451.635574 248.787231  L 452.977458 248.8677  L 454.319342 220.291967  L 455.661226 220.17654  L 457.003109 215.152891  L 458.344993 234.474465  L 459.686877 223.835473  L 461.028761 185.312491  L 462.370644 165.360832  L 463.712528 154.972291  L 466.396296 189.953314  L 467.738179 211.575788  L 469.080063 224.576085  L 470.421947 225.787537  L 471.763831 220.218526  L 473.105715 219.650243  L 474.447598 246.372533  L 475.789482 241.84661  L 477.131366 242.095936  L 478.47325 235.585142  L 479.815133 217.879015  L 481.157017 227.148258  L 482.498901 197.198877  L 483.840785 180.198601  L 485.182668 146.116042  L 487.866436 105.452103  L 489.20832 92.382161  L 490.550204 51.609962  L 491.892087 39.865783  L 493.233971 117.325554  L 494.575855 134.433764  L 495.917739 103.959789  L 497.259622 80.431051  L 498.601506 86.362137  L 499.94339 114.413312  L 501.285274 132.732615  L 502.627157 110.407121  L 503.969041 94.24608  L 505.310925 76.154715  L 506.652809 92.772672  L 507.994693 73.450108  L 509.336576 55.810582  L 510.67846 53.338487  L 512.020344 73.922418  L 513.362228 53.099755  L 514.704111 43.41217  L 516.045995 57.448765  L 517.387879 110.297066  L 518.729763 107.472058  L 520.071646 99.649945  L 521.41353 81.970189  L 522.755414 87.353891  L 524.097298 78.355495  L 525.439181 102.202039  L 526.781065 129.364479  L 528.122949 167.199041  L 529.464833 177.285659  L 530.806717 191.893083  L 532.1486 198.023932  L 533.490484 197.882506  L 534.832368 210.229128  L 536.174252 275.979236  L 537.516135 278.706651  L 538.858019 248.231632  L 540.199903 248.341438  L 541.541787 238.883599  L 542.88367 222.429067  L 544.225554 236.384289  L 545.567438 193.430183  L 546.909322 136.444165  L 548.251206 146.251775  L 549.593089 128.28453  L 550.934973 130.179345  L 552.276857 144.838172  L 553.618741 165.746313  L 554.960624 108.512867  L 556.302508 110.828736  L 557.644392 148.88281  L 558.986276 151.6446  L 560.328159 177.857358  L 561.670043 178.11569  L 563.011927 192.075146  L 564.353811 201.616084  L 565.695695 189.319075  L 567.037578 187.841986  L 568.379462 187.324845  L 569.721346 243.040315  L 571.06323 207.940988  L 572.405113 251.064547  L 573.746997 244.576479  L 575.088881 242.816835  L 577.772648 270.622075  L 579.114532 251.415588  L 580.456416 239.787001  L 581.7983 238.315312  L 583.140183 294.833319  L 584.482067 372.030435  L 585.823951 425.812727  L 587.165835 345.741989  L 588.507719 326.085413  L 589.849602 282.352086  L 591.191486 208.903196  L 592.53337 180.558534  L 593.875254 126.878741  L 595.217137 175.825437  L 596.559021 171.924524  L 597.900905 179.634716  L 599.242789 199.664065  L 600.584672 213.406635  L 601.926556 179.25224  L 603.26844 165.042446  L 604.610324 196.335495  L 605.952208 193.820697  L 607.294091 186.987542  L 608.635975 217.375842  L 609.977859 217.156425  L 612.661626 193.264858  L 614.00351 197.431363  L 615.345394 236.226081  L 616.687278 269.998678  L 618.029161 313.048989  L 620.712929 369.683416  L 622.054813 372.959554  L 623.396697 375.857573  L 624.73858 401.040672  L 626.080464 406.226315  L 627.422348 353.88777  L 628.764232 349.684887  L 630.106115 320.473685  L 631.447999 278.125812  L 632.789883 258.1869  L 635.47365 361.281466  L 636.815534 296.180509  L 638.157418 295.325697  L 639.499302 255.140953  L 640.841185 256.19653  L 642.183069 261.749826  L 643.524953 273.674275  L 644.866837 227.018925  L 646.208721 223.218532  L 647.550604 235.728432  L 648.892488 227.744326  L 650.234372 288.742801  L 651.576256 288.30833  L 652.918139 266.810977  L 654.260023 291.225242  L 655.601907 318.786179  L 656.943791 323.502566  L 658.285674 305.02146  L 659.627558 338.989927  L 660.969442 307.739233  L 662.311326 306.112937  L 663.65321 287.829626  L 664.995093 283.179163  L 666.336977 233.474879  L 667.678861 253.344892  L 669.020745 281.814887  L 670.362628 274.339602  L 673.046396 236.464338  L 674.38828 199.094007  L 675.730163 179.86824  L 677.072047 195.32639  L 678.413931 207.410887  L 679.755815 182.370126  L 681.097699 279.876092  L 682.439582 250.730782  L 683.781466 206.582252  L 685.12335 206.35896  L 686.465234 239.052407  L 687.807117 331.65108  L 689.149001 313.211753  L 690.490885 316.328447  L 691.832769 308.595196  L 693.174652 324.838011  L 694.516536 344.952273  L 695.85842 317.017373  L 697.200304 267.748304  L 698.542188 245.518073  L 698.542188 245.518073  " style="fill:none;stroke:#00008b;stroke-linecap:square;stroke-width:1.5;"/>
   </g>
   <g id="patch_3">
    <path d="M 28.942188 445.58  L 28.942188 10.7  " style="fill:none;stroke:#000000;stroke-linecap:square;stroke-linejoin:miter;stroke-width:0.8;"/>
   </g>
   <g id="patch_4">
    <path d="M 698.542188 445.58  L 698.542188 10.7  " style="fill:none;stroke:#000000;stroke-linecap:square;stroke-linejoin:miter;stroke-width:0.8;"/>
   </g>
   <g id="patch_5">
    <path d="M 28.942188 445.58  L 698.542188 445.58  " style="fill:none;stroke:#000000;stroke-linecap:square;stroke-linejoin:miter;stroke-width:0.8;"/>
   </g>
   <g id="patch_6">
    <path d="M 28.942188 10.7  L 698.542188 10.7  " style="fill:none;stroke:#000000;stroke-linecap:square;stroke-linejoin:miter;stroke-width:0.8;"/>
   </g>
  </g>
 </g>
 <defs>
  <clipPath id="p1299c54da7">
   <rect height="434.88" width="669.6" x="28.942188" y="10.7"/>
  </clipPath>
 </defs>
</svg>