<?xml version="1.0" encoding="UTF-8" standalone="no"?>
<!DOCTYPE svg PUBLIC "-//W3C//DTD SVG 1.1//EN" "http://www.w3.org/Graphics/SVG/1.1/DTD/svg11.dtd">
<!-- Created with matplotlib (http://matplotlib.org/) -->
<svg height="469pt" version="1.1" viewBox="0 0 716 469" width="716pt" xmlns="http://www.w3.org/2000/svg" xmlns:xlink="http://www.w3.org/1999/xlink">
 <defs>
  <style type="text/css">
*{stroke-linecap:butt;stroke-linejoin:round;}
  </style>
 </defs>
 <g id="figure_1">
  <g id="patch_1">
   <path d="M 0 469.458125  L 716.765625 469.458125  L 716.765625 0  L 0 0  z " style="fill:#ffffff;"/>
  </g>
  <g id="axes_1">
   <g id="patch_2">
    <path d="M 36.465625 445.58  L 706.065625 445.58  L 706.065625 10.7  L 36.465625 10.7  z " style="fill:#ffffff;"/>
   </g>
   <g id="matplotlib.axis_1">
    <g id="xtick_1">
     <g id="line2d_1">
      <path clip-path="url(#pfb2e27e281)" d="M 36.465625 445.58  L 36.465625 10.7  " style="fill:none;stroke:#b0b0b0;stroke-linecap:square;stroke-width:0.8;"/>
     </g>
     <g id="line2d_2">
      <defs>
       <path d="M 0 0  L 0 3.5  " id="mc71b1b987f" style="stroke:#000000;stroke-width:0.8;"/>
      </defs>
      <g>
       <use style="stroke:#000000;stroke-width:0.8;" x="36.465625" xlink:href="#mc71b1b987f" y="445.58"/>
      </g>
     </g>
     <g id="text_1">
      <!-- 0 -->
      <defs>
       <path d="M 31.78125 66.40625  Q 24.171875 66.40625 20.328125 58.90625  Q 16.5 51.421875 16.5 36.375  Q 16.5 21.390625 20.328125 13.890625  Q 24.171875 6.390625 31.78125 6.390625  Q 39.453125 6.390625 43.28125 13.890625  Q 47.125 21.390625 47.125 36.375  Q 47.125 51.421875 43.28125 58.90625  Q 39.453125 66.40625 31.78125 66.40625  M 31.78125 74.21875  Q 44.046875 74.21875 50.515625 64.515625  Q 56.984375 54.828125 56.984375 36.375  Q 56.984375 17.96875 50.515625 8.265625  Q 44.046875 -1.421875 31.78125 -1.421875  Q 19.53125 -1.421875 13.0625 8.265625  Q 6.59375 17.96875 6.59375 36.375  Q 6.59375 54.828125 13.0625 64.515625  Q 19.53125 74.21875 31.78125 74.21875  " id="DejaVuSans-30"/>
      </defs>
      <g transform="translate(33.284375 460.178437)scale(0.1 -0.1)">
       <use xlink:href="#DejaVuSans-30"/>
      </g>
     </g>
    </g>
    <g id="xtick_2">
     <g id="line2d_3">
      <path clip-path="url(#pfb2e27e281)" d="M 170.654002 445.58  L 170.654002 10.7  " style="fill:none;stroke:#b0b0b0;stroke-linecap:square;stroke-width:0.8;"/>
     </g>
     <g id="line2d_4">
      <g>
       <use style="stroke:#000000;stroke-width:0.8;" x="170.654002" xlink:href="#mc71b1b987f" y="445.58"/>
      </g>
     </g>
     <g id="text_2">
      <!-- 100 -->
      <defs>
       <path d="M 12.40625 8.296875  L 28.515625 8.296875  L 28.515625 63.921875  L 10.984375 60.40625  L 10.984375 69.390625  L 28.421875 72.90625  L 38.28125 72.90625  L 38.28125 8.296875  L 54.390625 8.296875  L 54.390625 0  L 12.40625 0  z " id="DejaVuSans-31"/>
      </defs>
      <g transform="translate(161.110252 460.178437)scale(0.1 -0.1)">
       <use xlink:href="#DejaVuSans-31"/>
       <use x="63.623047" xlink:href="#DejaVuSans-30"/>
       <use x="127.246094" xlink:href="#DejaVuSans-30"/>
      </g>
     </g>
    </g>
    <g id="xtick_3">
     <g id="line2d_5">
      <path clip-path="url(#pfb2e27e281)" d="M 304.842379 445.58  L 304.842379 10.7  " style="fill:none;stroke:#b0b0b0;stroke-linecap:square;stroke-width:0.8;"/>
     </g>
     <g id="line2d_6">
      <g>
       <use style="stroke:#000000;stroke-width:0.8;" x="304.842379" xlink:href="#mc71b1b987f" y="445.58"/>
      </g>
     </g>
     <g id="text_3">
      <!-- 200 -->
      <defs>
       <path d="M 19.1875 8.296875  L 53.609375 8.296875  L 53.609375 0  L 7.328125 0  L 7.328125 8.296875  Q 12.9375 14.109375 22.625 23.890625  Q 32.328125 33.6875 34.8125 36.53125  Q 39.546875 41.84375 41.421875 45.53125  Q 43.3125 49.21875 43.3125 52.78125  Q 43.3125 58.59375 39.234375 62.25  Q 35.15625 65.921875 28.609375 65.921875  Q 23.96875 65.921875 18.8125 64.3125  Q 13.671875 62.703125 7.8125 59.421875  L 7.8125 69.390625  Q 13.765625 71.78125 18.9375 73  Q 24.125 74.21875 28.421875 74.21875  Q 39.75 74.21875 46.484375 68.546875  Q 53.21875 62.890625 53.21875 53.421875  Q 53.21875 48.921875 51.53125 44.890625  Q 49.859375 40.875 45.40625 35.40625  Q 44.1875 33.984375 37.640625 27.21875  Q 31.109375 20.453125 19.1875 8.296875  " id="DejaVuSans-32"/>
      </defs>
      <g transform="translate(295.298629 460.178437)scale(0.1 -0.1)">
       <use xlink:href="#DejaVuSans-32"/>
       <use x="63.623047" xlink:href="#DejaVuSans-30"/>
       <use x="127.246094" xlink:href="#DejaVuSans-30"/>
      </g>
     </g>
    </g>
    <g id="xtick_4">
     <g id="line2d_7">
      <path clip-path="url(#pfb2e27e281)" d="M 439.030755 445.58  L 439.030755 10.7  " style="fill:none;stroke:#b0b0b0;stroke-linecap:square;stroke-width:0.8;"/>
     </g>
     <g id="line2d_8">
      <g>
       <use style="stroke:#000000;stroke-width:0.8;" x="439.030755" xlink:href="#mc71b1b987f" y="445.58"/>
      </g>
     </g>
     <g id="text_4">
      <!-- 300 -->
      <defs>
       <path d="M 40.578125 39.3125  Q 47.65625 37.796875 51.625 33  Q 55.609375 28.21875 55.609375 21.1875  Q 55.609375 10.40625 48.1875 4.484375  Q 40.765625 -1.421875 27.09375 -1.421875  Q 22.515625 -1.421875 17.65625 -0.515625  Q 12.796875 0.390625 7.625 2.203125  L 7.625 11.71875  Q 11.71875 9.328125 16.59375 8.109375  Q 21.484375 6.890625 26.8125 6.890625  Q 36.078125 6.890625 40.9375 10.546875  Q 45.796875 14.203125 45.796875 21.1875  Q 45.796875 27.640625 41.28125 31.265625  Q 36.765625 34.90625 28.71875 34.90625  L 20.21875 34.90625  L 20.21875 43.015625  L 29.109375 43.015625  Q 36.375 43.015625 40.234375 45.921875  Q 44.09375 48.828125 44.09375 54.296875  Q 44.09375 59.90625 40.109375 62.90625  Q 36.140625 65.921875 28.71875 65.921875  Q 24.65625 65.921875 20.015625 65.03125  Q 15.375 64.15625 9.8125 62.3125  L 9.8125 71.09375  Q 15.4375 72.65625 20.34375 73.4375  Q 25.25 74.21875 29.59375 74.21875  Q 40.828125 74.21875 47.359375 69.109375  Q 53.90625 64.015625 53.90625 55.328125  Q 53.90625 49.265625 50.4375 45.09375  Q 46.96875 40.921875 40.578125 39.3125  " id="DejaVuSans-33"/>
      </defs>
      <g transform="translate(429.487005 460.178437)scale(0.1 -0.1)">
       <use xlink:href="#DejaVuSans-33"/>
       <use x="63.623047" xlink:href="#DejaVuSans-30"/>
       <use x="127.246094" xlink:href="#DejaVuSans-30"/>
      </g>
     </g>
    </g>
    <g id="xtick_5">
     <g id="line2d_9">
      <path clip-path="url(#pfb2e27e281)" d="M 573.219132 445.58  L 573.219132 10.7  " style="fill:none;stroke:#b0b0b0;stroke-linecap:square;stroke-width:0.8;"/>
     </g>
     <g id="line2d_10">
      <g>
       <use style="stroke:#000000;stroke-width:0.8;" x="573.219132" xlink:href="#mc71b1b987f" y="445.58"/>
      </g>
     </g>
     <g id="text_5">
      <!-- 400 -->
      <defs>
       <path d="M 37.796875 64.3125  L 12.890625 25.390625  L 37.796875 25.390625  z M 35.203125 72.90625  L 47.609375 72.90625  L 47.609375 25.390625  L 58.015625 25.390625  L 58.015625 17.1875  L 47.609375 17.1875  L 47.609375 0  L 37.796875 0  L 37.796875 17.1875  L 4.890625 17.1875  L 4.890625 26.703125  z " id="DejaVuSans-34"/>
      </defs>
      <g transform="translate(563.675382 460.178437)scale(0.1 -0.1)">
       <use xlink:href="#DejaVuSans-34"/>
       <use x="63.623047" xlink:href="#DejaVuSans-30"/>
       <use x="127.246094" xlink:href="#DejaVuSans-30"/>
      </g>
     </g>
    </g>
   </g>
   <g id="matplotlib.axis_2">
    <g id="ytick_1">
     <g id="line2d_11">
      <path clip-path="url(#pfb2e27e281)" d="M 36.465625 418.626286  L 706.065625 418.626286  " style="fill:none;stroke:#b0b0b0;stroke-linecap:square;stroke-width:0.8;"/>
     </g>
     <g id="line2d_12">
      <defs>
       <path d="M 0 0  L -3.5 0  " id="m2545f13024" style="stroke:#000000;stroke-width:0.8;"/>
      </defs>
      <g>
       <use style="stroke:#000000;stroke-width:0.8;" x="36.465625" xlink:href="#m2545f13024" y="418.626286"/>
      </g>
     </g>
     <g id="text_6">
      <!-- 0.15 -->
      <defs>
       <path d="M 10.6875 12.40625  L 21 12.40625  L 21 0  L 10.6875 0  z " id="DejaVuSans-2e"/>
       <path d="M 10.796875 72.90625  L 49.515625 72.90625  L 49.515625 64.59375  L 19.828125 64.59375  L 19.828125 46.734375  Q 21.96875 47.46875 24.109375 47.828125  Q 26.265625 48.1875 28.421875 48.1875  Q 40.625 48.1875 47.75 41.5  Q 54.890625 34.8125 54.890625 23.390625  Q 54.890625 11.625 47.5625 5.09375  Q 40.234375 -1.421875 26.90625 -1.421875  Q 22.3125 -1.421875 17.546875 -0.640625  Q 12.796875 0.140625 7.71875 1.703125  L 7.71875 11.625  Q 12.109375 9.234375 16.796875 8.0625  Q 21.484375 6.890625 26.703125 6.890625  Q 35.15625 6.890625 40.078125 11.328125  Q 45.015625 15.765625 45.015625 23.390625  Q 45.015625 31 40.078125 35.4375  Q 35.15625 39.890625 26.703125 39.890625  Q 22.75 39.890625 18.8125 39.015625  Q 14.890625 38.140625 10.796875 36.28125  z " id="DejaVuSans-35"/>
      </defs>
      <g transform="translate(7.2 422.425504)scale(0.1 -0.1)">
       <use xlink:href="#DejaVuSans-30"/>
       <use x="63.623047" xlink:href="#DejaVuSans-2e"/>
       <use x="95.410156" xlink:href="#DejaVuSans-31"/>
       <use x="159.033203" xlink:href="#DejaVuSans-35"/>
      </g>
     </g>
    </g>
    <g id="ytick_2">
     <g id="line2d_13">
      <path clip-path="url(#pfb2e27e281)" d="M 36.465625 366.378609  L 706.065625 366.378609  " style="fill:none;stroke:#b0b0b0;stroke-linecap:square;stroke-width:0.8;"/>
     </g>
     <g id="line2d_14">
      <g>
       <use style="stroke:#000000;stroke-width:0.8;" x="36.465625" xlink:href="#m2545f13024" y="366.378609"/>
      </g>
     </g>
     <g id="text_7">
      <!-- 0.20 -->
      <g transform="translate(7.2 370.177827)scale(0.1 -0.1)">
       <use xlink:href="#DejaVuSans-30"/>
       <use x="63.623047" xlink:href="#DejaVuSans-2e"/>
       <use x="95.410156" xlink:href="#DejaVuSans-32"/>
       <use x="159.033203" xlink:href="#DejaVuSans-30"/>
      </g>
     </g>
    </g>
    <g id="ytick_3">
     <g id="line2d_15">
      <path clip-path="url(#pfb2e27e281)" d="M 36.465625 314.130931  L 706.065625 314.130931  " style="fill:none;stroke:#b0b0b0;stroke-linecap:square;stroke-width:0.8;"/>
     </g>
     <g id="line2d_16">
      <g>
       <use style="stroke:#000000;stroke-width:0.8;" x="36.465625" xlink:href="#m2545f13024" y="314.130931"/>
      </g>
     </g>
     <g id="text_8">
      <!-- 0.25 -->
      <g transform="translate(7.2 317.93015)scale(0.1 -0.1)">
       <use xlink:href="#DejaVuSans-30"/>
       <use x="63.623047" xlink:href="#DejaVuSans-2e"/>
       <use x="95.410156" xlink:href="#DejaVuSans-32"/>
       <use x="159.033203" xlink:href="#DejaVuSans-35"/>
      </g>
     </g>
    </g>
    <g id="ytick_4">
     <g id="line2d_17">
      <path clip-path="url(#pfb2e27e281)" d="M 36.465625 261.883254  L 706.065625 261.883254  " style="fill:none;stroke:#b0b0b0;stroke-linecap:square;stroke-width:0.8;"/>
     </g>
     <g id="line2d_18">
      <g>
       <use style="stroke:#000000;stroke-width:0.8;" x="36.465625" xlink:href="#m2545f13024" y="261.883254"/>
      </g>
     </g>
     <g id="text_9">
      <!-- 0.30 -->
      <g transform="translate(7.2 265.682473)scale(0.1 -0.1)">
       <use xlink:href="#DejaVuSans-30"/>
       <use x="63.623047" xlink:href="#DejaVuSans-2e"/>
       <use x="95.410156" xlink:href="#DejaVuSans-33"/>
       <use x="159.033203" xlink:href="#DejaVuSans-30"/>
      </g>
     </g>
    </g>
    <g id="ytick_5">
     <g id="line2d_19">
      <path clip-path="url(#pfb2e27e281)" d="M 36.465625 209.635577  L 706.065625 209.635577  " style="fill:none;stroke:#b0b0b0;stroke-linecap:square;stroke-width:0.8;"/>
     </g>
     <g id="line2d_20">
      <g>
       <use style="stroke:#000000;stroke-width:0.8;" x="36.465625" xlink:href="#m2545f13024" y="209.635577"/>
      </g>
     </g>
     <g id="text_10">
      <!-- 0.35 -->
      <g transform="translate(7.2 213.434796)scale(0.1 -0.1)">
       <use xlink:href="#DejaVuSans-30"/>
       <use x="63.623047" xlink:href="#DejaVuSans-2e"/>
       <use x="95.410156" xlink:href="#DejaVuSans-33"/>
       <use x="159.033203" xlink:href="#DejaVuSans-35"/>
      </g>
     </g>
    </g>
    <g id="ytick_6">
     <g id="line2d_21">
      <path clip-path="url(#pfb2e27e281)" d="M 36.465625 157.3879  L 706.065625 157.3879  " style="fill:none;stroke:#b0b0b0;stroke-linecap:square;stroke-width:0.8;"/>
     </g>
     <g id="line2d_22">
      <g>
       <use style="stroke:#000000;stroke-width:0.8;" x="36.465625" xlink:href="#m2545f13024" y="157.3879"/>
      </g>
     </g>
     <g id="text_11">
      <!-- 0.40 -->
      <g transform="translate(7.2 161.187119)scale(0.1 -0.1)">
       <use xlink:href="#DejaVuSans-30"/>
       <use x="63.623047" xlink:href="#DejaVuSans-2e"/>
       <use x="95.410156" xlink:href="#DejaVuSans-34"/>
       <use x="159.033203" xlink:href="#DejaVuSans-30"/>
      </g>
     </g>
    </g>
    <g id="ytick_7">
     <g id="line2d_23">
      <path clip-path="url(#pfb2e27e281)" d="M 36.465625 105.140223  L 706.065625 105.140223  " style="fill:none;stroke:#b0b0b0;stroke-linecap:square;stroke-width:0.8;"/>
     </g>
     <g id="line2d_24">
      <g>
       <use style="stroke:#000000;stroke-width:0.8;" x="36.465625" xlink:href="#m2545f13024" y="105.140223"/>
      </g>
     </g>
     <g id="text_12">
      <!-- 0.45 -->
      <g transform="translate(7.2 108.939441)scale(0.1 -0.1)">
       <use xlink:href="#DejaVuSans-30"/>
       <use x="63.623047" xlink:href="#DejaVuSans-2e"/>
       <use x="95.410156" xlink:href="#DejaVuSans-34"/>
       <use x="159.033203" xlink:href="#DejaVuSans-35"/>
      </g>
     </g>
    </g>
    <g id="ytick_8">
     <g id="line2d_25">
      <path clip-path="url(#pfb2e27e281)" d="M 36.465625 52.892545  L 706.065625 52.892545  " style="fill:none;stroke:#b0b0b0;stroke-linecap:square;stroke-width:0.8;"/>
     </g>
     <g id="line2d_26">
      <g>
       <use style="stroke:#000000;stroke-width:0.8;" x="36.465625" xlink:href="#m2545f13024" y="52.892545"/>
      </g>
     </g>
     <g id="text_13">
      <!-- 0.50 -->
      <g transform="translate(7.2 56.691764)scale(0.1 -0.1)">
       <use xlink:href="#DejaVuSans-30"/>
       <use x="63.623047" xlink:href="#DejaVuSans-2e"/>
       <use x="95.410156" xlink:href="#DejaVuSans-35"/>
       <use x="159.033203" xlink:href="#DejaVuSans-30"/>
      </g>
     </g>
    </g>
   </g>
   <g id="line2d_27">
    <path clip-path="url(#pfb2e27e281)" d="M 36.465625 301.023408  L 37.807509 278.096996  L 39.149393 301.54301  L 40.491276 299.189662  L 41.83316 310.338234  L 43.175044 287.899159  L 44.516928 271.451542  L 45.858811 252.879247  L 47.200695 285.927324  L 48.542579 296.967463  L 49.884463 281.35822  L 51.226346 225.333443  L 52.56823 225.333443  L 53.910114 200.452421  L 55.251998 200.910375  L 56.593882 210.121919  L 57.935765 211.155606  L 59.277649 210.620164  L 60.619533 215.742993  L 61.961417 179.275216  L 63.3033 186.50268  L 64.645184 220.798749  L 65.987068 281.765926  L 67.328952 298.511145  L 68.670835 303.465264  L 70.012719 310.369005  L 71.354603 364.260877  L 72.696487 374.451891  L 74.03837 365.680015  L 75.380254 327.734043  L 76.722138 331.573047  L 78.064022 297.721853  L 79.405906 286.237937  L 80.747789 294.142366  L 82.089673 295.290718  L 83.431557 324.468308  L 84.773441 307.505719  L 86.115324 302.384711  L 87.457208 318.569558  L 88.799092 299.747136  L 90.140976 278.584357  L 91.482859 261.619274  L 92.824743 235.730032  L 94.166627 246.596483  L 95.508511 244.360293  L 96.850395 230.413205  L 98.192278 218.855601  L 99.534162 210.285508  L 100.876046 230.282096  L 102.21793 246.039093  L 103.559813 255.870519  L 104.901697 244.360293  L 106.243581 255.657198  L 107.585465 255.657198  L 108.927348 276.643212  L 110.269232 260.714988  L 111.611116 240.370536  L 112.953 242.591022  L 114.294884 250.743238  L 115.636767 269.88774  L 116.978651 221.545787  L 118.320535 214.373583  L 119.662419 228.718142  L 121.004302 220.76464  L 122.346186 232.698485  L 123.68807 216.824682  L 125.029954 232.729981  L 126.371837 246.114524  L 127.713721 249.202098  L 129.055605 230.287688  L 130.397489 223.26333  L 131.739372 235.114479  L 133.081256 251.640229  L 134.42314 252.244748  L 135.765024 257.793742  L 137.106908 225.864075  L 138.448791 144.944331  L 139.790675 151.058283  L 141.132559 162.511492  L 142.474443 171.081177  L 143.816326 158.429704  L 145.15821 189.710469  L 146.500094 205.222264  L 147.841978 213.835664  L 149.183861 211.194326  L 150.525745 199.840182  L 151.867629 218.912451  L 153.209513 185.687124  L 154.551397 202.660571  L 155.89328 178.923933  L 157.235164 160.591384  L 158.577048 135.110542  L 159.918932 154.237312  L 161.260815 147.834465  L 162.602699 146.620768  L 163.944583 130.373638  L 165.286467 140.789864  L 166.62835 165.442763  L 167.970234 180.664583  L 169.312118 180.664583  L 170.654002 151.668798  L 171.995886 153.000228  L 173.337769 164.562354  L 174.679653 163.156678  L 176.021537 154.981762  L 177.363421 168.645374  L 178.705304 168.040331  L 180.047188 142.244587  L 181.389072 125.215058  L 182.730956 118.666857  L 184.072839 121.872587  L 185.414723 168.645374  L 186.756607 165.442763  L 188.098491 163.663025  L 189.440374 153.031155  L 190.782258 150.307503  L 192.124142 150.307503  L 193.466026 153.705641  L 194.80791 155.793974  L 196.149793 185.857759  L 197.491677 195.442263  L 198.833561 195.354445  L 200.175445 191.114005  L 201.517328 215.368661  L 202.859212 188.549111  L 204.201096 226.203352  L 205.54298 229.880397  L 206.884863 184.362618  L 208.226747 156.925396  L 209.568631 156.233146  L 210.910515 183.839307  L 212.252399 204.913409  L 213.594282 205.347733  L 214.936166 226.959563  L 216.27805 222.195744  L 217.619934 225.643923  L 218.961817 225.643923  L 220.303701 221.898035  L 221.645585 232.457142  L 222.987469 231.929951  L 224.329352 232.892234  L 225.671236 232.892234  L 227.01312 240.83897  L 228.355004 276.835223  L 229.696888 266.365115  L 231.038771 287.590186  L 232.380655 287.742753  L 233.722539 305.171512  L 235.064423 301.875192  L 236.406306 306.142213  L 237.74819 289.50732  L 239.090074 277.834462  L 240.431958 282.871025  L 241.773841 276.756713  L 243.115725 274.74188  L 244.457609 246.01841  L 245.799493 229.231755  L 247.141377 230.418623  L 248.48326 173.216489  L 249.825144 170.477095  L 251.167028 183.845887  L 252.508912 194.092656  L 253.850795 198.826573  L 255.192679 249.055615  L 256.534563 264.622951  L 257.876447 253.712978  L 259.21833 265.774134  L 260.560214 296.413413  L 261.902098 285.622046  L 263.243982 267.770861  L 264.585865 262.687354  L 265.927749 271.697494  L 267.269633 266.520285  L 268.611517 266.520285  L 269.953401 275.78682  L 271.295284 273.727539  L 272.637168 266.520285  L 273.979052 291.211218  L 275.320936 291.401306  L 276.662819 291.211218  L 278.004703 296.504796  L 279.346587 300.002044  L 280.688471 312.760208  L 282.030354 268.825038  L 283.372238 288.59858  L 284.714122 350.463436  L 286.056006 346.023245  L 287.39789 353.828107  L 290.081657 377.208071  L 291.423541 394.395748  L 292.765425 387.409528  L 294.107308 339.88469  L 295.449192 336.396204  L 296.791076 345.810914  L 298.13296 335.028944  L 299.474843 290.515094  L 300.816727 269.254963  L 302.158611 272.041563  L 303.500495 268.340087  L 304.842379 297.599984  L 306.184262 306.776198  L 307.526146 318.90323  L 308.86803 318.569558  L 310.209914 314.836893  L 311.551797 316.033134  L 312.893681 291.567003  L 314.235565 293.509857  L 315.577449 302.067993  L 316.919332 333.280832  L 318.261216 318.569558  L 319.6031 296.348714  L 320.944984 338.620249  L 322.286867 365.677763  L 323.628751 371.622376  L 324.970635 373.552467  L 326.312519 365.986984  L 327.654403 365.986984  L 328.996286 380.77533  L 330.33817 366.654274  L 331.680054 337.134444  L 333.021938 304.612763  L 334.363821 308.279848  L 335.705705 310.298211  L 337.047589 293.036391  L 338.389473 280.579444  L 339.731356 254.639221  L 341.07324 210.247905  L 342.415124 228.929335  L 343.757008 234.199712  L 345.098892 220.909227  L 346.440775 177.96898  L 347.782659 193.984101  L 349.124543 191.7531  L 350.466427 188.549111  L 351.80831 175.157822  L 353.150194 229.921104  L 354.492078 237.287496  L 355.833962 267.919991  L 357.175845 249.150278  L 358.517729 277.722996  L 359.859613 286.829033  L 361.201497 267.598189  L 362.543381 267.598189  L 363.885264 255.411947  L 366.569032 292.710512  L 367.910916 266.821226  L 369.252799 279.744413  L 370.594683 293.881409  L 371.936567 298.777895  L 373.278451 301.200956  L 374.620334 283.80063  L 375.962218 273.76368  L 377.304102 230.792452  L 378.645986 219.035759  L 379.987869 247.138237  L 381.329753 248.231084  L 382.671637 269.593274  L 384.013521 264.01888  L 385.355405 264.01888  L 386.697288 261.94012  L 388.039172 266.224636  L 389.381056 289.77327  L 390.72294 283.216125  L 392.064823 281.149425  L 393.406707 274.761797  L 394.748591 283.440597  L 396.090475 305.548839  L 397.432358 282.475528  L 398.774242 275.879617  L 400.116126 225.721614  L 401.45801 225.721614  L 402.799894 270.236026  L 404.141777 265.661005  L 405.483661 267.98789  L 408.167429 232.465717  L 409.509312 244.728656  L 410.851196 215.636679  L 412.19308 203.600311  L 413.534964 164.801053  L 414.876847 161.323431  L 416.218731 199.844729  L 417.560615 281.558765  L 418.902499 243.476675  L 420.244383 248.165538  L 421.586266 281.641252  L 422.92815 294.26456  L 424.270034 275.940173  L 425.611918 298.036151  L 426.953801 311.762824  L 428.295685 286.382121  L 429.637569 249.048976  L 430.979453 231.157781  L 432.321336 286.997405  L 433.66322 211.963903  L 435.005104 202.660571  L 436.346988 213.848668  L 437.688871 212.508494  L 439.030755 254.043732  L 440.372639 229.861381  L 441.714523 198.847329  L 443.056407 208.884233  L 444.39829 246.902899  L 445.740174 229.861381  L 447.082058 243.476675  L 448.423942 245.600136  L 449.765825 273.560277  L 451.107709 245.600136  L 453.791477 295.847002  L 455.13336 281.843063  L 456.475244 271.138675  L 457.817128 256.515853  L 459.159012 280.8616  L 460.500896 278.503504  L 461.842779 250.289741  L 463.184663 250.289741  L 464.526547 241.238062  L 465.868431 268.678773  L 467.210314 257.806902  L 468.552198 216.853472  L 469.894082 187.633085  L 471.235966 172.369941  L 472.577849 189.926932  L 473.919733 209.294304  L 475.261617 235.318027  L 476.603501 258.016225  L 477.945385 255.222506  L 479.287268 246.265915  L 480.629152 246.265915  L 481.971036 277.237772  L 483.31292 274.770839  L 484.654803 279.664947  L 485.996687 271.051461  L 487.338571 249.565939  L 488.680455 262.153979  L 490.022338 228.19532  L 491.364222 208.949177  L 492.706106 170.90698  L 495.389873 124.176751  L 496.731757 108.375215  L 498.073641 60.460995  L 499.415525 42.701525  L 500.757409 126.844356  L 502.099292 144.592658  L 503.441176 104.105798  L 504.78306 75.862091  L 506.124944 82.868339  L 507.466827 115.171826  L 508.808711 132.403748  L 510.150595 106.025249  L 511.492479 88.983731  L 512.834362 68.036205  L 514.176246 85.591267  L 515.51813 66.768193  L 516.860014 56.605449  L 518.201898 48.121211  L 519.543781 68.877133  L 520.885665 48.121211  L 522.227549 30.467273  L 523.569433 40.472212  L 524.911316 79.345496  L 526.2532 75.862091  L 527.595084 71.052884  L 528.936968 50.706561  L 530.278851 56.361243  L 531.620735 49.498136  L 532.962619 73.179547  L 535.646387 141.19187  L 536.98827 148.170331  L 538.330154 175.626612  L 539.672038 177.471593  L 541.013922 177.471593  L 542.355805 194.192885  L 543.697689 235.876361  L 545.039573 250.94314  L 546.381457 232.097828  L 547.72334 232.097828  L 549.065224 222.392886  L 550.407108 209.093586  L 551.748992 216.048823  L 553.090876 196.771253  L 554.432759 161.69267  L 555.774643 161.778775  L 557.116527 136.176794  L 558.458411 134.410245  L 559.800294 141.273964  L 561.142178 153.408715  L 562.484062 124.176751  L 563.825946 120.488117  L 565.167829 137.720038  L 566.509713 148.250656  L 567.851597 167.068442  L 569.193481 167.068442  L 570.535364 175.626612  L 571.877248 177.471593  L 573.219132 167.24326  L 574.561016 168.89811  L 575.9029 168.89811  L 577.244783 203.168702  L 578.586667 180.954998  L 579.928551 197.04686  L 581.270435 191.920179  L 582.612318 193.469458  L 583.954202 192.294563  L 585.296086 189.480556  L 586.63797 169.972088  L 587.979853 169.793227  L 589.321737 171.515644  L 590.663621 197.324102  L 592.005505 238.260554  L 593.347389 261.37952  L 594.689272 231.457382  L 596.031156 219.104488  L 597.37304 189.842533  L 598.714924 147.862609  L 600.056807 134.68877  L 601.398691 109.242736  L 602.740575 132.922175  L 604.082459 122.898036  L 605.424342 124.640877  L 608.10811 139.863344  L 609.449994 124.640877  L 610.791878 114.924935  L 612.133761 136.297671  L 613.475645 140.374218  L 614.817529 136.641554  L 616.159413 159.114539  L 617.501296 159.114539  L 618.84318 147.90393  L 620.185064 140.374218  L 621.526948 140.275117  L 622.868831 161.340708  L 624.210715 179.457211  L 626.894483 237.529586  L 628.236366 262.373055  L 629.57825 269.211383  L 630.920134 277.489572  L 632.262018 300.3844  L 633.603902 308.625588  L 634.945785 274.754916  L 636.287669 274.754916  L 637.629553 255.685558  L 638.971437 223.77649  L 640.31332 208.180065  L 641.655204 245.54678  L 642.997088 289.68407  L 644.338972 244.610146  L 645.680855 241.111343  L 647.022739 210.420932  L 648.364623 203.222617  L 649.706507 209.157107  L 651.048391 213.922947  L 652.390274 175.157088  L 653.732158 171.515644  L 655.074042 180.493557  L 656.415926 177.137956  L 657.757809 217.832607  L 659.099693 220.052083  L 660.441577 207.969925  L 663.125344 247.797314  L 664.467228 248.196951  L 665.809112 235.618227  L 667.150996 259.727431  L 668.49288 238.423653  L 669.834763 238.423653  L 671.176647 231.250172  L 672.518531 229.804366  L 673.860415 197.79643  L 675.202298 212.359664  L 676.544182 228.974892  L 677.886066 223.043363  L 680.569833 197.963003  L 681.911717 171.124563  L 683.253601 158.74886  L 685.937368 179.648293  L 687.279252 165.980241  L 688.621136 237.364411  L 689.96302 216.322181  L 691.304904 187.838286  L 692.646787 187.477757  L 693.988671 210.485523  L 695.330555 272.277718  L 696.672439 262.309781  L 698.014322 266.039683  L 699.356206 261.23763  L 700.69809 273.517478  L 702.039974 288.208684  L 703.381857 271.079982  L 704.723741 239.337606  L 706.065625 224.548592  L 706.065625 224.548592  " style="fill:none;stroke:#00008b;stroke-linecap:square;stroke-width:1.5;"/>
   </g>
   <g id="line2d_28">
    <path clip-path="url(#pfb2e27e281)" d="M 36.465625 358.298666  L 37.807509 358.43847  L 39.149393 358.224354  L 40.491276 358.297173  L 44.516928 358.005061  L 45.858811 357.74141  L 47.200695 357.054075  L 48.542579 356.86615  L 49.884463 356.889521  L 51.226346 357.075511  L 53.910114 355.280879  L 56.593882 353.097834  L 59.277649 351.246904  L 61.961417 348.796421  L 64.645184 345.645684  L 65.987068 344.403927  L 67.328952 343.896749  L 70.012719 343.438108  L 71.354603 343.453864  L 72.696487 343.782242  L 75.380254 344.076936  L 78.064022 343.804885  L 82.089673 341.896146  L 83.431557 341.122608  L 84.773441 340.57027  L 86.115324 339.880493  L 87.457208 339.029129  L 88.799092 338.328208  L 90.140976 337.356705  L 91.482859 335.879777  L 92.824743 334.16966  L 95.508511 329.975414  L 96.850395 327.591601  L 100.876046 319.642725  L 102.21793 317.162877  L 104.901697 313.255154  L 107.585465 310.180361  L 110.269232 307.890988  L 115.636767 303.12317  L 116.978651 301.939018  L 118.320535 300.365551  L 122.346186 296.388377  L 123.68807 294.777869  L 126.371837 291.04482  L 127.713721 289.326625  L 131.739372 285.258532  L 133.081256 284.366197  L 135.765024 283.699712  L 137.106908 283.202955  L 138.448791 282.531913  L 142.474443 277.333843  L 143.816326 276.186359  L 145.15821 274.865312  L 146.500094 273.746153  L 147.841978 273.059194  L 150.525745 272.247997  L 151.867629 271.934739  L 153.209513 271.771552  L 154.551397 271.205276  L 157.235164 270.461327  L 158.577048 269.64825  L 161.260815 267.376383  L 163.944583 264.328085  L 167.970234 259.379465  L 170.654002 256.373648  L 173.337769 252.843874  L 185.414723 238.432836  L 186.756607 237.325356  L 188.098491 235.939116  L 190.782258 232.732786  L 193.466026 229.101966  L 194.80791 227.60477  L 197.491677 225.386617  L 198.833561 224.506774  L 200.175445 223.817253  L 201.517328 222.897011  L 202.859212 222.198503  L 204.201096 221.183594  L 205.54298 220.669462  L 206.884863 220.323036  L 208.226747 219.752064  L 210.910515 217.504262  L 212.252399 216.691604  L 214.936166 216.35489  L 217.619934 216.753161  L 222.987469 217.236514  L 225.671236 218.061883  L 227.01312 218.162662  L 228.355004 217.821604  L 229.696888 217.640971  L 231.038771 217.331803  L 232.380655 217.14198  L 235.064423 215.926992  L 236.406306 215.395285  L 237.74819 215.215353  L 239.090074 214.864806  L 240.431958 214.699077  L 241.773841 214.67102  L 244.457609 214.354899  L 248.48326 212.449149  L 251.167028 210.160623  L 252.508912 209.371136  L 253.850795 208.808414  L 255.192679 208.500886  L 256.534563 208.521378  L 259.21833 208.884399  L 260.560214 209.275386  L 261.902098 209.993119  L 263.243982 210.454285  L 264.585865 210.635383  L 265.927749 210.69219  L 267.269633 210.92  L 273.979052 211.420268  L 276.662819 212.164253  L 278.004703 212.341949  L 280.688471 213.680178  L 282.030354 214.380528  L 284.714122 215.246866  L 286.056006 216.360522  L 290.081657 219.170048  L 291.423541 220.394384  L 294.107308 223.089613  L 298.13296 225.259722  L 299.474843 226.169429  L 300.816727 227.382519  L 303.500495 229.280242  L 304.842379 230.090733  L 306.184262 231.250485  L 310.209914 234.046157  L 312.893681 235.878119  L 314.235565 236.483574  L 316.919332 238.210492  L 320.944984 242.156936  L 322.286867 243.69346  L 324.970635 247.383834  L 327.654403 251.286967  L 331.680054 256.175673  L 333.021938 257.72122  L 337.047589 261.408483  L 338.389473 262.558938  L 339.731356 263.491722  L 341.07324 264.213379  L 342.415124 264.780074  L 346.440775 267.432439  L 347.782659 267.510135  L 353.150194 268.485133  L 355.833962 269.845095  L 357.175845 270.779478  L 358.517729 271.306916  L 362.543381 273.392245  L 363.885264 273.827491  L 365.227148 274.384681  L 366.569032 274.780869  L 367.910916 275.304453  L 369.252799 275.991608  L 373.278451 279.11999  L 374.620334 279.922386  L 375.962218 280.576161  L 377.304102 280.966195  L 378.645986 281.037834  L 379.987869 280.982766  L 382.671637 281.381327  L 386.697288 282.217592  L 389.381056 282.671205  L 392.064823 282.919447  L 394.748591 282.757599  L 396.090475 282.576508  L 397.432358 282.607122  L 400.116126 282.296335  L 402.799894 281.385817  L 405.483661 281.255803  L 408.167429 281.612492  L 409.509312 281.629551  L 410.851196 282.225486  L 412.19308 282.601816  L 413.534964 282.766436  L 416.218731 282.209813  L 417.560615 281.799722  L 418.902499 281.940854  L 424.270034 281.657733  L 425.611918 281.72581  L 429.637569 282.519777  L 430.979453 282.374182  L 432.321336 282.002274  L 433.66322 282.112856  L 435.005104 281.65822  L 437.688871 280.274025  L 439.030755 279.618169  L 440.372639 279.264327  L 441.714523 278.679822  L 443.056407 277.730548  L 444.39829 277.231041  L 445.740174 276.883577  L 447.082058 275.87856  L 451.107709 273.357288  L 453.791477 271.22476  L 455.13336 270.461739  L 457.817128 269.434246  L 459.159012 268.690121  L 460.500896 268.238726  L 463.184663 267.980586  L 467.210314 267.332461  L 468.552198 266.924383  L 469.894082 266.073969  L 473.919733 262.744722  L 475.261617 262.059116  L 479.287268 260.5566  L 480.629152 259.954069  L 483.31292 259.025192  L 487.338571 256.647147  L 490.022338 254.811697  L 492.706106 252.225988  L 496.731757 248.003646  L 498.073641 246.320955  L 500.757409 242.40051  L 502.099292 241.335553  L 503.441176 240.788426  L 504.78306 239.74823  L 506.124944 238.42875  L 507.466827 237.278409  L 510.150595 236.24193  L 512.834362 234.69782  L 514.176246 233.805139  L 515.51813 232.602391  L 516.860014 231.181397  L 522.227549 224.015586  L 524.911316 220.146778  L 526.2532 218.679558  L 527.595084 217.030527  L 532.962619 209.484371  L 534.304503 207.604385  L 535.646387 205.97792  L 538.330154 203.742903  L 543.697689 201.905946  L 545.039573 201.624971  L 546.381457 201.516007  L 550.407108 200.636048  L 554.432759 198.700838  L 557.116527 196.744747  L 558.458411 195.333313  L 561.142178 192.977722  L 562.484062 192.375115  L 563.825946 191.528907  L 565.167829 190.281008  L 567.851597 188.217023  L 569.193481 187.525386  L 571.877248 186.404559  L 574.561016 185.783541  L 578.586667 185.908505  L 579.928551 185.07014  L 582.612318 184.214514  L 586.63797 181.909502  L 590.663621 178.702001  L 592.005505 178.27096  L 593.347389 178.33015  L 594.689272 178.116668  L 597.37304 178.416146  L 598.714924 178.216095  L 600.056807 177.677379  L 602.740575 175.677599  L 604.082459 175.128223  L 605.424342 174.411671  L 606.766226 173.392821  L 609.449994 171.714512  L 610.791878 170.706518  L 612.133761 169.384557  L 613.475645 168.473703  L 614.817529 167.392652  L 616.159413 166.06594  L 618.84318 164.109668  L 620.185064 163.204569  L 622.868831 160.881937  L 624.210715 160.140695  L 625.552599 159.550424  L 628.236366 159.02791  L 629.57825 159.065962  L 630.920134 159.502278  L 632.262018 160.251082  L 634.945785 162.307024  L 636.287669 162.852529  L 637.629553 163.18117  L 638.971437 163.161748  L 641.655204 162.582316  L 644.338972 162.680042  L 647.022739 162.107423  L 648.364623 161.602169  L 651.048391 160.774334  L 652.390274 160.655397  L 653.732158 160.373796  L 655.074042 160.378869  L 656.415926 160.647462  L 657.757809 161.088805  L 659.099693 162.00095  L 661.783461 164.708113  L 664.467228 166.413797  L 667.150996 168.945857  L 668.49288 170.419683  L 669.834763 171.446782  L 671.176647 172.330281  L 673.860415 174.547327  L 676.544182 176.685066  L 680.569833 180.776807  L 685.937368 185.01821  L 688.621136 186.605051  L 691.304904 189.371111  L 695.330555 192.760799  L 696.672439 194.146237  L 699.356206 196.137797  L 702.039974 197.651605  L 703.381857 198.574414  L 704.723741 199.215139  L 706.065625 199.243983  L 706.065625 199.243983  " style="fill:none;stroke:#87ceeb;stroke-linecap:square;stroke-width:1.5;"/>
   </g>
   <g id="line2d_29">
    <path clip-path="url(#pfb2e27e281)" d="M 36.465625 424.841827  L 49.884463 424.769577  L 51.226346 424.715358  L 56.593882 425.484979  L 59.277649 425.812727  L 64.645184 425.124678  L 65.987068 424.662447  L 67.328952 424.358634  L 70.012719 424.06532  L 71.354603 424.074371  L 72.696487 424.40661  L 75.380254 424.759943  L 78.064022 424.506138  L 82.089673 422.88529  L 87.457208 419.677449  L 88.799092 418.783959  L 90.140976 417.566178  L 91.482859 415.519377  L 92.824743 413.17441  L 94.166627 410.449237  L 95.508511 407.078281  L 96.850395 402.845136  L 98.192278 397.693223  L 102.21793 384.037931  L 104.901697 376.929734  L 107.585465 372.354577  L 108.927348 371.092097  L 110.269232 369.067254  L 111.611116 367.295164  L 112.953 365.734603  L 115.636767 363.12327  L 118.320535 359.198538  L 121.004302 356.678134  L 122.346186 355.049355  L 123.68807 352.497025  L 125.029954 349.343255  L 127.713721 342.219312  L 129.055605 339.643394  L 130.397489 337.352608  L 131.739372 335.846326  L 133.081256 334.885602  L 135.765024 334.37975  L 139.790675 332.661794  L 141.132559 331.521541  L 142.474443 330.52888  L 145.15821 329.781109  L 146.500094 329.01931  L 147.841978 328.669247  L 150.525745 328.3763  L 158.577048 328.345018  L 159.918932 328.513026  L 161.260815 328.195098  L 162.602699 327.457695  L 163.944583 326.501336  L 165.286467 325.690757  L 166.62835 324.405897  L 167.970234 322.960018  L 170.654002 319.333106  L 171.995886 317.294056  L 174.679653 313.800237  L 176.021537 311.974785  L 177.363421 310.43145  L 180.047188 306.603645  L 182.730956 303.732575  L 185.414723 301.730457  L 186.756607 300.672093  L 188.098491 299.020825  L 190.782258 294.772779  L 193.466026 289.44667  L 194.80791 287.568377  L 196.149793 286.434819  L 197.491677 284.964577  L 198.833561 283.736941  L 200.175445 282.899748  L 201.517328 281.617599  L 202.859212 280.500985  L 204.201096 278.996855  L 205.54298 278.157855  L 208.226747 277.071064  L 209.568631 275.954202  L 210.910515 274.605441  L 212.252399 273.569888  L 214.936166 273.240888  L 217.619934 273.612276  L 222.987469 274.116996  L 225.671236 274.793963  L 227.01312 274.910384  L 228.355004 274.30623  L 229.696888 273.899598  L 231.038771 273.215514  L 232.380655 272.744992  L 236.406306 267.170904  L 237.74819 266.633574  L 239.090074 265.622229  L 240.431958 265.215586  L 241.773841 265.148381  L 244.457609 264.383767  L 245.799493 262.782626  L 248.48326 260.112047  L 249.825144 258.020049  L 251.167028 256.372444  L 252.508912 255.211948  L 253.850795 254.416333  L 255.192679 254.050129  L 256.534563 254.088455  L 259.21833 254.764845  L 260.560214 255.440554  L 261.902098 256.838628  L 263.243982 257.771228  L 264.585865 258.130916  L 265.927749 258.246322  L 267.269633 258.701711  L 269.953401 259.073728  L 271.295284 259.056822  L 272.637168 259.29293  L 273.979052 259.702989  L 276.662819 261.324815  L 278.004703 261.750822  L 280.688471 264.304109  L 282.030354 265.789497  L 283.372238 266.426817  L 284.714122 267.306069  L 286.056006 269.863159  L 288.739773 274.322674  L 290.081657 276.810372  L 291.423541 279.805993  L 292.765425 283.318807  L 294.107308 286.409056  L 299.474843 292.727537  L 300.816727 293.774155  L 304.842379 295.932134  L 307.526146 298.266565  L 310.209914 300.940282  L 312.893681 303.469208  L 314.235565 304.246601  L 316.919332 306.18841  L 318.261216 307.803055  L 319.6031 309.108372  L 320.944984 309.939121  L 322.286867 311.555686  L 327.654403 320.016838  L 328.996286 322.020517  L 330.33817 324.340695  L 331.680054 326.298756  L 333.021938 327.564884  L 335.705705 329.080075  L 337.047589 329.872954  L 339.731356 330.774775  L 341.07324 330.926045  L 342.415124 330.732459  L 345.098892 330.025759  L 346.440775 329.583461  L 349.124543 329.439327  L 351.80831 329.148013  L 357.175845 328.586161  L 358.517729 328.618877  L 362.543381 329.355434  L 363.885264 329.538152  L 365.227148 329.567123  L 366.569032 329.78486  L 367.910916 330.176326  L 369.252799 330.227682  L 371.936567 330.123254  L 373.278451 330.38243  L 374.620334 330.765396  L 377.304102 331.106516  L 382.671637 331.141768  L 386.697288 331.423369  L 393.406707 331.747835  L 394.748591 331.64314  L 396.090475 331.418552  L 397.432358 331.462513  L 398.774242 331.217231  L 401.45801 330.939722  L 402.799894 330.730166  L 405.483661 330.62603  L 408.167429 330.742603  L 409.509312 330.742089  L 412.19308 330.104842  L 413.534964 329.957556  L 416.218731 330.606921  L 420.244383 330.775001  L 424.270034 330.645813  L 425.611918 330.700105  L 426.953801 330.98551  L 428.295685 331.384961  L 429.637569 331.530095  L 436.346988 331.126279  L 440.372639 330.227294  L 443.056407 329.273373  L 444.39829 329.149969  L 445.740174 328.865274  L 449.765825 325.064935  L 451.107709 323.603336  L 452.449593 321.649792  L 453.791477 319.31739  L 455.13336 317.408224  L 457.817128 315.553303  L 459.159012 314.283884  L 460.500896 313.436612  L 465.868431 312.856233  L 467.210314 312.530955  L 468.552198 311.984614  L 471.235966 310.319419  L 472.577849 309.677801  L 473.919733 308.863969  L 477.945385 307.328544  L 479.287268 306.200996  L 480.629152 305.302492  L 481.971036 304.777706  L 483.31292 303.708078  L 485.996687 299.901283  L 490.022338 293.305069  L 491.364222 290.319646  L 492.706106 287.724943  L 494.04799 286.241703  L 495.389873 285.809594  L 496.731757 285.637833  L 498.073641 285.623618  L 499.415525 286.960492  L 500.757409 288.657344  L 503.441176 288.951998  L 504.78306 289.492069  L 506.124944 290.372356  L 507.466827 291.107563  L 508.808711 291.463748  L 510.150595 291.639617  L 511.492479 292.045204  L 512.834362 292.624239  L 514.176246 293.456535  L 519.543781 294.692444  L 522.227549 294.021351  L 523.569433 294.120738  L 524.911316 293.982285  L 526.2532 293.550494  L 527.595084 292.851602  L 528.936968 291.840644  L 530.278851 291.343896  L 531.620735 290.544182  L 532.962619 289.509959  L 534.304503 288.162773  L 535.646387 286.600987  L 536.98827 285.306789  L 538.330154 284.172297  L 539.672038 283.714331  L 541.013922 283.389049  L 543.697689 282.179997  L 545.039573 281.718919  L 546.381457 281.533214  L 550.407108 280.151185  L 551.748992 279.058811  L 553.090876 278.141838  L 555.774643 275.893433  L 557.116527 274.547076  L 558.458411 272.68019  L 561.142178 269.882601  L 563.825946 268.646734  L 566.509713 266.093061  L 567.851597 264.840876  L 569.193481 263.960632  L 571.877248 262.570936  L 574.561016 261.908559  L 578.586667 262.013338  L 579.928551 260.664855  L 581.270435 260.095086  L 582.612318 259.402955  L 583.954202 258.13705  L 585.296086 256.592832  L 586.63797 255.375176  L 587.979853 253.532958  L 589.321737 251.349604  L 590.663621 249.719124  L 592.005505 249.013966  L 593.347389 249.120733  L 594.689272 248.614814  L 597.37304 249.078979  L 598.714924 248.811723  L 600.056807 248.255777  L 601.398691 247.016497  L 602.740575 246.106797  L 604.082459 245.63225  L 605.424342 245.006636  L 606.766226 243.814828  L 608.10811 242.906739  L 610.791878 240.591144  L 612.133761 238.806083  L 613.475645 237.603274  L 614.817529 235.931433  L 616.159413 233.631288  L 617.501296 231.764908  L 618.84318 230.114305  L 620.185064 228.673932  L 622.868831 224.612256  L 624.210715 223.337427  L 625.552599 222.226721  L 628.236366 221.028827  L 629.57825 221.12938  L 630.920134 222.156595  L 632.262018 223.775339  L 634.945785 228.431558  L 636.287669 229.634693  L 637.629553 230.418425  L 638.971437 230.37171  L 641.655204 229.181791  L 642.997088 229.168236  L 644.338972 229.461468  L 645.680855 228.840452  L 647.022739 228.03877  L 648.364623 226.921096  L 649.706507 226.146296  L 651.048391 225.19053  L 652.390274 224.959141  L 653.732158 224.538114  L 655.074042 224.54405  L 657.757809 225.199455  L 660.441577 226.993557  L 661.783461 227.521234  L 663.125344 228.535702  L 669.834763 234.885999  L 672.518531 236.932964  L 673.860415 237.834683  L 675.202298 238.185193  L 679.22795 239.972797  L 681.911717 240.364586  L 683.253601 240.090162  L 684.595485 239.460725  L 685.937368 238.958377  L 687.279252 238.912915  L 688.621136 238.723435  L 689.96302 239.214374  L 691.304904 239.073043  L 692.646787 238.637514  L 693.988671 238.008082  L 695.330555 237.882481  L 699.356206 241.537104  L 700.69809 242.596843  L 702.039974 243.892845  L 703.381857 245.509304  L 704.723741 246.612245  L 706.065625 246.664634  L 706.065625 246.664634  " style="fill:none;stroke:#87ceeb;stroke-dasharray:5.6,2.4;stroke-dashoffset:0;stroke-width:1.5;"/>
   </g>
   <g id="line2d_30">
    <path clip-path="url(#pfb2e27e281)" d="M 36.465625 291.755506  L 37.807509 292.034718  L 39.149393 291.601849  L 40.491276 291.742032  L 41.83316 291.554169  L 43.175044 291.49109  L 44.516928 291.201738  L 45.858811 290.657689  L 47.200695 289.319715  L 48.542579 288.96481  L 49.884463 289.009465  L 51.226346 289.435664  L 53.910114 285.618049  L 56.593882 280.710688  L 59.277649 276.68108  L 61.961417 272.160034  L 64.645184 266.16669  L 65.987068 264.145407  L 67.328952 263.434865  L 68.670835 263.054868  L 70.012719 262.810896  L 71.354603 262.833357  L 72.696487 263.157874  L 75.380254 263.393929  L 78.064022 263.103631  L 80.747789 261.604678  L 83.431557 260.135328  L 84.773441 259.698352  L 90.140976 257.147233  L 91.482859 256.240176  L 92.824743 255.16491  L 94.166627 253.788136  L 95.508511 252.872547  L 96.850395 252.338065  L 98.192278 252.081149  L 99.534162 251.392333  L 100.876046 250.536235  L 102.21793 250.287824  L 104.901697 249.580574  L 106.243581 248.674299  L 107.585465 248.006146  L 108.927348 247.115141  L 110.269232 246.714722  L 111.611116 246.036262  L 114.294884 243.98818  L 115.636767 243.123071  L 116.978651 242.70819  L 118.320535 241.532565  L 119.662419 240.076229  L 122.346186 237.727398  L 125.029954 236.405851  L 126.371837 236.252867  L 127.713721 236.433939  L 129.055605 236.22554  L 130.397489 235.62645  L 133.081256 233.846793  L 137.106908 232.563932  L 138.448791 231.669676  L 139.790675 228.844632  L 141.132559 226.338938  L 142.474443 224.138807  L 143.816326 222.196123  L 145.15821 219.949515  L 146.500094 218.472995  L 147.841978 217.449141  L 150.525745 216.119695  L 151.867629 215.50639  L 153.209513 215.217509  L 154.551397 214.130349  L 155.89328 213.521783  L 157.235164 212.618364  L 158.577048 210.951481  L 159.918932 208.577237  L 162.602699 204.346014  L 163.944583 202.154834  L 165.286467 199.600727  L 166.62835 197.401614  L 167.970234 195.798912  L 170.654002 193.41419  L 173.337769 190.098978  L 176.021537 187.335529  L 177.363421 185.766217  L 180.047188 183.407779  L 181.389072 181.657651  L 184.072839 177.280724  L 185.414723 175.135215  L 188.098491 172.857408  L 189.440374 171.875062  L 190.782258 170.692793  L 196.149793 166.449743  L 198.833561 165.276608  L 201.517328 164.176424  L 202.859212 163.896022  L 204.201096 163.370333  L 206.884863 163.018268  L 208.226747 162.433064  L 210.910515 160.403083  L 212.252399 159.81332  L 214.936166 159.468891  L 217.619934 159.894045  L 222.987469 160.356031  L 225.671236 161.329802  L 227.01312 161.414939  L 228.355004 161.336977  L 232.380655 161.538967  L 233.722539 162.17856  L 236.406306 163.619666  L 237.74819 163.797133  L 239.090074 164.107382  L 244.457609 164.326031  L 245.799493 164.619674  L 248.48326 164.786252  L 249.825144 164.455698  L 252.508912 163.530325  L 255.192679 162.951642  L 259.21833 163.003952  L 261.902098 163.14761  L 282.030354 162.971559  L 284.714122 163.187662  L 287.39789 162.52633  L 290.081657 161.529723  L 294.107308 159.77017  L 298.13296 159.460294  L 299.474843 159.611322  L 302.158611 162.241462  L 306.184262 165.456274  L 307.526146 166.185501  L 314.235565 168.720547  L 315.577449 169.583436  L 316.919332 170.232574  L 318.261216 171.190544  L 319.6031 172.518197  L 320.944984 174.374751  L 324.970635 178.843949  L 327.654403 182.557096  L 328.996286 183.895821  L 331.680054 186.05259  L 334.363821 189.682061  L 337.047589 192.944012  L 338.389473 194.740996  L 339.731356 196.20867  L 342.415124 198.827688  L 343.757008 200.867199  L 345.098892 203.188507  L 346.440775 205.281416  L 347.782659 205.477932  L 350.466427 206.636657  L 351.80831 207.40808  L 353.150194 207.978701  L 355.833962 211.093329  L 357.175845 212.972795  L 359.859613 215.105265  L 362.543381 217.429056  L 363.885264 218.116831  L 365.227148 219.20224  L 367.910916 220.43258  L 369.252799 221.755534  L 371.936567 226.201083  L 373.278451 227.85755  L 375.962218 230.197864  L 377.304102 230.825873  L 378.645986 230.976108  L 379.987869 230.856002  L 382.671637 231.620887  L 386.697288 233.011815  L 389.381056 233.765457  L 393.406707 233.983713  L 400.116126 233.489803  L 402.799894 232.041467  L 405.483661 231.885577  L 408.167429 232.482381  L 409.509312 232.517013  L 410.851196 234.01389  L 412.19308 235.098789  L 413.534964 235.575316  L 414.876847 234.795978  L 417.560615 232.913303  L 418.902499 233.08  L 422.92815 232.60997  L 425.611918 232.751516  L 428.295685 233.323562  L 429.637569 233.509458  L 430.979453 233.29004  L 432.321336 232.699211  L 433.66322 232.813628  L 435.005104 231.964012  L 436.346988 230.714316  L 439.030755 228.684386  L 440.372639 228.301361  L 441.714523 227.554728  L 443.056407 226.187723  L 444.39829 225.312113  L 445.740174 224.90188  L 447.082058 224.166249  L 449.765825 223.179276  L 451.107709 223.11124  L 452.449593 222.871319  L 453.791477 223.13213  L 455.13336 223.515255  L 457.817128 223.315189  L 459.159012 223.096357  L 461.842779 222.977206  L 464.526547 222.581471  L 465.868431 222.290708  L 467.210314 222.133966  L 468.552198 221.864152  L 469.894082 221.039993  L 471.235966 219.646244  L 472.577849 217.913412  L 473.919733 216.625474  L 475.261617 215.760757  L 476.603501 215.303266  L 480.629152 214.605647  L 481.971036 214.29572  L 483.31292 214.342307  L 484.654803 214.650222  L 487.338571 215.593665  L 488.680455 215.87249  L 491.364222 216.760748  L 492.706106 216.727033  L 494.04799 215.439815  L 495.389873 213.266084  L 496.731757 210.369459  L 498.073641 207.018291  L 499.415525 201.805161  L 500.757409 196.143677  L 502.099292 193.906615  L 503.441176 192.624855  L 504.78306 190.004392  L 506.124944 186.485144  L 507.466827 183.449255  L 508.808711 182.046451  L 510.150595 180.844242  L 511.492479 179.009858  L 512.834362 176.7714  L 515.51813 171.436198  L 516.860014 168.172007  L 519.543781 160.797956  L 520.885665 157.667549  L 522.227549 154.009821  L 523.569433 149.958252  L 524.911316 146.311272  L 527.595084 141.209452  L 528.936968 138.526116  L 532.962619 129.458783  L 534.304503 127.045996  L 535.646387 125.354854  L 538.330154 123.313508  L 542.355805 121.974347  L 543.697689 121.631895  L 550.407108 121.12091  L 554.432759 120.323197  L 557.116527 118.942418  L 561.142178 116.072844  L 562.484062 115.445656  L 563.825946 114.41108  L 565.167829 113.235945  L 566.509713 112.336606  L 567.851597 111.593171  L 570.535364 110.635191  L 571.877248 110.238181  L 574.561016 109.658522  L 578.586667 109.803672  L 579.928551 109.475426  L 589.321737 107.968839  L 590.663621 107.684877  L 592.005505 107.527954  L 594.689272 107.618521  L 597.37304 107.753313  L 598.714924 107.620467  L 600.056807 107.098981  L 601.398691 106.349012  L 602.740575 105.248401  L 604.082459 104.624196  L 608.10811 102.249173  L 609.449994 101.627858  L 612.133761 99.963031  L 613.475645 99.344132  L 614.817529 98.853871  L 616.159413 98.500592  L 618.84318 98.10503  L 621.526948 97.435804  L 624.210715 96.943964  L 626.894483 96.891204  L 628.236366 97.026994  L 629.57825 97.002543  L 633.603902 96.526131  L 634.945785 96.182491  L 638.971437 95.951786  L 642.997088 95.984409  L 644.338972 95.898616  L 649.706507 96.285652  L 652.390274 96.351653  L 653.732158 96.209478  L 655.074042 96.213687  L 656.415926 96.465968  L 657.757809 96.978155  L 659.099693 97.867936  L 660.441577 99.668195  L 661.783461 101.894992  L 663.125344 102.571814  L 664.467228 103.017207  L 665.809112 104.043689  L 668.49288 107.076284  L 669.834763 108.007564  L 671.176647 108.701403  L 672.518531 109.81468  L 673.860415 111.259971  L 675.202298 113.072131  L 676.544182 114.593134  L 677.886066 116.595637  L 679.22795 118.874744  L 680.569833 121.383462  L 681.911717 123.340459  L 683.253601 125.664939  L 685.937368 131.078043  L 688.621136 134.486667  L 689.96302 136.767586  L 691.304904 139.669178  L 692.646787 142.295992  L 693.988671 145.225084  L 695.330555 147.639118  L 696.672439 149.157954  L 699.356206 150.73849  L 702.039974 151.410364  L 704.723741 151.818034  L 706.065625 151.823333  L 706.065625 151.823333  " style="fill:none;stroke:#87ceeb;stroke-dasharray:5.6,2.4;stroke-dashoffset:0;stroke-width:1.5;"/>
   </g>
   <g id="patch_3">
    <path d="M 36.465625 445.58  L 36.465625 10.7  " style="fill:none;stroke:#000000;stroke-linecap:square;stroke-linejoin:miter;stroke-width:0.8;"/>
   </g>
   <g id="patch_4">
    <path d="M 706.065625 445.58  L 706.065625 10.7  " style="fill:none;stroke:#000000;stroke-linecap:square;stroke-linejoin:miter;stroke-width:0.8;"/>
   </g>
   <g id="patch_5">
    <path d="M 36.465625 445.58  L 706.065625 445.58  " style="fill:none;stroke:#000000;stroke-linecap:square;stroke-linejoin:miter;stroke-width:0.8;"/>
   </g>
   <g id="patch_6">
    <path d="M 36.465625 10.7  L 706.065625 10.7  " style="fill:none;stroke:#000000;stroke-linecap:square;stroke-linejoin:miter;stroke-width:0.8;"/>
   </g>
  </g>
 </g>
 <defs>
  <clipPath id="pfb2e27e281">
   <rect height="434.88" width="669.6" x="36.465625" y="10.7"/>
  </clipPath>
 </defs>
</svg>