<?xml version="1.0" encoding="UTF-8" standalone="no"?>
<!DOCTYPE svg PUBLIC "-//W3C//DTD SVG 1.1//EN" "http://www.w3.org/Graphics/SVG/1.1/DTD/svg11.dtd">
<!-- Created with matplotlib (http://matplotlib.org/) -->
<svg height="469pt" version="1.1" viewBox="0 0 709 469" width="709pt" xmlns="http://www.w3.org/2000/svg" xmlns:xlink="http://www.w3.org/1999/xlink">
 <defs>
  <style type="text/css">
*{stroke-linecap:butt;stroke-linejoin:round;}
  </style>
 </defs>
 <g id="figure_1">
  <g id="patch_1">
   <path d="M 0 469.458125  L 709.242188 469.458125  L 709.242188 0  L 0 0  z " style="fill:#ffffff;"/>
  </g>
  <g id="axes_1">
   <g id="patch_2">
    <path d="M 28.942188 445.58  L 698.542188 445.58  L 698.542188 10.7  L 28.942188 10.7  z " style="fill:#ffffff;"/>
   </g>
   <g id="matplotlib.axis_1">
    <g id="xtick_1">
     <g id="line2d_1">
      <path clip-path="url(#pb79b507adb)" d="M 28.942188 445.58  L 28.942188 10.7  " style="fill:none;stroke:#b0b0b0;stroke-linecap:square;stroke-width:0.8;"/>
     </g>
     <g id="line2d_2">
      <defs>
       <path d="M 0 0  L 0 3.5  " id="m33258e6aa6" style="stroke:#000000;stroke-width:0.8;"/>
      </defs>
      <g>
       <use style="stroke:#000000;stroke-width:0.8;" x="28.942188" xlink:href="#m33258e6aa6" y="445.58"/>
      </g>
     </g>
     <g id="text_1">
      <!-- 0 -->
      <defs>
       <path d="M 31.78125 66.40625  Q 24.171875 66.40625 20.328125 58.90625  Q 16.5 51.421875 16.5 36.375  Q 16.5 21.390625 20.328125 13.890625  Q 24.171875 6.390625 31.78125 6.390625  Q 39.453125 6.390625 43.28125 13.890625  Q 47.125 21.390625 47.125 36.375  Q 47.125 51.421875 43.28125 58.90625  Q 39.453125 66.40625 31.78125 66.40625  M 31.78125 74.21875  Q 44.046875 74.21875 50.515625 64.515625  Q 56.984375 54.828125 56.984375 36.375  Q 56.984375 17.96875 50.515625 8.265625  Q 44.046875 -1.421875 31.78125 -1.421875  Q 19.53125 -1.421875 13.0625 8.265625  Q 6.59375 17.96875 6.59375 36.375  Q 6.59375 54.828125 13.0625 64.515625  Q 19.53125 74.21875 31.78125 74.21875  " id="DejaVuSans-30"/>
      </defs>
      <g transform="translate(25.760938 460.178437)scale(0.1 -0.1)">
       <use xlink:href="#DejaVuSans-30"/>
      </g>
     </g>
    </g>
    <g id="xtick_2">
     <g id="line2d_3">
      <path clip-path="url(#pb79b507adb)" d="M 163.130564 445.58  L 163.130564 10.7  " style="fill:none;stroke:#b0b0b0;stroke-linecap:square;stroke-width:0.8;"/>
     </g>
     <g id="line2d_4">
      <g>
       <use style="stroke:#000000;stroke-width:0.8;" x="163.130564" xlink:href="#m33258e6aa6" y="445.58"/>
      </g>
     </g>
     <g id="text_2">
      <!-- 100 -->
      <defs>
       <path d="M 12.40625 8.296875  L 28.515625 8.296875  L 28.515625 63.921875  L 10.984375 60.40625  L 10.984375 69.390625  L 28.421875 72.90625  L 38.28125 72.90625  L 38.28125 8.296875  L 54.390625 8.296875  L 54.390625 0  L 12.40625 0  z " id="DejaVuSans-31"/>
      </defs>
      <g transform="translate(153.586814 460.178437)scale(0.1 -0.1)">
       <use xlink:href="#DejaVuSans-31"/>
       <use x="63.623047" xlink:href="#DejaVuSans-30"/>
       <use x="127.246094" xlink:href="#DejaVuSans-30"/>
      </g>
     </g>
    </g>
    <g id="xtick_3">
     <g id="line2d_5">
      <path clip-path="url(#pb79b507adb)" d="M 297.318941 445.58  L 297.318941 10.7  " style="fill:none;stroke:#b0b0b0;stroke-linecap:square;stroke-width:0.8;"/>
     </g>
     <g id="line2d_6">
      <g>
       <use style="stroke:#000000;stroke-width:0.8;" x="297.318941" xlink:href="#m33258e6aa6" y="445.58"/>
      </g>
     </g>
     <g id="text_3">
      <!-- 200 -->
      <defs>
       <path d="M 19.1875 8.296875  L 53.609375 8.296875  L 53.609375 0  L 7.328125 0  L 7.328125 8.296875  Q 12.9375 14.109375 22.625 23.890625  Q 32.328125 33.6875 34.8125 36.53125  Q 39.546875 41.84375 41.421875 45.53125  Q 43.3125 49.21875 43.3125 52.78125  Q 43.3125 58.59375 39.234375 62.25  Q 35.15625 65.921875 28.609375 65.921875  Q 23.96875 65.921875 18.8125 64.3125  Q 13.671875 62.703125 7.8125 59.421875  L 7.8125 69.390625  Q 13.765625 71.78125 18.9375 73  Q 24.125 74.21875 28.421875 74.21875  Q 39.75 74.21875 46.484375 68.546875  Q 53.21875 62.890625 53.21875 53.421875  Q 53.21875 48.921875 51.53125 44.890625  Q 49.859375 40.875 45.40625 35.40625  Q 44.1875 33.984375 37.640625 27.21875  Q 31.109375 20.453125 19.1875 8.296875  " id="DejaVuSans-32"/>
      </defs>
      <g transform="translate(287.775191 460.178437)scale(0.1 -0.1)">
       <use xlink:href="#DejaVuSans-32"/>
       <use x="63.623047" xlink:href="#DejaVuSans-30"/>
       <use x="127.246094" xlink:href="#DejaVuSans-30"/>
      </g>
     </g>
    </g>
    <g id="xtick_4">
     <g id="line2d_7">
      <path clip-path="url(#pb79b507adb)" d="M 431.507318 445.58  L 431.507318 10.7  " style="fill:none;stroke:#b0b0b0;stroke-linecap:square;stroke-width:0.8;"/>
     </g>
     <g id="line2d_8">
      <g>
       <use style="stroke:#000000;stroke-width:0.8;" x="431.507318" xlink:href="#m33258e6aa6" y="445.58"/>
      </g>
     </g>
     <g id="text_4">
      <!-- 300 -->
      <defs>
       <path d="M 40.578125 39.3125  Q 47.65625 37.796875 51.625 33  Q 55.609375 28.21875 55.609375 21.1875  Q 55.609375 10.40625 48.1875 4.484375  Q 40.765625 -1.421875 27.09375 -1.421875  Q 22.515625 -1.421875 17.65625 -0.515625  Q 12.796875 0.390625 7.625 2.203125  L 7.625 11.71875  Q 11.71875 9.328125 16.59375 8.109375  Q 21.484375 6.890625 26.8125 6.890625  Q 36.078125 6.890625 40.9375 10.546875  Q 45.796875 14.203125 45.796875 21.1875  Q 45.796875 27.640625 41.28125 31.265625  Q 36.765625 34.90625 28.71875 34.90625  L 20.21875 34.90625  L 20.21875 43.015625  L 29.109375 43.015625  Q 36.375 43.015625 40.234375 45.921875  Q 44.09375 48.828125 44.09375 54.296875  Q 44.09375 59.90625 40.109375 62.90625  Q 36.140625 65.921875 28.71875 65.921875  Q 24.65625 65.921875 20.015625 65.03125  Q 15.375 64.15625 9.8125 62.3125  L 9.8125 71.09375  Q 15.4375 72.65625 20.34375 73.4375  Q 25.25 74.21875 29.59375 74.21875  Q 40.828125 74.21875 47.359375 69.109375  Q 53.90625 64.015625 53.90625 55.328125  Q 53.90625 49.265625 50.4375 45.09375  Q 46.96875 40.921875 40.578125 39.3125  " id="DejaVuSans-33"/>
      </defs>
      <g transform="translate(421.963568 460.178437)scale(0.1 -0.1)">
       <use xlink:href="#DejaVuSans-33"/>
       <use x="63.623047" xlink:href="#DejaVuSans-30"/>
       <use x="127.246094" xlink:href="#DejaVuSans-30"/>
      </g>
     </g>
    </g>
    <g id="xtick_5">
     <g id="line2d_9">
      <path clip-path="url(#pb79b507adb)" d="M 565.695695 445.58  L 565.695695 10.7  " style="fill:none;stroke:#b0b0b0;stroke-linecap:square;stroke-width:0.8;"/>
     </g>
     <g id="line2d_10">
      <g>
       <use style="stroke:#000000;stroke-width:0.8;" x="565.695695" xlink:href="#m33258e6aa6" y="445.58"/>
      </g>
     </g>
     <g id="text_5">
      <!-- 400 -->
      <defs>
       <path d="M 37.796875 64.3125  L 12.890625 25.390625  L 37.796875 25.390625  z M 35.203125 72.90625  L 47.609375 72.90625  L 47.609375 25.390625  L 58.015625 25.390625  L 58.015625 17.1875  L 47.609375 17.1875  L 47.609375 0  L 37.796875 0  L 37.796875 17.1875  L 4.890625 17.1875  L 4.890625 26.703125  z " id="DejaVuSans-34"/>
      </defs>
      <g transform="translate(556.151945 460.178437)scale(0.1 -0.1)">
       <use xlink:href="#DejaVuSans-34"/>
       <use x="63.623047" xlink:href="#DejaVuSans-30"/>
       <use x="127.246094" xlink:href="#DejaVuSans-30"/>
      </g>
     </g>
    </g>
   </g>
   <g id="matplotlib.axis_2">
    <g id="ytick_1">
     <g id="line2d_11">
      <path clip-path="url(#pb79b507adb)" d="M 28.942188 429.48774  L 698.542188 429.48774  " style="fill:none;stroke:#b0b0b0;stroke-linecap:square;stroke-width:0.8;"/>
     </g>
     <g id="line2d_12">
      <defs>
       <path d="M 0 0  L -3.5 0  " id="ma5124c20e7" style="stroke:#000000;stroke-width:0.8;"/>
      </defs>
      <g>
       <use style="stroke:#000000;stroke-width:0.8;" x="28.942188" xlink:href="#ma5124c20e7" y="429.48774"/>
      </g>
     </g>
     <g id="text_6">
      <!-- −3 -->
      <defs>
       <path d="M 10.59375 35.5  L 73.1875 35.5  L 73.1875 27.203125  L 10.59375 27.203125  z " id="DejaVuSans-2212"/>
      </defs>
      <g transform="translate(7.2 433.286959)scale(0.1 -0.1)">
       <use xlink:href="#DejaVuSans-2212"/>
       <use x="83.789062" xlink:href="#DejaVuSans-33"/>
      </g>
     </g>
    </g>
    <g id="ytick_2">
     <g id="line2d_13">
      <path clip-path="url(#pb79b507adb)" d="M 28.942188 377.913294  L 698.542188 377.913294  " style="fill:none;stroke:#b0b0b0;stroke-linecap:square;stroke-width:0.8;"/>
     </g>
     <g id="line2d_14">
      <g>
       <use style="stroke:#000000;stroke-width:0.8;" x="28.942188" xlink:href="#ma5124c20e7" y="377.913294"/>
      </g>
     </g>
     <g id="text_7">
      <!-- −2 -->
      <g transform="translate(7.2 381.712512)scale(0.1 -0.1)">
       <use xlink:href="#DejaVuSans-2212"/>
       <use x="83.789062" xlink:href="#DejaVuSans-32"/>
      </g>
     </g>
    </g>
    <g id="ytick_3">
     <g id="line2d_15">
      <path clip-path="url(#pb79b507adb)" d="M 28.942188 326.338848  L 698.542188 326.338848  " style="fill:none;stroke:#b0b0b0;stroke-linecap:square;stroke-width:0.8;"/>
     </g>
     <g id="line2d_16">
      <g>
       <use style="stroke:#000000;stroke-width:0.8;" x="28.942188" xlink:href="#ma5124c20e7" y="326.338848"/>
      </g>
     </g>
     <g id="text_8">
      <!-- −1 -->
      <g transform="translate(7.2 330.138066)scale(0.1 -0.1)">
       <use xlink:href="#DejaVuSans-2212"/>
       <use x="83.789062" xlink:href="#DejaVuSans-31"/>
      </g>
     </g>
    </g>
    <g id="ytick_4">
     <g id="line2d_17">
      <path clip-path="url(#pb79b507adb)" d="M 28.942188 274.764401  L 698.542188 274.764401  " style="fill:none;stroke:#b0b0b0;stroke-linecap:square;stroke-width:0.8;"/>
     </g>
     <g id="line2d_18">
      <g>
       <use style="stroke:#000000;stroke-width:0.8;" x="28.942188" xlink:href="#ma5124c20e7" y="274.764401"/>
      </g>
     </g>
     <g id="text_9">
      <!-- 0 -->
      <g transform="translate(15.579688 278.56362)scale(0.1 -0.1)">
       <use xlink:href="#DejaVuSans-30"/>
      </g>
     </g>
    </g>
    <g id="ytick_5">
     <g id="line2d_19">
      <path clip-path="url(#pb79b507adb)" d="M 28.942188 223.189955  L 698.542188 223.189955  " style="fill:none;stroke:#b0b0b0;stroke-linecap:square;stroke-width:0.8;"/>
     </g>
     <g id="line2d_20">
      <g>
       <use style="stroke:#000000;stroke-width:0.8;" x="28.942188" xlink:href="#ma5124c20e7" y="223.189955"/>
      </g>
     </g>
     <g id="text_10">
      <!-- 1 -->
      <g transform="translate(15.579688 226.989174)scale(0.1 -0.1)">
       <use xlink:href="#DejaVuSans-31"/>
      </g>
     </g>
    </g>
    <g id="ytick_6">
     <g id="line2d_21">
      <path clip-path="url(#pb79b507adb)" d="M 28.942188 171.615509  L 698.542188 171.615509  " style="fill:none;stroke:#b0b0b0;stroke-linecap:square;stroke-width:0.8;"/>
     </g>
     <g id="line2d_22">
      <g>
       <use style="stroke:#000000;stroke-width:0.8;" x="28.942188" xlink:href="#ma5124c20e7" y="171.615509"/>
      </g>
     </g>
     <g id="text_11">
      <!-- 2 -->
      <g transform="translate(15.579688 175.414728)scale(0.1 -0.1)">
       <use xlink:href="#DejaVuSans-32"/>
      </g>
     </g>
    </g>
    <g id="ytick_7">
     <g id="line2d_23">
      <path clip-path="url(#pb79b507adb)" d="M 28.942188 120.041063  L 698.542188 120.041063  " style="fill:none;stroke:#b0b0b0;stroke-linecap:square;stroke-width:0.8;"/>
     </g>
     <g id="line2d_24">
      <g>
       <use style="stroke:#000000;stroke-width:0.8;" x="28.942188" xlink:href="#ma5124c20e7" y="120.041063"/>
      </g>
     </g>
     <g id="text_12">
      <!-- 3 -->
      <g transform="translate(15.579688 123.840282)scale(0.1 -0.1)">
       <use xlink:href="#DejaVuSans-33"/>
      </g>
     </g>
    </g>
    <g id="ytick_8">
     <g id="line2d_25">
      <path clip-path="url(#pb79b507adb)" d="M 28.942188 68.466617  L 698.542188 68.466617  " style="fill:none;stroke:#b0b0b0;stroke-linecap:square;stroke-width:0.8;"/>
     </g>
     <g id="line2d_26">
      <g>
       <use style="stroke:#000000;stroke-width:0.8;" x="28.942188" xlink:href="#ma5124c20e7" y="68.466617"/>
      </g>
     </g>
     <g id="text_13">
      <!-- 4 -->
      <g transform="translate(15.579688 72.265835)scale(0.1 -0.1)">
       <use xlink:href="#DejaVuSans-34"/>
      </g>
     </g>
    </g>
    <g id="ytick_9">
     <g id="line2d_27">
      <path clip-path="url(#pb79b507adb)" d="M 28.942188 16.89217  L 698.542188 16.89217  " style="fill:none;stroke:#b0b0b0;stroke-linecap:square;stroke-width:0.8;"/>
     </g>
     <g id="line2d_28">
      <g>
       <use style="stroke:#000000;stroke-width:0.8;" x="28.942188" xlink:href="#ma5124c20e7" y="16.89217"/>
      </g>
     </g>
     <g id="text_14">
      <!-- 5 -->
      <defs>
       <path d="M 10.796875 72.90625  L 49.515625 72.90625  L 49.515625 64.59375  L 19.828125 64.59375  L 19.828125 46.734375  Q 21.96875 47.46875 24.109375 47.828125  Q 26.265625 48.1875 28.421875 48.1875  Q 40.625 48.1875 47.75 41.5  Q 54.890625 34.8125 54.890625 23.390625  Q 54.890625 11.625 47.5625 5.09375  Q 40.234375 -1.421875 26.90625 -1.421875  Q 22.3125 -1.421875 17.546875 -0.640625  Q 12.796875 0.140625 7.71875 1.703125  L 7.71875 11.625  Q 12.109375 9.234375 16.796875 8.0625  Q 21.484375 6.890625 26.703125 6.890625  Q 35.15625 6.890625 40.078125 11.328125  Q 45.015625 15.765625 45.015625 23.390625  Q 45.015625 31 40.078125 35.4375  Q 35.15625 39.890625 26.703125 39.890625  Q 22.75 39.890625 18.8125 39.015625  Q 14.890625 38.140625 10.796875 36.28125  z " id="DejaVuSans-35"/>
      </defs>
      <g transform="translate(15.579688 20.691389)scale(0.1 -0.1)">
       <use xlink:href="#DejaVuSans-35"/>
      </g>
     </g>
    </g>
   </g>
   <g id="line2d_29">
    <path clip-path="url(#pb79b507adb)" d="M 28.942188 230.373066  L 30.284071 212.364809  L 31.625955 230.885701  L 32.967839 228.961221  L 34.309723 237.727742  L 35.651606 220.411081  L 36.99349 207.942129  L 38.335374 194.145618  L 39.677258 220.606914  L 41.019141 229.268368  L 42.361025 217.376632  L 43.702909 174.3129  L 45.044793 176.408289  L 46.386676 160.138108  L 47.72856 163.560558  L 49.070444 172.896818  L 50.412328 175.73822  L 51.754212 177.498041  L 53.096095 183.244116  L 54.437979 160.680706  L 55.779863 168.723407  L 57.121747 193.750397  L 58.46363 234.512971  L 59.805514 245.673144  L 61.147398 249.060121  L 62.489282 253.611237  L 63.831165 288.075037  L 65.173049 294.38341  L 66.514933 288.692591  L 67.856817 264.317646  L 69.198701 266.841683  L 70.540584 245.313721  L 71.882468 238.401278  L 73.224352 243.932412  L 74.566236 245.085743  L 75.908119 264.158584  L 77.250003 253.678146  L 78.591887 250.830146  L 79.933771 261.680545  L 81.275654 250.032827  L 82.617538 236.97396  L 83.959422 226.673448  L 85.301306 210.502831  L 86.64319 218.454823  L 87.985073 217.496071  L 89.326957 208.163917  L 90.668841 199.653594  L 92.010725 193.276943  L 93.352608 208.074211  L 94.694492 219.913308  L 96.036376 227.917844  L 97.37826 218.961689  L 98.720143 228.906581  L 100.062027 229.536618  L 101.403911 247.757326  L 102.745795 234.992832  L 104.087678 218.370406  L 105.429562 221.129668  L 106.771446 228.975824  L 108.11333 246.196133  L 109.455214 204.763078  L 110.797097 199.381723  L 112.138981 213.254797  L 113.480865 207.273797  L 114.822749 218.768559  L 116.164632 205.110015  L 117.506516 219.83268  L 118.8484 232.472513  L 120.190284 235.639895  L 121.532167 217.267546  L 122.874051 210.653925  L 124.215935 223.64235  L 125.557819 241.354988  L 126.899703 242.372128  L 128.241586 248.401239  L 129.58347 216.366336  L 130.925354 135.25022  L 132.267238 145.904315  L 133.609121 160.596616  L 134.951005 171.74873  L 136.292889 162.276761  L 137.634773 194.790804  L 138.976656 210.825923  L 140.31854 219.838708  L 141.660424 218.070131  L 143.002308 208.231247  L 144.344192 226.303031  L 145.686075 196.259728  L 147.027959 212.825553  L 148.369843 192.079683  L 149.711727 176.801207  L 151.05361 156.551628  L 152.395494 176.455756  L 153.737378 173.39251  L 155.079262 174.824965  L 156.421145 163.645451  L 157.763029 175.079288  L 159.104913 197.23398  L 160.446797 210.913487  L 161.78868 211.849729  L 163.130564 188.993417  L 164.472448 191.330383  L 165.814332 202.199607  L 167.156216 202.118287  L 168.498099 196.414641  L 169.839983 209.024049  L 171.181867 209.416762  L 172.523751 188.725019  L 173.865634 176.037882  L 175.207518 172.610827  L 176.549402 177.656314  L 177.891286 217.902079  L 179.233169 216.240394  L 180.575053 215.672797  L 181.916937 207.634539  L 183.258821 206.243467  L 184.600705 206.90073  L 185.942588 210.325877  L 187.284472 213.000238  L 188.626356 239.874659  L 189.96824 248.842676  L 191.310123 249.38012  L 192.652007 246.216996  L 193.993891 268.152232  L 195.335775 244.998108  L 196.677658 279.242461  L 198.019542 283.027789  L 199.361426 242.399928  L 200.70331 218.23427  L 202.045194 218.537626  L 203.387077 244.357824  L 204.728961 264.08451  L 206.070845 264.63343  L 207.412729 284.378897  L 208.754612 279.860585  L 210.096496 282.828828  L 211.43838 282.711159  L 212.780264 279.203818  L 214.122147 288.695675  L 215.464031 288.087177  L 216.805915 288.584259  L 218.147799 288.246494  L 219.489682 295.373476  L 220.831566 328.647996  L 222.17345 319.431697  L 223.515334 339.60507  L 224.857218 340.249986  L 226.199101 358.941045  L 227.540985 358.425006  L 228.882869 365.158735  L 230.224753 349.282092  L 231.566636 338.747656  L 232.90852 344.364034  L 234.250404 338.199477  L 235.592288 336.540362  L 236.934171 307.406116  L 238.276055 291.083845  L 239.617939 293.296811  L 240.959823 232.312036  L 242.301707 229.828172  L 243.64359 245.395986  L 244.985474 257.574934  L 246.327358 263.476714  L 247.669242 320.683665  L 249.011125 338.262166  L 250.353009 325.532075  L 251.694893 338.714445  L 253.036777 372.11259  L 254.37866 358.02788  L 255.720544 337.238232  L 257.062428 331.286593  L 258.404312 340.927207  L 259.746196 334.778031  L 261.088079 334.560601  L 262.429963 344.306751  L 263.771847 342.114248  L 265.113731 334.08978  L 266.455614 359.995183  L 267.797498 358.953715  L 269.139382 357.692733  L 270.481266 362.616075  L 271.823149 364.546673  L 273.165033 375.704758  L 274.506917 329.384159  L 275.848801 348.479985  L 277.190684 408.721882  L 278.532568 399.754187  L 279.874452 403.302934  L 282.55822 416.171023  L 283.900103 425.812727  L 285.241987 413.632635  L 286.583871 369.895393  L 287.925755 365.252875  L 289.267638 371.103099  L 290.609522 360.802943  L 291.951406 324.624473  L 293.29329 307.291814  L 294.635173 308.82763  L 295.977057 305.303122  L 297.318941 327.645297  L 298.660825 333.96713  L 300.002709 342.455081  L 301.344592 341.029838  L 302.686476 337.052943  L 304.02836 336.964808  L 305.370244 317.257034  L 306.712127 318.167111  L 308.054011 323.970968  L 309.395895 346.893709  L 310.737779 334.468065  L 312.079662 316.703128  L 313.421546 348.161887  L 314.76343 367.470951  L 316.105314 370.149373  L 317.447198 369.702952  L 318.789081 362.349489  L 320.130965 360.834545  L 321.472849 370.215823  L 322.814733 357.642031  L 325.4985 309.390382  L 326.840384 311.449493  L 328.182268 312.279405  L 329.524151 298.589779  L 330.866035 288.468704  L 332.207919 267.978698  L 333.549803 233.044596  L 334.891686 246.729297  L 336.23357 249.728721  L 337.575454 237.60112  L 338.917338 200.525425  L 340.259222 213.633822  L 341.601105 211.232091  L 342.942989 207.983354  L 344.284873 195.86467  L 345.626757 241.893211  L 346.96864 247.207443  L 348.310524 273.074475  L 349.652408 255.467082  L 350.994292 280.538166  L 352.336175 288.215225  L 353.678059 270.054182  L 355.019943 269.424726  L 356.361827 257.716111  L 359.045594 291.576116  L 360.387478 266.790959  L 361.729362 278.333038  L 363.071246 291.140711  L 364.413129 295.226727  L 365.755013 296.979762  L 367.096897 278.698438  L 368.438781 267.79017  L 369.780664 223.155578  L 371.122548 210.888803  L 372.464432 239.942427  L 373.806316 240.773191  L 375.1482 262.546617  L 376.490083 256.37742  L 377.831967 256.029463  L 379.173851 253.510812  L 380.515735 257.687628  L 381.857618 282.254013  L 383.199502 275.225344  L 384.541386 272.896951  L 385.88327 266.214064  L 387.225153 275.484967  L 388.567037 299.021889  L 389.908921 274.625483  L 391.250805 267.863886  L 392.592689 214.981217  L 393.934572 215.767854  L 395.276456 263.110701  L 396.61834 258.388606  L 397.960224 260.904119  L 400.643991 223.172462  L 401.985875 236.013742  L 403.327759 203.530898  L 404.669642 188.991786  L 406.011526 145.841857  L 407.35341 143.793457  L 408.695294 186.991934  L 410.037177 274.510196  L 411.379061 234.164032  L 412.720945 239.245936  L 414.062829 274.693283  L 415.404713 288.116002  L 416.746596 268.744978  L 418.08848 291.940693  L 419.430364 306.091797  L 420.772248 279.001229  L 422.114131 239.542472  L 423.456015 220.949516  L 424.797899 279.989657  L 426.139783 201.377992  L 427.481666 192.777784  L 428.82355 205.8646  L 430.165434 205.649834  L 431.507318 248.86828  L 432.849202 224.768694  L 434.191085 194.23024  L 435.532969 205.87585  L 436.874853 244.637487  L 438.216737 228.110602  L 439.55862 242.4489  L 440.900504 245.234759  L 442.242388 274.195607  L 443.584272 246.273409  L 444.926155 272.508594  L 446.268039 301.169248  L 447.609923 287.26769  L 448.951807 276.051056  L 450.293691 260.3179  L 451.635574 288.532453  L 452.977458 286.477343  L 454.319342 254.380931  L 455.661226 254.574487  L 457.003109 244.469236  L 458.344993 276.023276  L 459.686877 263.895114  L 461.028761 217.454897  L 462.370644 184.931225  L 463.712528 169.408909  L 466.396296 214.99162  L 467.738179 244.975941  L 469.080063 270.798632  L 470.421947 268.072258  L 471.763831 258.617093  L 473.105715 259.196959  L 474.447598 294.943497  L 475.789482 292.938542  L 477.131366 300.065181  L 478.47325 291.246513  L 479.815133 265.868459  L 481.157017 283.156623  L 482.498901 239.10307  L 483.840785 212.236081  L 485.182668 156.620563  L 487.866436 96.514721  L 489.20832 83.415535  L 490.550204 30.87191  L 491.892087 30.467273  L 493.233971 145.924092  L 494.575855 169.565731  L 495.917739 128.402106  L 497.259622 104.847139  L 498.601506 120.309548  L 499.94339 157.772419  L 501.285274 176.391231  L 502.627157 153.534554  L 503.969041 141.037817  L 505.310925 126.378214  L 506.652809 146.619062  L 507.994693 134.935411  L 509.336576 131.870494  L 510.67846 130.687096  L 512.020344 152.376502  L 513.362228 140.514838  L 514.704111 132.174043  L 516.045995 144.852212  L 517.387879 176.414047  L 518.729763 176.385349  L 520.071646 175.468578  L 521.41353 164.105601  L 522.755414 170.888983  L 524.097298 169.020451  L 525.439181 186.919426  L 528.122949 233.320869  L 529.464833 238.497612  L 530.806717 256.735146  L 532.1486 258.213366  L 533.490484 258.439746  L 534.832368 269.526634  L 536.174252 296.589703  L 537.516135 306.521573  L 538.858019 294.475668  L 540.199903 294.686116  L 541.541787 288.604206  L 542.88367 280.25006  L 544.225554 285.252794  L 545.567438 273.03992  L 546.909322 250.412102  L 548.251206 251.015208  L 549.593089 234.614464  L 550.934973 234.141255  L 552.276857 239.439694  L 553.618741 248.228379  L 554.960624 229.043388  L 556.302508 227.254123  L 557.644392 239.57976  L 558.986276 247.283217  L 560.328159 260.529586  L 561.670043 260.961141  L 563.011927 267.094428  L 564.353811 268.715633  L 565.695695 261.997813  L 567.037578 263.324578  L 568.379462 263.300156  L 569.721346 286.480883  L 571.06323 271.407527  L 572.405113 282.935511  L 573.746997 279.713781  L 575.088881 281.112699  L 576.430765 280.853815  L 577.772648 279.54131  L 579.114532 266.384086  L 580.456416 266.925018  L 581.7983 268.905868  L 583.140183 288.288246  L 584.482067 318.499185  L 585.823951 335.269981  L 587.165835 313.786957  L 588.507719 304.588346  L 589.849602 283.104141  L 591.191486 252.589314  L 592.53337 243.350913  L 593.875254 225.31187  L 595.217137 243.455123  L 596.559021 236.557464  L 597.900905 238.403435  L 600.584672 250.773683  L 601.926556 240.124473  L 603.26844 233.597919  L 604.610324 250.183584  L 605.952208 253.800646  L 607.294091 251.624642  L 608.635975 269.45821  L 609.977859 270.181672  L 611.319743 262.101625  L 612.661626 256.77946  L 614.00351 257.392448  L 615.345394 275.135667  L 616.687278 290.528485  L 619.371045 339.43641  L 620.712929 360.730366  L 623.396697 371.886669  L 624.73858 388.53666  L 626.080464 392.021853  L 627.422348 362.469183  L 628.764232 361.184237  L 630.106115 345.720043  L 631.447999 321.277919  L 632.789883 309.66737  L 634.131767 339.011849  L 635.47365 373.20746  L 636.815534 338.037978  L 638.157418 335.868252  L 639.499302 312.557387  L 640.841185 307.627029  L 642.183069 312.844258  L 643.524953 317.317524  L 644.866837 286.395399  L 646.208721 283.720073  L 647.550604 290.932109  L 648.892488 288.015699  L 650.234372 320.412513  L 651.576256 321.447924  L 652.918139 310.927412  L 655.601907 342.111732  L 656.943791 341.296701  L 658.285674 329.935139  L 659.627558 348.723377  L 660.969442 330.133503  L 662.311326 329.214869  L 663.65321 322.521974  L 664.995093 320.554417  L 666.336977 293.710675  L 667.678861 305.047108  L 669.020745 318.197079  L 670.362628 312.543465  L 673.046396 289.688103  L 674.38828 265.308427  L 675.730163 253.013535  L 677.072047 260.943375  L 678.413931 269.63  L 679.755815 255.446577  L 681.097699 324.994007  L 682.439582 303.289765  L 683.781466 273.173828  L 685.12335 271.564207  L 686.465234 295.741416  L 687.807117 365.652882  L 689.149001 352.906906  L 690.490885 355.737188  L 691.832769 348.719006  L 693.174652 361.199335  L 694.516536 375.765827  L 695.85842 354.43721  L 697.200304 318.423059  L 698.542188 302.285559  L 698.542188 302.285559  " style="fill:none;stroke:#00008b;stroke-linecap:square;stroke-width:1.5;"/>
   </g>
   <g id="patch_3">
    <path d="M 28.942188 445.58  L 28.942188 10.7  " style="fill:none;stroke:#000000;stroke-linecap:square;stroke-linejoin:miter;stroke-width:0.8;"/>
   </g>
   <g id="patch_4">
    <path d="M 698.542188 445.58  L 698.542188 10.7  " style="fill:none;stroke:#000000;stroke-linecap:square;stroke-linejoin:miter;stroke-width:0.8;"/>
   </g>
   <g id="patch_5">
    <path d="M 28.942188 445.58  L 698.542188 445.58  " style="fill:none;stroke:#000000;stroke-linecap:square;stroke-linejoin:miter;stroke-width:0.8;"/>
   </g>
   <g id="patch_6">
    <path d="M 28.942188 10.7  L 698.542188 10.7  " style="fill:none;stroke:#000000;stroke-linecap:square;stroke-linejoin:miter;stroke-width:0.8;"/>
   </g>
  </g>
 </g>
 <defs>
  <clipPath id="pb79b507adb">
   <rect height="434.88" width="669.6" x="28.942188" y="10.7"/>
  </clipPath>
 </defs>
</svg>