<?xml version="1.0" encoding="UTF-8"?><svg xmlns="http://www.w3.org/2000/svg" xmlns:xlink="http://www.w3.org/1999/xlink" fill-opacity="1" color-rendering="auto" color-interpolation="auto" text-rendering="auto" stroke="black" stroke-linecap="square" width="357" stroke-miterlimit="10" shape-rendering="auto" stroke-opacity="1" fill="black" stroke-dasharray="none" font-weight="normal" stroke-width="1" height="283" font-family="'Dialog'" font-style="normal" stroke-linejoin="miter" font-size="12px" stroke-dashoffset="0" image-rendering="auto">
  <!--Generated by ySVG 2.5-->
  <defs id="genericDefs"/>
  <g>
    <defs id="defs1">
      <clipPath clipPathUnits="userSpaceOnUse" id="clipPath1">
        <path d="M0 0 L357 0 L357 283 L0 283 L0 0 Z"/>
      </clipPath>
      <clipPath clipPathUnits="userSpaceOnUse" id="clipPath2">
        <path d="M-176 -184 L181 -184 L181 99 L-176 99 L-176 -184 Z"/>
      </clipPath>
    </defs>
    <g fill="white" text-rendering="geometricPrecision" shape-rendering="geometricPrecision" transform="translate(176,184)" stroke="white">
      <rect x="-176" width="357" height="283" y="-184" clip-path="url(#clipPath2)" stroke="none"/>
    </g>
    <g text-rendering="geometricPrecision" stroke-miterlimit="1.45" stroke-width="2" shape-rendering="geometricPrecision" transform="matrix(1,0,0,1,176,184)" stroke-linecap="butt">
      <circle fill="none" r="20" clip-path="url(#clipPath2)" cx="0" cy="0"/>
      <text x="-4.333" y="4.3037" clip-path="url(#clipPath2)" font-family="Tinos" stroke="none" font-weight="bold" stroke-width="1" xml:space="preserve">A</text>
    </g>
    <g font-size="14px" stroke-linecap="butt" transform="matrix(1,0,0,1,176,184)" text-rendering="geometricPrecision" font-family="Tinos" shape-rendering="geometricPrecision" font-weight="bold" stroke-miterlimit="1.45">
      <text x="-14.5811" xml:space="preserve" y="38.7729" clip-path="url(#clipPath2)" stroke="none">-1.25</text>
    </g>
    <g text-rendering="geometricPrecision" stroke-miterlimit="1.45" stroke-width="2" shape-rendering="geometricPrecision" transform="matrix(1,0,0,1,176,184)" stroke-linecap="butt">
      <circle fill="none" r="20" clip-path="url(#clipPath2)" cx="-108.2532" cy="62.5"/>
      <text x="-112.2551" y="66.8037" clip-path="url(#clipPath2)" font-family="Tinos" stroke="none" font-weight="bold" stroke-width="1" xml:space="preserve">B</text>
    </g>
    <g font-size="14px" stroke-linecap="butt" transform="matrix(1,0,0,1,176,184)" text-rendering="geometricPrecision" font-family="Tinos" shape-rendering="geometricPrecision" font-weight="bold" stroke-miterlimit="1.45">
      <text x="-158.7532" xml:space="preserve" y="67.521" clip-path="url(#clipPath2)" stroke="none">0.75</text>
    </g>
    <g text-rendering="geometricPrecision" stroke-miterlimit="1.45" stroke-width="2" shape-rendering="geometricPrecision" transform="matrix(1,0,0,1,176,184)" stroke-linecap="butt">
      <circle fill="none" r="20" clip-path="url(#clipPath2)" cx="108.2532" cy="62.5"/>
      <text x="103.9202" y="66.8037" clip-path="url(#clipPath2)" font-family="Tinos" stroke="none" font-weight="bold" stroke-width="1" xml:space="preserve">C</text>
    </g>
    <g font-size="14px" stroke-linecap="butt" transform="matrix(1,0,0,1,176,184)" text-rendering="geometricPrecision" font-family="Tinos" shape-rendering="geometricPrecision" font-weight="bold" stroke-miterlimit="1.45">
      <text x="134.2532" xml:space="preserve" y="67.521" clip-path="url(#clipPath2)" stroke="none">-0.25</text>
    </g>
    <g text-rendering="geometricPrecision" stroke-miterlimit="1.45" stroke-width="2" shape-rendering="geometricPrecision" transform="matrix(1,0,0,1,176,184)" stroke-linecap="butt">
      <circle fill="none" r="20" clip-path="url(#clipPath2)" cx="0" cy="-125"/>
      <text x="-4.333" y="-120.6963" clip-path="url(#clipPath2)" font-family="Tinos" stroke="none" font-weight="bold" stroke-width="1" xml:space="preserve">D</text>
    </g>
    <g font-size="14px" stroke-linecap="butt" transform="matrix(1,0,0,1,176,184)" text-rendering="geometricPrecision" font-family="Tinos" shape-rendering="geometricPrecision" font-weight="bold" stroke-miterlimit="1.45">
      <text x="-12.25" xml:space="preserve" y="-153.731" clip-path="url(#clipPath2)" stroke="none">1.75</text>
      <path fill="none" d="M-90.9327 52.5 L-24.2487 14" clip-path="url(#clipPath2)"/>
      <path d="M-17.3205 10 L-30.2128 11.6699 L-25.1147 14.5 L-25.2128 20.3301 Z" stroke="none" clip-path="url(#clipPath2)"/>
      <text x="-76.1282" xml:space="preserve" y="26.9633" clip-path="url(#clipPath2)" font-weight="normal" stroke="none">1.5</text>
      <path fill="none" d="M-88.2532 62.5 L80.2532 62.5" clip-path="url(#clipPath2)"/>
      <path d="M88.2532 62.5 L76.2532 57.5 L79.2532 62.5 L76.2532 67.5 Z" stroke="none" clip-path="url(#clipPath2)"/>
      <text x="-3.5" xml:space="preserve" y="78.2729" clip-path="url(#clipPath2)" font-weight="normal" stroke="none">1</text>
      <path fill="none" d="M90.9327 52.5 L24.2487 14" clip-path="url(#clipPath2)"/>
      <path d="M17.3205 10 L25.2128 20.3301 L25.1147 14.5 L30.2128 11.6699 Z" stroke="none" clip-path="url(#clipPath2)"/>
      <text x="58.6282" xml:space="preserve" y="26.9633" clip-path="url(#clipPath2)" font-weight="normal" stroke="none">0.5</text>
      <path fill="none" d="M0 -105 L0 -28" clip-path="url(#clipPath2)"/>
      <path d="M0 -20 L5 -32 L0 -29 L-5 -32 Z" stroke="none" clip-path="url(#clipPath2)"/>
      <text x="-10" xml:space="preserve" y="-57.479" clip-path="url(#clipPath2)" font-weight="normal" stroke="none">3</text>
      <path fill="none" d="M-10 -107.6795 L-94.2532 38.2513" clip-path="url(#clipPath2)"/>
      <path d="M-98.2532 45.1795 L-87.923 37.2872 L-93.7532 37.3853 L-96.5833 32.2872 Z" stroke="none" clip-path="url(#clipPath2)"/>
      <text x="-45.4963" xml:space="preserve" y="-26.229" clip-path="url(#clipPath2)" font-weight="normal" stroke="none">1.5</text>
      <path fill="none" d="M10 -107.6795 L94.2532 38.2513" clip-path="url(#clipPath2)"/>
      <path d="M98.2532 45.1795 L96.5833 32.2872 L93.7532 37.3853 L87.923 37.2872 Z" stroke="none" clip-path="url(#clipPath2)"/>
      <text x="62.7569" xml:space="preserve" y="-26.229" clip-path="url(#clipPath2)" font-weight="normal" stroke="none">2.5</text>
    </g>
  </g>
</svg>
