<?xml version="1.0" encoding="UTF-8" standalone="no"?>
<!DOCTYPE svg PUBLIC "-//W3C//DTD SVG 1.1//EN"
 "http://www.w3.org/Graphics/SVG/1.1/DTD/svg11.dtd">
<!-- Generated by graphviz version 2.40.1 (20161225.0304)
 -->
<!-- Pages: 1 -->
<svg width="1142pt" height="629pt"
 viewBox="0.00 0.00 1142.44 629.00" xmlns="http://www.w3.org/2000/svg" xmlns:xlink="http://www.w3.org/1999/xlink">
<g id="graph0" class="graph" transform="scale(1 1) rotate(0) translate(4 625)">
<polygon fill="#ffffff" stroke="transparent" points="-4,4 -4,-625 1138.4364,-625 1138.4364,4 -4,4"/>
<!-- 1 -->
<g id="node1" class="node">
<title>1</title>
<ellipse fill="none" stroke="#000000" cx="484.8457" cy="-486" rx="32.4942" ry="18"/>
<text text-anchor="middle" x="484.8457" y="-482.3" font-family="Times,serif" font-size="14.00" fill="#000000">0.123</text>
</g>
<!-- 4 -->
<g id="node2" class="node">
<title>4</title>
<ellipse fill="none" stroke="#000000" cx="269.7468" cy="-486" rx="35.9954" ry="18"/>
<text text-anchor="middle" x="269.7468" y="-482.3" font-family="Times,serif" font-size="14.00" fill="#000000">&#45;0.123</text>
</g>
<!-- 1&#45;&gt;4 -->
<g id="edge1" class="edge">
<title>1&#45;&gt;4</title>
<path fill="none" stroke="#000000" d="M452.1768,-486C415.7732,-486 356.6469,-486 315.6153,-486"/>
<polygon fill="#000000" stroke="#000000" points="315.5982,-482.5001 305.5982,-486 315.5982,-489.5001 315.5982,-482.5001"/>
</g>
<!-- 6 -->
<g id="node3" class="node">
<title>6</title>
<ellipse fill="none" stroke="#000000" cx="845.8679" cy="-190.2998" rx="32.4942" ry="18"/>
<text text-anchor="middle" x="845.8679" y="-186.5998" font-family="Times,serif" font-size="14.00" fill="#000000">0.120</text>
</g>
<!-- 26 -->
<g id="node11" class="node">
<title>26</title>
<ellipse fill="none" stroke="#000000" cx="652.036" cy="-220.8019" rx="35.9954" ry="18"/>
<text text-anchor="middle" x="652.036" y="-217.1019" font-family="Times,serif" font-size="14.00" fill="#000000">&#45;2.084</text>
</g>
<!-- 6&#45;&gt;26 -->
<g id="edge2" class="edge">
<title>6&#45;&gt;26</title>
<path fill="none" stroke="#000000" d="M814.2941,-195.2684C782.2693,-200.3079 732.427,-208.1512 696.4324,-213.8155"/>
<polygon fill="#000000" stroke="#000000" points="695.5426,-210.4123 686.2083,-215.4244 696.6308,-217.3273 695.5426,-210.4123"/>
</g>
<!-- 65 -->
<g id="node4" class="node">
<title>65</title>
<ellipse fill="none" stroke="#000000" cx="108.9666" cy="-338.2718" rx="35.9954" ry="18"/>
<text text-anchor="middle" x="108.9666" y="-334.5718" font-family="Times,serif" font-size="14.00" fill="#000000">&#45;0.133</text>
</g>
<!-- 140 -->
<g id="node5" class="node">
<title>140</title>
<ellipse fill="none" stroke="#000000" cx="445.8457" cy="-603" rx="32.4942" ry="18"/>
<text text-anchor="middle" x="445.8457" y="-599.3" font-family="Times,serif" font-size="14.00" fill="#000000">0.122</text>
</g>
<!-- 98 -->
<g id="node18" class="node">
<title>98</title>
<ellipse fill="none" stroke="#000000" cx="230.7468" cy="-603" rx="35.9954" ry="18"/>
<text text-anchor="middle" x="230.7468" y="-599.3" font-family="Times,serif" font-size="14.00" fill="#000000">&#45;0.122</text>
</g>
<!-- 140&#45;&gt;98 -->
<g id="edge3" class="edge">
<title>140&#45;&gt;98</title>
<path fill="none" stroke="#000000" d="M413.1768,-603C376.7732,-603 317.6469,-603 276.6153,-603"/>
<polygon fill="#000000" stroke="#000000" points="276.5982,-599.5001 266.5982,-603 276.5982,-606.5001 276.5982,-599.5001"/>
</g>
<!-- 77 -->
<g id="node6" class="node">
<title>77</title>
<ellipse fill="none" stroke="#000000" cx="1098.6896" cy="-564.0022" rx="35.9954" ry="18"/>
<text text-anchor="middle" x="1098.6896" y="-560.3022" font-family="Times,serif" font-size="14.00" fill="#000000">&#45;0.135</text>
</g>
<!-- 143 -->
<g id="node7" class="node">
<title>143</title>
<ellipse fill="none" stroke="#000000" cx="389.2197" cy="-222.4566" rx="35.9954" ry="18"/>
<text text-anchor="middle" x="389.2197" y="-218.7566" font-family="Times,serif" font-size="14.00" fill="#000000">&#45;0.008</text>
</g>
<!-- 143&#45;&gt;26 -->
<g id="edge4" class="edge">
<title>143&#45;&gt;26</title>
<path fill="none" stroke="#000000" d="M425.2121,-222.23C472.1656,-221.9343 554.3811,-221.4167 605.874,-221.0925"/>
<polygon fill="#000000" stroke="#000000" points="606.0798,-224.5914 616.0575,-221.0284 606.0356,-217.5915 606.0798,-224.5914"/>
</g>
<!-- 145 -->
<g id="node8" class="node">
<title>145</title>
<ellipse fill="none" stroke="#000000" cx="818.8765" cy="-93.8326" rx="32.4942" ry="18"/>
<text text-anchor="middle" x="818.8765" y="-90.1326" font-family="Times,serif" font-size="14.00" fill="#000000">0.118</text>
</g>
<!-- 145&#45;&gt;26 -->
<g id="edge5" class="edge">
<title>145&#45;&gt;26</title>
<path fill="none" stroke="#000000" d="M799.7377,-108.3976C770.3847,-130.7359 714.0893,-173.5779 680.1122,-199.4352"/>
<polygon fill="#000000" stroke="#000000" points="677.8229,-196.7792 671.9848,-205.6204 682.0621,-202.3496 677.8229,-196.7792"/>
</g>
<!-- 84 -->
<g id="node9" class="node">
<title>84</title>
<ellipse fill="none" stroke="#000000" cx="741.0567" cy="-153.4442" rx="32.4942" ry="18"/>
<text text-anchor="middle" x="741.0567" y="-149.7442" font-family="Times,serif" font-size="14.00" fill="#000000">0.118</text>
</g>
<!-- 84&#45;&gt;26 -->
<g id="edge6" class="edge">
<title>84&#45;&gt;26</title>
<path fill="none" stroke="#000000" d="M721.7405,-168.0598C709.5445,-177.2879 693.5858,-189.3632 680.0161,-199.6307"/>
<polygon fill="#000000" stroke="#000000" points="677.7935,-196.9234 671.9308,-205.7484 682.0172,-202.5055 677.7935,-196.9234"/>
</g>
<!-- 23 -->
<g id="node10" class="node">
<title>23</title>
<ellipse fill="none" stroke="#000000" cx="845.9765" cy="-284.6958" rx="32.4942" ry="18"/>
<text text-anchor="middle" x="845.9765" y="-280.9958" font-family="Times,serif" font-size="14.00" fill="#000000">0.151</text>
</g>
<!-- 23&#45;&gt;26 -->
<g id="edge7" class="edge">
<title>23&#45;&gt;26</title>
<path fill="none" stroke="#000000" d="M817.7758,-275.4051C784.601,-264.4756 729.3017,-246.2571 691.7884,-233.8983"/>
<polygon fill="#000000" stroke="#000000" points="692.7792,-230.5398 682.1862,-230.7349 690.5888,-237.1883 692.7792,-230.5398"/>
</g>
<!-- 175 -->
<g id="node12" class="node">
<title>175</title>
<ellipse fill="none" stroke="#000000" cx="745.391" cy="-277.9439" rx="32.4942" ry="18"/>
<text text-anchor="middle" x="745.391" y="-274.2439" font-family="Times,serif" font-size="14.00" fill="#000000">0.127</text>
</g>
<!-- 175&#45;&gt;26 -->
<g id="edge8" class="edge">
<title>175&#45;&gt;26</title>
<path fill="none" stroke="#000000" d="M723.2672,-264.402C711.4388,-257.1619 696.6696,-248.1218 683.6513,-240.1534"/>
<polygon fill="#000000" stroke="#000000" points="685.3323,-237.0787 674.9759,-234.8433 681.6778,-243.0491 685.3323,-237.0787"/>
</g>
<!-- 135 -->
<g id="node13" class="node">
<title>135</title>
<ellipse fill="none" stroke="#000000" cx="789.9997" cy="-372.6413" rx="32.4942" ry="18"/>
<text text-anchor="middle" x="789.9997" y="-368.9413" font-family="Times,serif" font-size="14.00" fill="#000000">0.119</text>
</g>
<!-- 135&#45;&gt;26 -->
<g id="edge9" class="edge">
<title>135&#45;&gt;26</title>
<path fill="none" stroke="#000000" d="M775.2352,-356.3918C750.8837,-329.5912 702.1811,-275.9903 673.8495,-244.8092"/>
<polygon fill="#000000" stroke="#000000" points="676.4279,-242.4423 667.1126,-237.3948 671.247,-247.1497 676.4279,-242.4423"/>
</g>
<!-- 154 -->
<g id="node14" class="node">
<title>154</title>
<ellipse fill="none" stroke="#000000" cx="106.3411" cy="-107.4706" rx="35.9954" ry="18"/>
<text text-anchor="middle" x="106.3411" y="-103.7706" font-family="Times,serif" font-size="14.00" fill="#000000">&#45;0.122</text>
</g>
<!-- 94 -->
<g id="node15" class="node">
<title>94</title>
<ellipse fill="none" stroke="#000000" cx="609.3687" cy="-332.1812" rx="32.4942" ry="18"/>
<text text-anchor="middle" x="609.3687" y="-328.4812" font-family="Times,serif" font-size="14.00" fill="#000000">0.121</text>
</g>
<!-- 94&#45;&gt;26 -->
<g id="edge10" class="edge">
<title>94&#45;&gt;26</title>
<path fill="none" stroke="#000000" d="M616.2239,-314.2862C623.0664,-296.4244 633.6714,-268.7411 641.5675,-248.1291"/>
<polygon fill="#000000" stroke="#000000" points="644.8888,-249.2428 645.1978,-238.6525 638.352,-246.7386 644.8888,-249.2428"/>
</g>
<!-- 160 -->
<g id="node16" class="node">
<title>160</title>
<ellipse fill="none" stroke="#000000" cx="35.7468" cy="-224.9646" rx="35.9954" ry="18"/>
<text text-anchor="middle" x="35.7468" y="-221.2646" font-family="Times,serif" font-size="14.00" fill="#000000">&#45;0.133</text>
</g>
<!-- 33 -->
<g id="node17" class="node">
<title>33</title>
<ellipse fill="none" stroke="#000000" cx="367.8457" cy="-18" rx="32.4942" ry="18"/>
<text text-anchor="middle" x="367.8457" y="-14.3" font-family="Times,serif" font-size="14.00" fill="#000000">0.124</text>
</g>
<!-- 113 -->
<g id="node26" class="node">
<title>113</title>
<ellipse fill="none" stroke="#000000" cx="152.7468" cy="-18" rx="35.9954" ry="18"/>
<text text-anchor="middle" x="152.7468" y="-14.3" font-family="Times,serif" font-size="14.00" fill="#000000">&#45;0.124</text>
</g>
<!-- 33&#45;&gt;113 -->
<g id="edge11" class="edge">
<title>33&#45;&gt;113</title>
<path fill="none" stroke="#000000" d="M335.1768,-18C298.7732,-18 239.6469,-18 198.6153,-18"/>
<polygon fill="#000000" stroke="#000000" points="198.5982,-14.5001 188.5982,-18 198.5982,-21.5001 198.5982,-14.5001"/>
</g>
<!-- 40 -->
<g id="node19" class="node">
<title>40</title>
<ellipse fill="none" stroke="#000000" cx="696.7479" cy="-389.4417" rx="32.4942" ry="18"/>
<text text-anchor="middle" x="696.7479" y="-385.7417" font-family="Times,serif" font-size="14.00" fill="#000000">0.120</text>
</g>
<!-- 40&#45;&gt;26 -->
<g id="edge12" class="edge">
<title>40&#45;&gt;26</title>
<path fill="none" stroke="#000000" d="M691.9629,-371.3943C684.1639,-341.9788 668.6579,-283.4946 659.4325,-248.6992"/>
<polygon fill="#000000" stroke="#000000" points="662.7325,-247.4885 656.7865,-238.7195 655.9663,-249.2825 662.7325,-247.4885"/>
</g>
<!-- 105 -->
<g id="node20" class="node">
<title>105</title>
<ellipse fill="none" stroke="#000000" cx="698.0969" cy="-564.0021" rx="35.194" ry="18"/>
<text text-anchor="middle" x="698.0969" y="-560.3021" font-family="Times,serif" font-size="14.00" fill="#000000">&#45;0.119</text>
</g>
<!-- 171 -->
<g id="node21" class="node">
<title>171</title>
<ellipse fill="none" stroke="#000000" cx="523.3514" cy="-240.3674" rx="32.4942" ry="18"/>
<text text-anchor="middle" x="523.3514" y="-236.6674" font-family="Times,serif" font-size="14.00" fill="#000000">0.118</text>
</g>
<!-- 171&#45;&gt;26 -->
<g id="edge13" class="edge">
<title>171&#45;&gt;26</title>
<path fill="none" stroke="#000000" d="M554.8312,-235.5811C570.7545,-233.1601 590.3484,-230.181 607.7627,-227.5333"/>
<polygon fill="#000000" stroke="#000000" points="608.3597,-230.9828 617.7199,-226.0194 607.3074,-224.0624 608.3597,-230.9828"/>
</g>
<!-- 45 -->
<g id="node22" class="node">
<title>45</title>
<ellipse fill="none" stroke="#000000" cx="499.9514" cy="-144.052" rx="32.4942" ry="18"/>
<text text-anchor="middle" x="499.9514" y="-140.352" font-family="Times,serif" font-size="14.00" fill="#000000">0.118</text>
</g>
<!-- 45&#45;&gt;26 -->
<g id="edge14" class="edge">
<title>45&#45;&gt;26</title>
<path fill="none" stroke="#000000" d="M524.0497,-156.2132C549.2587,-168.935 589.0569,-189.0193 617.5806,-203.4139"/>
<polygon fill="#000000" stroke="#000000" points="616.2798,-206.6778 626.7843,-208.0585 619.4336,-200.4285 616.2798,-206.6778"/>
</g>
<!-- 110 -->
<g id="node23" class="node">
<title>110</title>
<ellipse fill="none" stroke="#000000" cx="579.9973" cy="-598.3719" rx="35.9954" ry="18"/>
<text text-anchor="middle" x="579.9973" y="-594.6719" font-family="Times,serif" font-size="14.00" fill="#000000">&#45;0.136</text>
</g>
<!-- 47 -->
<g id="node24" class="node">
<title>47</title>
<ellipse fill="none" stroke="#000000" cx="603.4379" cy="-450.1792" rx="32.4942" ry="18"/>
<text text-anchor="middle" x="603.4379" y="-446.4792" font-family="Times,serif" font-size="14.00" fill="#000000">0.257</text>
</g>
<!-- 47&#45;&gt;26 -->
<g id="edge15" class="edge">
<title>47&#45;&gt;26</title>
<path fill="none" stroke="#000000" d="M607.2513,-432.1804C615.6972,-392.3166 636.03,-296.3484 646.1331,-248.6628"/>
<polygon fill="#000000" stroke="#000000" points="649.5915,-249.2254 648.2403,-238.7171 642.7435,-247.7745 649.5915,-249.2254"/>
</g>
<!-- 47&#45;&gt;110 -->
<g id="edge16" class="edge">
<title>47&#45;&gt;110</title>
<path fill="none" stroke="#000000" d="M600.5636,-468.3506C596.5568,-493.6819 589.2522,-539.8617 584.5138,-569.818"/>
<polygon fill="#000000" stroke="#000000" points="581.0005,-569.6279 582.8951,-580.0519 587.9145,-570.7216 581.0005,-569.6279"/>
</g>
<!-- 48 -->
<g id="node25" class="node">
<title>48</title>
<ellipse fill="none" stroke="#000000" cx="508.3864" cy="-341.4363" rx="32.4942" ry="18"/>
<text text-anchor="middle" x="508.3864" y="-337.7363" font-family="Times,serif" font-size="14.00" fill="#000000">0.118</text>
</g>
<!-- 48&#45;&gt;26 -->
<g id="edge17" class="edge">
<title>48&#45;&gt;26</title>
<path fill="none" stroke="#000000" d="M526.2893,-326.4017C551.3133,-305.3871 596.916,-267.0906 625.7843,-242.8476"/>
<polygon fill="#000000" stroke="#000000" points="628.0448,-245.5198 633.4518,-236.4085 623.5431,-240.1592 628.0448,-245.5198"/>
</g>
<!-- 180 -->
<g id="node27" class="node">
<title>180</title>
<ellipse fill="none" stroke="#000000" cx="540.4325" cy="-54.528" rx="32.4942" ry="18"/>
<text text-anchor="middle" x="540.4325" y="-50.828" font-family="Times,serif" font-size="14.00" fill="#000000">0.129</text>
</g>
<!-- 180&#45;&gt;26 -->
<g id="edge18" class="edge">
<title>180&#45;&gt;26</title>
<path fill="none" stroke="#000000" d="M551.9557,-71.696C571.5873,-100.9443 611.6251,-160.5952 634.6654,-194.9221"/>
<polygon fill="#000000" stroke="#000000" points="631.9291,-197.1257 640.4083,-203.4782 637.7413,-193.2245 631.9291,-197.1257"/>
</g>
<!-- 158 -->
<g id="node28" class="node">
<title>158</title>
<ellipse fill="none" stroke="#000000" cx="901.7958" cy="-564" rx="32.4942" ry="18"/>
<text text-anchor="middle" x="901.7958" y="-560.3" font-family="Times,serif" font-size="14.00" fill="#000000">0.254</text>
</g>
<!-- 158&#45;&gt;77 -->
<g id="edge20" class="edge">
<title>158&#45;&gt;77</title>
<path fill="none" stroke="#000000" d="M934.3088,-564.0004C966.5183,-564.0007 1016.1549,-564.0013 1052.4591,-564.0017"/>
<polygon fill="#000000" stroke="#000000" points="1052.7908,-567.5016 1062.7909,-564.0018 1052.7909,-560.5016 1052.7908,-567.5016"/>
</g>
<!-- 158&#45;&gt;105 -->
<g id="edge19" class="edge">
<title>158&#45;&gt;105</title>
<path fill="none" stroke="#000000" d="M869.068,-564.0003C835.1447,-564.0007 781.8506,-564.0013 743.7844,-564.0017"/>
<polygon fill="#000000" stroke="#000000" points="743.4803,-560.5016 733.4804,-564.0018 743.4804,-567.5016 743.4803,-560.5016"/>
</g>
<!-- 54 -->
<g id="node29" class="node">
<title>54</title>
<ellipse fill="none" stroke="#000000" cx="621.1187" cy="-117.8864" rx="32.4942" ry="18"/>
<text text-anchor="middle" x="621.1187" y="-114.1864" font-family="Times,serif" font-size="14.00" fill="#000000">0.119</text>
</g>
<!-- 54&#45;&gt;26 -->
<g id="edge21" class="edge">
<title>54&#45;&gt;26</title>
<path fill="none" stroke="#000000" d="M626.504,-135.8129C631.2408,-151.5804 638.2126,-174.7874 643.6745,-192.9688"/>
<polygon fill="#000000" stroke="#000000" points="640.3794,-194.1653 646.6086,-202.7355 647.0834,-192.1513 640.3794,-194.1653"/>
</g>
<!-- 52 -->
<g id="node30" class="node">
<title>52</title>
<ellipse fill="none" stroke="#000000" cx="732.6761" cy="-42.3466" rx="32.4942" ry="18"/>
<text text-anchor="middle" x="732.6761" y="-38.6466" font-family="Times,serif" font-size="14.00" fill="#000000">0.118</text>
</g>
<!-- 52&#45;&gt;26 -->
<g id="edge22" class="edge">
<title>52&#45;&gt;26</title>
<path fill="none" stroke="#000000" d="M724.6492,-60.11C710.4601,-91.5103 680.8728,-156.9865 664.1772,-193.9335"/>
<polygon fill="#000000" stroke="#000000" points="660.9589,-192.5562 660.0304,-203.1103 667.3378,-195.4388 660.9589,-192.5562"/>
</g>
<!-- 124 -->
<g id="node31" class="node">
<title>124</title>
<ellipse fill="none" stroke="#000000" cx="640.3034" cy="-18" rx="32.4942" ry="18"/>
<text text-anchor="middle" x="640.3034" y="-14.3" font-family="Times,serif" font-size="14.00" fill="#000000">0.120</text>
</g>
<!-- 124&#45;&gt;26 -->
<g id="edge23" class="edge">
<title>124&#45;&gt;26</title>
<path fill="none" stroke="#000000" d="M641.3446,-35.9973C643.3876,-71.3115 647.9358,-149.928 650.39,-192.3502"/>
<polygon fill="#000000" stroke="#000000" points="646.9085,-192.7722 650.9803,-202.5534 653.8968,-192.3679 646.9085,-192.7722"/>
</g>
<!-- 127 -->
<g id="node32" class="node">
<title>127</title>
<ellipse fill="none" stroke="#000000" cx="180.965" cy="-222.3035" rx="32.4942" ry="18"/>
<text text-anchor="middle" x="180.965" y="-218.6035" font-family="Times,serif" font-size="14.00" fill="#000000">0.523</text>
</g>
<!-- 127&#45;&gt;65 -->
<g id="edge25" class="edge">
<title>127&#45;&gt;65</title>
<path fill="none" stroke="#000000" d="M170.3414,-239.4151C158.3773,-258.6857 138.805,-290.211 124.984,-312.4725"/>
<polygon fill="#000000" stroke="#000000" points="121.9349,-310.7481 119.6338,-321.09 127.882,-314.4403 121.9349,-310.7481"/>
</g>
<!-- 127&#45;&gt;143 -->
<g id="edge27" class="edge">
<title>127&#45;&gt;143</title>
<path fill="none" stroke="#000000" d="M213.5048,-222.3275C248.3693,-222.3531 303.9867,-222.394 343.2978,-222.4228"/>
<polygon fill="#000000" stroke="#000000" points="343.4168,-225.9228 353.4194,-222.4303 343.422,-218.9228 343.4168,-225.9228"/>
</g>
<!-- 127&#45;&gt;154 -->
<g id="edge26" class="edge">
<title>127&#45;&gt;154</title>
<path fill="none" stroke="#000000" d="M169.954,-205.3595C157.6249,-186.3872 137.5005,-155.4193 123.1902,-133.3983"/>
<polygon fill="#000000" stroke="#000000" points="126.0257,-131.3384 117.6419,-124.8606 120.1562,-135.1528 126.0257,-131.3384"/>
</g>
<!-- 127&#45;&gt;160 -->
<g id="edge24" class="edge">
<title>127&#45;&gt;160</title>
<path fill="none" stroke="#000000" d="M148.3752,-222.9007C128.7564,-223.2603 103.4689,-223.7236 81.827,-224.1202"/>
<polygon fill="#000000" stroke="#000000" points="81.4706,-220.6261 71.5365,-224.3088 81.5989,-227.6249 81.4706,-220.6261"/>
</g>
</g>
</svg>
