<?xml version="1.0" encoding="UTF-8"?><svg xmlns="http://www.w3.org/2000/svg" xmlns:xlink="http://www.w3.org/1999/xlink" fill-opacity="1" color-rendering="auto" color-interpolation="auto" text-rendering="auto" stroke="black" stroke-linecap="square" width="288" stroke-miterlimit="10" shape-rendering="auto" stroke-opacity="1" fill="black" stroke-dasharray="none" font-weight="normal" stroke-width="1" height="258" font-family="'Dialog'" font-style="normal" stroke-linejoin="miter" font-size="12px" stroke-dashoffset="0" image-rendering="auto">
  <!--Generated by ySVG 2.5-->
  <defs id="genericDefs"/>
  <g>
    <defs id="defs1">
      <clipPath clipPathUnits="userSpaceOnUse" id="clipPath1">
        <path d="M0 0 L288 0 L288 258 L0 258 L0 0 Z"/>
      </clipPath>
      <clipPath clipPathUnits="userSpaceOnUse" id="clipPath2">
        <path d="M-144 -160 L144 -160 L144 98 L-144 98 L-144 -160 Z"/>
      </clipPath>
    </defs>
    <g fill="white" text-rendering="geometricPrecision" shape-rendering="geometricPrecision" transform="translate(144,160)" stroke="white">
      <rect x="-144" width="288" height="258" y="-160" clip-path="url(#clipPath2)" stroke="none"/>
    </g>
    <g text-rendering="geometricPrecision" stroke-miterlimit="1.45" stroke-width="2" shape-rendering="geometricPrecision" transform="matrix(1,0,0,1,144,160)" stroke-linecap="butt">
      <circle fill="none" r="20" clip-path="url(#clipPath2)" cx="0" cy="0"/>
      <text x="-4.333" y="4.3037" clip-path="url(#clipPath2)" font-family="Tinos" stroke="none" font-weight="bold" stroke-width="1" xml:space="preserve">A</text>
      <circle fill="none" r="20" clip-path="url(#clipPath2)" cx="-108.2532" cy="62.5"/>
      <text x="-112.2551" y="66.8037" clip-path="url(#clipPath2)" font-family="Tinos" stroke="none" font-weight="bold" stroke-width="1" xml:space="preserve">B</text>
      <circle fill="none" r="20" clip-path="url(#clipPath2)" cx="108.2532" cy="62.5"/>
      <text x="103.9202" y="66.8037" clip-path="url(#clipPath2)" font-family="Tinos" stroke="none" font-weight="bold" stroke-width="1" xml:space="preserve">C</text>
      <circle fill="none" r="20" clip-path="url(#clipPath2)" cx="0" cy="-125"/>
      <text x="-4.333" y="-120.6963" clip-path="url(#clipPath2)" font-family="Tinos" stroke="none" font-weight="bold" stroke-width="1" xml:space="preserve">D</text>
      <path fill="none" d="M-90.9327 52.5 L-24.2487 14" stroke-width="1" clip-path="url(#clipPath2)"/>
      <path d="M-17.3205 10 L-30.2128 11.6699 L-25.1147 14.5 L-25.2128 20.3301 Z" stroke-width="1" clip-path="url(#clipPath2)" stroke="none"/>
      <text x="-48.3758" font-size="14px" y="44.8574" clip-path="url(#clipPath2)" font-family="Tinos" stroke="none" stroke-width="1" xml:space="preserve">2</text>
      <path fill="none" d="M17.3205 10 L84.0045 48.5" stroke-width="1" clip-path="url(#clipPath2)"/>
      <path d="M90.9327 52.5 L83.0404 42.1699 L83.1384 48 L78.0404 50.8301 Z" stroke-width="1" clip-path="url(#clipPath2)" stroke="none"/>
      <text x="59.8774" font-size="14px" y="27.6846" clip-path="url(#clipPath2)" font-family="Tinos" stroke="none" stroke-width="1" xml:space="preserve">1</text>
      <path fill="none" d="M0 -105 L0 -28" stroke-width="1" clip-path="url(#clipPath2)"/>
      <path d="M0 -20 L5 -32 L0 -29 L-5 -32 Z" stroke-width="1" clip-path="url(#clipPath2)" stroke="none"/>
      <text x="-10" font-size="14px" y="-57.479" clip-path="url(#clipPath2)" font-family="Tinos" stroke="none" stroke-width="1" xml:space="preserve">4</text>
      <path fill="none" d="M-10 -107.6795 L-94.2532 38.2513" stroke-width="1" clip-path="url(#clipPath2)"/>
      <path d="M-98.2532 45.1795 L-87.923 37.2872 L-93.7532 37.3853 L-96.5833 32.2872 Z" stroke-width="1" clip-path="url(#clipPath2)" stroke="none"/>
      <text x="-67.897" font-size="14px" y="-28.7183" clip-path="url(#clipPath2)" font-family="Tinos" stroke="none" stroke-width="1" xml:space="preserve">1</text>
      <path fill="none" d="M10 -107.6795 L94.2532 38.2513" stroke-width="1" clip-path="url(#clipPath2)"/>
      <path d="M98.2532 45.1795 L96.5833 32.2872 L93.7532 37.3853 L87.923 37.2872 Z" stroke-width="1" clip-path="url(#clipPath2)" stroke="none"/>
      <text x="60.897" font-size="14px" y="-28.7183" clip-path="url(#clipPath2)" font-family="Tinos" stroke="none" stroke-width="1" xml:space="preserve">2</text>
    </g>
  </g>
</svg>
