<?xml version="1.0" encoding="UTF-8" standalone="no"?>
<!DOCTYPE svg PUBLIC "-//W3C//DTD SVG 1.1//EN"
 "http://www.w3.org/Graphics/SVG/1.1/DTD/svg11.dtd">
<!-- Generated by graphviz version 2.40.1 (20161225.0304)
 -->
<!-- Pages: 1 -->
<svg width="957pt" height="554pt"
 viewBox="0.00 0.00 957.16 554.07" xmlns="http://www.w3.org/2000/svg" xmlns:xlink="http://www.w3.org/1999/xlink">
<g id="graph0" class="graph" transform="scale(1 1) rotate(0) translate(4 550.0703)">
<polygon fill="#ffffff" stroke="transparent" points="-4,4 -4,-550.0703 953.1626,-550.0703 953.1626,4 -4,4"/>
<!-- 6 -->
<g id="node1" class="node">
<title>6</title>
<ellipse fill="none" stroke="#000000" cx="922.1626" cy="-120" rx="27" ry="18"/>
<text text-anchor="middle" x="922.1626" y="-116.3" font-family="Times,serif" font-size="14.00" fill="#000000">6</text>
</g>
<!-- 71 -->
<g id="node2" class="node">
<title>71</title>
<ellipse fill="none" stroke="#000000" cx="143.6234" cy="-376.5524" rx="27" ry="18"/>
<text text-anchor="middle" x="143.6234" y="-372.8524" font-family="Times,serif" font-size="14.00" fill="#000000">71</text>
</g>
<!-- 19 -->
<g id="node9" class="node">
<title>19</title>
<ellipse fill="none" stroke="#000000" cx="298.7129" cy="-322.4727" rx="27" ry="18"/>
<text text-anchor="middle" x="298.7129" y="-318.7727" font-family="Times,serif" font-size="14.00" fill="#000000">19</text>
</g>
<!-- 71&#45;&gt;19 -->
<g id="edge1" class="edge">
<title>71&#45;&gt;19</title>
<path fill="none" stroke="#000000" d="M167.8562,-368.1024C193.9193,-359.0142 235.5556,-344.4957 264.8493,-334.281"/>
<polygon fill="#000000" stroke="#000000" points="266.3604,-337.4608 274.6504,-330.8633 264.0555,-330.8511 266.3604,-337.4608"/>
</g>
<!-- 86 -->
<g id="node11" class="node">
<title>86</title>
<ellipse fill="none" stroke="#000000" cx="27" cy="-420.7257" rx="27" ry="18"/>
<text text-anchor="middle" x="27" y="-417.0257" font-family="Times,serif" font-size="14.00" fill="#000000">86</text>
</g>
<!-- 71&#45;&gt;86 -->
<g id="edge2" class="edge">
<title>71&#45;&gt;86</title>
<path fill="none" stroke="#000000" d="M120.0229,-385.4915C102.7927,-392.0178 79.2052,-400.952 60.094,-408.1908"/>
<polygon fill="#000000" stroke="#000000" points="58.6773,-404.9846 50.5654,-411.7999 61.1568,-411.5308 58.6773,-404.9846"/>
</g>
<!-- 137 -->
<g id="node3" class="node">
<title>137</title>
<ellipse fill="none" stroke="#000000" cx="754.5615" cy="-120" rx="27" ry="18"/>
<text text-anchor="middle" x="754.5615" y="-116.3" font-family="Times,serif" font-size="14.00" fill="#000000">137</text>
</g>
<!-- 137&#45;&gt;6 -->
<g id="edge4" class="edge">
<title>137&#45;&gt;6</title>
<path fill="none" stroke="#000000" d="M781.8625,-120C809.947,-120 853.8786,-120 885.0937,-120"/>
<polygon fill="#000000" stroke="#000000" points="885.1509,-123.4999 895.1509,-120 885.151,-116.4999 885.1509,-123.4999"/>
</g>
<!-- 157 -->
<g id="node14" class="node">
<title>157</title>
<ellipse fill="none" stroke="#000000" cx="571" cy="-120" rx="27" ry="18"/>
<text text-anchor="middle" x="571" y="-116.3" font-family="Times,serif" font-size="14.00" fill="#000000">157</text>
</g>
<!-- 137&#45;&gt;157 -->
<g id="edge3" class="edge">
<title>137&#45;&gt;157</title>
<path fill="none" stroke="#000000" d="M727.4764,-120C696.0247,-120 643.9499,-120 608.5915,-120"/>
<polygon fill="#000000" stroke="#000000" points="608.1962,-116.4999 598.1963,-120 608.1963,-123.4999 608.1962,-116.4999"/>
</g>
<!-- 10 -->
<g id="node4" class="node">
<title>10</title>
<ellipse fill="none" stroke="#000000" cx="254.0472" cy="-186.0228" rx="27" ry="18"/>
<text text-anchor="middle" x="254.0472" y="-182.3228" font-family="Times,serif" font-size="14.00" fill="#000000">10</text>
</g>
<!-- 143 -->
<g id="node6" class="node">
<title>143</title>
<ellipse fill="none" stroke="#000000" cx="280.013" cy="-65.4573" rx="27" ry="18"/>
<text text-anchor="middle" x="280.013" y="-61.7573" font-family="Times,serif" font-size="14.00" fill="#000000">143</text>
</g>
<!-- 10&#45;&gt;143 -->
<g id="edge6" class="edge">
<title>10&#45;&gt;143</title>
<path fill="none" stroke="#000000" d="M257.9345,-167.9729C262.1795,-148.2626 269.0315,-116.447 273.9771,-93.4833"/>
<polygon fill="#000000" stroke="#000000" points="277.4152,-94.1433 276.0991,-83.6306 270.5721,-92.6695 277.4152,-94.1433"/>
</g>
<!-- 10&#45;&gt;19 -->
<g id="edge5" class="edge">
<title>10&#45;&gt;19</title>
<path fill="none" stroke="#000000" d="M259.8864,-203.8613C267.4769,-227.0494 280.8107,-267.7829 289.7029,-294.9479"/>
<polygon fill="#000000" stroke="#000000" points="286.4349,-296.215 292.8722,-304.6299 293.0875,-294.0373 286.4349,-296.215"/>
</g>
<!-- 12 -->
<g id="node5" class="node">
<title>12</title>
<ellipse fill="none" stroke="#000000" cx="556.6186" cy="-528" rx="27" ry="18"/>
<text text-anchor="middle" x="556.6186" y="-524.3" font-family="Times,serif" font-size="14.00" fill="#000000">12</text>
</g>
<!-- 17 -->
<g id="node7" class="node">
<title>17</title>
<ellipse fill="none" stroke="#000000" cx="896.6186" cy="-358" rx="27" ry="18"/>
<text text-anchor="middle" x="896.6186" y="-354.3" font-family="Times,serif" font-size="14.00" fill="#000000">17</text>
</g>
<!-- 165 -->
<g id="node17" class="node">
<title>165</title>
<ellipse fill="none" stroke="#000000" cx="707" cy="-358" rx="27" ry="18"/>
<text text-anchor="middle" x="707" y="-354.3" font-family="Times,serif" font-size="14.00" fill="#000000">165</text>
</g>
<!-- 17&#45;&gt;165 -->
<g id="edge7" class="edge">
<title>17&#45;&gt;165</title>
<path fill="none" stroke="#000000" d="M869.4508,-358C836.6429,-358 781.2868,-358 744.4464,-358"/>
<polygon fill="#000000" stroke="#000000" points="744.1174,-354.5001 734.1173,-358 744.1173,-361.5001 744.1174,-354.5001"/>
</g>
<!-- 29 -->
<g id="node8" class="node">
<title>29</title>
<ellipse fill="none" stroke="#000000" cx="270.4266" cy="-434.442" rx="27" ry="18"/>
<text text-anchor="middle" x="270.4266" y="-430.742" font-family="Times,serif" font-size="14.00" fill="#000000">29</text>
</g>
<!-- 29&#45;&gt;19 -->
<g id="edge8" class="edge">
<title>29&#45;&gt;19</title>
<path fill="none" stroke="#000000" d="M274.9713,-416.4522C279.4869,-398.5775 286.4742,-370.9187 291.7013,-350.2277"/>
<polygon fill="#000000" stroke="#000000" points="295.1235,-350.9706 294.1795,-340.4179 288.3367,-349.256 295.1235,-350.9706"/>
</g>
<!-- 149 -->
<g id="node10" class="node">
<title>149</title>
<ellipse fill="none" stroke="#000000" cx="583.0187" cy="-428.3266" rx="27" ry="18"/>
<text text-anchor="middle" x="583.0187" y="-424.6266" font-family="Times,serif" font-size="14.00" fill="#000000">149</text>
</g>
<!-- 151 -->
<g id="node12" class="node">
<title>151</title>
<ellipse fill="none" stroke="#000000" cx="646.7644" cy="-259.1808" rx="27" ry="18"/>
<text text-anchor="middle" x="646.7644" y="-255.4808" font-family="Times,serif" font-size="14.00" fill="#000000">151</text>
</g>
<!-- 37 -->
<g id="node13" class="node">
<title>37</title>
<ellipse fill="none" stroke="#000000" cx="656.2787" cy="-528.0703" rx="27" ry="18"/>
<text text-anchor="middle" x="656.2787" y="-524.3703" font-family="Times,serif" font-size="14.00" fill="#000000">37</text>
</g>
<!-- 37&#45;&gt;149 -->
<g id="edge9" class="edge">
<title>37&#45;&gt;149</title>
<path fill="none" stroke="#000000" d="M644.1813,-511.5996C632.5162,-495.7176 614.708,-471.4716 601.3105,-453.2309"/>
<polygon fill="#000000" stroke="#000000" points="603.8746,-450.8095 595.1341,-444.8217 598.2329,-454.9533 603.8746,-450.8095"/>
</g>
<!-- 95 -->
<g id="node15" class="node">
<title>95</title>
<ellipse fill="none" stroke="#000000" cx="767.2186" cy="-227.882" rx="27" ry="18"/>
<text text-anchor="middle" x="767.2186" y="-224.182" font-family="Times,serif" font-size="14.00" fill="#000000">95</text>
</g>
<!-- 95&#45;&gt;151 -->
<g id="edge10" class="edge">
<title>95&#45;&gt;151</title>
<path fill="none" stroke="#000000" d="M741.9674,-234.4432C724.5414,-238.9712 701.137,-245.0526 681.8949,-250.0525"/>
<polygon fill="#000000" stroke="#000000" points="680.7807,-246.7257 671.9823,-252.6282 682.5412,-253.5007 680.7807,-246.7257"/>
</g>
<!-- 96 -->
<g id="node16" class="node">
<title>96</title>
<ellipse fill="none" stroke="#000000" cx="492.4722" cy="-299.4615" rx="27" ry="18"/>
<text text-anchor="middle" x="492.4722" y="-295.7615" font-family="Times,serif" font-size="14.00" fill="#000000">96</text>
</g>
<!-- 96&#45;&gt;19 -->
<g id="edge12" class="edge">
<title>96&#45;&gt;19</title>
<path fill="none" stroke="#000000" d="M465.5308,-302.6611C431.6938,-306.6796 373.484,-313.5928 335.5501,-318.0979"/>
<polygon fill="#000000" stroke="#000000" points="334.9429,-314.6453 325.4255,-319.3003 335.7685,-321.5964 334.9429,-314.6453"/>
</g>
<!-- 96&#45;&gt;149 -->
<g id="edge11" class="edge">
<title>96&#45;&gt;149</title>
<path fill="none" stroke="#000000" d="M503.94,-315.7823C519.5026,-337.9309 547.447,-377.7012 565.6067,-403.546"/>
<polygon fill="#000000" stroke="#000000" points="562.7451,-405.5613 571.358,-411.7313 568.4726,-401.5369 562.7451,-405.5613"/>
</g>
<!-- 96&#45;&gt;151 -->
<g id="edge14" class="edge">
<title>96&#45;&gt;151</title>
<path fill="none" stroke="#000000" d="M517.9504,-292.8099C543.4877,-286.143 583.0046,-275.8264 611.5364,-268.3777"/>
<polygon fill="#000000" stroke="#000000" points="612.7132,-271.6878 621.5048,-265.7753 610.945,-264.9149 612.7132,-271.6878"/>
</g>
<!-- 171 -->
<g id="node20" class="node">
<title>171</title>
<ellipse fill="none" stroke="#000000" cx="463.9815" cy="-156.497" rx="27" ry="18"/>
<text text-anchor="middle" x="463.9815" y="-152.797" font-family="Times,serif" font-size="14.00" fill="#000000">171</text>
</g>
<!-- 96&#45;&gt;171 -->
<g id="edge13" class="edge">
<title>96&#45;&gt;171</title>
<path fill="none" stroke="#000000" d="M488.8638,-281.3549C483.9829,-256.8629 475.2313,-212.9479 469.516,-184.2689"/>
<polygon fill="#000000" stroke="#000000" points="472.9475,-183.5796 467.5605,-174.4566 466.0825,-184.9478 472.9475,-183.5796"/>
</g>
<!-- 166 -->
<g id="node18" class="node">
<title>166</title>
<ellipse fill="none" stroke="#000000" cx="367" cy="-528" rx="27" ry="18"/>
<text text-anchor="middle" x="367" y="-524.3" font-family="Times,serif" font-size="14.00" fill="#000000">166</text>
</g>
<!-- 166&#45;&gt;12 -->
<g id="edge15" class="edge">
<title>166&#45;&gt;12</title>
<path fill="none" stroke="#000000" d="M394.1677,-528C426.9756,-528 482.3318,-528 519.1722,-528"/>
<polygon fill="#000000" stroke="#000000" points="519.5013,-531.5001 529.5012,-528 519.5012,-524.5001 519.5013,-531.5001"/>
</g>
<!-- 105 -->
<g id="node19" class="node">
<title>105</title>
<ellipse fill="none" stroke="#000000" cx="692.6186" cy="-18" rx="27" ry="18"/>
<text text-anchor="middle" x="692.6186" y="-14.3" font-family="Times,serif" font-size="14.00" fill="#000000">105</text>
</g>
<!-- 108 -->
<g id="node21" class="node">
<title>108</title>
<ellipse fill="none" stroke="#000000" cx="503" cy="-18" rx="27" ry="18"/>
<text text-anchor="middle" x="503" y="-14.3" font-family="Times,serif" font-size="14.00" fill="#000000">108</text>
</g>
<!-- 105&#45;&gt;108 -->
<g id="edge16" class="edge">
<title>105&#45;&gt;108</title>
<path fill="none" stroke="#000000" d="M665.4508,-18C632.6429,-18 577.2868,-18 540.4464,-18"/>
<polygon fill="#000000" stroke="#000000" points="540.1174,-14.5001 530.1173,-18 540.1173,-21.5001 540.1174,-14.5001"/>
</g>
<!-- 47 -->
<g id="node22" class="node">
<title>47</title>
<ellipse fill="none" stroke="#000000" cx="389.4149" cy="-52" rx="27" ry="18"/>
<text text-anchor="middle" x="389.4149" y="-48.3" font-family="Times,serif" font-size="14.00" fill="#000000">47</text>
</g>
<!-- 47&#45;&gt;143 -->
<g id="edge18" class="edge">
<title>47&#45;&gt;143</title>
<path fill="none" stroke="#000000" d="M362.6522,-55.292C348.8777,-56.9864 331.8723,-59.0782 316.8756,-60.9229"/>
<polygon fill="#000000" stroke="#000000" points="316.3765,-57.4578 306.8786,-62.1526 317.2311,-64.4055 316.3765,-57.4578"/>
</g>
<!-- 47&#45;&gt;171 -->
<g id="edge17" class="edge">
<title>47&#45;&gt;171</title>
<path fill="none" stroke="#000000" d="M401.0659,-68.3277C413.1973,-85.3285 432.3462,-112.1637 446.3346,-131.7668"/>
<polygon fill="#000000" stroke="#000000" points="443.5085,-133.8321 452.1662,-139.9392 449.2066,-129.7661 443.5085,-133.8321"/>
</g>
</g>
</svg>
