<?xml version="1.0" encoding="UTF-8" standalone="no"?>
<!DOCTYPE svg PUBLIC "-//W3C//DTD SVG 1.1//EN"
 "http://www.w3.org/Graphics/SVG/1.1/DTD/svg11.dtd">
<!-- Generated by graphviz version 2.40.1 (20161225.0304)
 -->
<!-- Pages: 1 -->
<svg width="1127pt" height="583pt"
 viewBox="0.00 0.00 1127.43 582.92" xmlns="http://www.w3.org/2000/svg" xmlns:xlink="http://www.w3.org/1999/xlink">
<g id="graph0" class="graph" transform="scale(1 1) rotate(0) translate(4 578.9204)">
<polygon fill="#ffffff" stroke="transparent" points="-4,4 -4,-578.9204 1123.433,-578.9204 1123.433,4 -4,4"/>
<!-- 6 -->
<g id="node1" class="node">
<title>6</title>
<ellipse fill="none" stroke="#000000" cx="1083.6861" cy="-132" rx="35.9954" ry="18"/>
<text text-anchor="middle" x="1083.6861" y="-128.3" font-family="Times,serif" font-size="14.00" fill="#000000">&#45;0.172</text>
</g>
<!-- 71 -->
<g id="node2" class="node">
<title>71</title>
<ellipse fill="none" stroke="#000000" cx="167.7667" cy="-385.3993" rx="32.4942" ry="18"/>
<text text-anchor="middle" x="167.7667" y="-381.6993" font-family="Times,serif" font-size="14.00" fill="#000000">0.343</text>
</g>
<!-- 19 -->
<g id="node9" class="node">
<title>19</title>
<ellipse fill="none" stroke="#000000" cx="343.3309" cy="-324.1801" rx="35.9954" ry="18"/>
<text text-anchor="middle" x="343.3309" y="-320.4801" font-family="Times,serif" font-size="14.00" fill="#000000">&#45;0.719</text>
</g>
<!-- 71&#45;&gt;19 -->
<g id="edge1" class="edge">
<title>71&#45;&gt;19</title>
<path fill="none" stroke="#000000" d="M195.5854,-375.699C224.8517,-365.4938 271.1516,-349.3491 304.1164,-337.8542"/>
<polygon fill="#000000" stroke="#000000" points="305.5951,-341.0454 313.8851,-334.4479 303.2903,-334.4357 305.5951,-341.0454"/>
</g>
<!-- 86 -->
<g id="node11" class="node">
<title>86</title>
<ellipse fill="none" stroke="#000000" cx="35.7468" cy="-435.4044" rx="35.9954" ry="18"/>
<text text-anchor="middle" x="35.7468" y="-431.7044" font-family="Times,serif" font-size="14.00" fill="#000000">&#45;0.172</text>
</g>
<!-- 71&#45;&gt;86 -->
<g id="edge2" class="edge">
<title>71&#45;&gt;86</title>
<path fill="none" stroke="#000000" d="M140.7319,-395.6393C121.4988,-402.9242 95.3881,-412.8141 74.0183,-420.9083"/>
<polygon fill="#000000" stroke="#000000" points="72.687,-417.6698 64.5751,-424.4851 75.1665,-424.216 72.687,-417.6698"/>
</g>
<!-- 137 -->
<g id="node3" class="node">
<title>137</title>
<ellipse fill="none" stroke="#000000" cx="891.8506" cy="-132" rx="32.4942" ry="18"/>
<text text-anchor="middle" x="891.8506" y="-128.3" font-family="Times,serif" font-size="14.00" fill="#000000">0.346</text>
</g>
<!-- 137&#45;&gt;6 -->
<g id="edge4" class="edge">
<title>137&#45;&gt;6</title>
<path fill="none" stroke="#000000" d="M924.3929,-132C955.3932,-132 1002.3798,-132 1037.2978,-132"/>
<polygon fill="#000000" stroke="#000000" points="1037.7159,-135.4999 1047.7159,-132 1037.716,-128.4999 1037.7159,-135.4999"/>
</g>
<!-- 157 -->
<g id="node14" class="node">
<title>157</title>
<ellipse fill="none" stroke="#000000" cx="681.7468" cy="-132" rx="35.9954" ry="18"/>
<text text-anchor="middle" x="681.7468" y="-128.3" font-family="Times,serif" font-size="14.00" fill="#000000">&#45;0.173</text>
</g>
<!-- 137&#45;&gt;157 -->
<g id="edge3" class="edge">
<title>137&#45;&gt;157</title>
<path fill="none" stroke="#000000" d="M859.0219,-132C823.7419,-132 767.3984,-132 727.7185,-132"/>
<polygon fill="#000000" stroke="#000000" points="727.5071,-128.5001 717.5071,-132 727.507,-135.5001 727.5071,-128.5001"/>
</g>
<!-- 10 -->
<g id="node4" class="node">
<title>10</title>
<ellipse fill="none" stroke="#000000" cx="292.7684" cy="-169.7163" rx="32.4942" ry="18"/>
<text text-anchor="middle" x="292.7684" y="-166.0163" font-family="Times,serif" font-size="14.00" fill="#000000">0.374</text>
</g>
<!-- 143 -->
<g id="node6" class="node">
<title>143</title>
<ellipse fill="none" stroke="#000000" cx="322.1623" cy="-33.2339" rx="35.9954" ry="18"/>
<text text-anchor="middle" x="322.1623" y="-29.5339" font-family="Times,serif" font-size="14.00" fill="#000000">&#45;0.366</text>
</g>
<!-- 10&#45;&gt;143 -->
<g id="edge6" class="edge">
<title>10&#45;&gt;143</title>
<path fill="none" stroke="#000000" d="M296.6717,-151.5925C301.6349,-128.5474 310.2581,-88.5079 316.0852,-61.4511"/>
<polygon fill="#000000" stroke="#000000" points="319.5589,-61.9454 318.2428,-51.4327 312.7158,-60.4716 319.5589,-61.9454"/>
</g>
<!-- 10&#45;&gt;19 -->
<g id="edge5" class="edge">
<title>10&#45;&gt;19</title>
<path fill="none" stroke="#000000" d="M298.5686,-187.4353C307.3226,-214.1781 323.9838,-265.0765 334.3252,-296.6684"/>
<polygon fill="#000000" stroke="#000000" points="331.0053,-297.7771 337.4426,-306.192 337.6579,-295.5994 331.0053,-297.7771"/>
</g>
<!-- 12 -->
<g id="node5" class="node">
<title>12</title>
<ellipse fill="none" stroke="#000000" cx="931.596" cy="-360" rx="35.9954" ry="18"/>
<text text-anchor="middle" x="931.596" y="-356.3" font-family="Times,serif" font-size="14.00" fill="#000000">&#45;0.172</text>
</g>
<!-- 17 -->
<g id="node7" class="node">
<title>17</title>
<ellipse fill="none" stroke="#000000" cx="630.8457" cy="-550" rx="32.4942" ry="18"/>
<text text-anchor="middle" x="630.8457" y="-546.3" font-family="Times,serif" font-size="14.00" fill="#000000">0.173</text>
</g>
<!-- 165 -->
<g id="node17" class="node">
<title>165</title>
<ellipse fill="none" stroke="#000000" cx="415.7468" cy="-550" rx="35.9954" ry="18"/>
<text text-anchor="middle" x="415.7468" y="-546.3" font-family="Times,serif" font-size="14.00" fill="#000000">&#45;0.173</text>
</g>
<!-- 17&#45;&gt;165 -->
<g id="edge7" class="edge">
<title>17&#45;&gt;165</title>
<path fill="none" stroke="#000000" d="M598.1768,-550C561.7732,-550 502.6469,-550 461.6153,-550"/>
<polygon fill="#000000" stroke="#000000" points="461.5982,-546.5001 451.5982,-550 461.5982,-553.5001 461.5982,-546.5001"/>
</g>
<!-- 29 -->
<g id="node8" class="node">
<title>29</title>
<ellipse fill="none" stroke="#000000" cx="311.3102" cy="-450.9315" rx="32.4942" ry="18"/>
<text text-anchor="middle" x="311.3102" y="-447.2315" font-family="Times,serif" font-size="14.00" fill="#000000">0.176</text>
</g>
<!-- 29&#45;&gt;19 -->
<g id="edge8" class="edge">
<title>29&#45;&gt;19</title>
<path fill="none" stroke="#000000" d="M315.8301,-433.0399C321.1398,-412.0219 330.0132,-376.8973 336.2412,-352.244"/>
<polygon fill="#000000" stroke="#000000" points="339.6744,-352.9438 338.7303,-342.3911 332.8876,-351.2292 339.6744,-352.9438"/>
</g>
<!-- 149 -->
<g id="node10" class="node">
<title>149</title>
<ellipse fill="none" stroke="#000000" cx="665.1703" cy="-444.0087" rx="35.9954" ry="18"/>
<text text-anchor="middle" x="665.1703" y="-440.3087" font-family="Times,serif" font-size="14.00" fill="#000000">&#45;0.378</text>
</g>
<!-- 151 -->
<g id="node12" class="node">
<title>151</title>
<ellipse fill="none" stroke="#000000" cx="737.3317" cy="-252.5325" rx="35.9954" ry="18"/>
<text text-anchor="middle" x="737.3317" y="-248.8325" font-family="Times,serif" font-size="14.00" fill="#000000">&#45;0.350</text>
</g>
<!-- 37 -->
<g id="node13" class="node">
<title>37</title>
<ellipse fill="none" stroke="#000000" cx="748.102" cy="-556.9204" rx="32.4942" ry="18"/>
<text text-anchor="middle" x="748.102" y="-553.2204" font-family="Times,serif" font-size="14.00" fill="#000000">0.193</text>
</g>
<!-- 37&#45;&gt;149 -->
<g id="edge9" class="edge">
<title>37&#45;&gt;149</title>
<path fill="none" stroke="#000000" d="M735.5065,-539.7715C721.7269,-521.0107 699.5032,-490.7531 683.7273,-469.2741"/>
<polygon fill="#000000" stroke="#000000" points="686.3532,-466.9368 677.6126,-460.949 680.7115,-471.0806 686.3532,-466.9368"/>
</g>
<!-- 95 -->
<g id="node15" class="node">
<title>95</title>
<ellipse fill="none" stroke="#000000" cx="873.688" cy="-217.1017" rx="32.4942" ry="18"/>
<text text-anchor="middle" x="873.688" y="-213.4017" font-family="Times,serif" font-size="14.00" fill="#000000">0.171</text>
</g>
<!-- 95&#45;&gt;151 -->
<g id="edge10" class="edge">
<title>95&#45;&gt;151</title>
<path fill="none" stroke="#000000" d="M844.1007,-224.7896C825.1186,-229.7219 800.1856,-236.2005 779.1878,-241.6566"/>
<polygon fill="#000000" stroke="#000000" points="778.0377,-238.3392 769.2393,-244.2416 779.7981,-245.1142 778.0377,-238.3392"/>
</g>
<!-- 96 -->
<g id="node16" class="node">
<title>96</title>
<ellipse fill="none" stroke="#000000" cx="562.67" cy="-298.131" rx="32.4942" ry="18"/>
<text text-anchor="middle" x="562.67" y="-294.431" font-family="Times,serif" font-size="14.00" fill="#000000">0.714</text>
</g>
<!-- 96&#45;&gt;19 -->
<g id="edge12" class="edge">
<title>96&#45;&gt;19</title>
<path fill="none" stroke="#000000" d="M530.7762,-301.9187C493.2368,-306.377 430.6488,-313.8101 388.2216,-318.8488"/>
<polygon fill="#000000" stroke="#000000" points="387.6809,-315.3884 378.1635,-320.0434 388.5065,-322.3395 387.6809,-315.3884"/>
</g>
<!-- 96&#45;&gt;149 -->
<g id="edge11" class="edge">
<title>96&#45;&gt;149</title>
<path fill="none" stroke="#000000" d="M574.6287,-315.1505C592.5088,-340.5974 626.3349,-388.7385 647.1984,-418.4312"/>
<polygon fill="#000000" stroke="#000000" points="644.3571,-420.4755 652.9701,-426.6454 650.0846,-416.4511 644.3571,-420.4755"/>
</g>
<!-- 96&#45;&gt;151 -->
<g id="edge14" class="edge">
<title>96&#45;&gt;151</title>
<path fill="none" stroke="#000000" d="M592.299,-290.3958C620.6658,-282.9902 663.7344,-271.7463 695.5746,-263.4339"/>
<polygon fill="#000000" stroke="#000000" points="696.6933,-266.7593 705.4849,-260.8467 694.925,-259.9863 696.6933,-266.7593"/>
</g>
<!-- 171 -->
<g id="node20" class="node">
<title>171</title>
<ellipse fill="none" stroke="#000000" cx="530.4179" cy="-136.2926" rx="35.9954" ry="18"/>
<text text-anchor="middle" x="530.4179" y="-132.5926" font-family="Times,serif" font-size="14.00" fill="#000000">&#45;0.359</text>
</g>
<!-- 96&#45;&gt;171 -->
<g id="edge13" class="edge">
<title>96&#45;&gt;171</title>
<path fill="none" stroke="#000000" d="M559.0953,-280.1931C553.5012,-252.1224 542.6334,-197.589 536.0012,-164.3088"/>
<polygon fill="#000000" stroke="#000000" points="539.3957,-163.4339 534.0087,-154.3108 532.5307,-164.802 539.3957,-163.4339"/>
</g>
<!-- 166 -->
<g id="node18" class="node">
<title>166</title>
<ellipse fill="none" stroke="#000000" cx="716.4971" cy="-360" rx="32.4942" ry="18"/>
<text text-anchor="middle" x="716.4971" y="-356.3" font-family="Times,serif" font-size="14.00" fill="#000000">0.172</text>
</g>
<!-- 166&#45;&gt;12 -->
<g id="edge15" class="edge">
<title>166&#45;&gt;12</title>
<path fill="none" stroke="#000000" d="M749.166,-360C785.5697,-360 844.6959,-360 885.7276,-360"/>
<polygon fill="#000000" stroke="#000000" points="885.7447,-363.5001 895.7447,-360 885.7446,-356.5001 885.7447,-363.5001"/>
</g>
<!-- 105 -->
<g id="node19" class="node">
<title>105</title>
<ellipse fill="none" stroke="#000000" cx="782.8457" cy="-18" rx="32.4942" ry="18"/>
<text text-anchor="middle" x="782.8457" y="-14.3" font-family="Times,serif" font-size="14.00" fill="#000000">0.172</text>
</g>
<!-- 108 -->
<g id="node21" class="node">
<title>108</title>
<ellipse fill="none" stroke="#000000" cx="567.7468" cy="-18" rx="35.9954" ry="18"/>
<text text-anchor="middle" x="567.7468" y="-14.3" font-family="Times,serif" font-size="14.00" fill="#000000">&#45;0.172</text>
</g>
<!-- 105&#45;&gt;108 -->
<g id="edge16" class="edge">
<title>105&#45;&gt;108</title>
<path fill="none" stroke="#000000" d="M750.1768,-18C713.7732,-18 654.6469,-18 613.6153,-18"/>
<polygon fill="#000000" stroke="#000000" points="613.5982,-14.5001 603.5982,-18 613.5982,-21.5001 613.5982,-14.5001"/>
</g>
<!-- 47 -->
<g id="node22" class="node">
<title>47</title>
<ellipse fill="none" stroke="#000000" cx="446.0072" cy="-18" rx="32.4942" ry="18"/>
<text text-anchor="middle" x="446.0072" y="-14.3" font-family="Times,serif" font-size="14.00" fill="#000000">0.373</text>
</g>
<!-- 47&#45;&gt;143 -->
<g id="edge18" class="edge">
<title>47&#45;&gt;143</title>
<path fill="none" stroke="#000000" d="M414.1141,-21.9231C399.7691,-23.6877 382.5873,-25.8012 366.9788,-27.7211"/>
<polygon fill="#000000" stroke="#000000" points="366.4926,-24.2545 356.9947,-28.9492 367.3472,-31.2021 366.4926,-24.2545"/>
</g>
<!-- 47&#45;&gt;171 -->
<g id="edge17" class="edge">
<title>47&#45;&gt;171</title>
<path fill="none" stroke="#000000" d="M458.1012,-34.9484C472.2491,-54.7752 495.8163,-87.802 512.1854,-110.7416"/>
<polygon fill="#000000" stroke="#000000" points="509.4143,-112.8838 518.0719,-118.9909 515.1123,-108.8178 509.4143,-112.8838"/>
</g>
</g>
</svg>
