<?xml version="1.0" encoding="UTF-8"?><svg xmlns="http://www.w3.org/2000/svg" xmlns:xlink="http://www.w3.org/1999/xlink" fill-opacity="1" color-rendering="auto" color-interpolation="auto" text-rendering="auto" stroke="black" stroke-linecap="square" width="349" stroke-miterlimit="10" shape-rendering="auto" stroke-opacity="1" fill="black" stroke-dasharray="none" font-weight="normal" stroke-width="1" height="354" font-family="'Dialog'" font-style="normal" stroke-linejoin="miter" font-size="12px" stroke-dashoffset="0" image-rendering="auto">
  <!--Generated by ySVG 2.5-->
  <defs id="genericDefs"/>
  <g>
    <defs id="defs1">
      <clipPath clipPathUnits="userSpaceOnUse" id="clipPath1">
        <path d="M0 0 L349 0 L349 354 L0 354 L0 0 Z"/>
      </clipPath>
      <clipPath clipPathUnits="userSpaceOnUse" id="clipPath2">
        <path d="M-18 -103 L331 -103 L331 251 L-18 251 L-18 -103 Z"/>
      </clipPath>
      <clipPath clipPathUnits="userSpaceOnUse" id="clipPath3">
        <path d="M-189.2538 80.4607 L107.6747 -102.9363 L293.6992 198.2462 L-3.2293 381.6432 L-189.2538 80.4607 Z"/>
      </clipPath>
      <clipPath clipPathUnits="userSpaceOnUse" id="clipPath4">
        <path d="M-271.2174 50.8996 L27.3031 -129.8945 L210.6873 172.9028 L-87.8332 353.6969 L-271.2174 50.8996 Z"/>
      </clipPath>
      <clipPath clipPathUnits="userSpaceOnUse" id="clipPath5">
        <path d="M224.2044 -233.4051 L354.5444 90.3425 L26.1586 222.5497 L-104.1814 -101.1978 L224.2044 -233.4051 Z"/>
      </clipPath>
      <clipPath clipPathUnits="userSpaceOnUse" id="clipPath6">
        <path d="M-221.9661 17.8192 L-60.954 -291.8195 L253.1208 -128.5006 L92.1087 181.1381 L-221.9661 17.8192 Z"/>
      </clipPath>
      <clipPath clipPathUnits="userSpaceOnUse" id="clipPath7">
        <path d="M-78.9764 -254.5102 L246.7613 -129.2265 L119.6827 201.1778 L-206.0549 75.8941 L-78.9764 -254.5102 Z"/>
      </clipPath>
      <clipPath clipPathUnits="userSpaceOnUse" id="clipPath8">
        <path d="M-235.4353 121.6209 L-67.411 -184.2694 L242.8616 -13.8379 L74.8374 292.0524 L-235.4353 121.6209 Z"/>
      </clipPath>
      <clipPath clipPathUnits="userSpaceOnUse" id="clipPath9">
        <path d="M-77.5375 -195.6853 L253.553 -85.3219 L141.6084 250.512 L-189.4821 140.1485 L-77.5375 -195.6853 Z"/>
      </clipPath>
      <clipPath clipPathUnits="userSpaceOnUse" id="clipPath10">
        <path d="M-322.8727 -65.6256 L-9.1252 -218.4769 L145.916 99.7655 L-167.8315 252.6168 L-322.8727 -65.6256 Z"/>
      </clipPath>
      <clipPath clipPathUnits="userSpaceOnUse" id="clipPath11">
        <path d="M-118.2126 -66.2284 L186.0785 -237.1316 L359.4302 71.519 L55.1391 242.4222 L-118.2126 -66.2284 Z"/>
      </clipPath>
    </defs>
    <g fill="white" text-rendering="geometricPrecision" shape-rendering="geometricPrecision" transform="matrix(1,0,0,1,18,103)" stroke="white">
      <circle r="22.5" clip-path="url(#clipPath2)" cx="222" cy="-23" stroke="none"/>
    </g>
    <g text-rendering="geometricPrecision" stroke-miterlimit="1.45" stroke-width="2" shape-rendering="geometricPrecision" transform="matrix(1,0,0,1,18,103)" stroke-linecap="butt">
      <circle fill="none" r="22.5" clip-path="url(#clipPath2)" cx="222" cy="-23"/>
      <text x="206.9854" y="-18.6436" clip-path="url(#clipPath2)" font-family="sans-serif" stroke="none" stroke-width="1" xml:space="preserve">0.420</text>
    </g>
    <g fill="white" text-rendering="geometricPrecision" shape-rendering="geometricPrecision" transform="matrix(1,0,0,1,18,103)" stroke="white">
      <circle r="22.5" clip-path="url(#clipPath2)" cx="154" cy="-65" stroke="none"/>
    </g>
    <g text-rendering="geometricPrecision" stroke-miterlimit="1.45" stroke-width="2" shape-rendering="geometricPrecision" transform="matrix(1,0,0,1,18,103)" stroke-linecap="butt">
      <circle fill="none" r="22.5" clip-path="url(#clipPath2)" cx="154" cy="-65"/>
      <text x="135.4814" y="-60.6436" clip-path="url(#clipPath2)" font-family="sans-serif" stroke="none" stroke-width="1" xml:space="preserve">−0.205</text>
    </g>
    <g fill="white" text-rendering="geometricPrecision" shape-rendering="geometricPrecision" transform="matrix(1,0,0,1,18,103)" stroke="white">
      <circle r="22.5" clip-path="url(#clipPath2)" cx="293" cy="20" stroke="none"/>
    </g>
    <g text-rendering="geometricPrecision" stroke-miterlimit="1.45" stroke-width="2" shape-rendering="geometricPrecision" transform="matrix(1,0,0,1,18,103)" stroke-linecap="butt">
      <circle fill="none" r="22.5" clip-path="url(#clipPath2)" cx="293" cy="20"/>
      <text x="274.4814" y="24.3564" clip-path="url(#clipPath2)" font-family="sans-serif" stroke="none" stroke-width="1" xml:space="preserve">−0.215</text>
    </g>
    <g fill="white" text-rendering="geometricPrecision" shape-rendering="geometricPrecision" transform="matrix(1,0,0,1,18,103)" stroke="white">
      <circle r="22.5" clip-path="url(#clipPath2)" cx="101" cy="213" stroke="none"/>
    </g>
    <g text-rendering="geometricPrecision" stroke-miterlimit="1.45" stroke-width="2" shape-rendering="geometricPrecision" transform="matrix(1,0,0,1,18,103)" stroke-linecap="butt">
      <circle fill="none" r="22.5" clip-path="url(#clipPath2)" cx="101" cy="213"/>
      <text x="85.9854" y="217.3564" clip-path="url(#clipPath2)" font-family="sans-serif" stroke="none" stroke-width="1" xml:space="preserve">0.210</text>
    </g>
    <g fill="white" text-rendering="geometricPrecision" shape-rendering="geometricPrecision" transform="matrix(1,0,0,1,18,103)" stroke="white">
      <circle r="22.5" clip-path="url(#clipPath2)" cx="132" cy="136" stroke="none"/>
    </g>
    <g text-rendering="geometricPrecision" stroke-miterlimit="1.45" stroke-width="2" shape-rendering="geometricPrecision" transform="matrix(1,0,0,1,18,103)" stroke-linecap="butt">
      <circle fill="none" r="22.5" clip-path="url(#clipPath2)" cx="132" cy="136"/>
      <text x="113.4814" y="140.3564" clip-path="url(#clipPath2)" font-family="sans-serif" stroke="none" stroke-width="1" xml:space="preserve">−0.640</text>
    </g>
    <g fill="white" text-rendering="geometricPrecision" shape-rendering="geometricPrecision" transform="matrix(1,0,0,1,18,103)" stroke="white">
      <circle r="22.5" clip-path="url(#clipPath2)" cx="93" cy="61" stroke="none"/>
    </g>
    <g text-rendering="geometricPrecision" stroke-miterlimit="1.45" stroke-width="2" shape-rendering="geometricPrecision" transform="matrix(1,0,0,1,18,103)" stroke-linecap="butt">
      <circle fill="none" r="22.5" clip-path="url(#clipPath2)" cx="93" cy="61"/>
      <text x="77.9854" y="65.3564" clip-path="url(#clipPath2)" font-family="sans-serif" stroke="none" stroke-width="1" xml:space="preserve">0.644</text>
    </g>
    <g fill="white" text-rendering="geometricPrecision" shape-rendering="geometricPrecision" transform="matrix(1,0,0,1,18,103)" stroke="white">
      <circle r="22.5" clip-path="url(#clipPath2)" cx="210" cy="106" stroke="none"/>
    </g>
    <g text-rendering="geometricPrecision" stroke-miterlimit="1.45" stroke-width="2" shape-rendering="geometricPrecision" transform="matrix(1,0,0,1,18,103)" stroke-linecap="butt">
      <circle fill="none" r="22.5" clip-path="url(#clipPath2)" cx="210" cy="106"/>
      <text x="194.9854" y="110.3564" clip-path="url(#clipPath2)" font-family="sans-serif" stroke="none" stroke-width="1" xml:space="preserve">0.652</text>
    </g>
    <g fill="white" text-rendering="geometricPrecision" shape-rendering="geometricPrecision" transform="matrix(1,0,0,1,18,103)" stroke="white">
      <circle r="22.5" clip-path="url(#clipPath2)" cx="171" cy="35" stroke="none"/>
    </g>
    <g text-rendering="geometricPrecision" stroke-miterlimit="1.45" stroke-width="2" shape-rendering="geometricPrecision" transform="matrix(1,0,0,1,18,103)" stroke-linecap="butt">
      <circle fill="none" r="22.5" clip-path="url(#clipPath2)" cx="171" cy="35"/>
      <text x="152.4814" y="39.3564" clip-path="url(#clipPath2)" font-family="sans-serif" stroke="none" stroke-width="1" xml:space="preserve">−0.444</text>
    </g>
    <g fill="white" text-rendering="geometricPrecision" shape-rendering="geometricPrecision" transform="matrix(1,0,0,1,18,103)" stroke="white">
      <circle r="22.5" clip-path="url(#clipPath2)" cx="288" cy="144" stroke="none"/>
    </g>
    <g text-rendering="geometricPrecision" stroke-miterlimit="1.45" stroke-width="2" shape-rendering="geometricPrecision" transform="matrix(1,0,0,1,18,103)" stroke-linecap="butt">
      <circle fill="none" r="22.5" clip-path="url(#clipPath2)" cx="288" cy="144"/>
      <text x="269.4814" y="148.3564" clip-path="url(#clipPath2)" font-family="sans-serif" stroke="none" stroke-width="1" xml:space="preserve">−0.210</text>
    </g>
    <g fill="white" text-rendering="geometricPrecision" shape-rendering="geometricPrecision" transform="matrix(1,0,0,1,18,103)" stroke="white">
      <circle r="22.5" clip-path="url(#clipPath2)" cx="20" cy="20" stroke="none"/>
    </g>
    <g text-rendering="geometricPrecision" stroke-miterlimit="1.45" stroke-width="2" shape-rendering="geometricPrecision" transform="matrix(1,0,0,1,18,103)" stroke-linecap="butt">
      <circle fill="none" r="22.5" clip-path="url(#clipPath2)" cx="20" cy="20"/>
      <text x="1.4814" y="24.3564" clip-path="url(#clipPath2)" font-family="sans-serif" stroke="none" stroke-width="1" xml:space="preserve">−0.212</text>
      <path fill="none" d="M202.857 -34.8236 L179.9493 -48.9725" stroke-width="1" clip-path="url(#clipPath2)"/>
      <path d="M173.143 -53.1764 L180.7251 -42.6165 L180.8001 -48.447 L185.98 -51.1245 Z" stroke-width="1" clip-path="url(#clipPath2)" stroke="none"/>
    </g>
    <g text-rendering="geometricPrecision" stroke-miterlimit="1.45" shape-rendering="geometricPrecision" font-family="sans-serif" transform="matrix(0.8508,0.5255,-0.5255,0.8508,203.2983,30.9957)" stroke-linecap="butt">
      <text x="2" xml:space="preserve" y="13.0596" clip-path="url(#clipPath3)" stroke="none">0.205</text>
    </g>
    <g text-rendering="geometricPrecision" stroke-miterlimit="1.45" shape-rendering="geometricPrecision" transform="matrix(1,0,0,1,18,103)" stroke-linecap="butt">
      <path fill="none" d="M241.2456 -11.3442 L266.9115 4.1999" clip-path="url(#clipPath2)"/>
      <path d="M273.7544 8.3442 L266.0803 -2.149 L266.0562 3.6819 L260.8999 6.4046 Z" clip-path="url(#clipPath2)" stroke="none"/>
    </g>
    <g text-rendering="geometricPrecision" stroke-miterlimit="1.45" shape-rendering="geometricPrecision" font-family="sans-serif" transform="matrix(0.8554,0.518,-0.518,0.8554,258.3562,96.9626)" stroke-linecap="butt">
      <text x="2" xml:space="preserve" y="13.0596" clip-path="url(#clipPath4)" stroke="none">0.215</text>
    </g>
    <g text-rendering="geometricPrecision" stroke-miterlimit="1.45" shape-rendering="geometricPrecision" transform="matrix(1,0,0,1,18,103)" stroke-linecap="butt">
      <path fill="none" d="M109.403 192.128 L120.6093 164.2931" clip-path="url(#clipPath2)"/>
      <path d="M123.597 156.872 L114.4772 166.1364 L120.2358 165.2208 L123.7536 169.871 Z" clip-path="url(#clipPath2)" stroke="none"/>
    </g>
    <g text-rendering="geometricPrecision" stroke-miterlimit="1.45" shape-rendering="geometricPrecision" font-family="sans-serif" transform="matrix(0.3735,-0.9276,0.9276,0.3735,132.7838,295.1509)" stroke-linecap="butt">
      <text x="2" xml:space="preserve" y="13.0596" clip-path="url(#clipPath5)" stroke="none">0.210</text>
    </g>
    <g text-rendering="geometricPrecision" stroke-miterlimit="1.45" shape-rendering="geometricPrecision" transform="matrix(1,0,0,1,18,103)" stroke-linecap="butt">
      <path fill="none" d="M103.3804 80.9624 L117.9287 108.9399" clip-path="url(#clipPath2)"/>
      <path d="M121.6196 116.0376 L120.5194 103.0843 L117.4674 108.0527 L111.6472 107.6978 Z" clip-path="url(#clipPath2)" stroke="none"/>
    </g>
    <g text-rendering="geometricPrecision" stroke-miterlimit="1.45" shape-rendering="geometricPrecision" font-family="sans-serif" transform="matrix(0.4614,0.8872,-0.8872,0.4614,118.2142,188.7111)" stroke-linecap="butt">
      <text x="2" xml:space="preserve" y="13.0596" clip-path="url(#clipPath6)" stroke="none">0.213</text>
    </g>
    <g text-rendering="geometricPrecision" stroke-miterlimit="1.45" shape-rendering="geometricPrecision" transform="matrix(1,0,0,1,18,103)" stroke-linecap="butt">
      <path fill="none" d="M188.9997 114.077 L160.467 125.0511" clip-path="url(#clipPath2)"/>
      <path d="M153.0003 127.923 L165.9953 128.282 L161.4004 124.6922 L162.4055 118.9485 Z" clip-path="url(#clipPath2)" stroke="none"/>
    </g>
    <g text-rendering="geometricPrecision" stroke-miterlimit="1.45" shape-rendering="geometricPrecision" font-family="sans-serif" transform="matrix(0.9333,-0.359,0.359,0.9333,165.0761,209.1951)" stroke-linecap="butt">
      <text x="2" xml:space="preserve" y="13.0596" clip-path="url(#clipPath7)" stroke="none">0.217</text>
    </g>
    <g text-rendering="geometricPrecision" stroke-miterlimit="1.45" shape-rendering="geometricPrecision" transform="matrix(1,0,0,1,18,103)" stroke-linecap="butt">
      <path fill="none" d="M199.1675 86.2793 L185.6841 61.7325" clip-path="url(#clipPath2)"/>
      <path d="M181.8325 54.7207 L183.2275 67.6457 L186.1655 62.609 L191.9922 62.8312 Z" clip-path="url(#clipPath2)" stroke="none"/>
    </g>
    <g text-rendering="geometricPrecision" stroke-miterlimit="1.45" shape-rendering="geometricPrecision" font-family="sans-serif" transform="matrix(0.4814,0.8765,-0.8765,0.4814,219.9469,147.7997)" stroke-linecap="butt">
      <text x="2" xml:space="preserve" y="13.0596" clip-path="url(#clipPath8)" stroke="none">0.225</text>
    </g>
    <g text-rendering="geometricPrecision" stroke-miterlimit="1.45" shape-rendering="geometricPrecision" transform="matrix(1,0,0,1,18,103)" stroke-linecap="butt">
      <path fill="none" d="M114.3454 53.8849 L142.0652 44.6449" clip-path="url(#clipPath2)"/>
      <path d="M149.6546 42.1151 L136.6893 41.1664 L141.1165 44.9612 L139.8515 50.6533 Z" clip-path="url(#clipPath2)" stroke="none"/>
    </g>
    <g text-rendering="geometricPrecision" stroke-miterlimit="1.45" shape-rendering="geometricPrecision" font-family="sans-serif" transform="matrix(0.9487,-0.3162,0.3162,0.9487,135.4396,161.1239)" stroke-linecap="butt">
      <text x="2" xml:space="preserve" y="13.0596" clip-path="url(#clipPath9)" stroke="none">0.219</text>
    </g>
    <g text-rendering="geometricPrecision" stroke-miterlimit="1.45" shape-rendering="geometricPrecision" transform="matrix(1,0,0,1,18,103)" stroke-linecap="butt">
      <path fill="none" d="M230.2273 115.8543 L260.5808 130.6419" clip-path="url(#clipPath2)"/>
      <path d="M267.7727 134.1457 L259.1747 124.3951 L259.6818 130.204 L254.795 133.385 Z" clip-path="url(#clipPath2)" stroke="none"/>
    </g>
    <g text-rendering="geometricPrecision" stroke-miterlimit="1.45" shape-rendering="geometricPrecision" font-family="sans-serif" transform="matrix(0.899,0.438,-0.438,0.899,261.5173,200.4051)" stroke-linecap="butt">
      <text x="2" xml:space="preserve" y="13.0596" clip-path="url(#clipPath10)" stroke="none">0.210</text>
    </g>
    <g text-rendering="geometricPrecision" stroke-miterlimit="1.45" shape-rendering="geometricPrecision" transform="matrix(1,0,0,1,18,103)" stroke-linecap="butt">
      <path fill="none" d="M73.3824 49.9819 L46.5928 34.9357" clip-path="url(#clipPath2)"/>
      <path d="M39.6176 31.0181 L47.6319 41.2539 L47.4647 35.4254 L52.5288 32.535 Z" clip-path="url(#clipPath2)" stroke="none"/>
    </g>
    <g text-rendering="geometricPrecision" stroke-miterlimit="1.45" shape-rendering="geometricPrecision" font-family="sans-serif" transform="matrix(0.8719,0.4897,-0.4897,0.8719,70.6372,115.6321)" stroke-linecap="butt">
      <text x="2" xml:space="preserve" y="13.0596" clip-path="url(#clipPath11)" stroke="none">0.212</text>
    </g>
  </g>
</svg>
