<?xml version="1.0" encoding="UTF-8" standalone="no"?>
<!DOCTYPE svg PUBLIC "-//W3C//DTD SVG 1.1//EN" "http://www.w3.org/Graphics/SVG/1.1/DTD/svg11.dtd">
<!-- Created with matplotlib (http://matplotlib.org/) -->
<svg height="469pt" version="1.1" viewBox="0 0 718 469" width="718pt" xmlns="http://www.w3.org/2000/svg" xmlns:xlink="http://www.w3.org/1999/xlink">
 <defs>
  <style type="text/css">
*{stroke-linecap:butt;stroke-linejoin:round;}
  </style>
 </defs>
 <g id="figure_1">
  <g id="patch_1">
   <path d="M 0 469.458125  L 718.782813 469.458125  L 718.782813 0  L 0 0  z " style="fill:#ffffff;"/>
  </g>
  <g id="axes_1">
   <g id="patch_2">
    <path d="M 38.482813 445.58  L 708.082813 445.58  L 708.082813 10.7  L 38.482813 10.7  z " style="fill:#ffffff;"/>
   </g>
   <g id="matplotlib.axis_1">
    <g id="xtick_1">
     <g id="line2d_1">
      <path clip-path="url(#p1013562727)" d="M 38.482813 445.58  L 38.482813 10.7  " style="fill:none;stroke:#b0b0b0;stroke-linecap:square;stroke-width:0.8;"/>
     </g>
     <g id="line2d_2">
      <defs>
       <path d="M 0 0  L 0 3.5  " id="m2d5714358d" style="stroke:#000000;stroke-width:0.8;"/>
      </defs>
      <g>
       <use style="stroke:#000000;stroke-width:0.8;" x="38.482813" xlink:href="#m2d5714358d" y="445.58"/>
      </g>
     </g>
     <g id="text_1">
      <!-- 0 -->
      <defs>
       <path d="M 31.78125 66.40625  Q 24.171875 66.40625 20.328125 58.90625  Q 16.5 51.421875 16.5 36.375  Q 16.5 21.390625 20.328125 13.890625  Q 24.171875 6.390625 31.78125 6.390625  Q 39.453125 6.390625 43.28125 13.890625  Q 47.125 21.390625 47.125 36.375  Q 47.125 51.421875 43.28125 58.90625  Q 39.453125 66.40625 31.78125 66.40625  M 31.78125 74.21875  Q 44.046875 74.21875 50.515625 64.515625  Q 56.984375 54.828125 56.984375 36.375  Q 56.984375 17.96875 50.515625 8.265625  Q 44.046875 -1.421875 31.78125 -1.421875  Q 19.53125 -1.421875 13.0625 8.265625  Q 6.59375 17.96875 6.59375 36.375  Q 6.59375 54.828125 13.0625 64.515625  Q 19.53125 74.21875 31.78125 74.21875  " id="DejaVuSans-30"/>
      </defs>
      <g transform="translate(35.301563 460.178437)scale(0.1 -0.1)">
       <use xlink:href="#DejaVuSans-30"/>
      </g>
     </g>
    </g>
    <g id="xtick_2">
     <g id="line2d_3">
      <path clip-path="url(#p1013562727)" d="M 172.671189 445.58  L 172.671189 10.7  " style="fill:none;stroke:#b0b0b0;stroke-linecap:square;stroke-width:0.8;"/>
     </g>
     <g id="line2d_4">
      <g>
       <use style="stroke:#000000;stroke-width:0.8;" x="172.671189" xlink:href="#m2d5714358d" y="445.58"/>
      </g>
     </g>
     <g id="text_2">
      <!-- 100 -->
      <defs>
       <path d="M 12.40625 8.296875  L 28.515625 8.296875  L 28.515625 63.921875  L 10.984375 60.40625  L 10.984375 69.390625  L 28.421875 72.90625  L 38.28125 72.90625  L 38.28125 8.296875  L 54.390625 8.296875  L 54.390625 0  L 12.40625 0  z " id="DejaVuSans-31"/>
      </defs>
      <g transform="translate(163.127439 460.178437)scale(0.1 -0.1)">
       <use xlink:href="#DejaVuSans-31"/>
       <use x="63.623047" xlink:href="#DejaVuSans-30"/>
       <use x="127.246094" xlink:href="#DejaVuSans-30"/>
      </g>
     </g>
    </g>
    <g id="xtick_3">
     <g id="line2d_5">
      <path clip-path="url(#p1013562727)" d="M 306.859566 445.58  L 306.859566 10.7  " style="fill:none;stroke:#b0b0b0;stroke-linecap:square;stroke-width:0.8;"/>
     </g>
     <g id="line2d_6">
      <g>
       <use style="stroke:#000000;stroke-width:0.8;" x="306.859566" xlink:href="#m2d5714358d" y="445.58"/>
      </g>
     </g>
     <g id="text_3">
      <!-- 200 -->
      <defs>
       <path d="M 19.1875 8.296875  L 53.609375 8.296875  L 53.609375 0  L 7.328125 0  L 7.328125 8.296875  Q 12.9375 14.109375 22.625 23.890625  Q 32.328125 33.6875 34.8125 36.53125  Q 39.546875 41.84375 41.421875 45.53125  Q 43.3125 49.21875 43.3125 52.78125  Q 43.3125 58.59375 39.234375 62.25  Q 35.15625 65.921875 28.609375 65.921875  Q 23.96875 65.921875 18.8125 64.3125  Q 13.671875 62.703125 7.8125 59.421875  L 7.8125 69.390625  Q 13.765625 71.78125 18.9375 73  Q 24.125 74.21875 28.421875 74.21875  Q 39.75 74.21875 46.484375 68.546875  Q 53.21875 62.890625 53.21875 53.421875  Q 53.21875 48.921875 51.53125 44.890625  Q 49.859375 40.875 45.40625 35.40625  Q 44.1875 33.984375 37.640625 27.21875  Q 31.109375 20.453125 19.1875 8.296875  " id="DejaVuSans-32"/>
      </defs>
      <g transform="translate(297.315816 460.178437)scale(0.1 -0.1)">
       <use xlink:href="#DejaVuSans-32"/>
       <use x="63.623047" xlink:href="#DejaVuSans-30"/>
       <use x="127.246094" xlink:href="#DejaVuSans-30"/>
      </g>
     </g>
    </g>
    <g id="xtick_4">
     <g id="line2d_7">
      <path clip-path="url(#p1013562727)" d="M 441.047943 445.58  L 441.047943 10.7  " style="fill:none;stroke:#b0b0b0;stroke-linecap:square;stroke-width:0.8;"/>
     </g>
     <g id="line2d_8">
      <g>
       <use style="stroke:#000000;stroke-width:0.8;" x="441.047943" xlink:href="#m2d5714358d" y="445.58"/>
      </g>
     </g>
     <g id="text_4">
      <!-- 300 -->
      <defs>
       <path d="M 40.578125 39.3125  Q 47.65625 37.796875 51.625 33  Q 55.609375 28.21875 55.609375 21.1875  Q 55.609375 10.40625 48.1875 4.484375  Q 40.765625 -1.421875 27.09375 -1.421875  Q 22.515625 -1.421875 17.65625 -0.515625  Q 12.796875 0.390625 7.625 2.203125  L 7.625 11.71875  Q 11.71875 9.328125 16.59375 8.109375  Q 21.484375 6.890625 26.8125 6.890625  Q 36.078125 6.890625 40.9375 10.546875  Q 45.796875 14.203125 45.796875 21.1875  Q 45.796875 27.640625 41.28125 31.265625  Q 36.765625 34.90625 28.71875 34.90625  L 20.21875 34.90625  L 20.21875 43.015625  L 29.109375 43.015625  Q 36.375 43.015625 40.234375 45.921875  Q 44.09375 48.828125 44.09375 54.296875  Q 44.09375 59.90625 40.109375 62.90625  Q 36.140625 65.921875 28.71875 65.921875  Q 24.65625 65.921875 20.015625 65.03125  Q 15.375 64.15625 9.8125 62.3125  L 9.8125 71.09375  Q 15.4375 72.65625 20.34375 73.4375  Q 25.25 74.21875 29.59375 74.21875  Q 40.828125 74.21875 47.359375 69.109375  Q 53.90625 64.015625 53.90625 55.328125  Q 53.90625 49.265625 50.4375 45.09375  Q 46.96875 40.921875 40.578125 39.3125  " id="DejaVuSans-33"/>
      </defs>
      <g transform="translate(431.504193 460.178437)scale(0.1 -0.1)">
       <use xlink:href="#DejaVuSans-33"/>
       <use x="63.623047" xlink:href="#DejaVuSans-30"/>
       <use x="127.246094" xlink:href="#DejaVuSans-30"/>
      </g>
     </g>
    </g>
    <g id="xtick_5">
     <g id="line2d_9">
      <path clip-path="url(#p1013562727)" d="M 575.23632 445.58  L 575.23632 10.7  " style="fill:none;stroke:#b0b0b0;stroke-linecap:square;stroke-width:0.8;"/>
     </g>
     <g id="line2d_10">
      <g>
       <use style="stroke:#000000;stroke-width:0.8;" x="575.23632" xlink:href="#m2d5714358d" y="445.58"/>
      </g>
     </g>
     <g id="text_5">
      <!-- 400 -->
      <defs>
       <path d="M 37.796875 64.3125  L 12.890625 25.390625  L 37.796875 25.390625  z M 35.203125 72.90625  L 47.609375 72.90625  L 47.609375 25.390625  L 58.015625 25.390625  L 58.015625 17.1875  L 47.609375 17.1875  L 47.609375 0  L 37.796875 0  L 37.796875 17.1875  L 4.890625 17.1875  L 4.890625 26.703125  z " id="DejaVuSans-34"/>
      </defs>
      <g transform="translate(565.69257 460.178437)scale(0.1 -0.1)">
       <use xlink:href="#DejaVuSans-34"/>
       <use x="63.623047" xlink:href="#DejaVuSans-30"/>
       <use x="127.246094" xlink:href="#DejaVuSans-30"/>
      </g>
     </g>
    </g>
   </g>
   <g id="matplotlib.axis_2">
    <g id="ytick_1">
     <g id="line2d_11">
      <path clip-path="url(#p1013562727)" d="M 38.482813 353.525518  L 708.082813 353.525518  " style="fill:none;stroke:#b0b0b0;stroke-linecap:square;stroke-width:0.8;"/>
     </g>
     <g id="line2d_12">
      <defs>
       <path d="M 0 0  L -3.5 0  " id="m82769174bf" style="stroke:#000000;stroke-width:0.8;"/>
      </defs>
      <g>
       <use style="stroke:#000000;stroke-width:0.8;" x="38.482813" xlink:href="#m82769174bf" y="353.525518"/>
      </g>
     </g>
     <g id="text_6">
      <!-- −0.1 -->
      <defs>
       <path d="M 10.59375 35.5  L 73.1875 35.5  L 73.1875 27.203125  L 10.59375 27.203125  z " id="DejaVuSans-2212"/>
       <path d="M 10.6875 12.40625  L 21 12.40625  L 21 0  L 10.6875 0  z " id="DejaVuSans-2e"/>
      </defs>
      <g transform="translate(7.2 357.324737)scale(0.1 -0.1)">
       <use xlink:href="#DejaVuSans-2212"/>
       <use x="83.789062" xlink:href="#DejaVuSans-30"/>
       <use x="147.412109" xlink:href="#DejaVuSans-2e"/>
       <use x="179.199219" xlink:href="#DejaVuSans-31"/>
      </g>
     </g>
    </g>
    <g id="ytick_2">
     <g id="line2d_13">
      <path clip-path="url(#p1013562727)" d="M 38.482813 260.622046  L 708.082813 260.622046  " style="fill:none;stroke:#b0b0b0;stroke-linecap:square;stroke-width:0.8;"/>
     </g>
     <g id="line2d_14">
      <g>
       <use style="stroke:#000000;stroke-width:0.8;" x="38.482813" xlink:href="#m82769174bf" y="260.622046"/>
      </g>
     </g>
     <g id="text_7">
      <!-- 0.0 -->
      <g transform="translate(15.579688 264.421265)scale(0.1 -0.1)">
       <use xlink:href="#DejaVuSans-30"/>
       <use x="63.623047" xlink:href="#DejaVuSans-2e"/>
       <use x="95.410156" xlink:href="#DejaVuSans-30"/>
      </g>
     </g>
    </g>
    <g id="ytick_3">
     <g id="line2d_15">
      <path clip-path="url(#p1013562727)" d="M 38.482813 167.718575  L 708.082813 167.718575  " style="fill:none;stroke:#b0b0b0;stroke-linecap:square;stroke-width:0.8;"/>
     </g>
     <g id="line2d_16">
      <g>
       <use style="stroke:#000000;stroke-width:0.8;" x="38.482813" xlink:href="#m82769174bf" y="167.718575"/>
      </g>
     </g>
     <g id="text_8">
      <!-- 0.1 -->
      <g transform="translate(15.579688 171.517794)scale(0.1 -0.1)">
       <use xlink:href="#DejaVuSans-30"/>
       <use x="63.623047" xlink:href="#DejaVuSans-2e"/>
       <use x="95.410156" xlink:href="#DejaVuSans-31"/>
      </g>
     </g>
    </g>
    <g id="ytick_4">
     <g id="line2d_17">
      <path clip-path="url(#p1013562727)" d="M 38.482813 74.815103  L 708.082813 74.815103  " style="fill:none;stroke:#b0b0b0;stroke-linecap:square;stroke-width:0.8;"/>
     </g>
     <g id="line2d_18">
      <g>
       <use style="stroke:#000000;stroke-width:0.8;" x="38.482813" xlink:href="#m82769174bf" y="74.815103"/>
      </g>
     </g>
     <g id="text_9">
      <!-- 0.2 -->
      <g transform="translate(15.579688 78.614322)scale(0.1 -0.1)">
       <use xlink:href="#DejaVuSans-30"/>
       <use x="63.623047" xlink:href="#DejaVuSans-2e"/>
       <use x="95.410156" xlink:href="#DejaVuSans-32"/>
      </g>
     </g>
    </g>
   </g>
   <g id="line2d_19">
    <path clip-path="url(#p1013562727)" d="M 38.482813 222.221454  L 39.824696 208.824844  L 41.16658 184.932839  L 42.508464 206.574542  L 43.850348 205.13045  L 45.192231 215.63125  L 46.534115 196.379679  L 49.217883 163.964748  L 50.559766 192.61897  L 51.90165 203.976525  L 53.243534 190.574373  L 54.585418 140.926525  L 55.927301 141.846127  L 57.269185 120.803211  L 58.611069 123.118341  L 59.952953 132.119378  L 61.294837 131.452537  L 62.63672 133.43028  L 63.978604 141.630864  L 65.320488 111.95934  L 66.662372 120.445563  L 68.004255 155.870369  L 69.346139 217.765326  L 70.688023 235.762262  L 72.029907 240.520915  L 73.37179 247.093333  L 74.713674 294.280668  L 76.055558 302.333212  L 77.397442 296.351367  L 78.739326 264.390429  L 80.081209 268.560694  L 81.423093 240.255989  L 82.764977 229.890179  L 84.106861 236.118935  L 85.448744 236.790004  L 86.790628 265.853247  L 88.132512 251.96007  L 89.474396 249.61408  L 90.816279 265.720033  L 93.500047 228.28026  L 94.841931 217.561674  L 96.183815 196.093789  L 97.525698 207.104204  L 98.867582 205.547074  L 100.209466 196.087316  L 101.55135 189.77908  L 102.893233 186.097422  L 104.235117 206.96664  L 105.577001 224.247404  L 106.918885 232.223229  L 108.260768 221.434761  L 109.602652 232.77101  L 110.944536 233.546937  L 112.28642 256.710366  L 113.628303 244.149289  L 114.970187 226.426262  L 116.312071 226.315914  L 117.653955 232.280332  L 118.995839 249.455918  L 120.337722 207.70341  L 121.679606 202.933267  L 123.02149 218.620749  L 124.363374 213.663644  L 125.705257 233.809587  L 127.047141 223.51238  L 128.389025 240.971441  L 129.730909 256.976134  L 131.072792 264.304665  L 132.414676 245.879987  L 133.75656 239.084164  L 135.098444 250.317567  L 136.440328 260.370275  L 137.782211 258.483297  L 139.124095 265.425881  L 140.465979 235.265438  L 141.807863 162.312314  L 143.149746 169.74228  L 144.49163 185.295346  L 145.833514 192.931218  L 147.175398 178.862375  L 148.517281 210.403079  L 149.859165 223.114256  L 151.201049 233.782406  L 152.542933 233.65706  L 153.884817 224.093227  L 155.2267 237.81644  L 156.568584 201.354304  L 157.910468 215.727112  L 159.252352 193.659028  L 160.594235 175.344466  L 161.936119 150.530608  L 163.278003 168.959975  L 164.619887 163.501651  L 165.96177 165.626536  L 167.303654 153.060135  L 168.645538 160.26224  L 169.987422 180.972625  L 171.329305 195.860608  L 172.671189 196.867966  L 174.013073 172.394591  L 175.354957 171.039995  L 176.696841 179.063401  L 178.038724 179.839114  L 179.380608 176.882871  L 180.722492 194.459244  L 182.064376 202.537334  L 183.406259 178.18631  L 184.748143 162.451519  L 186.090027 155.492299  L 187.431911 155.647189  L 188.773794 201.121685  L 190.115678 198.101815  L 191.457562 194.108386  L 192.799446 180.992048  L 194.14133 179.981524  L 195.483213 181.457472  L 196.825097 186.903027  L 198.166981 186.695661  L 199.508865 217.583035  L 200.850748 227.539942  L 202.192632 224.935033  L 203.534516 217.943122  L 204.8764 236.493888  L 206.218283 215.132482  L 207.560167 246.316545  L 208.902051 248.012993  L 210.243935 206.591944  L 211.585819 172.8275  L 212.927702 169.750621  L 214.269586 196.848139  L 215.61147 216.218937  L 216.953354 218.18066  L 218.295237 239.145919  L 219.637121 237.129043  L 220.979005 241.496424  L 222.320889 241.383062  L 223.662772 239.800189  L 225.004656 249.996564  L 226.34654 246.459148  L 227.688424 246.593339  L 229.030307 246.587261  L 230.372191 257.729573  L 231.714075 297.621824  L 233.055959 286.493803  L 234.397843 303.45822  L 235.739726 301.588367  L 237.08161 318.653341  L 238.423494 316.374866  L 239.765378 321.460498  L 241.107261 311.237634  L 242.449145 306.059718  L 243.791029 313.749775  L 245.132913 309.834429  L 246.474796 305.256261  L 247.81668 275.590457  L 249.158564 257.80701  L 250.500448 260.505707  L 251.842332 208.152533  L 253.184215 204.964317  L 254.526099 216.766238  L 255.867983 227.520066  L 257.209867 234.539169  L 258.55175 284.450404  L 259.893634 303.679613  L 261.235518 294.807381  L 262.577402 307.928365  L 263.919285 340.644035  L 265.261169 328.999627  L 266.603053 309.191479  L 267.944937 301.673032  L 269.286821 306.935661  L 270.628704 300.594071  L 271.970588 300.659992  L 273.312472 310.445217  L 274.654356 310.923206  L 275.996239 300.917954  L 277.338123 325.348605  L 278.680007 322.656934  L 280.021891 325.133322  L 281.363774 328.507072  L 282.705658 337.222053  L 284.047542 351.430732  L 285.389426 310.359883  L 286.731309 329.391724  L 288.073193 394.23564  L 289.415077 384.624272  L 290.756961 389.276278  L 292.098845 401.314685  L 293.440728 410.085629  L 294.782612 425.812727  L 296.124496 417.763217  L 297.46638 374.135295  L 300.150147 390.612067  L 301.492031 380.834657  L 302.833915 335.418476  L 304.175798 316.295079  L 305.517682 320.160043  L 306.859566 313.034941  L 308.20145 341.641129  L 309.543334 349.542662  L 310.885217 354.859688  L 312.227101 350.718975  L 313.568985 345.896386  L 314.910869 349.892782  L 316.252752 326.092132  L 317.594636 326.165244  L 318.93652 332.947411  L 320.278404 358.66301  L 321.620287 344.258738  L 322.962171 323.874954  L 324.304055 367.119309  L 325.645939 387.060848  L 326.987823 390.359502  L 328.329706 392.045476  L 329.67159 384.654483  L 331.013474 382.777196  L 332.355358 397.413635  L 333.697241 380.376433  L 336.381009 315.276969  L 337.722893 317.911631  L 339.064776 317.682971  L 340.40666 294.165142  L 341.748544 279.345187  L 343.090428 255.655429  L 344.432311 210.616924  L 345.774195 225.757182  L 347.116079 227.403535  L 348.457963 215.621207  L 349.799847 173.693378  L 351.14173 185.510268  L 352.483614 180.308425  L 353.825498 178.786502  L 355.167382 170.517802  L 356.509265 228.110948  L 357.851149 233.275448  L 359.193033 258.902582  L 360.534917 238.844139  L 361.8768 265.057802  L 363.218684 270.288664  L 364.560568 247.495971  L 365.902452 247.09879  L 367.244336 235.774885  L 369.928103 275.22747  L 371.269987 250.103828  L 373.953754 272.041048  L 375.295638 276.828515  L 376.637522 275.345503  L 377.979406 259.898006  L 379.321289 251.910763  L 380.663173 208.614177  L 382.005057 194.539084  L 383.346941 220.049011  L 384.688825 221.512467  L 386.030708 240.198777  L 387.372592 226.893909  L 388.714476 226.677117  L 390.05636 225.37218  L 391.398243 229.755879  L 392.740127 251.381662  L 394.082011 247.660232  L 395.423895 244.392879  L 396.765778 236.561768  L 398.107662 243.679814  L 399.449546 262.569379  L 400.79143 239.963348  L 402.133314 231.94195  L 403.475197 183.058983  L 404.817081 183.548404  L 406.158965 224.114493  L 407.500849 219.431312  L 408.842732 223.05192  L 410.184616 206.261973  L 411.5265 185.839143  L 412.868384 195.565442  L 414.210267 166.186512  L 415.552151 156.266651  L 416.894035 116.949618  L 418.235919 117.547262  L 419.577802 155.539684  L 420.919686 235.517183  L 422.26157 194.566961  L 423.603454 199.84189  L 424.945338 233.997611  L 426.287221 246.972429  L 427.629105 225.106028  L 428.970989 247.96945  L 430.312873 262.47687  L 431.654756 236.680966  L 432.99664 199.604542  L 434.338524 185.785336  L 435.680408 245.946918  L 437.022291 171.68117  L 438.364175 162.457887  L 439.706059 173.851324  L 441.047943 172.474981  L 442.389827 210.658925  L 443.73171 187.287726  L 445.073594 158.092889  L 446.415478 167.592531  L 447.757362 204.463273  L 449.099245 190.425161  L 450.441129 203.49369  L 451.783013 205.510644  L 453.124897 231.305847  L 454.46678 207.632816  L 457.150548 257.928956  L 461.176199 214.859085  L 462.518083 239.198982  L 463.859967 232.951915  L 465.201851 209.343416  L 466.543734 209.918328  L 467.885618 198.635981  L 469.227502 230.356446  L 470.569386 221.49731  L 473.253153 154.718442  L 474.595037 139.475888  L 475.936921 156.341488  L 477.278804 175.533619  L 478.620688 202.504483  L 479.962572 232.204089  L 481.304456 225.882562  L 482.64634 214.90844  L 483.988223 215.722898  L 485.330107 245.296954  L 486.671991 245.349616  L 488.013875 254.95472  L 489.355758 244.640627  L 490.697642 221.83757  L 492.039526 235.489056  L 493.38141 203.894718  L 494.723293 185.285799  L 496.065177 154.279936  L 497.407061 139.01554  L 498.748945 114.957365  L 500.090829 99.380992  L 501.432712 50.499999  L 502.774596 30.467273  L 504.11648 117.444879  L 505.458364 136.39346  L 506.800247 89.43881  L 508.142131 65.643706  L 509.484015 79.290287  L 510.825899 115.983263  L 512.167782 132.021273  L 513.509666 105.78591  L 514.85155 91.560552  L 516.193434 71.459189  L 517.535318 90.94007  L 518.877201 74.522821  L 520.219085 71.080474  L 521.560969 60.268918  L 522.902853 83.132017  L 525.58662 43.834229  L 526.928504 54.595789  L 528.270388 89.383682  L 529.612271 88.083233  L 530.954155 87.198112  L 532.296039 66.886225  L 533.637923 75.338507  L 534.979806 71.416709  L 536.32169 98.839062  L 539.005458 176.662189  L 540.347342 184.427712  L 541.689225 220.420124  L 544.372993 222.54591  L 545.714877 243.564128  L 547.05676 283.996785  L 548.398644 305.454013  L 549.740528 288.018537  L 551.082412 288.594234  L 552.424295 278.140744  L 553.766179 264.7819  L 555.108063 271.951512  L 556.449947 257.192879  L 557.791831 223.352594  L 559.133714 222.105656  L 560.475598 191.492974  L 561.817482 190.035099  L 563.159366 197.516484  L 564.501249 210.546969  L 565.843133 184.183584  L 567.185017 179.474346  L 569.868784 212.408517  L 571.210668 234.316528  L 572.552552 235.033023  L 573.894436 244.789472  L 575.23632 245.459524  L 576.578203 233.981463  L 577.920087 236.960552  L 579.261971 237.057526  L 580.603855 273.332679  L 581.945738 250.457964  L 583.287622 263.914258  L 584.629506 258.593989  L 585.97139 262.404842  L 587.313273 258.152828  L 588.655157 250.673262  L 589.997041 227.063243  L 592.680808 235.793079  L 594.022692 259.445745  L 595.364576 299.2041  L 596.70646 315.952114  L 598.048344 291.164662  L 599.390227 275.787643  L 600.732111 240.817075  L 602.073995 197.809784  L 603.415879 189.054292  L 604.757762 170.976923  L 606.099646 191.206767  L 607.44153 174.836464  L 608.783414 175.96409  L 610.125297 180.224715  L 611.467181 188.352124  L 614.150949 170.802178  L 615.492833 196.328575  L 616.834716 208.324347  L 618.1766 206.6916  L 619.518484 234.893168  L 620.860368 236.094036  L 622.202251 220.375058  L 623.544135 215.091635  L 624.886019 212.803424  L 626.227903 230.751335  L 627.569786 242.355803  L 628.91167 271.665816  L 630.253554 309.634116  L 631.595438 337.337292  L 632.937322 341.736214  L 634.279205 353.888815  L 635.621089 381.873681  L 636.962973 388.442396  L 638.304857 351.335665  L 639.64674 351.311367  L 640.988624 331.420701  L 642.330508 303.639611  L 643.672392 290.336668  L 646.356159 370.037328  L 647.698043 320.252872  L 649.039927 323.028703  L 650.38181 293.067505  L 651.723694 295.813278  L 653.065578 299.992047  L 654.407462 309.556733  L 655.749346 273.733585  L 657.091229 270.580113  L 658.433113 280.124323  L 659.774997 273.437144  L 661.116881 320.421402  L 662.458764 319.396782  L 663.800648 302.311356  L 665.142532 321.243392  L 666.484416 342.585772  L 667.826299 346.393453  L 669.168183 332.153863  L 670.510067 358.25971  L 671.851951 335.085911  L 673.193835 334.12219  L 674.535718 318.793204  L 675.877602 314.772777  L 677.219486 275.605487  L 678.56137 290.885072  L 679.903253 313.907155  L 681.245137 308.838868  L 683.928905 281.007758  L 685.270788 254.579898  L 686.612672 240.951406  L 687.954556 255.203376  L 689.29644 263.668047  L 690.638324 241.443116  L 691.980207 308.215418  L 693.322091 289.641475  L 694.663975 257.082378  L 696.005859 258.719905  L 697.347742 282.559001  L 698.689626 350.617271  L 700.03151 337.75172  L 701.373394 339.964741  L 702.715277 337.769519  L 704.057161 349.1952  L 705.399045 365.357757  L 706.740929 346.640326  L 708.082813 304.253632  L 708.082813 304.253632  " style="fill:none;stroke:#00008b;stroke-linecap:square;stroke-width:1.5;"/>
   </g>
   <g id="patch_3">
    <path d="M 38.482813 445.58  L 38.482813 10.7  " style="fill:none;stroke:#000000;stroke-linecap:square;stroke-linejoin:miter;stroke-width:0.8;"/>
   </g>
   <g id="patch_4">
    <path d="M 708.082813 445.58  L 708.082813 10.7  " style="fill:none;stroke:#000000;stroke-linecap:square;stroke-linejoin:miter;stroke-width:0.8;"/>
   </g>
   <g id="patch_5">
    <path d="M 38.482813 445.58  L 708.082813 445.58  " style="fill:none;stroke:#000000;stroke-linecap:square;stroke-linejoin:miter;stroke-width:0.8;"/>
   </g>
   <g id="patch_6">
    <path d="M 38.482813 10.7  L 708.082813 10.7  " style="fill:none;stroke:#000000;stroke-linecap:square;stroke-linejoin:miter;stroke-width:0.8;"/>
   </g>
  </g>
 </g>
 <defs>
  <clipPath id="p1013562727">
   <rect height="434.88" width="669.6" x="38.482813" y="10.7"/>
  </clipPath>
 </defs>
</svg>