<?xml version="1.0" encoding="UTF-8" standalone="no"?>
<!DOCTYPE svg PUBLIC "-//W3C//DTD SVG 1.1//EN" "http://www.w3.org/Graphics/SVG/1.1/DTD/svg11.dtd">
<!-- Created with matplotlib (http://matplotlib.org/) -->
<svg height="469pt" version="1.1" viewBox="0 0 715 469" width="715pt" xmlns="http://www.w3.org/2000/svg" xmlns:xlink="http://www.w3.org/1999/xlink">
 <defs>
  <style type="text/css">
*{stroke-linecap:butt;stroke-linejoin:round;}
  </style>
 </defs>
 <g id="figure_1">
  <g id="patch_1">
   <path d="M 0 469.458125  L 715.285938 469.458125  L 715.285938 0  L 0 0  z " style="fill:#ffffff;"/>
  </g>
  <g id="axes_1">
   <g id="patch_2">
    <path d="M 28.942188 445.58  L 698.542188 445.58  L 698.542188 10.7  L 28.942188 10.7  z " style="fill:#ffffff;"/>
   </g>
   <g id="matplotlib.axis_1">
    <g id="xtick_1">
     <g id="line2d_1">
      <path clip-path="url(#p51562ab1e1)" d="M 28.942188 445.58  L 28.942188 10.7  " style="fill:none;stroke:#b0b0b0;stroke-linecap:square;stroke-width:0.8;"/>
     </g>
     <g id="line2d_2">
      <defs>
       <path d="M 0 0  L 0 3.5  " id="m4901b7b403" style="stroke:#000000;stroke-width:0.8;"/>
      </defs>
      <g>
       <use style="stroke:#000000;stroke-width:0.8;" x="28.942188" xlink:href="#m4901b7b403" y="445.58"/>
      </g>
     </g>
     <g id="text_1">
      <!-- 0 -->
      <defs>
       <path d="M 31.78125 3.421875  Q 39.265625 3.421875 42.96875 11.625  Q 46.6875 19.828125 46.6875 36.375  Q 46.6875 52.984375 42.96875 61.1875  Q 39.265625 69.390625 31.78125 69.390625  Q 24.3125 69.390625 20.59375 61.1875  Q 16.890625 52.984375 16.890625 36.375  Q 16.890625 19.828125 20.59375 11.625  Q 24.3125 3.421875 31.78125 3.421875  M 31.78125 -1.421875  Q 19.921875 -1.421875 13.25 8.53125  Q 6.59375 18.5 6.59375 36.375  Q 6.59375 54.296875 13.25 64.25  Q 19.921875 74.21875 31.78125 74.21875  Q 43.703125 74.21875 50.34375 64.25  Q 56.984375 54.296875 56.984375 36.375  Q 56.984375 18.5 50.34375 8.53125  Q 43.703125 -1.421875 31.78125 -1.421875  " id="DejaVuSerif-30"/>
      </defs>
      <g transform="translate(25.760938 460.178437)scale(0.1 -0.1)">
       <use xlink:href="#DejaVuSerif-30"/>
      </g>
     </g>
    </g>
    <g id="xtick_2">
     <g id="line2d_3">
      <path clip-path="url(#p51562ab1e1)" d="M 162.862188 445.58  L 162.862188 10.7  " style="fill:none;stroke:#b0b0b0;stroke-linecap:square;stroke-width:0.8;"/>
     </g>
     <g id="line2d_4">
      <g>
       <use style="stroke:#000000;stroke-width:0.8;" x="162.862188" xlink:href="#m4901b7b403" y="445.58"/>
      </g>
     </g>
     <g id="text_2">
      <!-- 20 -->
      <defs>
       <path d="M 12.796875 55.515625  L 7.328125 55.515625  L 7.328125 68.5  Q 12.546875 71.296875 17.84375 72.75  Q 23.140625 74.21875 28.21875 74.21875  Q 39.59375 74.21875 46.1875 68.703125  Q 52.78125 63.1875 52.78125 53.71875  Q 52.78125 43.015625 37.84375 28.125  Q 36.671875 27 36.078125 26.421875  L 17.671875 8.015625  L 48.09375 8.015625  L 48.09375 17  L 53.8125 17  L 53.8125 0  L 6.78125 0  L 6.78125 5.328125  L 28.90625 27.390625  Q 36.234375 34.71875 39.359375 40.84375  Q 42.484375 46.96875 42.484375 53.71875  Q 42.484375 61.078125 38.640625 65.234375  Q 34.8125 69.390625 28.078125 69.390625  Q 21.09375 69.390625 17.28125 65.921875  Q 13.484375 62.453125 12.796875 55.515625  " id="DejaVuSerif-32"/>
      </defs>
      <g transform="translate(156.499688 460.178437)scale(0.1 -0.1)">
       <use xlink:href="#DejaVuSerif-32"/>
       <use x="63.623047" xlink:href="#DejaVuSerif-30"/>
      </g>
     </g>
    </g>
    <g id="xtick_3">
     <g id="line2d_5">
      <path clip-path="url(#p51562ab1e1)" d="M 296.782188 445.58  L 296.782188 10.7  " style="fill:none;stroke:#b0b0b0;stroke-linecap:square;stroke-width:0.8;"/>
     </g>
     <g id="line2d_6">
      <g>
       <use style="stroke:#000000;stroke-width:0.8;" x="296.782188" xlink:href="#m4901b7b403" y="445.58"/>
      </g>
     </g>
     <g id="text_3">
      <!-- 40 -->
      <defs>
       <path d="M 34.90625 24.703125  L 34.90625 63.484375  L 10.015625 24.703125  z M 56.390625 0  L 23.1875 0  L 23.1875 5.171875  L 34.90625 5.171875  L 34.90625 19.484375  L 3.078125 19.484375  L 3.078125 24.8125  L 35.015625 74.21875  L 44.671875 74.21875  L 44.671875 24.703125  L 58.59375 24.703125  L 58.59375 19.484375  L 44.671875 19.484375  L 44.671875 5.171875  L 56.390625 5.171875  z " id="DejaVuSerif-34"/>
      </defs>
      <g transform="translate(290.419688 460.178437)scale(0.1 -0.1)">
       <use xlink:href="#DejaVuSerif-34"/>
       <use x="63.623047" xlink:href="#DejaVuSerif-30"/>
      </g>
     </g>
    </g>
    <g id="xtick_4">
     <g id="line2d_7">
      <path clip-path="url(#p51562ab1e1)" d="M 430.702188 445.58  L 430.702188 10.7  " style="fill:none;stroke:#b0b0b0;stroke-linecap:square;stroke-width:0.8;"/>
     </g>
     <g id="line2d_8">
      <g>
       <use style="stroke:#000000;stroke-width:0.8;" x="430.702188" xlink:href="#m4901b7b403" y="445.58"/>
      </g>
     </g>
     <g id="text_4">
      <!-- 60 -->
      <defs>
       <path d="M 32.71875 3.421875  Q 39.59375 3.421875 43.296875 8.46875  Q 47.015625 13.53125 47.015625 23  Q 47.015625 32.46875 43.296875 37.515625  Q 39.59375 42.578125 32.71875 42.578125  Q 25.734375 42.578125 22.0625 37.6875  Q 18.40625 32.8125 18.40625 23.578125  Q 18.40625 13.875 22.109375 8.640625  Q 25.828125 3.421875 32.71875 3.421875  M 16.796875 40.140625  Q 20.125 43.796875 24.3125 45.59375  Q 28.515625 47.40625 33.796875 47.40625  Q 44.671875 47.40625 51 40.859375  Q 57.328125 34.328125 57.328125 23  Q 57.328125 11.921875 50.515625 5.25  Q 43.703125 -1.421875 32.328125 -1.421875  Q 19.96875 -1.421875 13.328125 7.78125  Q 6.6875 17 6.6875 34.078125  Q 6.6875 53.21875 14.546875 63.71875  Q 22.40625 74.21875 36.71875 74.21875  Q 40.578125 74.21875 44.828125 73.484375  Q 49.078125 72.75 53.515625 71.296875  L 53.515625 59.28125  L 48 59.28125  Q 47.40625 64.203125 44.234375 66.796875  Q 41.0625 69.390625 35.6875 69.390625  Q 26.21875 69.390625 21.578125 62.203125  Q 16.9375 55.03125 16.796875 40.140625  " id="DejaVuSerif-36"/>
      </defs>
      <g transform="translate(424.339688 460.178437)scale(0.1 -0.1)">
       <use xlink:href="#DejaVuSerif-36"/>
       <use x="63.623047" xlink:href="#DejaVuSerif-30"/>
      </g>
     </g>
    </g>
    <g id="xtick_5">
     <g id="line2d_9">
      <path clip-path="url(#p51562ab1e1)" d="M 564.622188 445.58  L 564.622188 10.7  " style="fill:none;stroke:#b0b0b0;stroke-linecap:square;stroke-width:0.8;"/>
     </g>
     <g id="line2d_10">
      <g>
       <use style="stroke:#000000;stroke-width:0.8;" x="564.622188" xlink:href="#m4901b7b403" y="445.58"/>
      </g>
     </g>
     <g id="text_5">
      <!-- 80 -->
      <defs>
       <path d="M 46.578125 19.921875  Q 46.578125 27.734375 42.6875 32.046875  Q 38.8125 36.375 31.78125 36.375  Q 24.75 36.375 20.875 32.046875  Q 17 27.734375 17 19.921875  Q 17 12.0625 20.875 7.734375  Q 24.75 3.421875 31.78125 3.421875  Q 38.8125 3.421875 42.6875 7.734375  Q 46.578125 12.0625 46.578125 19.921875  M 44.578125 55.328125  Q 44.578125 61.96875 41.203125 65.671875  Q 37.84375 69.390625 31.78125 69.390625  Q 25.78125 69.390625 22.390625 65.671875  Q 19 61.96875 19 55.328125  Q 19 48.640625 22.390625 44.921875  Q 25.78125 41.21875 31.78125 41.21875  Q 37.84375 41.21875 41.203125 44.921875  Q 44.578125 48.640625 44.578125 55.328125  M 39.3125 38.8125  Q 47.609375 37.703125 52.25 32.6875  Q 56.890625 27.6875 56.890625 19.921875  Q 56.890625 9.671875 50.390625 4.125  Q 43.890625 -1.421875 31.78125 -1.421875  Q 19.734375 -1.421875 13.203125 4.125  Q 6.6875 9.671875 6.6875 19.921875  Q 6.6875 27.6875 11.328125 32.6875  Q 15.96875 37.703125 24.3125 38.8125  Q 16.9375 40.140625 13 44.40625  Q 9.078125 48.6875 9.078125 55.328125  Q 9.078125 64.109375 15.125 69.15625  Q 21.1875 74.21875 31.78125 74.21875  Q 42.390625 74.21875 48.4375 69.15625  Q 54.5 64.109375 54.5 55.328125  Q 54.5 48.6875 50.5625 44.40625  Q 46.625 40.140625 39.3125 38.8125  " id="DejaVuSerif-38"/>
      </defs>
      <g transform="translate(558.259688 460.178437)scale(0.1 -0.1)">
       <use xlink:href="#DejaVuSerif-38"/>
       <use x="63.623047" xlink:href="#DejaVuSerif-30"/>
      </g>
     </g>
    </g>
    <g id="xtick_6">
     <g id="line2d_11">
      <path clip-path="url(#p51562ab1e1)" d="M 698.542188 445.58  L 698.542188 10.7  " style="fill:none;stroke:#b0b0b0;stroke-linecap:square;stroke-width:0.8;"/>
     </g>
     <g id="line2d_12">
      <g>
       <use style="stroke:#000000;stroke-width:0.8;" x="698.542188" xlink:href="#m4901b7b403" y="445.58"/>
      </g>
     </g>
     <g id="text_6">
      <!-- 100 -->
      <defs>
       <path d="M 14.203125 0  L 14.203125 5.171875  L 26.90625 5.171875  L 26.90625 65.828125  L 12.203125 56.296875  L 12.203125 62.703125  L 29.984375 74.21875  L 36.71875 74.21875  L 36.71875 5.171875  L 49.421875 5.171875  L 49.421875 0  z " id="DejaVuSerif-31"/>
      </defs>
      <g transform="translate(688.998438 460.178437)scale(0.1 -0.1)">
       <use xlink:href="#DejaVuSerif-31"/>
       <use x="63.623047" xlink:href="#DejaVuSerif-30"/>
       <use x="127.246094" xlink:href="#DejaVuSerif-30"/>
      </g>
     </g>
    </g>
   </g>
   <g id="matplotlib.axis_2">
    <g id="ytick_1">
     <g id="line2d_13">
      <path clip-path="url(#p51562ab1e1)" d="M 28.942188 372.220849  L 698.542188 372.220849  " style="fill:none;stroke:#b0b0b0;stroke-linecap:square;stroke-width:0.8;"/>
     </g>
     <g id="line2d_14">
      <defs>
       <path d="M 0 0  L -3.5 0  " id="mac4c4b5077" style="stroke:#000000;stroke-width:0.8;"/>
      </defs>
      <g>
       <use style="stroke:#000000;stroke-width:0.8;" x="28.942188" xlink:href="#mac4c4b5077" y="372.220849"/>
      </g>
     </g>
     <g id="text_7">
      <!-- −6 -->
      <defs>
       <path d="M 10.59375 35.296875  L 73.1875 35.296875  L 73.1875 27.390625  L 10.59375 27.390625  z " id="DejaVuSerif-2212"/>
      </defs>
      <g transform="translate(7.2 376.020068)scale(0.1 -0.1)">
       <use xlink:href="#DejaVuSerif-2212"/>
       <use x="83.789062" xlink:href="#DejaVuSerif-36"/>
      </g>
     </g>
    </g>
    <g id="ytick_2">
     <g id="line2d_15">
      <path clip-path="url(#p51562ab1e1)" d="M 28.942188 296.27561  L 698.542188 296.27561  " style="fill:none;stroke:#b0b0b0;stroke-linecap:square;stroke-width:0.8;"/>
     </g>
     <g id="line2d_16">
      <g>
       <use style="stroke:#000000;stroke-width:0.8;" x="28.942188" xlink:href="#mac4c4b5077" y="296.27561"/>
      </g>
     </g>
     <g id="text_8">
      <!-- −4 -->
      <g transform="translate(7.2 300.074829)scale(0.1 -0.1)">
       <use xlink:href="#DejaVuSerif-2212"/>
       <use x="83.789062" xlink:href="#DejaVuSerif-34"/>
      </g>
     </g>
    </g>
    <g id="ytick_3">
     <g id="line2d_17">
      <path clip-path="url(#p51562ab1e1)" d="M 28.942188 220.330371  L 698.542188 220.330371  " style="fill:none;stroke:#b0b0b0;stroke-linecap:square;stroke-width:0.8;"/>
     </g>
     <g id="line2d_18">
      <g>
       <use style="stroke:#000000;stroke-width:0.8;" x="28.942188" xlink:href="#mac4c4b5077" y="220.330371"/>
      </g>
     </g>
     <g id="text_9">
      <!-- −2 -->
      <g transform="translate(7.2 224.12959)scale(0.1 -0.1)">
       <use xlink:href="#DejaVuSerif-2212"/>
       <use x="83.789062" xlink:href="#DejaVuSerif-32"/>
      </g>
     </g>
    </g>
    <g id="ytick_4">
     <g id="line2d_19">
      <path clip-path="url(#p51562ab1e1)" d="M 28.942188 144.385132  L 698.542188 144.385132  " style="fill:none;stroke:#b0b0b0;stroke-linecap:square;stroke-width:0.8;"/>
     </g>
     <g id="line2d_20">
      <g>
       <use style="stroke:#000000;stroke-width:0.8;" x="28.942188" xlink:href="#mac4c4b5077" y="144.385132"/>
      </g>
     </g>
     <g id="text_10">
      <!-- 0 -->
      <g transform="translate(15.579688 148.18435)scale(0.1 -0.1)">
       <use xlink:href="#DejaVuSerif-30"/>
      </g>
     </g>
    </g>
    <g id="ytick_5">
     <g id="line2d_21">
      <path clip-path="url(#p51562ab1e1)" d="M 28.942188 68.439892  L 698.542188 68.439892  " style="fill:none;stroke:#b0b0b0;stroke-linecap:square;stroke-width:0.8;"/>
     </g>
     <g id="line2d_22">
      <g>
       <use style="stroke:#000000;stroke-width:0.8;" x="28.942188" xlink:href="#mac4c4b5077" y="68.439892"/>
      </g>
     </g>
     <g id="text_11">
      <!-- 2 -->
      <g transform="translate(15.579688 72.239111)scale(0.1 -0.1)">
       <use xlink:href="#DejaVuSerif-32"/>
      </g>
     </g>
    </g>
   </g>
   <g id="line2d_23">
    <path clip-path="url(#p51562ab1e1)" d="M 28.942188 165.694402  L 35.638188 140.920487  L 42.334188 115.792084  L 49.030188 103.578892  L 55.726188 88.404371  L 62.422188 104.263813  L 69.118188 99.479101  L 75.814188 109.687622  L 82.510188 127.068656  L 89.206188 99.72627  L 95.902188 119.800415  L 102.598188 128.162363  L 109.294188 148.653193  L 115.990188 201.005065  L 122.686188 223.311862  L 129.382188 214.207472  L 136.078188 197.457651  L 142.774188 205.599353  L 149.470188 184.024402  L 156.166188 183.081399  L 162.862188 182.726948  L 169.558188 196.743762  L 176.254188 201.898845  L 182.950188 166.243991  L 189.646188 138.241076  L 196.342188 146.224537  L 203.038188 106.729214  L 209.734188 127.175049  L 216.430188 113.934866  L 223.126188 113.744138  L 229.822188 123.28235  L 236.518188 109.68853  L 243.214188 141.647645  L 249.910188 120.270405  L 256.606188 117.983765  L 263.302188 109.923531  L 269.998188 135.326306  L 276.694187 134.091791  L 283.390188 141.359315  L 290.086188 123.753523  L 296.782188 117.604761  L 303.478187 122.709089  L 310.174188 126.117368  L 316.870188 115.112788  L 323.566188 78.720034  L 330.262188 102.454663  L 336.958188 109.375141  L 343.654188 115.285422  L 350.350188 99.370814  L 357.046188 101.168752  L 363.742188 103.706562  L 370.438188 110.704451  L 377.134188 79.30118  L 383.830188 80.691094  L 390.526188 75.323618  L 397.222188 80.440602  L 403.918188 122.342382  L 410.614188 159.90963  L 417.310188 248.783605  L 424.006188 259.739933  L 430.702188 425.812727  L 437.398188 368.632107  L 444.094188 320.714581  L 450.790188 311.083248  L 457.486188 286.829082  L 464.182188 275.331413  L 470.878188 281.446423  L 477.574188 284.924077  L 484.270188 252.480065  L 490.966188 241.143281  L 497.662188 230.192683  L 504.358188 224.858768  L 511.054188 216.856829  L 517.750188 198.170473  L 524.446188 197.173739  L 531.142188 189.326211  L 537.838188 195.66629  L 544.534188 193.610414  L 551.230188 198.427119  L 557.926188 205.945576  L 564.622188 191.079684  L 571.318188 184.032776  L 578.014188 180.571038  L 584.710188 202.314438  L 591.406188 215.143212  L 598.102188 213.638754  L 604.798188 213.952349  L 611.494188 205.630397  L 618.190188 209.522042  L 624.886188 205.899305  L 631.582188 204.643098  L 638.278188 207.180728  L 644.974188 207.342964  L 651.670188 189.96961  L 658.366188 184.008162  L 665.062188 186.355021  L 671.758188 186.322011  L 678.454188 173.509896  L 685.150188 183.57988  L 691.846188 190.275942  L 698.542188 181.992691  " style="fill:none;stroke:#00008b;stroke-linecap:square;stroke-width:1.5;"/>
   </g>
   <g id="line2d_24">
    <path clip-path="url(#p51562ab1e1)" d="M 28.942188 30.467273  L 698.542188 30.467273  " style="fill:none;stroke:#000000;stroke-dasharray:5.6,2.4;stroke-dashoffset:0;"/>
   </g>
   <g id="line2d_25">
    <path clip-path="url(#p51562ab1e1)" d="M 28.942188 258.30299  L 698.542188 258.30299  " style="fill:none;stroke:#000000;stroke-dasharray:5.6,2.4;stroke-dashoffset:0;"/>
   </g>
   <g id="line2d_26">
    <path clip-path="url(#p51562ab1e1)" d="M 430.702188 425.812727  L 437.398188 368.632107  L 444.094188 320.714581  L 450.790188 311.083248  L 457.486188 286.829082  L 464.182188 275.331413  L 470.878188 281.446423  L 477.574188 284.924077  L 484.270188 252.480065  " style="fill:none;stroke:#006400;stroke-linecap:square;stroke-width:1.5;"/>
   </g>
   <g id="line2d_27">
    <defs>
     <path d="M 0 3  C 0.795609 3 1.55874 2.683901 2.12132 2.12132  C 2.683901 1.55874 3 0.795609 3 0  C 3 -0.795609 2.683901 -1.55874 2.12132 -2.12132  C 1.55874 -2.683901 0.795609 -3 0 -3  C -0.795609 -3 -1.55874 -2.683901 -2.12132 -2.12132  C -2.683901 -1.55874 -3 -0.795609 -3 0  C -3 0.795609 -2.683901 1.55874 -2.12132 2.12132  C -1.55874 2.683901 -0.795609 3 0 3  z " id="m1e65005a63" style="stroke:#006400;"/>
    </defs>
    <g clip-path="url(#p51562ab1e1)">
     <use style="fill:#006400;stroke:#006400;" x="430.702188" xlink:href="#m1e65005a63" y="425.812727"/>
     <use style="fill:#006400;stroke:#006400;" x="484.270188" xlink:href="#m1e65005a63" y="252.480065"/>
    </g>
   </g>
   <g id="patch_3">
    <path d="M 28.942188 445.58  L 28.942188 10.7  " style="fill:none;stroke:#000000;stroke-linecap:square;stroke-linejoin:miter;stroke-width:0.8;"/>
   </g>
   <g id="patch_4">
    <path d="M 698.542188 445.58  L 698.542188 10.7  " style="fill:none;stroke:#000000;stroke-linecap:square;stroke-linejoin:miter;stroke-width:0.8;"/>
   </g>
   <g id="patch_5">
    <path d="M 28.942188 445.58  L 698.542188 445.58  " style="fill:none;stroke:#000000;stroke-linecap:square;stroke-linejoin:miter;stroke-width:0.8;"/>
   </g>
   <g id="patch_6">
    <path d="M 28.942188 10.7  L 698.542188 10.7  " style="fill:none;stroke:#000000;stroke-linecap:square;stroke-linejoin:miter;stroke-width:0.8;"/>
   </g>
  </g>
 </g>
 <defs>
  <clipPath id="p51562ab1e1">
   <rect height="434.88" width="669.6" x="28.942188" y="10.7"/>
  </clipPath>
 </defs>
</svg>