<?xml version="1.0" encoding="UTF-8" standalone="no"?>
<!DOCTYPE svg PUBLIC "-//W3C//DTD SVG 1.1//EN" "http://www.w3.org/Graphics/SVG/1.1/DTD/svg11.dtd">
<!-- Created with matplotlib (http://matplotlib.org/) -->
<svg height="469pt" version="1.1" viewBox="0 0 724 469" width="724pt" xmlns="http://www.w3.org/2000/svg" xmlns:xlink="http://www.w3.org/1999/xlink">
 <defs>
  <style type="text/css">
*{stroke-linecap:butt;stroke-linejoin:round;}
  </style>
 </defs>
 <g id="figure_1">
  <g id="patch_1">
   <path d="M 0 469.458125  L 724.826563 469.458125  L 724.826563 0  L 0 0  z " style="fill:#ffffff;"/>
  </g>
  <g id="axes_1">
   <g id="patch_2">
    <path d="M 38.482813 445.58  L 708.082813 445.58  L 708.082813 10.7  L 38.482813 10.7  z " style="fill:#ffffff;"/>
   </g>
   <g id="matplotlib.axis_1">
    <g id="xtick_1">
     <g id="line2d_1">
      <path clip-path="url(#p6f95d5878e)" d="M 38.482813 445.58  L 38.482813 10.7  " style="fill:none;stroke:#b0b0b0;stroke-linecap:square;stroke-width:0.8;"/>
     </g>
     <g id="line2d_2">
      <defs>
       <path d="M 0 0  L 0 3.5  " id="m60fc0cc850" style="stroke:#000000;stroke-width:0.8;"/>
      </defs>
      <g>
       <use style="stroke:#000000;stroke-width:0.8;" x="38.482813" xlink:href="#m60fc0cc850" y="445.58"/>
      </g>
     </g>
     <g id="text_1">
      <!-- 0 -->
      <defs>
       <path d="M 31.78125 3.421875  Q 39.265625 3.421875 42.96875 11.625  Q 46.6875 19.828125 46.6875 36.375  Q 46.6875 52.984375 42.96875 61.1875  Q 39.265625 69.390625 31.78125 69.390625  Q 24.3125 69.390625 20.59375 61.1875  Q 16.890625 52.984375 16.890625 36.375  Q 16.890625 19.828125 20.59375 11.625  Q 24.3125 3.421875 31.78125 3.421875  M 31.78125 -1.421875  Q 19.921875 -1.421875 13.25 8.53125  Q 6.59375 18.5 6.59375 36.375  Q 6.59375 54.296875 13.25 64.25  Q 19.921875 74.21875 31.78125 74.21875  Q 43.703125 74.21875 50.34375 64.25  Q 56.984375 54.296875 56.984375 36.375  Q 56.984375 18.5 50.34375 8.53125  Q 43.703125 -1.421875 31.78125 -1.421875  " id="DejaVuSerif-30"/>
      </defs>
      <g transform="translate(35.301563 460.178437)scale(0.1 -0.1)">
       <use xlink:href="#DejaVuSerif-30"/>
      </g>
     </g>
    </g>
    <g id="xtick_2">
     <g id="line2d_3">
      <path clip-path="url(#p6f95d5878e)" d="M 172.402813 445.58  L 172.402813 10.7  " style="fill:none;stroke:#b0b0b0;stroke-linecap:square;stroke-width:0.8;"/>
     </g>
     <g id="line2d_4">
      <g>
       <use style="stroke:#000000;stroke-width:0.8;" x="172.402813" xlink:href="#m60fc0cc850" y="445.58"/>
      </g>
     </g>
     <g id="text_2">
      <!-- 20 -->
      <defs>
       <path d="M 12.796875 55.515625  L 7.328125 55.515625  L 7.328125 68.5  Q 12.546875 71.296875 17.84375 72.75  Q 23.140625 74.21875 28.21875 74.21875  Q 39.59375 74.21875 46.1875 68.703125  Q 52.78125 63.1875 52.78125 53.71875  Q 52.78125 43.015625 37.84375 28.125  Q 36.671875 27 36.078125 26.421875  L 17.671875 8.015625  L 48.09375 8.015625  L 48.09375 17  L 53.8125 17  L 53.8125 0  L 6.78125 0  L 6.78125 5.328125  L 28.90625 27.390625  Q 36.234375 34.71875 39.359375 40.84375  Q 42.484375 46.96875 42.484375 53.71875  Q 42.484375 61.078125 38.640625 65.234375  Q 34.8125 69.390625 28.078125 69.390625  Q 21.09375 69.390625 17.28125 65.921875  Q 13.484375 62.453125 12.796875 55.515625  " id="DejaVuSerif-32"/>
      </defs>
      <g transform="translate(166.040313 460.178437)scale(0.1 -0.1)">
       <use xlink:href="#DejaVuSerif-32"/>
       <use x="63.623047" xlink:href="#DejaVuSerif-30"/>
      </g>
     </g>
    </g>
    <g id="xtick_3">
     <g id="line2d_5">
      <path clip-path="url(#p6f95d5878e)" d="M 306.322813 445.58  L 306.322813 10.7  " style="fill:none;stroke:#b0b0b0;stroke-linecap:square;stroke-width:0.8;"/>
     </g>
     <g id="line2d_6">
      <g>
       <use style="stroke:#000000;stroke-width:0.8;" x="306.322813" xlink:href="#m60fc0cc850" y="445.58"/>
      </g>
     </g>
     <g id="text_3">
      <!-- 40 -->
      <defs>
       <path d="M 34.90625 24.703125  L 34.90625 63.484375  L 10.015625 24.703125  z M 56.390625 0  L 23.1875 0  L 23.1875 5.171875  L 34.90625 5.171875  L 34.90625 19.484375  L 3.078125 19.484375  L 3.078125 24.8125  L 35.015625 74.21875  L 44.671875 74.21875  L 44.671875 24.703125  L 58.59375 24.703125  L 58.59375 19.484375  L 44.671875 19.484375  L 44.671875 5.171875  L 56.390625 5.171875  z " id="DejaVuSerif-34"/>
      </defs>
      <g transform="translate(299.960313 460.178437)scale(0.1 -0.1)">
       <use xlink:href="#DejaVuSerif-34"/>
       <use x="63.623047" xlink:href="#DejaVuSerif-30"/>
      </g>
     </g>
    </g>
    <g id="xtick_4">
     <g id="line2d_7">
      <path clip-path="url(#p6f95d5878e)" d="M 440.242813 445.58  L 440.242813 10.7  " style="fill:none;stroke:#b0b0b0;stroke-linecap:square;stroke-width:0.8;"/>
     </g>
     <g id="line2d_8">
      <g>
       <use style="stroke:#000000;stroke-width:0.8;" x="440.242813" xlink:href="#m60fc0cc850" y="445.58"/>
      </g>
     </g>
     <g id="text_4">
      <!-- 60 -->
      <defs>
       <path d="M 32.71875 3.421875  Q 39.59375 3.421875 43.296875 8.46875  Q 47.015625 13.53125 47.015625 23  Q 47.015625 32.46875 43.296875 37.515625  Q 39.59375 42.578125 32.71875 42.578125  Q 25.734375 42.578125 22.0625 37.6875  Q 18.40625 32.8125 18.40625 23.578125  Q 18.40625 13.875 22.109375 8.640625  Q 25.828125 3.421875 32.71875 3.421875  M 16.796875 40.140625  Q 20.125 43.796875 24.3125 45.59375  Q 28.515625 47.40625 33.796875 47.40625  Q 44.671875 47.40625 51 40.859375  Q 57.328125 34.328125 57.328125 23  Q 57.328125 11.921875 50.515625 5.25  Q 43.703125 -1.421875 32.328125 -1.421875  Q 19.96875 -1.421875 13.328125 7.78125  Q 6.6875 17 6.6875 34.078125  Q 6.6875 53.21875 14.546875 63.71875  Q 22.40625 74.21875 36.71875 74.21875  Q 40.578125 74.21875 44.828125 73.484375  Q 49.078125 72.75 53.515625 71.296875  L 53.515625 59.28125  L 48 59.28125  Q 47.40625 64.203125 44.234375 66.796875  Q 41.0625 69.390625 35.6875 69.390625  Q 26.21875 69.390625 21.578125 62.203125  Q 16.9375 55.03125 16.796875 40.140625  " id="DejaVuSerif-36"/>
      </defs>
      <g transform="translate(433.880313 460.178437)scale(0.1 -0.1)">
       <use xlink:href="#DejaVuSerif-36"/>
       <use x="63.623047" xlink:href="#DejaVuSerif-30"/>
      </g>
     </g>
    </g>
    <g id="xtick_5">
     <g id="line2d_9">
      <path clip-path="url(#p6f95d5878e)" d="M 574.162813 445.58  L 574.162813 10.7  " style="fill:none;stroke:#b0b0b0;stroke-linecap:square;stroke-width:0.8;"/>
     </g>
     <g id="line2d_10">
      <g>
       <use style="stroke:#000000;stroke-width:0.8;" x="574.162813" xlink:href="#m60fc0cc850" y="445.58"/>
      </g>
     </g>
     <g id="text_5">
      <!-- 80 -->
      <defs>
       <path d="M 46.578125 19.921875  Q 46.578125 27.734375 42.6875 32.046875  Q 38.8125 36.375 31.78125 36.375  Q 24.75 36.375 20.875 32.046875  Q 17 27.734375 17 19.921875  Q 17 12.0625 20.875 7.734375  Q 24.75 3.421875 31.78125 3.421875  Q 38.8125 3.421875 42.6875 7.734375  Q 46.578125 12.0625 46.578125 19.921875  M 44.578125 55.328125  Q 44.578125 61.96875 41.203125 65.671875  Q 37.84375 69.390625 31.78125 69.390625  Q 25.78125 69.390625 22.390625 65.671875  Q 19 61.96875 19 55.328125  Q 19 48.640625 22.390625 44.921875  Q 25.78125 41.21875 31.78125 41.21875  Q 37.84375 41.21875 41.203125 44.921875  Q 44.578125 48.640625 44.578125 55.328125  M 39.3125 38.8125  Q 47.609375 37.703125 52.25 32.6875  Q 56.890625 27.6875 56.890625 19.921875  Q 56.890625 9.671875 50.390625 4.125  Q 43.890625 -1.421875 31.78125 -1.421875  Q 19.734375 -1.421875 13.203125 4.125  Q 6.6875 9.671875 6.6875 19.921875  Q 6.6875 27.6875 11.328125 32.6875  Q 15.96875 37.703125 24.3125 38.8125  Q 16.9375 40.140625 13 44.40625  Q 9.078125 48.6875 9.078125 55.328125  Q 9.078125 64.109375 15.125 69.15625  Q 21.1875 74.21875 31.78125 74.21875  Q 42.390625 74.21875 48.4375 69.15625  Q 54.5 64.109375 54.5 55.328125  Q 54.5 48.6875 50.5625 44.40625  Q 46.625 40.140625 39.3125 38.8125  " id="DejaVuSerif-38"/>
      </defs>
      <g transform="translate(567.800313 460.178437)scale(0.1 -0.1)">
       <use xlink:href="#DejaVuSerif-38"/>
       <use x="63.623047" xlink:href="#DejaVuSerif-30"/>
      </g>
     </g>
    </g>
    <g id="xtick_6">
     <g id="line2d_11">
      <path clip-path="url(#p6f95d5878e)" d="M 708.082813 445.58  L 708.082813 10.7  " style="fill:none;stroke:#b0b0b0;stroke-linecap:square;stroke-width:0.8;"/>
     </g>
     <g id="line2d_12">
      <g>
       <use style="stroke:#000000;stroke-width:0.8;" x="708.082813" xlink:href="#m60fc0cc850" y="445.58"/>
      </g>
     </g>
     <g id="text_6">
      <!-- 100 -->
      <defs>
       <path d="M 14.203125 0  L 14.203125 5.171875  L 26.90625 5.171875  L 26.90625 65.828125  L 12.203125 56.296875  L 12.203125 62.703125  L 29.984375 74.21875  L 36.71875 74.21875  L 36.71875 5.171875  L 49.421875 5.171875  L 49.421875 0  z " id="DejaVuSerif-31"/>
      </defs>
      <g transform="translate(698.539062 460.178437)scale(0.1 -0.1)">
       <use xlink:href="#DejaVuSerif-31"/>
       <use x="63.623047" xlink:href="#DejaVuSerif-30"/>
       <use x="127.246094" xlink:href="#DejaVuSerif-30"/>
      </g>
     </g>
    </g>
   </g>
   <g id="matplotlib.axis_2">
    <g id="ytick_1">
     <g id="line2d_13">
      <path clip-path="url(#p6f95d5878e)" d="M 38.482813 443.388659  L 708.082813 443.388659  " style="fill:none;stroke:#b0b0b0;stroke-linecap:square;stroke-width:0.8;"/>
     </g>
     <g id="line2d_14">
      <defs>
       <path d="M 0 0  L -3.5 0  " id="mcbd2b8aa50" style="stroke:#000000;stroke-width:0.8;"/>
      </defs>
      <g>
       <use style="stroke:#000000;stroke-width:0.8;" x="38.482813" xlink:href="#mcbd2b8aa50" y="443.388659"/>
      </g>
     </g>
     <g id="text_7">
      <!-- −1.5 -->
      <defs>
       <path d="M 10.59375 35.296875  L 73.1875 35.296875  L 73.1875 27.390625  L 10.59375 27.390625  z " id="DejaVuSerif-2212"/>
       <path d="M 9.421875 5.078125  Q 9.421875 7.8125 11.28125 9.71875  Q 13.140625 11.625 15.921875 11.625  Q 18.609375 11.625 20.5 9.71875  Q 22.40625 7.8125 22.40625 5.078125  Q 22.40625 2.390625 20.5 0.484375  Q 18.609375 -1.421875 15.921875 -1.421875  Q 13.140625 -1.421875 11.28125 0.453125  Q 9.421875 2.34375 9.421875 5.078125  " id="DejaVuSerif-2e"/>
       <path d="M 50.296875 72.90625  L 50.296875 64.890625  L 16.890625 64.890625  L 16.890625 44  Q 19.4375 45.75 22.828125 46.625  Q 26.21875 47.515625 30.421875 47.515625  Q 42.234375 47.515625 49.0625 40.96875  Q 55.90625 34.421875 55.90625 23.09375  Q 55.90625 11.53125 49 5.046875  Q 42.09375 -1.421875 29.59375 -1.421875  Q 24.5625 -1.421875 19.28125 -0.1875  Q 14.015625 1.03125 8.5 3.515625  L 8.5 17.671875  L 14.015625 17.671875  Q 14.453125 10.75 18.421875 7.078125  Q 22.40625 3.421875 29.59375 3.421875  Q 37.3125 3.421875 41.453125 8.5  Q 45.609375 13.578125 45.609375 23.09375  Q 45.609375 32.5625 41.484375 37.609375  Q 37.359375 42.671875 29.59375 42.671875  Q 25.203125 42.671875 21.84375 41.109375  Q 18.5 39.546875 15.921875 36.28125  L 11.71875 36.28125  L 11.71875 72.90625  z " id="DejaVuSerif-35"/>
      </defs>
      <g transform="translate(7.2 447.187878)scale(0.1 -0.1)">
       <use xlink:href="#DejaVuSerif-2212"/>
       <use x="83.789062" xlink:href="#DejaVuSerif-31"/>
       <use x="147.412109" xlink:href="#DejaVuSerif-2e"/>
       <use x="179.199219" xlink:href="#DejaVuSerif-35"/>
      </g>
     </g>
    </g>
    <g id="ytick_2">
     <g id="line2d_15">
      <path clip-path="url(#p6f95d5878e)" d="M 38.482813 377.694383  L 708.082813 377.694383  " style="fill:none;stroke:#b0b0b0;stroke-linecap:square;stroke-width:0.8;"/>
     </g>
     <g id="line2d_16">
      <g>
       <use style="stroke:#000000;stroke-width:0.8;" x="38.482813" xlink:href="#mcbd2b8aa50" y="377.694383"/>
      </g>
     </g>
     <g id="text_8">
      <!-- −1.4 -->
      <g transform="translate(7.2 381.493602)scale(0.1 -0.1)">
       <use xlink:href="#DejaVuSerif-2212"/>
       <use x="83.789062" xlink:href="#DejaVuSerif-31"/>
       <use x="147.412109" xlink:href="#DejaVuSerif-2e"/>
       <use x="179.199219" xlink:href="#DejaVuSerif-34"/>
      </g>
     </g>
    </g>
    <g id="ytick_3">
     <g id="line2d_17">
      <path clip-path="url(#p6f95d5878e)" d="M 38.482813 312.000107  L 708.082813 312.000107  " style="fill:none;stroke:#b0b0b0;stroke-linecap:square;stroke-width:0.8;"/>
     </g>
     <g id="line2d_18">
      <g>
       <use style="stroke:#000000;stroke-width:0.8;" x="38.482813" xlink:href="#mcbd2b8aa50" y="312.000107"/>
      </g>
     </g>
     <g id="text_9">
      <!-- −1.3 -->
      <defs>
       <path d="M 9.71875 69.828125  Q 15.4375 71.96875 20.671875 73.09375  Q 25.921875 74.21875 30.515625 74.21875  Q 41.21875 74.21875 47.21875 69.59375  Q 53.21875 64.984375 53.21875 56.78125  Q 53.21875 50.203125 49.0625 45.78125  Q 44.921875 41.359375 37.3125 39.796875  Q 46.296875 38.53125 51.25 33.28125  Q 56.203125 28.03125 56.203125 19.671875  Q 56.203125 9.46875 49.34375 4.015625  Q 42.484375 -1.421875 29.59375 -1.421875  Q 23.875 -1.421875 18.421875 -0.1875  Q 12.984375 1.03125 7.625 3.515625  L 7.625 17.671875  L 13.09375 17.671875  Q 13.578125 10.640625 17.828125 7.03125  Q 22.078125 3.421875 29.78125 3.421875  Q 37.25 3.421875 41.578125 7.734375  Q 45.90625 12.0625 45.90625 19.578125  Q 45.90625 28.171875 41.453125 32.59375  Q 37.015625 37.015625 28.421875 37.015625  L 23.78125 37.015625  L 23.78125 42  L 26.21875 42  Q 34.765625 42 39.03125 45.53125  Q 43.3125 49.078125 43.3125 56.203125  Q 43.3125 62.59375 39.796875 65.984375  Q 36.28125 69.390625 29.6875 69.390625  Q 23.09375 69.390625 19.453125 66.265625  Q 15.828125 63.140625 15.1875 56.984375  L 9.71875 56.984375  z " id="DejaVuSerif-33"/>
      </defs>
      <g transform="translate(7.2 315.799326)scale(0.1 -0.1)">
       <use xlink:href="#DejaVuSerif-2212"/>
       <use x="83.789062" xlink:href="#DejaVuSerif-31"/>
       <use x="147.412109" xlink:href="#DejaVuSerif-2e"/>
       <use x="179.199219" xlink:href="#DejaVuSerif-33"/>
      </g>
     </g>
    </g>
    <g id="ytick_4">
     <g id="line2d_19">
      <path clip-path="url(#p6f95d5878e)" d="M 38.482813 246.305831  L 708.082813 246.305831  " style="fill:none;stroke:#b0b0b0;stroke-linecap:square;stroke-width:0.8;"/>
     </g>
     <g id="line2d_20">
      <g>
       <use style="stroke:#000000;stroke-width:0.8;" x="38.482813" xlink:href="#mcbd2b8aa50" y="246.305831"/>
      </g>
     </g>
     <g id="text_10">
      <!-- −1.2 -->
      <g transform="translate(7.2 250.10505)scale(0.1 -0.1)">
       <use xlink:href="#DejaVuSerif-2212"/>
       <use x="83.789062" xlink:href="#DejaVuSerif-31"/>
       <use x="147.412109" xlink:href="#DejaVuSerif-2e"/>
       <use x="179.199219" xlink:href="#DejaVuSerif-32"/>
      </g>
     </g>
    </g>
    <g id="ytick_5">
     <g id="line2d_21">
      <path clip-path="url(#p6f95d5878e)" d="M 38.482813 180.611555  L 708.082813 180.611555  " style="fill:none;stroke:#b0b0b0;stroke-linecap:square;stroke-width:0.8;"/>
     </g>
     <g id="line2d_22">
      <g>
       <use style="stroke:#000000;stroke-width:0.8;" x="38.482813" xlink:href="#mcbd2b8aa50" y="180.611555"/>
      </g>
     </g>
     <g id="text_11">
      <!-- −1.1 -->
      <g transform="translate(7.2 184.410774)scale(0.1 -0.1)">
       <use xlink:href="#DejaVuSerif-2212"/>
       <use x="83.789062" xlink:href="#DejaVuSerif-31"/>
       <use x="147.412109" xlink:href="#DejaVuSerif-2e"/>
       <use x="179.199219" xlink:href="#DejaVuSerif-31"/>
      </g>
     </g>
    </g>
    <g id="ytick_6">
     <g id="line2d_23">
      <path clip-path="url(#p6f95d5878e)" d="M 38.482813 114.917279  L 708.082813 114.917279  " style="fill:none;stroke:#b0b0b0;stroke-linecap:square;stroke-width:0.8;"/>
     </g>
     <g id="line2d_24">
      <g>
       <use style="stroke:#000000;stroke-width:0.8;" x="38.482813" xlink:href="#mcbd2b8aa50" y="114.917279"/>
      </g>
     </g>
     <g id="text_12">
      <!-- −1.0 -->
      <g transform="translate(7.2 118.716498)scale(0.1 -0.1)">
       <use xlink:href="#DejaVuSerif-2212"/>
       <use x="83.789062" xlink:href="#DejaVuSerif-31"/>
       <use x="147.412109" xlink:href="#DejaVuSerif-2e"/>
       <use x="179.199219" xlink:href="#DejaVuSerif-30"/>
      </g>
     </g>
    </g>
    <g id="ytick_7">
     <g id="line2d_25">
      <path clip-path="url(#p6f95d5878e)" d="M 38.482813 49.223003  L 708.082813 49.223003  " style="fill:none;stroke:#b0b0b0;stroke-linecap:square;stroke-width:0.8;"/>
     </g>
     <g id="line2d_26">
      <g>
       <use style="stroke:#000000;stroke-width:0.8;" x="38.482813" xlink:href="#mcbd2b8aa50" y="49.223003"/>
      </g>
     </g>
     <g id="text_13">
      <!-- −0.9 -->
      <defs>
       <path d="M 46.78125 32.671875  Q 43.5 29 39.25 27.1875  Q 35.015625 25.390625 29.6875 25.390625  Q 18.84375 25.390625 12.5625 31.9375  Q 6.296875 38.484375 6.296875 49.8125  Q 6.296875 60.890625 13.109375 67.546875  Q 19.921875 74.21875 31.296875 74.21875  Q 43.65625 74.21875 50.265625 65.015625  Q 56.890625 55.8125 56.890625 38.71875  Q 56.890625 19.578125 49.015625 9.078125  Q 41.15625 -1.421875 26.90625 -1.421875  Q 23.046875 -1.421875 18.796875 -0.6875  Q 14.546875 0.046875 10.109375 1.515625  L 10.109375 13.625  L 15.578125 13.625  Q 16.21875 8.6875 19.390625 6.046875  Q 22.5625 3.421875 27.875 3.421875  Q 37.359375 3.421875 41.984375 10.5625  Q 46.625 17.71875 46.78125 32.671875  M 30.90625 69.390625  Q 23.96875 69.390625 20.28125 64.328125  Q 16.609375 59.28125 16.609375 49.8125  Q 16.609375 40.328125 20.28125 35.25  Q 23.96875 30.171875 30.90625 30.171875  Q 37.84375 30.171875 41.53125 35.078125  Q 45.21875 39.984375 45.21875 49.21875  Q 45.21875 58.9375 41.5 64.15625  Q 37.796875 69.390625 30.90625 69.390625  " id="DejaVuSerif-39"/>
      </defs>
      <g transform="translate(7.2 53.022222)scale(0.1 -0.1)">
       <use xlink:href="#DejaVuSerif-2212"/>
       <use x="83.789062" xlink:href="#DejaVuSerif-30"/>
       <use x="147.412109" xlink:href="#DejaVuSerif-2e"/>
       <use x="179.199219" xlink:href="#DejaVuSerif-39"/>
      </g>
     </g>
    </g>
   </g>
   <g id="line2d_27">
    <path clip-path="url(#p6f95d5878e)" d="M 38.482813 137.122089  L 45.178813 100.653709  L 51.874813 66.65669  L 58.570813 51.666659  L 65.266813 33.107368  L 71.962813 56.124052  L 78.658813 51.935969  L 85.354813 67.036075  L 92.050813 90.173314  L 98.746813 59.257796  L 105.442813 84.395871  L 112.138813 94.889223  L 118.834813 118.448424  L 125.530813 177.23371  L 132.226813 203.454946  L 138.922813 195.33964  L 145.618813 177.829908  L 152.314813 188.352149  L 159.010813 164.596667  L 165.706813 164.162116  L 172.402813 164.430665  L 179.098813 181.552233  L 185.794813 188.45094  L 192.490813 146.685132  L 199.186813 113.04595  L 205.882812 122.532658  L 212.578813 75.027879  L 219.274813 98.795152  L 225.970813 82.518448  L 232.666813 81.784713  L 239.362813 92.26463  L 246.058813 76.495047  L 252.754813 111.554393  L 259.450813 87.393298  L 266.146813 84.339421  L 272.842813 75.027879  L 279.538813 101.839972  L 286.234813 99.88917  L 292.930813 106.811494  L 299.626813 88.332284  L 306.322813 81.626755  L 313.018813 86.248995  L 319.714813 89.18523  L 326.410813 77.925568  L 333.106813 41.28226  L 339.802813 64.03409  L 346.498813 70.65498  L 353.194813 76.353983  L 359.890813 59.91952  L 366.586813 61.349634  L 373.282813 63.530521  L 379.978813 70.294179  L 386.674813 37.531241  L 393.370813 37.531241  L 400.066813 30.467273  L 406.762813 34.302896  L 413.458813 78.548175  L 420.154813 119.256345  L 426.850813 215.635423  L 433.546813 232.140827  L 440.242813 425.812727  L 446.938813 415.723495  L 453.634813 385.376144  L 460.330813 394.993229  L 467.026813 375.070624  L 473.722813 369.976974  L 480.418813 396.572086  L 487.114813 420.834113  L 493.810813 367.406217  L 500.506813 351.269041  L 507.202813 333.270668  L 513.898813 326.477529  L 520.594812 312.169181  L 527.290813 269.906108  L 533.986813 269.906108  L 540.682813 252.521269  L 547.378813 270.52062  L 554.074813 267.619089  L 560.770813 282.188823  L 567.466813 304.175873  L 574.162813 268.753681  L 580.858813 252.485922  L 587.554813 245.186628  L 594.250813 303.280352  L 600.946813 339.865041  L 607.642813 340.229225  L 614.338813 345.319748  L 621.034813 327.051754  L 627.730813 341.10705  L 634.426813 334.971301  L 641.122813 334.971301  L 647.818813 345.474622  L 654.514813 349.601788  L 661.210813 303.308846  L 667.906813 288.273565  L 674.602813 296.973015  L 681.298813 298.908649  L 687.994813 263.679116  L 694.690813 294.317669  L 701.386813 315.683545  L 708.082813 293.672714  " style="fill:none;stroke:#00008b;stroke-linecap:square;stroke-width:1.5;"/>
   </g>
   <g id="line2d_28">
    <defs>
     <path d="M 0 3  C 0.795609 3 1.55874 2.683901 2.12132 2.12132  C 2.683901 1.55874 3 0.795609 3 0  C 3 -0.795609 2.683901 -1.55874 2.12132 -2.12132  C 1.55874 -2.683901 0.795609 -3 0 -3  C -0.795609 -3 -1.55874 -2.683901 -2.12132 -2.12132  C -2.683901 -1.55874 -3 -0.795609 -3 0  C -3 0.795609 -2.683901 1.55874 -2.12132 2.12132  C -1.55874 2.683901 -0.795609 3 0 3  z " id="m88b8e4343f" style="stroke:#006400;"/>
    </defs>
    <g clip-path="url(#p6f95d5878e)">
     <use style="fill:#006400;stroke:#006400;" x="440.242813" xlink:href="#m88b8e4343f" y="425.812727"/>
     <use style="fill:#006400;stroke:#006400;" x="493.810813" xlink:href="#m88b8e4343f" y="367.406217"/>
    </g>
   </g>
   <g id="line2d_29">
    <path clip-path="url(#p6f95d5878e)" d="M 440.242813 425.812727  L 446.938813 415.723495  L 453.634813 385.376144  L 460.330813 394.993229  L 467.026813 375.070624  L 473.722813 369.976974  L 480.418813 396.572086  L 487.114813 420.834113  L 493.810813 367.406217  " style="fill:none;stroke:#006400;stroke-linecap:square;stroke-width:1.5;"/>
   </g>
   <g id="patch_3">
    <path d="M 38.482813 445.58  L 38.482813 10.7  " style="fill:none;stroke:#000000;stroke-linecap:square;stroke-linejoin:miter;stroke-width:0.8;"/>
   </g>
   <g id="patch_4">
    <path d="M 708.082813 445.58  L 708.082813 10.7  " style="fill:none;stroke:#000000;stroke-linecap:square;stroke-linejoin:miter;stroke-width:0.8;"/>
   </g>
   <g id="patch_5">
    <path d="M 38.482813 445.58  L 708.082813 445.58  " style="fill:none;stroke:#000000;stroke-linecap:square;stroke-linejoin:miter;stroke-width:0.8;"/>
   </g>
   <g id="patch_6">
    <path d="M 38.482813 10.7  L 708.082813 10.7  " style="fill:none;stroke:#000000;stroke-linecap:square;stroke-linejoin:miter;stroke-width:0.8;"/>
   </g>
  </g>
 </g>
 <defs>
  <clipPath id="p6f95d5878e">
   <rect height="434.88" width="669.6" x="38.482813" y="10.7"/>
  </clipPath>
 </defs>
</svg>