<?xml version="1.0" encoding="UTF-8" standalone="no"?>
<!DOCTYPE svg PUBLIC "-//W3C//DTD SVG 1.1//EN" "http://www.w3.org/Graphics/SVG/1.1/DTD/svg11.dtd">
<!-- Created with matplotlib (http://matplotlib.org/) -->
<svg height="469pt" version="1.1" viewBox="0 0 716 469" width="716pt" xmlns="http://www.w3.org/2000/svg" xmlns:xlink="http://www.w3.org/1999/xlink">
 <defs>
  <style type="text/css">
*{stroke-linecap:butt;stroke-linejoin:round;}
  </style>
 </defs>
 <g id="figure_1">
  <g id="patch_1">
   <path d="M 0 469.458125  L 716.446875 469.458125  L 716.446875 0  L 0 0  z " style="fill:#ffffff;"/>
  </g>
  <g id="axes_1">
   <g id="patch_2">
    <path d="M 30.103125 445.58  L 699.703125 445.58  L 699.703125 10.7  L 30.103125 10.7  z " style="fill:#ffffff;"/>
   </g>
   <g id="matplotlib.axis_1">
    <g id="xtick_1">
     <g id="line2d_1">
      <path clip-path="url(#p734ec23f53)" d="M 30.103125 445.58  L 30.103125 10.7  " style="fill:none;stroke:#b0b0b0;stroke-linecap:square;stroke-width:0.8;"/>
     </g>
     <g id="line2d_2">
      <defs>
       <path d="M 0 0  L 0 3.5  " id="mcaf977ab3f" style="stroke:#000000;stroke-width:0.8;"/>
      </defs>
      <g>
       <use style="stroke:#000000;stroke-width:0.8;" x="30.103125" xlink:href="#mcaf977ab3f" y="445.58"/>
      </g>
     </g>
     <g id="text_1">
      <!-- 0 -->
      <defs>
       <path d="M 31.78125 3.421875  Q 39.265625 3.421875 42.96875 11.625  Q 46.6875 19.828125 46.6875 36.375  Q 46.6875 52.984375 42.96875 61.1875  Q 39.265625 69.390625 31.78125 69.390625  Q 24.3125 69.390625 20.59375 61.1875  Q 16.890625 52.984375 16.890625 36.375  Q 16.890625 19.828125 20.59375 11.625  Q 24.3125 3.421875 31.78125 3.421875  M 31.78125 -1.421875  Q 19.921875 -1.421875 13.25 8.53125  Q 6.59375 18.5 6.59375 36.375  Q 6.59375 54.296875 13.25 64.25  Q 19.921875 74.21875 31.78125 74.21875  Q 43.703125 74.21875 50.34375 64.25  Q 56.984375 54.296875 56.984375 36.375  Q 56.984375 18.5 50.34375 8.53125  Q 43.703125 -1.421875 31.78125 -1.421875  " id="DejaVuSerif-30"/>
      </defs>
      <g transform="translate(26.921875 460.178437)scale(0.1 -0.1)">
       <use xlink:href="#DejaVuSerif-30"/>
      </g>
     </g>
    </g>
    <g id="xtick_2">
     <g id="line2d_3">
      <path clip-path="url(#p734ec23f53)" d="M 164.023125 445.58  L 164.023125 10.7  " style="fill:none;stroke:#b0b0b0;stroke-linecap:square;stroke-width:0.8;"/>
     </g>
     <g id="line2d_4">
      <g>
       <use style="stroke:#000000;stroke-width:0.8;" x="164.023125" xlink:href="#mcaf977ab3f" y="445.58"/>
      </g>
     </g>
     <g id="text_2">
      <!-- 20 -->
      <defs>
       <path d="M 12.796875 55.515625  L 7.328125 55.515625  L 7.328125 68.5  Q 12.546875 71.296875 17.84375 72.75  Q 23.140625 74.21875 28.21875 74.21875  Q 39.59375 74.21875 46.1875 68.703125  Q 52.78125 63.1875 52.78125 53.71875  Q 52.78125 43.015625 37.84375 28.125  Q 36.671875 27 36.078125 26.421875  L 17.671875 8.015625  L 48.09375 8.015625  L 48.09375 17  L 53.8125 17  L 53.8125 0  L 6.78125 0  L 6.78125 5.328125  L 28.90625 27.390625  Q 36.234375 34.71875 39.359375 40.84375  Q 42.484375 46.96875 42.484375 53.71875  Q 42.484375 61.078125 38.640625 65.234375  Q 34.8125 69.390625 28.078125 69.390625  Q 21.09375 69.390625 17.28125 65.921875  Q 13.484375 62.453125 12.796875 55.515625  " id="DejaVuSerif-32"/>
      </defs>
      <g transform="translate(157.660625 460.178437)scale(0.1 -0.1)">
       <use xlink:href="#DejaVuSerif-32"/>
       <use x="63.623047" xlink:href="#DejaVuSerif-30"/>
      </g>
     </g>
    </g>
    <g id="xtick_3">
     <g id="line2d_5">
      <path clip-path="url(#p734ec23f53)" d="M 297.943125 445.58  L 297.943125 10.7  " style="fill:none;stroke:#b0b0b0;stroke-linecap:square;stroke-width:0.8;"/>
     </g>
     <g id="line2d_6">
      <g>
       <use style="stroke:#000000;stroke-width:0.8;" x="297.943125" xlink:href="#mcaf977ab3f" y="445.58"/>
      </g>
     </g>
     <g id="text_3">
      <!-- 40 -->
      <defs>
       <path d="M 34.90625 24.703125  L 34.90625 63.484375  L 10.015625 24.703125  z M 56.390625 0  L 23.1875 0  L 23.1875 5.171875  L 34.90625 5.171875  L 34.90625 19.484375  L 3.078125 19.484375  L 3.078125 24.8125  L 35.015625 74.21875  L 44.671875 74.21875  L 44.671875 24.703125  L 58.59375 24.703125  L 58.59375 19.484375  L 44.671875 19.484375  L 44.671875 5.171875  L 56.390625 5.171875  z " id="DejaVuSerif-34"/>
      </defs>
      <g transform="translate(291.580625 460.178437)scale(0.1 -0.1)">
       <use xlink:href="#DejaVuSerif-34"/>
       <use x="63.623047" xlink:href="#DejaVuSerif-30"/>
      </g>
     </g>
    </g>
    <g id="xtick_4">
     <g id="line2d_7">
      <path clip-path="url(#p734ec23f53)" d="M 431.863125 445.58  L 431.863125 10.7  " style="fill:none;stroke:#b0b0b0;stroke-linecap:square;stroke-width:0.8;"/>
     </g>
     <g id="line2d_8">
      <g>
       <use style="stroke:#000000;stroke-width:0.8;" x="431.863125" xlink:href="#mcaf977ab3f" y="445.58"/>
      </g>
     </g>
     <g id="text_4">
      <!-- 60 -->
      <defs>
       <path d="M 32.71875 3.421875  Q 39.59375 3.421875 43.296875 8.46875  Q 47.015625 13.53125 47.015625 23  Q 47.015625 32.46875 43.296875 37.515625  Q 39.59375 42.578125 32.71875 42.578125  Q 25.734375 42.578125 22.0625 37.6875  Q 18.40625 32.8125 18.40625 23.578125  Q 18.40625 13.875 22.109375 8.640625  Q 25.828125 3.421875 32.71875 3.421875  M 16.796875 40.140625  Q 20.125 43.796875 24.3125 45.59375  Q 28.515625 47.40625 33.796875 47.40625  Q 44.671875 47.40625 51 40.859375  Q 57.328125 34.328125 57.328125 23  Q 57.328125 11.921875 50.515625 5.25  Q 43.703125 -1.421875 32.328125 -1.421875  Q 19.96875 -1.421875 13.328125 7.78125  Q 6.6875 17 6.6875 34.078125  Q 6.6875 53.21875 14.546875 63.71875  Q 22.40625 74.21875 36.71875 74.21875  Q 40.578125 74.21875 44.828125 73.484375  Q 49.078125 72.75 53.515625 71.296875  L 53.515625 59.28125  L 48 59.28125  Q 47.40625 64.203125 44.234375 66.796875  Q 41.0625 69.390625 35.6875 69.390625  Q 26.21875 69.390625 21.578125 62.203125  Q 16.9375 55.03125 16.796875 40.140625  " id="DejaVuSerif-36"/>
      </defs>
      <g transform="translate(425.500625 460.178437)scale(0.1 -0.1)">
       <use xlink:href="#DejaVuSerif-36"/>
       <use x="63.623047" xlink:href="#DejaVuSerif-30"/>
      </g>
     </g>
    </g>
    <g id="xtick_5">
     <g id="line2d_9">
      <path clip-path="url(#p734ec23f53)" d="M 565.783125 445.58  L 565.783125 10.7  " style="fill:none;stroke:#b0b0b0;stroke-linecap:square;stroke-width:0.8;"/>
     </g>
     <g id="line2d_10">
      <g>
       <use style="stroke:#000000;stroke-width:0.8;" x="565.783125" xlink:href="#mcaf977ab3f" y="445.58"/>
      </g>
     </g>
     <g id="text_5">
      <!-- 80 -->
      <defs>
       <path d="M 46.578125 19.921875  Q 46.578125 27.734375 42.6875 32.046875  Q 38.8125 36.375 31.78125 36.375  Q 24.75 36.375 20.875 32.046875  Q 17 27.734375 17 19.921875  Q 17 12.0625 20.875 7.734375  Q 24.75 3.421875 31.78125 3.421875  Q 38.8125 3.421875 42.6875 7.734375  Q 46.578125 12.0625 46.578125 19.921875  M 44.578125 55.328125  Q 44.578125 61.96875 41.203125 65.671875  Q 37.84375 69.390625 31.78125 69.390625  Q 25.78125 69.390625 22.390625 65.671875  Q 19 61.96875 19 55.328125  Q 19 48.640625 22.390625 44.921875  Q 25.78125 41.21875 31.78125 41.21875  Q 37.84375 41.21875 41.203125 44.921875  Q 44.578125 48.640625 44.578125 55.328125  M 39.3125 38.8125  Q 47.609375 37.703125 52.25 32.6875  Q 56.890625 27.6875 56.890625 19.921875  Q 56.890625 9.671875 50.390625 4.125  Q 43.890625 -1.421875 31.78125 -1.421875  Q 19.734375 -1.421875 13.203125 4.125  Q 6.6875 9.671875 6.6875 19.921875  Q 6.6875 27.6875 11.328125 32.6875  Q 15.96875 37.703125 24.3125 38.8125  Q 16.9375 40.140625 13 44.40625  Q 9.078125 48.6875 9.078125 55.328125  Q 9.078125 64.109375 15.125 69.15625  Q 21.1875 74.21875 31.78125 74.21875  Q 42.390625 74.21875 48.4375 69.15625  Q 54.5 64.109375 54.5 55.328125  Q 54.5 48.6875 50.5625 44.40625  Q 46.625 40.140625 39.3125 38.8125  " id="DejaVuSerif-38"/>
      </defs>
      <g transform="translate(559.420625 460.178437)scale(0.1 -0.1)">
       <use xlink:href="#DejaVuSerif-38"/>
       <use x="63.623047" xlink:href="#DejaVuSerif-30"/>
      </g>
     </g>
    </g>
    <g id="xtick_6">
     <g id="line2d_11">
      <path clip-path="url(#p734ec23f53)" d="M 699.703125 445.58  L 699.703125 10.7  " style="fill:none;stroke:#b0b0b0;stroke-linecap:square;stroke-width:0.8;"/>
     </g>
     <g id="line2d_12">
      <g>
       <use style="stroke:#000000;stroke-width:0.8;" x="699.703125" xlink:href="#mcaf977ab3f" y="445.58"/>
      </g>
     </g>
     <g id="text_6">
      <!-- 100 -->
      <defs>
       <path d="M 14.203125 0  L 14.203125 5.171875  L 26.90625 5.171875  L 26.90625 65.828125  L 12.203125 56.296875  L 12.203125 62.703125  L 29.984375 74.21875  L 36.71875 74.21875  L 36.71875 5.171875  L 49.421875 5.171875  L 49.421875 0  z " id="DejaVuSerif-31"/>
      </defs>
      <g transform="translate(690.159375 460.178437)scale(0.1 -0.1)">
       <use xlink:href="#DejaVuSerif-31"/>
       <use x="63.623047" xlink:href="#DejaVuSerif-30"/>
       <use x="127.246094" xlink:href="#DejaVuSerif-30"/>
      </g>
     </g>
    </g>
   </g>
   <g id="matplotlib.axis_2">
    <g id="ytick_1">
     <g id="line2d_13">
      <path clip-path="url(#p734ec23f53)" d="M 30.103125 401.842182  L 699.703125 401.842182  " style="fill:none;stroke:#b0b0b0;stroke-linecap:square;stroke-width:0.8;"/>
     </g>
     <g id="line2d_14">
      <defs>
       <path d="M 0 0  L -3.5 0  " id="m9d6e32583c" style="stroke:#000000;stroke-width:0.8;"/>
      </defs>
      <g>
       <use style="stroke:#000000;stroke-width:0.8;" x="30.103125" xlink:href="#m9d6e32583c" y="401.842182"/>
      </g>
     </g>
     <g id="text_7">
      <!-- 2.8 -->
      <defs>
       <path d="M 9.421875 5.078125  Q 9.421875 7.8125 11.28125 9.71875  Q 13.140625 11.625 15.921875 11.625  Q 18.609375 11.625 20.5 9.71875  Q 22.40625 7.8125 22.40625 5.078125  Q 22.40625 2.390625 20.5 0.484375  Q 18.609375 -1.421875 15.921875 -1.421875  Q 13.140625 -1.421875 11.28125 0.453125  Q 9.421875 2.34375 9.421875 5.078125  " id="DejaVuSerif-2e"/>
      </defs>
      <g transform="translate(7.2 405.6414)scale(0.1 -0.1)">
       <use xlink:href="#DejaVuSerif-32"/>
       <use x="63.623047" xlink:href="#DejaVuSerif-2e"/>
       <use x="95.410156" xlink:href="#DejaVuSerif-38"/>
      </g>
     </g>
    </g>
    <g id="ytick_2">
     <g id="line2d_15">
      <path clip-path="url(#p734ec23f53)" d="M 30.103125 351.9512  L 699.703125 351.9512  " style="fill:none;stroke:#b0b0b0;stroke-linecap:square;stroke-width:0.8;"/>
     </g>
     <g id="line2d_16">
      <g>
       <use style="stroke:#000000;stroke-width:0.8;" x="30.103125" xlink:href="#m9d6e32583c" y="351.9512"/>
      </g>
     </g>
     <g id="text_8">
      <!-- 3.0 -->
      <defs>
       <path d="M 9.71875 69.828125  Q 15.4375 71.96875 20.671875 73.09375  Q 25.921875 74.21875 30.515625 74.21875  Q 41.21875 74.21875 47.21875 69.59375  Q 53.21875 64.984375 53.21875 56.78125  Q 53.21875 50.203125 49.0625 45.78125  Q 44.921875 41.359375 37.3125 39.796875  Q 46.296875 38.53125 51.25 33.28125  Q 56.203125 28.03125 56.203125 19.671875  Q 56.203125 9.46875 49.34375 4.015625  Q 42.484375 -1.421875 29.59375 -1.421875  Q 23.875 -1.421875 18.421875 -0.1875  Q 12.984375 1.03125 7.625 3.515625  L 7.625 17.671875  L 13.09375 17.671875  Q 13.578125 10.640625 17.828125 7.03125  Q 22.078125 3.421875 29.78125 3.421875  Q 37.25 3.421875 41.578125 7.734375  Q 45.90625 12.0625 45.90625 19.578125  Q 45.90625 28.171875 41.453125 32.59375  Q 37.015625 37.015625 28.421875 37.015625  L 23.78125 37.015625  L 23.78125 42  L 26.21875 42  Q 34.765625 42 39.03125 45.53125  Q 43.3125 49.078125 43.3125 56.203125  Q 43.3125 62.59375 39.796875 65.984375  Q 36.28125 69.390625 29.6875 69.390625  Q 23.09375 69.390625 19.453125 66.265625  Q 15.828125 63.140625 15.1875 56.984375  L 9.71875 56.984375  z " id="DejaVuSerif-33"/>
      </defs>
      <g transform="translate(7.2 355.750419)scale(0.1 -0.1)">
       <use xlink:href="#DejaVuSerif-33"/>
       <use x="63.623047" xlink:href="#DejaVuSerif-2e"/>
       <use x="95.410156" xlink:href="#DejaVuSerif-30"/>
      </g>
     </g>
    </g>
    <g id="ytick_3">
     <g id="line2d_17">
      <path clip-path="url(#p734ec23f53)" d="M 30.103125 302.060218  L 699.703125 302.060218  " style="fill:none;stroke:#b0b0b0;stroke-linecap:square;stroke-width:0.8;"/>
     </g>
     <g id="line2d_18">
      <g>
       <use style="stroke:#000000;stroke-width:0.8;" x="30.103125" xlink:href="#m9d6e32583c" y="302.060218"/>
      </g>
     </g>
     <g id="text_9">
      <!-- 3.2 -->
      <g transform="translate(7.2 305.859437)scale(0.1 -0.1)">
       <use xlink:href="#DejaVuSerif-33"/>
       <use x="63.623047" xlink:href="#DejaVuSerif-2e"/>
       <use x="95.410156" xlink:href="#DejaVuSerif-32"/>
      </g>
     </g>
    </g>
    <g id="ytick_4">
     <g id="line2d_19">
      <path clip-path="url(#p734ec23f53)" d="M 30.103125 252.169236  L 699.703125 252.169236  " style="fill:none;stroke:#b0b0b0;stroke-linecap:square;stroke-width:0.8;"/>
     </g>
     <g id="line2d_20">
      <g>
       <use style="stroke:#000000;stroke-width:0.8;" x="30.103125" xlink:href="#m9d6e32583c" y="252.169236"/>
      </g>
     </g>
     <g id="text_10">
      <!-- 3.4 -->
      <g transform="translate(7.2 255.968455)scale(0.1 -0.1)">
       <use xlink:href="#DejaVuSerif-33"/>
       <use x="63.623047" xlink:href="#DejaVuSerif-2e"/>
       <use x="95.410156" xlink:href="#DejaVuSerif-34"/>
      </g>
     </g>
    </g>
    <g id="ytick_5">
     <g id="line2d_21">
      <path clip-path="url(#p734ec23f53)" d="M 30.103125 202.278255  L 699.703125 202.278255  " style="fill:none;stroke:#b0b0b0;stroke-linecap:square;stroke-width:0.8;"/>
     </g>
     <g id="line2d_22">
      <g>
       <use style="stroke:#000000;stroke-width:0.8;" x="30.103125" xlink:href="#m9d6e32583c" y="202.278255"/>
      </g>
     </g>
     <g id="text_11">
      <!-- 3.6 -->
      <g transform="translate(7.2 206.077473)scale(0.1 -0.1)">
       <use xlink:href="#DejaVuSerif-33"/>
       <use x="63.623047" xlink:href="#DejaVuSerif-2e"/>
       <use x="95.410156" xlink:href="#DejaVuSerif-36"/>
      </g>
     </g>
    </g>
    <g id="ytick_6">
     <g id="line2d_23">
      <path clip-path="url(#p734ec23f53)" d="M 30.103125 152.387273  L 699.703125 152.387273  " style="fill:none;stroke:#b0b0b0;stroke-linecap:square;stroke-width:0.8;"/>
     </g>
     <g id="line2d_24">
      <g>
       <use style="stroke:#000000;stroke-width:0.8;" x="30.103125" xlink:href="#m9d6e32583c" y="152.387273"/>
      </g>
     </g>
     <g id="text_12">
      <!-- 3.8 -->
      <g transform="translate(7.2 156.186492)scale(0.1 -0.1)">
       <use xlink:href="#DejaVuSerif-33"/>
       <use x="63.623047" xlink:href="#DejaVuSerif-2e"/>
       <use x="95.410156" xlink:href="#DejaVuSerif-38"/>
      </g>
     </g>
    </g>
    <g id="ytick_7">
     <g id="line2d_25">
      <path clip-path="url(#p734ec23f53)" d="M 30.103125 102.496291  L 699.703125 102.496291  " style="fill:none;stroke:#b0b0b0;stroke-linecap:square;stroke-width:0.8;"/>
     </g>
     <g id="line2d_26">
      <g>
       <use style="stroke:#000000;stroke-width:0.8;" x="30.103125" xlink:href="#m9d6e32583c" y="102.496291"/>
      </g>
     </g>
     <g id="text_13">
      <!-- 4.0 -->
      <g transform="translate(7.2 106.29551)scale(0.1 -0.1)">
       <use xlink:href="#DejaVuSerif-34"/>
       <use x="63.623047" xlink:href="#DejaVuSerif-2e"/>
       <use x="95.410156" xlink:href="#DejaVuSerif-30"/>
      </g>
     </g>
    </g>
    <g id="ytick_8">
     <g id="line2d_27">
      <path clip-path="url(#p734ec23f53)" d="M 30.103125 52.605309  L 699.703125 52.605309  " style="fill:none;stroke:#b0b0b0;stroke-linecap:square;stroke-width:0.8;"/>
     </g>
     <g id="line2d_28">
      <g>
       <use style="stroke:#000000;stroke-width:0.8;" x="30.103125" xlink:href="#m9d6e32583c" y="52.605309"/>
      </g>
     </g>
     <g id="text_14">
      <!-- 4.2 -->
      <g transform="translate(7.2 56.404528)scale(0.1 -0.1)">
       <use xlink:href="#DejaVuSerif-34"/>
       <use x="63.623047" xlink:href="#DejaVuSerif-2e"/>
       <use x="95.410156" xlink:href="#DejaVuSerif-32"/>
      </g>
     </g>
    </g>
   </g>
   <g id="line2d_29">
    <path clip-path="url(#p734ec23f53)" d="M 30.103125 312.129404  L 36.799125 301.121722  L 43.495125 293.018945  L 50.191125 287.567751  L 56.887125 279.310807  L 63.583125 287.567751  L 70.279125 289.378055  L 76.975125 294.869392  L 83.671125 308.837437  L 90.367125 301.121722  L 97.063125 306.891204  L 103.759125 312.129404  L 110.455125 318.824854  L 117.151125 328.538192  L 123.847125 334.975061  L 130.543125 333.528942  L 137.239125 331.381079  L 143.935125 329.240213  L 150.631125 318.824854  L 157.327125 316.120768  L 164.023125 312.129404  L 170.719125 325.72734  L 177.415125 332.091157  L 184.111125 332.803262  L 190.807125 336.429613  L 197.503125 343.832379  L 204.199125 334.975061  L 210.895125 329.944215  L 217.591125 331.381079  L 224.287125 331.381079  L 230.983125 334.256738  L 237.679125 340.109458  L 244.375125 354.579791  L 251.071125 350.681881  L 257.767125 343.088131  L 264.463125 334.975061  L 271.159125 337.892696  L 277.855125 339.36441  L 284.551125 333.528942  L 291.247125 322.252224  L 297.943125 321.558574  L 304.639125 322.252224  L 311.335125 323.634249  L 318.031125 318.824854  L 324.727125 306.238925  L 331.423125 308.837437  L 338.119125 312.129404  L 344.815125 316.120768  L 351.511125 311.463303  L 358.207125 316.79944  L 364.903125 320.877813  L 371.599125 329.240213  L 378.295125 316.79944  L 384.991125 316.79944  L 391.687125 314.117103  L 398.383125 319.510933  L 405.079125 337.165934  L 411.775125 334.256738  L 418.471125 343.832379  L 425.167125 346.102801  L 431.863125 419.644073  L 438.559125 408.680059  L 445.255125 411.628511  L 451.951125 419.644073  L 458.647125 407.71529  L 465.343125 413.592483  L 472.039125 416.599928  L 478.735125 425.812727  L 485.431125 408.680059  L 492.127125 406.738766  L 498.823125 402.900923  L 505.519125 400.068329  L 512.215125 384.550379  L 518.911125 362.550274  L 525.607125 362.550274  L 532.303125 363.35501  L 538.999125 362.550274  L 545.695125 364.998484  L 552.391125 364.175393  L 559.087125 367.457742  L 565.783125 366.626511  L 572.479125 358.539576  L 579.175125 354.579791  L 585.871125 364.175393  L 592.567125 366.626511  L 599.263125 373.301109  L 605.959125 375.011664  L 612.655125 371.629081  L 619.351125 365.811169  L 626.047125 373.301109  L 632.743125 373.301109  L 639.439125 379.298503  L 646.135125 379.298503  L 652.831125 389.020223  L 659.527125 396.330995  L 666.223125 403.862509  L 672.919125 406.738766  L 679.615125 401.003918  L 686.311125 394.46839  L 693.007125 394.46839  L 699.703125 388.114081  " style="fill:none;stroke:#0000ff;stroke-linecap:square;stroke-width:1.5;"/>
   </g>
   <g id="line2d_30">
    <path clip-path="url(#p734ec23f53)" d="M 30.103125 54.242865  L 36.799125 57.082989  L 43.495125 61.889591  L 50.191125 62.130426  L 56.887125 60.920833  L 63.583125 60.437861  L 70.279125 63.838467  L 76.975125 63.595978  L 83.671125 68.77833  L 90.367125 72.801884  L 97.063125 69.025912  L 103.759125 70.279568  L 110.455125 68.029096  L 117.151125 55.420431  L 123.847125 51.900548  L 130.543125 53.53598  L 137.239125 58.036929  L 143.935125 51.900548  L 150.631125 50.505643  L 157.327125 47.966565  L 164.023125 43.873227  L 170.719125 50.969745  L 177.415125 54.713979  L 184.111125 71.285436  L 190.807125 87.685287  L 197.503125 91.485752  L 204.199125 100.666992  L 210.895125 86.611215  L 217.591125 94.228684  L 224.287125 94.507299  L 230.983125 93.403514  L 237.679125 105.244275  L 244.375125 106.40184  L 251.071125 111.678404  L 257.767125 105.244275  L 264.463125 100.666992  L 271.159125 93.403514  L 277.855125 95.615989  L 284.551125 87.151969  L 291.247125 82.892194  L 297.943125 84.744774  L 304.639125 83.683262  L 311.335125 83.950338  L 318.031125 83.416472  L 324.727125 84.744774  L 331.423125 78.70394  L 338.119125 79.481817  L 344.815125 81.30915  L 351.511125 82.892194  L 358.207125 87.685287  L 364.903125 90.935531  L 371.599125 96.729629  L 378.295125 96.729629  L 384.991125 96.729629  L 391.687125 96.729629  L 398.383125 100.666992  L 405.079125 101.521135  L 411.775125 83.154195  L 418.471125 56.132684  L 425.167125 52.135659  L 431.863125 52.135659  L 438.559125 45.002738  L 445.255125 59.474713  L 451.951125 63.838467  L 458.647125 59.474713  L 465.343125 67.286073  L 472.039125 60.194797  L 478.735125 60.194797  L 485.431125 63.349819  L 492.127125 67.536149  L 498.823125 70.532664  L 505.519125 70.279568  L 512.215125 60.194797  L 518.911125 54.242865  L 525.607125 54.242865  L 532.303125 61.648988  L 538.999125 54.009522  L 545.695125 57.559503  L 552.391125 51.20398  L 559.087125 46.137386  L 565.783125 58.756702  L 572.479125 56.846976  L 579.175125 55.658885  L 585.871125 43.195086  L 592.567125 31.754231  L 599.263125 38.290542  L 605.959125 38.068118  L 612.655125 41.622275  L 619.351125 30.467273  L 626.047125 40.287085  L 632.743125 40.287085  L 639.439125 42.296148  L 646.135125 40.728977  L 652.831125 68.029096  L 659.527125 81.049078  L 666.223125 85.277228  L 672.919125 87.418485  L 679.615125 95.061028  L 686.311125 76.8914  L 693.007125 68.77833  L 699.703125 70.781995  " style="fill:none;stroke:#008000;stroke-linecap:square;stroke-width:1.5;"/>
   </g>
   <g id="line2d_31">
    <path clip-path="url(#p734ec23f53)" d="M 431.863125 470.458125  L 431.863125 -1  " style="fill:none;stroke:#000000;stroke-dasharray:2.2,2.2;stroke-dashoffset:0;"/>
   </g>
   <g id="line2d_32">
    <path clip-path="url(#p734ec23f53)" d="M 485.431125 470.458125  L 485.431125 -1  " style="fill:none;stroke:#000000;stroke-dasharray:2.2,2.2;stroke-dashoffset:0;"/>
   </g>
   <g id="patch_3">
    <path d="M 30.103125 445.58  L 30.103125 10.7  " style="fill:none;stroke:#000000;stroke-linecap:square;stroke-linejoin:miter;stroke-width:0.8;"/>
   </g>
   <g id="patch_4">
    <path d="M 699.703125 445.58  L 699.703125 10.7  " style="fill:none;stroke:#000000;stroke-linecap:square;stroke-linejoin:miter;stroke-width:0.8;"/>
   </g>
   <g id="patch_5">
    <path d="M 30.103125 445.58  L 699.703125 445.58  " style="fill:none;stroke:#000000;stroke-linecap:square;stroke-linejoin:miter;stroke-width:0.8;"/>
   </g>
   <g id="patch_6">
    <path d="M 30.103125 10.7  L 699.703125 10.7  " style="fill:none;stroke:#000000;stroke-linecap:square;stroke-linejoin:miter;stroke-width:0.8;"/>
   </g>
  </g>
 </g>
 <defs>
  <clipPath id="p734ec23f53">
   <rect height="434.88" width="669.6" x="30.103125" y="10.7"/>
  </clipPath>
 </defs>
</svg>