<?xml version="1.0" encoding="UTF-8" standalone="no"?>
<!DOCTYPE svg PUBLIC "-//W3C//DTD SVG 1.1//EN"
 "http://www.w3.org/Graphics/SVG/1.1/DTD/svg11.dtd">
<!-- Generated by graphviz version 2.40.1 (20161225.0304)
 -->
<!-- Pages: 1 -->
<svg width="507pt" height="521pt"
 viewBox="0.00 0.00 507.45 521.42" xmlns="http://www.w3.org/2000/svg" xmlns:xlink="http://www.w3.org/1999/xlink">
<g id="graph0" class="graph" transform="scale(1 1) rotate(0) translate(4 517.4182)">
<polygon fill="#ffffff" stroke="transparent" points="-4,4 -4,-517.4182 503.4536,-517.4182 503.4536,4 -4,4"/>
<!-- 193 -->
<g id="node1" class="node">
<title>193</title>
<ellipse fill="none" stroke="#000000" cx="66.5187" cy="-196.8549" rx="32.4942" ry="18"/>
<text text-anchor="middle" x="66.5187" y="-193.1549" font-family="Times,serif" font-size="14.00" fill="#000000">0.000</text>
</g>
<!-- 191 -->
<g id="node24" class="node">
<title>191</title>
<ellipse fill="none" stroke="#000000" cx="96.3797" cy="-106.509" rx="35.9954" ry="18"/>
<text text-anchor="middle" x="96.3797" y="-102.809" font-family="Times,serif" font-size="14.00" fill="#000000">&#45;0.250</text>
</g>
<!-- 193&#45;&gt;191 -->
<g id="edge1" class="edge">
<title>193&#45;&gt;191</title>
<path fill="none" stroke="#000000" d="M72.4182,-179.0054C76.6717,-166.1364 82.4916,-148.5282 87.3304,-133.888"/>
<polygon fill="#000000" stroke="#000000" points="90.6773,-134.9146 90.4924,-124.3214 84.0309,-132.7178 90.6773,-134.9146"/>
</g>
<!-- 195 -->
<g id="node2" class="node">
<title>195</title>
<ellipse fill="none" stroke="#000000" cx="133.3914" cy="-162.5752" rx="32.4942" ry="18"/>
<text text-anchor="middle" x="133.3914" y="-158.8752" font-family="Times,serif" font-size="14.00" fill="#000000">0.000</text>
</g>
<!-- 195&#45;&gt;191 -->
<g id="edge2" class="edge">
<title>195&#45;&gt;191</title>
<path fill="none" stroke="#000000" d="M122.0856,-145.4489C119.3392,-141.2886 116.3422,-136.7487 113.3959,-132.2855"/>
<polygon fill="#000000" stroke="#000000" points="116.302,-130.3348 107.8718,-123.9174 110.4601,-134.1913 116.302,-130.3348"/>
</g>
<!-- 196 -->
<g id="node3" class="node">
<title>196</title>
<ellipse fill="none" stroke="#000000" cx="224.5784" cy="-71.4662" rx="35.9954" ry="18"/>
<text text-anchor="middle" x="224.5784" y="-67.7662" font-family="Times,serif" font-size="14.00" fill="#000000">&#45;0.125</text>
</g>
<!-- 199 -->
<g id="node4" class="node">
<title>199</title>
<ellipse fill="none" stroke="#000000" cx="136.0077" cy="-220.0077" rx="32.4942" ry="18"/>
<text text-anchor="middle" x="136.0077" y="-216.3077" font-family="Times,serif" font-size="14.00" fill="#000000">0.250</text>
</g>
<!-- 199&#45;&gt;193 -->
<g id="edge3" class="edge">
<title>199&#45;&gt;193</title>
<path fill="none" stroke="#000000" d="M108.1443,-210.7239C106.8699,-210.2994 105.5827,-209.8705 104.2898,-209.4397"/>
<polygon fill="#000000" stroke="#000000" points="104.982,-205.9812 94.3884,-206.1407 102.7692,-212.6223 104.982,-205.9812"/>
</g>
<!-- 199&#45;&gt;195 -->
<g id="edge4" class="edge">
<title>199&#45;&gt;195</title>
<path fill="none" stroke="#000000" d="M135.1799,-201.8357C135.0224,-198.3789 134.8542,-194.6854 134.6862,-190.9983"/>
<polygon fill="#000000" stroke="#000000" points="138.1744,-190.6565 134.2228,-180.8261 131.1816,-190.9751 138.1744,-190.6565"/>
</g>
<!-- 203 -->
<g id="node7" class="node">
<title>203</title>
<ellipse fill="none" stroke="#000000" cx="109.9029" cy="-296.8163" rx="35.9954" ry="18"/>
<text text-anchor="middle" x="109.9029" y="-293.1163" font-family="Times,serif" font-size="14.00" fill="#000000">&#45;0.042</text>
</g>
<!-- 199&#45;&gt;203 -->
<g id="edge6" class="edge">
<title>199&#45;&gt;203</title>
<path fill="none" stroke="#000000" d="M129.9532,-237.8222C126.7801,-247.1584 122.8236,-258.7996 119.2657,-269.2682"/>
<polygon fill="#000000" stroke="#000000" points="115.9192,-268.2379 116.0151,-278.8323 122.5469,-270.4905 115.9192,-268.2379"/>
</g>
<!-- 186 -->
<g id="node21" class="node">
<title>186</title>
<ellipse fill="none" stroke="#000000" cx="54.0933" cy="-166.1756" rx="32.4942" ry="18"/>
<text text-anchor="middle" x="54.0933" y="-162.4756" font-family="Times,serif" font-size="14.00" fill="#000000">0.000</text>
</g>
<!-- 199&#45;&gt;186 -->
<g id="edge5" class="edge">
<title>199&#45;&gt;186</title>
<path fill="none" stroke="#000000" d="M114.9127,-206.1446C105.3579,-199.8654 93.9003,-192.3357 83.5188,-185.5133"/>
<polygon fill="#000000" stroke="#000000" points="85.396,-182.5588 75.1168,-179.9917 81.5516,-188.4087 85.396,-182.5588"/>
</g>
<!-- 188 -->
<g id="node22" class="node">
<title>188</title>
<ellipse fill="none" stroke="#000000" cx="198.8001" cy="-271.9036" rx="35.9954" ry="18"/>
<text text-anchor="middle" x="198.8001" y="-268.2036" font-family="Times,serif" font-size="14.00" fill="#000000">&#45;0.042</text>
</g>
<!-- 199&#45;&gt;188 -->
<g id="edge7" class="edge">
<title>199&#45;&gt;188</title>
<path fill="none" stroke="#000000" d="M154.1699,-235.0181C159.7479,-239.6282 166.008,-244.802 172.0353,-249.7834"/>
<polygon fill="#000000" stroke="#000000" points="170.0862,-252.7131 180.0241,-256.3859 174.5457,-247.3174 170.0862,-252.7131"/>
</g>
<!-- 189 -->
<g id="node23" class="node">
<title>189</title>
<ellipse fill="none" stroke="#000000" cx="181.056" cy="-139.3116" rx="32.4942" ry="18"/>
<text text-anchor="middle" x="181.056" y="-135.6116" font-family="Times,serif" font-size="14.00" fill="#000000">0.042</text>
</g>
<!-- 199&#45;&gt;189 -->
<g id="edge8" class="edge">
<title>199&#45;&gt;189</title>
<path fill="none" stroke="#000000" d="M145.7825,-202.4978C151.845,-191.6379 159.7449,-177.4866 166.5313,-165.3299"/>
<polygon fill="#000000" stroke="#000000" points="169.6366,-166.9477 171.455,-156.51 163.5245,-163.5356 169.6366,-166.9477"/>
</g>
<!-- 73 -->
<g id="node5" class="node">
<title>73</title>
<ellipse fill="none" stroke="#000000" cx="298.6383" cy="-210.0761" rx="32.4942" ry="18"/>
<text text-anchor="middle" x="298.6383" y="-206.3761" font-family="Times,serif" font-size="14.00" fill="#000000">0.083</text>
</g>
<!-- 80 -->
<g id="node9" class="node">
<title>80</title>
<ellipse fill="none" stroke="#000000" cx="314.4112" cy="-280.6687" rx="35.9954" ry="18"/>
<text text-anchor="middle" x="314.4112" y="-276.9687" font-family="Times,serif" font-size="14.00" fill="#000000">&#45;0.083</text>
</g>
<!-- 73&#45;&gt;80 -->
<g id="edge9" class="edge">
<title>73&#45;&gt;80</title>
<path fill="none" stroke="#000000" d="M302.7002,-228.2555C304.3432,-235.6088 306.2784,-244.2699 308.0973,-252.4103"/>
<polygon fill="#000000" stroke="#000000" points="304.7118,-253.3095 310.3083,-262.3056 311.5433,-251.783 304.7118,-253.3095"/>
</g>
<!-- 122 -->
<g id="node12" class="node">
<title>122</title>
<ellipse fill="none" stroke="#000000" cx="295.7468" cy="-138" rx="35.9954" ry="18"/>
<text text-anchor="middle" x="295.7468" y="-134.3" font-family="Times,serif" font-size="14.00" fill="#000000">&#45;0.042</text>
</g>
<!-- 73&#45;&gt;122 -->
<g id="edge10" class="edge">
<title>73&#45;&gt;122</title>
<path fill="none" stroke="#000000" d="M297.9086,-191.8883C297.597,-184.1204 297.226,-174.8723 296.8801,-166.2491"/>
<polygon fill="#000000" stroke="#000000" points="300.3743,-166.0337 296.4762,-156.182 293.38,-166.3143 300.3743,-166.0337"/>
</g>
<!-- 202 -->
<g id="node6" class="node">
<title>202</title>
<ellipse fill="none" stroke="#000000" cx="148.5551" cy="-39.833" rx="32.4942" ry="18"/>
<text text-anchor="middle" x="148.5551" y="-36.133" font-family="Times,serif" font-size="14.00" fill="#000000">0.083</text>
</g>
<!-- 202&#45;&gt;196 -->
<g id="edge11" class="edge">
<title>202&#45;&gt;196</title>
<path fill="none" stroke="#000000" d="M174.718,-50.7194C178.84,-52.4345 183.1684,-54.2356 187.4812,-56.0301"/>
<polygon fill="#000000" stroke="#000000" points="186.234,-59.302 196.8112,-59.9123 188.9232,-52.8391 186.234,-59.302"/>
</g>
<!-- 202&#45;&gt;191 -->
<g id="edge12" class="edge">
<title>202&#45;&gt;191</title>
<path fill="none" stroke="#000000" d="M135.3891,-56.6582C129.5023,-64.181 122.4412,-73.2046 115.9541,-81.4946"/>
<polygon fill="#000000" stroke="#000000" points="113.1294,-79.425 109.7231,-89.4573 118.6422,-83.7389 113.1294,-79.425"/>
</g>
<!-- 77 -->
<g id="node8" class="node">
<title>77</title>
<ellipse fill="none" stroke="#000000" cx="132.4971" cy="-368.6391" rx="32.4942" ry="18"/>
<text text-anchor="middle" x="132.4971" y="-364.9391" font-family="Times,serif" font-size="14.00" fill="#000000">0.042</text>
</g>
<!-- 35 -->
<g id="node14" class="node">
<title>35</title>
<ellipse fill="none" stroke="#000000" cx="203.7067" cy="-358" rx="35.9954" ry="18"/>
<text text-anchor="middle" x="203.7067" y="-354.3" font-family="Times,serif" font-size="14.00" fill="#000000">&#45;0.042</text>
</g>
<!-- 77&#45;&gt;35 -->
<g id="edge13" class="edge">
<title>77&#45;&gt;35</title>
<path fill="none" stroke="#000000" d="M163.938,-363.9417C164.0497,-363.925 164.1616,-363.9083 164.2735,-363.8915"/>
<polygon fill="#000000" stroke="#000000" points="159.9544,-368.0759 169.3274,-363.1365 158.9199,-361.1527 159.9544,-368.0759"/>
</g>
<!-- 22 -->
<g id="node10" class="node">
<title>22</title>
<ellipse fill="none" stroke="#000000" cx="395.7468" cy="-28.6391" rx="35.9954" ry="18"/>
<text text-anchor="middle" x="395.7468" y="-24.9391" font-family="Times,serif" font-size="14.00" fill="#000000">&#45;0.042</text>
</g>
<!-- 89 -->
<g id="node11" class="node">
<title>89</title>
<ellipse fill="none" stroke="#000000" cx="466.9564" cy="-18" rx="32.4942" ry="18"/>
<text text-anchor="middle" x="466.9564" y="-14.3" font-family="Times,serif" font-size="14.00" fill="#000000">0.042</text>
</g>
<!-- 89&#45;&gt;22 -->
<g id="edge14" class="edge">
<title>89&#45;&gt;22</title>
<path fill="none" stroke="#000000" d="M435.5156,-22.6974C435.4038,-22.7141 435.292,-22.7308 435.1801,-22.7476"/>
<polygon fill="#000000" stroke="#000000" points="439.4992,-18.5632 430.1262,-23.5026 440.5337,-25.4864 439.4992,-18.5632"/>
</g>
<!-- 95 -->
<g id="node13" class="node">
<title>95</title>
<ellipse fill="none" stroke="#000000" cx="316.1216" cy="-352.9019" rx="32.4942" ry="18"/>
<text text-anchor="middle" x="316.1216" y="-349.2019" font-family="Times,serif" font-size="14.00" fill="#000000">0.083</text>
</g>
<!-- 95&#45;&gt;80 -->
<g id="edge15" class="edge">
<title>95&#45;&gt;80</title>
<path fill="none" stroke="#000000" d="M315.69,-334.6744C315.5057,-326.8897 315.2862,-317.6214 315.0816,-308.9794"/>
<polygon fill="#000000" stroke="#000000" points="318.5785,-308.8047 314.8427,-298.8903 311.5805,-308.9704 318.5785,-308.8047"/>
</g>
<!-- 101 -->
<g id="node15" class="node">
<title>101</title>
<ellipse fill="none" stroke="#000000" cx="314.3672" cy="-425.1463" rx="35.9954" ry="18"/>
<text text-anchor="middle" x="314.3672" y="-421.4463" font-family="Times,serif" font-size="14.00" fill="#000000">&#45;0.083</text>
</g>
<!-- 95&#45;&gt;101 -->
<g id="edge16" class="edge">
<title>95&#45;&gt;101</title>
<path fill="none" stroke="#000000" d="M315.6789,-371.1322C315.4898,-378.9182 315.2647,-388.1879 315.0548,-396.8312"/>
<polygon fill="#000000" stroke="#000000" points="311.5537,-396.8397 314.8098,-406.9218 318.5516,-397.0098 311.5537,-396.8397"/>
</g>
<!-- 102 -->
<g id="node16" class="node">
<title>102</title>
<ellipse fill="none" stroke="#000000" cx="392.4971" cy="-108.6391" rx="32.4942" ry="18"/>
<text text-anchor="middle" x="392.4971" y="-104.9391" font-family="Times,serif" font-size="14.00" fill="#000000">0.042</text>
</g>
<!-- 115 -->
<g id="node19" class="node">
<title>115</title>
<ellipse fill="none" stroke="#000000" cx="463.7067" cy="-98" rx="35.9954" ry="18"/>
<text text-anchor="middle" x="463.7067" y="-94.3" font-family="Times,serif" font-size="14.00" fill="#000000">&#45;0.042</text>
</g>
<!-- 102&#45;&gt;115 -->
<g id="edge17" class="edge">
<title>102&#45;&gt;115</title>
<path fill="none" stroke="#000000" d="M423.938,-103.9417C424.0497,-103.925 424.1616,-103.9083 424.2735,-103.8915"/>
<polygon fill="#000000" stroke="#000000" points="419.9544,-108.0759 429.3274,-103.1365 418.9199,-101.1527 419.9544,-108.0759"/>
</g>
<!-- 169 -->
<g id="node17" class="node">
<title>169</title>
<ellipse fill="none" stroke="#000000" cx="32.4971" cy="-54.4258" rx="32.4942" ry="18"/>
<text text-anchor="middle" x="32.4971" y="-50.7258" font-family="Times,serif" font-size="14.00" fill="#000000">0.042</text>
</g>
<!-- 169&#45;&gt;191 -->
<g id="edge18" class="edge">
<title>169&#45;&gt;191</title>
<path fill="none" stroke="#000000" d="M50.9746,-69.4904C56.6495,-74.1171 63.0183,-79.3096 69.1502,-84.3089"/>
<polygon fill="#000000" stroke="#000000" points="67.3156,-87.329 77.2778,-90.9353 71.7389,-81.9036 67.3156,-87.329"/>
</g>
<!-- 71 -->
<g id="node18" class="node">
<title>71</title>
<ellipse fill="none" stroke="#000000" cx="297.2082" cy="-495.4182" rx="32.4942" ry="18"/>
<text text-anchor="middle" x="297.2082" y="-491.7182" font-family="Times,serif" font-size="14.00" fill="#000000">0.042</text>
</g>
<!-- 71&#45;&gt;101 -->
<g id="edge19" class="edge">
<title>71&#45;&gt;101</title>
<path fill="none" stroke="#000000" d="M301.6271,-477.3214C303.4144,-470.0015 305.5197,-461.3797 307.4984,-453.2762"/>
<polygon fill="#000000" stroke="#000000" points="310.9316,-453.9708 309.9037,-443.4259 304.1314,-452.3103 310.9316,-453.9708"/>
</g>
<!-- 184 -->
<g id="node20" class="node">
<title>184</title>
<ellipse fill="none" stroke="#000000" cx="293.5933" cy="-38" rx="32.4942" ry="18"/>
<text text-anchor="middle" x="293.5933" y="-34.3" font-family="Times,serif" font-size="14.00" fill="#000000">0.042</text>
</g>
<!-- 184&#45;&gt;196 -->
<g id="edge20" class="edge">
<title>184&#45;&gt;196</title>
<path fill="none" stroke="#000000" d="M269.0669,-49.8931C265.9504,-51.4044 262.7151,-52.9732 259.4752,-54.5442"/>
<polygon fill="#000000" stroke="#000000" points="257.8981,-51.4192 250.4273,-58.9317 260.9524,-57.7177 257.8981,-51.4192"/>
</g>
<!-- 186&#45;&gt;191 -->
<g id="edge21" class="edge">
<title>186&#45;&gt;191</title>
<path fill="none" stroke="#000000" d="M66.0978,-149.2372C69.9039,-143.8668 74.1992,-137.8061 78.3331,-131.9731"/>
<polygon fill="#000000" stroke="#000000" points="81.2717,-133.8796 84.1984,-123.697 75.5606,-129.8321 81.2717,-133.8796"/>
</g>
<!-- 189&#45;&gt;196 -->
<g id="edge22" class="edge">
<title>189&#45;&gt;196</title>
<path fill="none" stroke="#000000" d="M192.0385,-122.1913C196.8467,-114.696 202.5941,-105.7366 207.9115,-97.4475"/>
<polygon fill="#000000" stroke="#000000" points="210.9944,-99.1238 213.448,-88.8169 205.1025,-95.3441 210.9944,-99.1238"/>
</g>
<!-- 189&#45;&gt;191 -->
<g id="edge23" class="edge">
<title>189&#45;&gt;191</title>
<path fill="none" stroke="#000000" d="M154.2639,-128.9326C147.9484,-126.4861 141.0971,-123.832 134.392,-121.2345"/>
<polygon fill="#000000" stroke="#000000" points="135.3414,-117.8489 124.7523,-117.5002 132.8128,-124.3763 135.3414,-117.8489"/>
</g>
</g>
</svg>
