<?xml version="1.0" encoding="UTF-8" standalone="no"?>
<!DOCTYPE svg PUBLIC "-//W3C//DTD SVG 1.1//EN"
 "http://www.w3.org/Graphics/SVG/1.1/DTD/svg11.dtd">
<!-- Generated by graphviz version 2.40.1 (20161225.0304)
 -->
<!-- Pages: 1 -->
<svg width="425pt" height="547pt"
 viewBox="0.00 0.00 424.54 546.81" xmlns="http://www.w3.org/2000/svg" xmlns:xlink="http://www.w3.org/1999/xlink">
<g id="graph0" class="graph" transform="scale(1 1) rotate(0) translate(4 542.8077)">
<polygon fill="#ffffff" stroke="transparent" points="-4,4 -4,-542.8077 420.5381,-542.8077 420.5381,4 -4,4"/>
<!-- 99 -->
<g id="node1" class="node">
<title>99</title>
<ellipse fill="none" stroke="#000000" cx="200.0527" cy="-18" rx="32.4942" ry="18"/>
<text text-anchor="middle" x="200.0527" y="-14.3" font-family="Times,serif" font-size="14.00" fill="#000000">0.071</text>
</g>
<!-- 69 -->
<g id="node3" class="node">
<title>69</title>
<ellipse fill="none" stroke="#000000" cx="186.0395" cy="-90.3449" rx="35.9954" ry="18"/>
<text text-anchor="middle" x="186.0395" y="-86.6449" font-family="Times,serif" font-size="14.00" fill="#000000">&#45;0.143</text>
</g>
<!-- 99&#45;&gt;69 -->
<g id="edge1" class="edge">
<title>99&#45;&gt;69</title>
<path fill="none" stroke="#000000" d="M196.5166,-36.2557C194.9781,-44.1983 193.141,-53.6829 191.4378,-62.4755"/>
<polygon fill="#000000" stroke="#000000" points="187.9916,-61.8625 189.526,-72.3457 194.8638,-63.1937 187.9916,-61.8625"/>
</g>
<!-- 196 -->
<g id="node2" class="node">
<title>196</title>
<ellipse fill="none" stroke="#000000" cx="312.2987" cy="-449.7168" rx="35.9954" ry="18"/>
<text text-anchor="middle" x="312.2987" y="-446.0168" font-family="Times,serif" font-size="14.00" fill="#000000">&#45;0.143</text>
</g>
<!-- 71 -->
<g id="node4" class="node">
<title>71</title>
<ellipse fill="none" stroke="#000000" cx="101.1945" cy="-199.6537" rx="32.4942" ry="18"/>
<text text-anchor="middle" x="101.1945" y="-195.9537" font-family="Times,serif" font-size="14.00" fill="#000000">0.143</text>
</g>
<!-- 80 -->
<g id="node8" class="node">
<title>80</title>
<ellipse fill="none" stroke="#000000" cx="171.8001" cy="-166.8713" rx="35.9954" ry="18"/>
<text text-anchor="middle" x="171.8001" y="-163.1713" font-family="Times,serif" font-size="14.00" fill="#000000">&#45;0.071</text>
</g>
<!-- 71&#45;&gt;80 -->
<g id="edge2" class="edge">
<title>71&#45;&gt;80</title>
<path fill="none" stroke="#000000" d="M126.2862,-188.0036C129.4745,-186.5232 132.7844,-184.9864 136.0989,-183.4475"/>
<polygon fill="#000000" stroke="#000000" points="137.7593,-186.5355 145.3554,-179.1497 134.8114,-180.1865 137.7593,-186.5355"/>
</g>
<!-- 101 -->
<g id="node12" class="node">
<title>101</title>
<ellipse fill="none" stroke="#000000" cx="35.7468" cy="-233.4776" rx="35.9954" ry="18"/>
<text text-anchor="middle" x="35.7468" y="-229.7776" font-family="Times,serif" font-size="14.00" fill="#000000">&#45;0.071</text>
</g>
<!-- 71&#45;&gt;101 -->
<g id="edge3" class="edge">
<title>71&#45;&gt;101</title>
<path fill="none" stroke="#000000" d="M77.1959,-212.0564C74.8975,-213.2442 72.5372,-214.4641 70.165,-215.69"/>
<polygon fill="#000000" stroke="#000000" points="68.3391,-212.6938 61.0623,-220.3944 71.553,-218.9124 68.3391,-212.6938"/>
</g>
<!-- 202 -->
<g id="node5" class="node">
<title>202</title>
<ellipse fill="none" stroke="#000000" cx="321.37" cy="-374.9844" rx="32.4942" ry="18"/>
<text text-anchor="middle" x="321.37" y="-371.2844" font-family="Times,serif" font-size="14.00" fill="#000000">0.214</text>
</g>
<!-- 202&#45;&gt;196 -->
<g id="edge4" class="edge">
<title>202&#45;&gt;196</title>
<path fill="none" stroke="#000000" d="M319.1741,-393.0751C318.1454,-401.5492 316.8957,-411.8448 315.7454,-421.3221"/>
<polygon fill="#000000" stroke="#000000" points="312.2364,-421.1849 314.5058,-431.5338 319.1854,-422.0284 312.2364,-421.1849"/>
</g>
<!-- 189 -->
<g id="node13" class="node">
<title>189</title>
<ellipse fill="none" stroke="#000000" cx="380.7912" cy="-322.6353" rx="35.9954" ry="18"/>
<text text-anchor="middle" x="380.7912" y="-318.9353" font-family="Times,serif" font-size="14.00" fill="#000000">&#45;0.143</text>
</g>
<!-- 202&#45;&gt;189 -->
<g id="edge5" class="edge">
<title>202&#45;&gt;189</title>
<path fill="none" stroke="#000000" d="M338.8769,-359.5611C343.9371,-355.1032 349.569,-350.1416 355.0207,-345.3388"/>
<polygon fill="#000000" stroke="#000000" points="357.6017,-347.7294 362.7915,-338.4927 352.9744,-342.477 357.6017,-347.7294"/>
</g>
<!-- 191 -->
<g id="node14" class="node">
<title>191</title>
<ellipse fill="none" stroke="#000000" cx="275.7468" cy="-310.0582" rx="35.9954" ry="18"/>
<text text-anchor="middle" x="275.7468" y="-306.3582" font-family="Times,serif" font-size="14.00" fill="#000000">&#45;0.143</text>
</g>
<!-- 202&#45;&gt;191 -->
<g id="edge6" class="edge">
<title>202&#45;&gt;191</title>
<path fill="none" stroke="#000000" d="M309.383,-357.9258C304.6011,-351.1207 298.9931,-343.1399 293.7418,-335.6669"/>
<polygon fill="#000000" stroke="#000000" points="296.4252,-333.398 287.8121,-327.2283 290.6979,-337.4226 296.4252,-333.398"/>
</g>
<!-- 199 -->
<g id="node6" class="node">
<title>199</title>
<ellipse fill="none" stroke="#000000" cx="335.1715" cy="-258" rx="32.4942" ry="18"/>
<text text-anchor="middle" x="335.1715" y="-254.3" font-family="Times,serif" font-size="14.00" fill="#000000">0.143</text>
</g>
<!-- 199&#45;&gt;189 -->
<g id="edge7" class="edge">
<title>199&#45;&gt;189</title>
<path fill="none" stroke="#000000" d="M347.1575,-274.9822C351.9391,-281.7568 357.5467,-289.7018 362.7975,-297.1414"/>
<polygon fill="#000000" stroke="#000000" points="360.1009,-299.3904 368.7268,-305.5422 365.8199,-295.3539 360.1009,-299.3904"/>
</g>
<!-- 199&#45;&gt;191 -->
<g id="edge8" class="edge">
<title>199&#45;&gt;191</title>
<path fill="none" stroke="#000000" d="M317.6635,-273.3376C312.603,-277.7708 306.9708,-282.7048 301.5188,-287.481"/>
<polygon fill="#000000" stroke="#000000" points="298.9631,-285.0668 293.7475,-294.2889 303.5758,-290.3321 298.9631,-285.0668"/>
</g>
<!-- 29 -->
<g id="node7" class="node">
<title>29</title>
<ellipse fill="none" stroke="#000000" cx="296.4971" cy="-76.6391" rx="32.4942" ry="18"/>
<text text-anchor="middle" x="296.4971" y="-72.9391" font-family="Times,serif" font-size="14.00" fill="#000000">0.071</text>
</g>
<!-- 114 -->
<g id="node9" class="node">
<title>114</title>
<ellipse fill="none" stroke="#000000" cx="367.7067" cy="-66" rx="35.9954" ry="18"/>
<text text-anchor="middle" x="367.7067" y="-62.3" font-family="Times,serif" font-size="14.00" fill="#000000">&#45;0.071</text>
</g>
<!-- 29&#45;&gt;114 -->
<g id="edge9" class="edge">
<title>29&#45;&gt;114</title>
<path fill="none" stroke="#000000" d="M327.938,-71.9417C328.0497,-71.925 328.1616,-71.9083 328.2735,-71.8915"/>
<polygon fill="#000000" stroke="#000000" points="323.9544,-76.0759 333.3274,-71.1365 322.9199,-69.1527 323.9544,-76.0759"/>
</g>
<!-- 80&#45;&gt;69 -->
<g id="edge10" class="edge">
<title>80&#45;&gt;69</title>
<path fill="none" stroke="#000000" d="M175.1746,-148.7356C176.8593,-139.6817 178.9351,-128.526 180.8193,-118.3995"/>
<polygon fill="#000000" stroke="#000000" points="184.3007,-118.8219 182.6892,-108.3504 177.4189,-117.5413 184.3007,-118.8219"/>
</g>
<!-- 184 -->
<g id="node10" class="node">
<title>184</title>
<ellipse fill="none" stroke="#000000" cx="296.1549" cy="-520.8077" rx="32.4942" ry="18"/>
<text text-anchor="middle" x="296.1549" y="-517.1077" font-family="Times,serif" font-size="14.00" fill="#000000">0.071</text>
</g>
<!-- 184&#45;&gt;196 -->
<g id="edge11" class="edge">
<title>184&#45;&gt;196</title>
<path fill="none" stroke="#000000" d="M300.2287,-502.8685C301.9552,-495.2653 304.0083,-486.2243 305.9271,-477.7746"/>
<polygon fill="#000000" stroke="#000000" points="309.3686,-478.4244 308.1701,-467.8976 302.5424,-476.8742 309.3686,-478.4244"/>
</g>
<!-- 95 -->
<g id="node11" class="node">
<title>95</title>
<ellipse fill="none" stroke="#000000" cx="234.3055" cy="-215.1927" rx="32.4942" ry="18"/>
<text text-anchor="middle" x="234.3055" y="-211.4927" font-family="Times,serif" font-size="14.00" fill="#000000">0.071</text>
</g>
<!-- 95&#45;&gt;80 -->
<g id="edge12" class="edge">
<title>95&#45;&gt;80</title>
<path fill="none" stroke="#000000" d="M215.2121,-200.4321C210.3116,-196.6436 204.9384,-192.4898 199.693,-188.4346"/>
<polygon fill="#000000" stroke="#000000" points="201.6938,-185.5575 191.6416,-182.2103 197.4124,-191.0956 201.6938,-185.5575"/>
</g>
</g>
</svg>
