<?xml version="1.0" encoding="UTF-8" standalone="no"?>
<!DOCTYPE svg PUBLIC "-//W3C//DTD SVG 1.1//EN"
 "http://www.w3.org/Graphics/SVG/1.1/DTD/svg11.dtd">
<!-- Generated by graphviz version 2.40.1 (20161225.0304)
 -->
<!-- Pages: 1 -->
<svg width="489pt" height="378pt"
 viewBox="0.00 0.00 489.45 377.64" xmlns="http://www.w3.org/2000/svg" xmlns:xlink="http://www.w3.org/1999/xlink">
<g id="graph0" class="graph" transform="scale(1 1) rotate(0) translate(4 373.6391)">
<polygon fill="#ffffff" stroke="transparent" points="-4,4 -4,-373.6391 485.4536,-373.6391 485.4536,4 -4,4"/>
<!-- 48 -->
<g id="node1" class="node">
<title>48</title>
<ellipse fill="none" stroke="#000000" cx="232.6593" cy="-212.9229" rx="32.4942" ry="18"/>
<text text-anchor="middle" x="232.6593" y="-209.2229" font-family="Times,serif" font-size="14.00" fill="#000000">0.056</text>
</g>
<!-- 80 -->
<g id="node10" class="node">
<title>80</title>
<ellipse fill="none" stroke="#000000" cx="287.5203" cy="-272.3812" rx="35.9954" ry="18"/>
<text text-anchor="middle" x="287.5203" y="-268.6812" font-family="Times,serif" font-size="14.00" fill="#000000">&#45;0.222</text>
</g>
<!-- 48&#45;&gt;80 -->
<g id="edge1" class="edge">
<title>48&#45;&gt;80</title>
<path fill="none" stroke="#000000" d="M247.6503,-229.1701C253.0039,-234.9724 259.1596,-241.6439 265.0071,-247.9814"/>
<polygon fill="#000000" stroke="#000000" points="262.8119,-250.7636 272.1655,-255.7396 267.9565,-246.0167 262.8119,-250.7636"/>
</g>
<!-- 195 -->
<g id="node2" class="node">
<title>195</title>
<ellipse fill="none" stroke="#000000" cx="32.4971" cy="-94" rx="32.4942" ry="18"/>
<text text-anchor="middle" x="32.4971" y="-90.3" font-family="Times,serif" font-size="14.00" fill="#000000">0.056</text>
</g>
<!-- 191 -->
<g id="node16" class="node">
<title>191</title>
<ellipse fill="none" stroke="#000000" cx="84.7374" cy="-152.2079" rx="35.9954" ry="18"/>
<text text-anchor="middle" x="84.7374" y="-148.5079" font-family="Times,serif" font-size="14.00" fill="#000000">&#45;0.167</text>
</g>
<!-- 195&#45;&gt;191 -->
<g id="edge2" class="edge">
<title>195&#45;&gt;191</title>
<path fill="none" stroke="#000000" d="M47.0489,-110.2141C51.9473,-115.6721 57.5259,-121.888 62.8617,-127.8333"/>
<polygon fill="#000000" stroke="#000000" points="60.6165,-130.5717 69.9006,-135.6762 65.8261,-125.8962 60.6165,-130.5717"/>
</g>
<!-- 196 -->
<g id="node3" class="node">
<title>196</title>
<ellipse fill="none" stroke="#000000" cx="233.5194" cy="-131.7137" rx="34.394" ry="18"/>
<text text-anchor="middle" x="233.5194" y="-128.0137" font-family="Times,serif" font-size="14.00" fill="#000000">&#45;0.111</text>
</g>
<!-- 101 -->
<g id="node4" class="node">
<title>101</title>
<ellipse fill="none" stroke="#000000" cx="416.3908" cy="-189" rx="35.9954" ry="18"/>
<text text-anchor="middle" x="416.3908" y="-185.3" font-family="Times,serif" font-size="14.00" fill="#000000">&#45;0.056</text>
</g>
<!-- 102 -->
<g id="node5" class="node">
<title>102</title>
<ellipse fill="none" stroke="#000000" cx="203.4971" cy="-66.6391" rx="32.4942" ry="18"/>
<text text-anchor="middle" x="203.4971" y="-62.9391" font-family="Times,serif" font-size="14.00" fill="#000000">0.056</text>
</g>
<!-- 115 -->
<g id="node12" class="node">
<title>115</title>
<ellipse fill="none" stroke="#000000" cx="274.7067" cy="-56" rx="35.9954" ry="18"/>
<text text-anchor="middle" x="274.7067" y="-52.3" font-family="Times,serif" font-size="14.00" fill="#000000">&#45;0.056</text>
</g>
<!-- 102&#45;&gt;115 -->
<g id="edge3" class="edge">
<title>102&#45;&gt;115</title>
<path fill="none" stroke="#000000" d="M234.938,-61.9417C235.0497,-61.925 235.1616,-61.9083 235.2735,-61.8915"/>
<polygon fill="#000000" stroke="#000000" points="230.9544,-66.0759 240.3274,-61.1365 229.9199,-59.1527 230.9544,-66.0759"/>
</g>
<!-- 71 -->
<g id="node6" class="node">
<title>71</title>
<ellipse fill="none" stroke="#000000" cx="352.5539" cy="-226.9943" rx="31.6951" ry="18"/>
<text text-anchor="middle" x="352.5539" y="-223.2943" font-family="Times,serif" font-size="14.00" fill="#000000">0.111</text>
</g>
<!-- 71&#45;&gt;101 -->
<g id="edge5" class="edge">
<title>71&#45;&gt;101</title>
<path fill="none" stroke="#000000" d="M374.523,-213.9188C377.7418,-212.003 381.1107,-209.9979 384.4795,-207.9929"/>
<polygon fill="#000000" stroke="#000000" points="386.4904,-210.8692 393.2934,-202.747 382.9102,-204.8539 386.4904,-210.8692"/>
</g>
<!-- 71&#45;&gt;80 -->
<g id="edge4" class="edge">
<title>71&#45;&gt;80</title>
<path fill="none" stroke="#000000" d="M332.3334,-241.1062C327.556,-244.4403 322.3634,-248.0642 317.2625,-251.6242"/>
<polygon fill="#000000" stroke="#000000" points="315.0515,-248.8991 308.8541,-257.4923 319.0576,-254.6394 315.0515,-248.8991"/>
</g>
<!-- 73 -->
<g id="node7" class="node">
<title>73</title>
<ellipse fill="none" stroke="#000000" cx="323.5081" cy="-344.8227" rx="32.4942" ry="18"/>
<text text-anchor="middle" x="323.5081" y="-341.1227" font-family="Times,serif" font-size="14.00" fill="#000000">0.056</text>
</g>
<!-- 73&#45;&gt;80 -->
<g id="edge6" class="edge">
<title>73&#45;&gt;80</title>
<path fill="none" stroke="#000000" d="M314.7965,-327.2866C310.584,-318.8072 305.437,-308.4465 300.7536,-299.019"/>
<polygon fill="#000000" stroke="#000000" points="303.8601,-297.4054 296.2764,-290.0068 297.5911,-300.5198 303.8601,-297.4054"/>
</g>
<!-- 202 -->
<g id="node8" class="node">
<title>202</title>
<ellipse fill="none" stroke="#000000" cx="160.8396" cy="-141.8573" rx="31.6951" ry="18"/>
<text text-anchor="middle" x="160.8396" y="-138.1573" font-family="Times,serif" font-size="14.00" fill="#000000">0.111</text>
</g>
<!-- 202&#45;&gt;196 -->
<g id="edge7" class="edge">
<title>202&#45;&gt;196</title>
<path fill="none" stroke="#000000" d="M192.0842,-137.4966C192.2477,-137.4738 192.4113,-137.451 192.5751,-137.4281"/>
<polygon fill="#000000" stroke="#000000" points="190.5648,-141.2427 199.985,-136.394 189.5972,-134.3099 190.5648,-141.2427"/>
</g>
<!-- 202&#45;&gt;191 -->
<g id="edge8" class="edge">
<title>202&#45;&gt;191</title>
<path fill="none" stroke="#000000" d="M129.4465,-146.127C129.3442,-146.141 129.2418,-146.1549 129.1393,-146.1688"/>
<polygon fill="#000000" stroke="#000000" points="128.9545,-142.6617 119.5174,-147.4775 129.8979,-149.5978 128.9545,-142.6617"/>
</g>
<!-- 199 -->
<g id="node9" class="node">
<title>199</title>
<ellipse fill="none" stroke="#000000" cx="49.2565" cy="-221.9414" rx="32.4942" ry="18"/>
<text text-anchor="middle" x="49.2565" y="-218.2414" font-family="Times,serif" font-size="14.00" fill="#000000">0.056</text>
</g>
<!-- 199&#45;&gt;191 -->
<g id="edge9" class="edge">
<title>199&#45;&gt;191</title>
<path fill="none" stroke="#000000" d="M58.2098,-204.3447C62.0879,-196.7227 66.7155,-187.6278 71.0116,-179.1844"/>
<polygon fill="#000000" stroke="#000000" points="74.2481,-180.5414 75.6635,-170.0415 68.0092,-177.367 74.2481,-180.5414"/>
</g>
<!-- 114 -->
<g id="node11" class="node">
<title>114</title>
<ellipse fill="none" stroke="#000000" cx="54.7468" cy="-351.6391" rx="35.9954" ry="18"/>
<text text-anchor="middle" x="54.7468" y="-347.9391" font-family="Times,serif" font-size="14.00" fill="#000000">&#45;0.056</text>
</g>
<!-- 22 -->
<g id="node13" class="node">
<title>22</title>
<ellipse fill="none" stroke="#000000" cx="377.7468" cy="-28.6391" rx="35.9954" ry="18"/>
<text text-anchor="middle" x="377.7468" y="-24.9391" font-family="Times,serif" font-size="14.00" fill="#000000">&#45;0.056</text>
</g>
<!-- 184 -->
<g id="node14" class="node">
<title>184</title>
<ellipse fill="none" stroke="#000000" cx="306.0959" cy="-132.2346" rx="32.4942" ry="18"/>
<text text-anchor="middle" x="306.0959" y="-128.5346" font-family="Times,serif" font-size="14.00" fill="#000000">0.056</text>
</g>
<!-- 184&#45;&gt;196 -->
<g id="edge10" class="edge">
<title>184&#45;&gt;196</title>
<path fill="none" stroke="#000000" d="M273.2052,-131.9985C273.1021,-131.9978 272.9989,-131.997 272.8957,-131.9963"/>
<polygon fill="#000000" stroke="#000000" points="278.2649,-128.5349 268.2399,-131.9629 278.2145,-135.5348 278.2649,-128.5349"/>
</g>
<!-- 89 -->
<g id="node15" class="node">
<title>89</title>
<ellipse fill="none" stroke="#000000" cx="448.9564" cy="-18" rx="32.4942" ry="18"/>
<text text-anchor="middle" x="448.9564" y="-14.3" font-family="Times,serif" font-size="14.00" fill="#000000">0.056</text>
</g>
<!-- 89&#45;&gt;22 -->
<g id="edge11" class="edge">
<title>89&#45;&gt;22</title>
<path fill="none" stroke="#000000" d="M417.5156,-22.6974C417.4038,-22.7141 417.292,-22.7308 417.1801,-22.7476"/>
<polygon fill="#000000" stroke="#000000" points="421.4992,-18.5632 412.1262,-23.5026 422.5337,-25.4864 421.4992,-18.5632"/>
</g>
<!-- 29 -->
<g id="node17" class="node">
<title>29</title>
<ellipse fill="none" stroke="#000000" cx="125.9564" cy="-341" rx="32.4942" ry="18"/>
<text text-anchor="middle" x="125.9564" y="-337.3" font-family="Times,serif" font-size="14.00" fill="#000000">0.056</text>
</g>
<!-- 29&#45;&gt;114 -->
<g id="edge12" class="edge">
<title>29&#45;&gt;114</title>
<path fill="none" stroke="#000000" d="M94.5156,-345.6974C94.4038,-345.7141 94.292,-345.7308 94.1801,-345.7476"/>
<polygon fill="#000000" stroke="#000000" points="98.4992,-341.5632 89.1262,-346.5026 99.5337,-348.4864 98.4992,-341.5632"/>
</g>
<!-- 95 -->
<g id="node18" class="node">
<title>95</title>
<ellipse fill="none" stroke="#000000" cx="222.4971" cy="-317.5474" rx="32.4942" ry="18"/>
<text text-anchor="middle" x="222.4971" y="-313.8474" font-family="Times,serif" font-size="14.00" fill="#000000">0.056</text>
</g>
<!-- 95&#45;&gt;80 -->
<g id="edge13" class="edge">
<title>95&#45;&gt;80</title>
<path fill="none" stroke="#000000" d="M243.0708,-303.2565C247.8379,-299.9452 253.0027,-296.3577 258.0675,-292.8395"/>
<polygon fill="#000000" stroke="#000000" points="260.1928,-295.6249 266.4091,-287.0453 256.1993,-289.8757 260.1928,-295.6249"/>
</g>
</g>
</svg>
