<?xml version="1.0" encoding="UTF-8" standalone="no"?>
<!DOCTYPE svg PUBLIC "-//W3C//DTD SVG 1.1//EN"
 "http://www.w3.org/Graphics/SVG/1.1/DTD/svg11.dtd">
<!-- Generated by graphviz version 2.40.1 (20161225.0304)
 -->
<!-- Pages: 1 -->
<svg width="315pt" height="237pt"
 viewBox="0.00 0.00 314.50 236.64" xmlns="http://www.w3.org/2000/svg" xmlns:xlink="http://www.w3.org/1999/xlink">
<g id="graph0" class="graph" transform="scale(1 1) rotate(0) translate(4 232.6391)">
<polygon fill="#ffffff" stroke="transparent" points="-4,4 -4,-232.6391 310.5037,-232.6391 310.5037,4 -4,4"/>
<!-- 80 -->
<g id="node1" class="node">
<title>80</title>
<ellipse fill="none" stroke="#000000" cx="55.8042" cy="-86.2063" rx="35.9954" ry="18"/>
<text text-anchor="middle" x="55.8042" y="-82.5063" font-family="Times,serif" font-size="14.00" fill="#000000">&#45;0.222</text>
</g>
<!-- 115 -->
<g id="node2" class="node">
<title>115</title>
<ellipse fill="none" stroke="#000000" cx="151.4469" cy="-80.6391" rx="34.394" ry="18"/>
<text text-anchor="middle" x="151.4469" y="-76.9391" font-family="Times,serif" font-size="14.00" fill="#000000">&#45;0.111</text>
</g>
<!-- 196 -->
<g id="node3" class="node">
<title>196</title>
<ellipse fill="none" stroke="#000000" cx="190.4469" cy="-145.6391" rx="34.394" ry="18"/>
<text text-anchor="middle" x="190.4469" y="-141.9391" font-family="Times,serif" font-size="14.00" fill="#000000">&#45;0.111</text>
</g>
<!-- 102 -->
<g id="node4" class="node">
<title>102</title>
<ellipse fill="none" stroke="#000000" cx="222.6566" cy="-70" rx="31.6951" ry="18"/>
<text text-anchor="middle" x="222.6566" y="-66.3" font-family="Times,serif" font-size="14.00" fill="#000000">0.111</text>
</g>
<!-- 102&#45;&gt;115 -->
<g id="edge1" class="edge">
<title>102&#45;&gt;115</title>
<path fill="none" stroke="#000000" d="M191.6301,-74.6355C191.4896,-74.6565 191.3489,-74.6775 191.2082,-74.6986"/>
<polygon fill="#000000" stroke="#000000" points="194.2192,-70.7097 184.8462,-75.6491 195.2536,-77.6329 194.2192,-70.7097"/>
</g>
<!-- 22 -->
<g id="node5" class="node">
<title>22</title>
<ellipse fill="none" stroke="#000000" cx="203.4469" cy="-210.6391" rx="34.394" ry="18"/>
<text text-anchor="middle" x="203.4469" y="-206.9391" font-family="Times,serif" font-size="14.00" fill="#000000">&#45;0.111</text>
</g>
<!-- 71 -->
<g id="node6" class="node">
<title>71</title>
<ellipse fill="none" stroke="#000000" cx="99.6995" cy="-143.6255" rx="31.6951" ry="18"/>
<text text-anchor="middle" x="99.6995" y="-139.9255" font-family="Times,serif" font-size="14.00" fill="#000000">0.111</text>
</g>
<!-- 71&#45;&gt;80 -->
<g id="edge2" class="edge">
<title>71&#45;&gt;80</title>
<path fill="none" stroke="#000000" d="M87.0031,-127.0175C83.2811,-122.1487 79.1245,-116.7115 75.0897,-111.4336"/>
<polygon fill="#000000" stroke="#000000" points="77.7836,-109.1944 68.9296,-103.3756 72.2224,-113.4458 77.7836,-109.1944"/>
</g>
<!-- 89 -->
<g id="node7" class="node">
<title>89</title>
<ellipse fill="none" stroke="#000000" cx="274.6566" cy="-200" rx="31.6951" ry="18"/>
<text text-anchor="middle" x="274.6566" y="-196.3" font-family="Times,serif" font-size="14.00" fill="#000000">0.111</text>
</g>
<!-- 89&#45;&gt;22 -->
<g id="edge3" class="edge">
<title>89&#45;&gt;22</title>
<path fill="none" stroke="#000000" d="M243.6301,-204.6355C243.4896,-204.6565 243.3489,-204.6775 243.2082,-204.6986"/>
<polygon fill="#000000" stroke="#000000" points="246.2192,-200.7097 236.8462,-205.6491 247.2536,-207.6329 246.2192,-200.7097"/>
</g>
<!-- 202 -->
<g id="node8" class="node">
<title>202</title>
<ellipse fill="none" stroke="#000000" cx="261.6566" cy="-135" rx="31.6951" ry="18"/>
<text text-anchor="middle" x="261.6566" y="-131.3" font-family="Times,serif" font-size="14.00" fill="#000000">0.111</text>
</g>
<!-- 202&#45;&gt;196 -->
<g id="edge4" class="edge">
<title>202&#45;&gt;196</title>
<path fill="none" stroke="#000000" d="M230.6301,-139.6355C230.4896,-139.6565 230.3489,-139.6775 230.2082,-139.6986"/>
<polygon fill="#000000" stroke="#000000" points="233.2192,-135.7097 223.8462,-140.6491 234.2536,-142.6329 233.2192,-135.7097"/>
</g>
<!-- 95 -->
<g id="node9" class="node">
<title>95</title>
<ellipse fill="none" stroke="#000000" cx="31.8472" cy="-18" rx="31.6951" ry="18"/>
<text text-anchor="middle" x="31.8472" y="-14.3" font-family="Times,serif" font-size="14.00" fill="#000000">0.111</text>
</g>
<!-- 95&#45;&gt;80 -->
<g id="edge5" class="edge">
<title>95&#45;&gt;80</title>
<path fill="none" stroke="#000000" d="M38.1416,-35.9204C40.5707,-42.8362 43.4058,-50.9078 46.0846,-58.5343"/>
<polygon fill="#000000" stroke="#000000" points="42.8524,-59.8938 49.4686,-68.1688 49.4568,-57.574 42.8524,-59.8938"/>
</g>
</g>
</svg>
