<?xml version="1.0" encoding="UTF-8" standalone="no"?>
<!DOCTYPE svg PUBLIC "-//W3C//DTD SVG 1.1//EN"
 "http://www.w3.org/Graphics/SVG/1.1/DTD/svg11.dtd">
<!-- Generated by graphviz version 2.40.1 (20161225.0304)
 -->
<!-- Pages: 1 -->
<svg width="419pt" height="327pt"
 viewBox="0.00 0.00 419.45 326.64" xmlns="http://www.w3.org/2000/svg" xmlns:xlink="http://www.w3.org/1999/xlink">
<g id="graph0" class="graph" transform="scale(1 1) rotate(0) translate(4 322.6391)">
<polygon fill="#ffffff" stroke="transparent" points="-4,4 -4,-322.6391 415.4536,-322.6391 415.4536,4 -4,4"/>
<!-- 195 -->
<g id="node1" class="node">
<title>195</title>
<ellipse fill="none" stroke="#000000" cx="275.6286" cy="-169.712" rx="32.4942" ry="18"/>
<text text-anchor="middle" x="275.6286" y="-166.012" font-family="Times,serif" font-size="14.00" fill="#000000">0.200</text>
</g>
<!-- 191 -->
<g id="node7" class="node">
<title>191</title>
<ellipse fill="none" stroke="#000000" cx="351.5097" cy="-181.4894" rx="35.9954" ry="18"/>
<text text-anchor="middle" x="351.5097" y="-177.7894" font-family="Times,serif" font-size="14.00" fill="#000000">&#45;0.067</text>
</g>
<!-- 195&#45;&gt;191 -->
<g id="edge3" class="edge">
<title>195&#45;&gt;191</title>
<path fill="none" stroke="#000000" d="M306.9304,-174.5703C307.0376,-174.5869 307.1448,-174.6036 307.2521,-174.6202"/>
<polygon fill="#000000" stroke="#000000" points="306.907,-178.1085 317.3255,-176.1837 307.9807,-171.1913 306.907,-178.1085"/>
</g>
<!-- 188 -->
<g id="node13" class="node">
<title>188</title>
<ellipse fill="none" stroke="#000000" cx="248.252" cy="-98" rx="35.9954" ry="18"/>
<text text-anchor="middle" x="248.252" y="-94.3" font-family="Times,serif" font-size="14.00" fill="#000000">&#45;0.067</text>
</g>
<!-- 195&#45;&gt;188 -->
<g id="edge1" class="edge">
<title>195&#45;&gt;188</title>
<path fill="none" stroke="#000000" d="M268.8613,-151.9854C265.8242,-144.0297 262.1701,-134.4581 258.7877,-125.5979"/>
<polygon fill="#000000" stroke="#000000" points="261.968,-124.1148 255.1316,-116.0207 255.4283,-126.6114 261.968,-124.1148"/>
</g>
<!-- 189 -->
<g id="node14" class="node">
<title>189</title>
<ellipse fill="none" stroke="#000000" cx="227.7468" cy="-229.7004" rx="35.9954" ry="18"/>
<text text-anchor="middle" x="227.7468" y="-226.0004" font-family="Times,serif" font-size="14.00" fill="#000000">&#45;0.067</text>
</g>
<!-- 195&#45;&gt;189 -->
<g id="edge2" class="edge">
<title>195&#45;&gt;189</title>
<path fill="none" stroke="#000000" d="M262.2908,-186.4221C257.8011,-192.047 252.688,-198.453 247.7974,-204.5802"/>
<polygon fill="#000000" stroke="#000000" points="244.8486,-202.664 241.3457,-212.663 250.3195,-207.0308 244.8486,-202.664"/>
</g>
<!-- 196 -->
<g id="node2" class="node">
<title>196</title>
<ellipse fill="none" stroke="#000000" cx="51.7468" cy="-236.6391" rx="35.9954" ry="18"/>
<text text-anchor="middle" x="51.7468" y="-232.9391" font-family="Times,serif" font-size="14.00" fill="#000000">&#45;0.067</text>
</g>
<!-- 101 -->
<g id="node3" class="node">
<title>101</title>
<ellipse fill="none" stroke="#000000" cx="35.7468" cy="-37.2591" rx="35.9954" ry="18"/>
<text text-anchor="middle" x="35.7468" y="-33.5591" font-family="Times,serif" font-size="14.00" fill="#000000">&#45;0.133</text>
</g>
<!-- 102 -->
<g id="node4" class="node">
<title>102</title>
<ellipse fill="none" stroke="#000000" cx="208.4971" cy="-28.6391" rx="32.4942" ry="18"/>
<text text-anchor="middle" x="208.4971" y="-24.9391" font-family="Times,serif" font-size="14.00" fill="#000000">0.067</text>
</g>
<!-- 115 -->
<g id="node11" class="node">
<title>115</title>
<ellipse fill="none" stroke="#000000" cx="279.7067" cy="-18" rx="35.9954" ry="18"/>
<text text-anchor="middle" x="279.7067" y="-14.3" font-family="Times,serif" font-size="14.00" fill="#000000">&#45;0.067</text>
</g>
<!-- 102&#45;&gt;115 -->
<g id="edge4" class="edge">
<title>102&#45;&gt;115</title>
<path fill="none" stroke="#000000" d="M239.938,-23.9417C240.0497,-23.925 240.1616,-23.9083 240.2735,-23.8915"/>
<polygon fill="#000000" stroke="#000000" points="235.9544,-28.0759 245.3274,-23.1365 234.9199,-21.1527 235.9544,-28.0759"/>
</g>
<!-- 71 -->
<g id="node5" class="node">
<title>71</title>
<ellipse fill="none" stroke="#000000" cx="114.4496" cy="-34" rx="32.4942" ry="18"/>
<text text-anchor="middle" x="114.4496" y="-30.3" font-family="Times,serif" font-size="14.00" fill="#000000">0.133</text>
</g>
<!-- 71&#45;&gt;101 -->
<g id="edge6" class="edge">
<title>71&#45;&gt;101</title>
<path fill="none" stroke="#000000" d="M81.9838,-35.3444C81.8753,-35.3489 81.7667,-35.3534 81.6581,-35.3579"/>
<polygon fill="#000000" stroke="#000000" points="81.3053,-31.8694 71.4587,-35.7803 81.595,-38.8634 81.3053,-31.8694"/>
</g>
<!-- 80 -->
<g id="node9" class="node">
<title>80</title>
<ellipse fill="none" stroke="#000000" cx="123.5215" cy="-112.3579" rx="35.9954" ry="18"/>
<text text-anchor="middle" x="123.5215" y="-108.6579" font-family="Times,serif" font-size="14.00" fill="#000000">&#45;0.067</text>
</g>
<!-- 71&#45;&gt;80 -->
<g id="edge5" class="edge">
<title>71&#45;&gt;80</title>
<path fill="none" stroke="#000000" d="M116.5537,-52.1738C117.6529,-61.668 119.0226,-73.4987 120.256,-84.1519"/>
<polygon fill="#000000" stroke="#000000" points="116.8019,-84.7515 121.4288,-94.2826 123.7555,-83.9464 116.8019,-84.7515"/>
</g>
<!-- 202 -->
<g id="node6" class="node">
<title>202</title>
<ellipse fill="none" stroke="#000000" cx="122.9564" cy="-226" rx="32.4942" ry="18"/>
<text text-anchor="middle" x="122.9564" y="-222.3" font-family="Times,serif" font-size="14.00" fill="#000000">0.067</text>
</g>
<!-- 202&#45;&gt;196 -->
<g id="edge7" class="edge">
<title>202&#45;&gt;196</title>
<path fill="none" stroke="#000000" d="M91.5156,-230.6974C91.4038,-230.7141 91.292,-230.7308 91.1801,-230.7476"/>
<polygon fill="#000000" stroke="#000000" points="95.4992,-226.5632 86.1262,-231.5026 96.5337,-233.4864 95.4992,-226.5632"/>
</g>
<!-- 29 -->
<g id="node8" class="node">
<title>29</title>
<ellipse fill="none" stroke="#000000" cx="304.4971" cy="-300.6391" rx="32.4942" ry="18"/>
<text text-anchor="middle" x="304.4971" y="-296.9391" font-family="Times,serif" font-size="14.00" fill="#000000">0.067</text>
</g>
<!-- 114 -->
<g id="node10" class="node">
<title>114</title>
<ellipse fill="none" stroke="#000000" cx="375.7067" cy="-290" rx="35.9954" ry="18"/>
<text text-anchor="middle" x="375.7067" y="-286.3" font-family="Times,serif" font-size="14.00" fill="#000000">&#45;0.067</text>
</g>
<!-- 29&#45;&gt;114 -->
<g id="edge8" class="edge">
<title>29&#45;&gt;114</title>
<path fill="none" stroke="#000000" d="M335.938,-295.9417C336.0497,-295.925 336.1616,-295.9083 336.2735,-295.8915"/>
<polygon fill="#000000" stroke="#000000" points="331.9544,-300.0759 341.3274,-295.1365 330.9199,-293.1527 331.9544,-300.0759"/>
</g>
<!-- 69 -->
<g id="node15" class="node">
<title>69</title>
<ellipse fill="none" stroke="#000000" cx="179.674" cy="-162.2215" rx="35.9954" ry="18"/>
<text text-anchor="middle" x="179.674" y="-158.5215" font-family="Times,serif" font-size="14.00" fill="#000000">&#45;0.067</text>
</g>
<!-- 80&#45;&gt;69 -->
<g id="edge9" class="edge">
<title>80&#45;&gt;69</title>
<path fill="none" stroke="#000000" d="M141.2885,-128.1351C145.3852,-131.7729 149.8219,-135.7128 154.1752,-139.5786"/>
<polygon fill="#000000" stroke="#000000" points="152.0284,-142.353 161.8298,-146.3759 156.6764,-137.1188 152.0284,-142.353"/>
</g>
<!-- 95 -->
<g id="node12" class="node">
<title>95</title>
<ellipse fill="none" stroke="#000000" cx="44.6165" cy="-115.4804" rx="32.4942" ry="18"/>
<text text-anchor="middle" x="44.6165" y="-111.7804" font-family="Times,serif" font-size="14.00" fill="#000000">0.133</text>
</g>
<!-- 95&#45;&gt;101 -->
<g id="edge11" class="edge">
<title>95&#45;&gt;101</title>
<path fill="none" stroke="#000000" d="M42.5593,-97.3382C41.4846,-87.8606 40.1455,-76.0506 38.9396,-65.4159"/>
<polygon fill="#000000" stroke="#000000" points="42.3973,-64.8448 37.7928,-55.3029 35.4419,-65.6336 42.3973,-64.8448"/>
</g>
<!-- 95&#45;&gt;80 -->
<g id="edge10" class="edge">
<title>95&#45;&gt;80</title>
<path fill="none" stroke="#000000" d="M77.1657,-114.1923C77.2745,-114.188 77.3834,-114.1837 77.4923,-114.1794"/>
<polygon fill="#000000" stroke="#000000" points="77.8641,-117.6675 87.7179,-113.7747 77.5873,-110.673 77.8641,-117.6675"/>
</g>
</g>
</svg>
