<?xml version="1.0" encoding="UTF-8" standalone="no"?>
<!DOCTYPE svg PUBLIC "-//W3C//DTD SVG 1.1//EN"
 "http://www.w3.org/Graphics/SVG/1.1/DTD/svg11.dtd">
<!-- Generated by graphviz version 2.40.1 (20161225.0304)
 -->
<!-- Pages: 1 -->
<svg width="355pt" height="312pt"
 viewBox="0.00 0.00 355.45 312.48" xmlns="http://www.w3.org/2000/svg" xmlns:xlink="http://www.w3.org/1999/xlink">
<g id="graph0" class="graph" transform="scale(1 1) rotate(0) translate(4 308.4775)">
<polygon fill="#ffffff" stroke="transparent" points="-4,4 -4,-308.4775 351.4536,-308.4775 351.4536,4 -4,4"/>
<!-- 196 -->
<g id="node1" class="node">
<title>196</title>
<ellipse fill="none" stroke="#000000" cx="35.7468" cy="-103.9124" rx="35.9954" ry="18"/>
<text text-anchor="middle" x="35.7468" y="-100.2124" font-family="Times,serif" font-size="14.00" fill="#000000">&#45;0.077</text>
</g>
<!-- 102 -->
<g id="node2" class="node">
<title>102</title>
<ellipse fill="none" stroke="#000000" cx="84.4971" cy="-236.6391" rx="32.4942" ry="18"/>
<text text-anchor="middle" x="84.4971" y="-232.9391" font-family="Times,serif" font-size="14.00" fill="#000000">0.077</text>
</g>
<!-- 115 -->
<g id="node9" class="node">
<title>115</title>
<ellipse fill="none" stroke="#000000" cx="155.7067" cy="-226" rx="35.9954" ry="18"/>
<text text-anchor="middle" x="155.7067" y="-222.3" font-family="Times,serif" font-size="14.00" fill="#000000">&#45;0.077</text>
</g>
<!-- 102&#45;&gt;115 -->
<g id="edge1" class="edge">
<title>102&#45;&gt;115</title>
<path fill="none" stroke="#000000" d="M115.938,-231.9417C116.0497,-231.925 116.1616,-231.9083 116.2735,-231.8915"/>
<polygon fill="#000000" stroke="#000000" points="111.9544,-236.0759 121.3274,-231.1365 110.9199,-229.1527 111.9544,-236.0759"/>
</g>
<!-- 6 -->
<g id="node3" class="node">
<title>6</title>
<ellipse fill="none" stroke="#000000" cx="71.4971" cy="-41.6391" rx="32.4942" ry="18"/>
<text text-anchor="middle" x="71.4971" y="-37.9391" font-family="Times,serif" font-size="14.00" fill="#000000">0.077</text>
</g>
<!-- 15 -->
<g id="node7" class="node">
<title>15</title>
<ellipse fill="none" stroke="#000000" cx="142.7067" cy="-31" rx="35.9954" ry="18"/>
<text text-anchor="middle" x="142.7067" y="-27.3" font-family="Times,serif" font-size="14.00" fill="#000000">&#45;0.077</text>
</g>
<!-- 6&#45;&gt;15 -->
<g id="edge2" class="edge">
<title>6&#45;&gt;15</title>
<path fill="none" stroke="#000000" d="M102.938,-36.9417C103.0497,-36.925 103.1616,-36.9083 103.2735,-36.8915"/>
<polygon fill="#000000" stroke="#000000" points="98.9544,-41.0759 108.3274,-36.1365 97.9199,-34.1527 98.9544,-41.0759"/>
</g>
<!-- 71 -->
<g id="node4" class="node">
<title>71</title>
<ellipse fill="none" stroke="#000000" cx="214.4971" cy="-286.4775" rx="32.4942" ry="18"/>
<text text-anchor="middle" x="214.4971" y="-282.7775" font-family="Times,serif" font-size="14.00" fill="#000000">0.077</text>
</g>
<!-- 80 -->
<g id="node8" class="node">
<title>80</title>
<ellipse fill="none" stroke="#000000" cx="258.5177" cy="-229.1545" rx="35.9954" ry="18"/>
<text text-anchor="middle" x="258.5177" y="-225.4545" font-family="Times,serif" font-size="14.00" fill="#000000">&#45;0.154</text>
</g>
<!-- 71&#45;&gt;80 -->
<g id="edge3" class="edge">
<title>71&#45;&gt;80</title>
<path fill="none" stroke="#000000" d="M227.2297,-269.8973C230.9624,-265.0367 235.1308,-259.6086 239.1771,-254.3396"/>
<polygon fill="#000000" stroke="#000000" points="242.04,-256.358 245.3548,-246.2951 236.4882,-252.0945 242.04,-256.358"/>
</g>
<!-- 202 -->
<g id="node5" class="node">
<title>202</title>
<ellipse fill="none" stroke="#000000" cx="107.5005" cy="-110.8854" rx="32.4942" ry="18"/>
<text text-anchor="middle" x="107.5005" y="-107.1854" font-family="Times,serif" font-size="14.00" fill="#000000">0.154</text>
</g>
<!-- 202&#45;&gt;196 -->
<g id="edge4" class="edge">
<title>202&#45;&gt;196</title>
<path fill="none" stroke="#000000" d="M75.4013,-107.766C75.308,-107.757 75.2147,-107.7479 75.1214,-107.7388"/>
<polygon fill="#000000" stroke="#000000" points="81.1994,-104.8132 70.9077,-107.3293 80.5222,-111.7804 81.1994,-104.8132"/>
</g>
<!-- 191 -->
<g id="node13" class="node">
<title>191</title>
<ellipse fill="none" stroke="#000000" cx="179.7129" cy="-112.4662" rx="35.9954" ry="18"/>
<text text-anchor="middle" x="179.7129" y="-108.7662" font-family="Times,serif" font-size="14.00" fill="#000000">&#45;0.154</text>
</g>
<!-- 202&#45;&gt;191 -->
<g id="edge5" class="edge">
<title>202&#45;&gt;191</title>
<path fill="none" stroke="#000000" d="M140.2262,-111.6018C140.3754,-111.6051 140.5248,-111.6084 140.6742,-111.6116"/>
<polygon fill="#000000" stroke="#000000" points="133.744,-114.9605 143.8183,-111.6805 133.8974,-107.9621 133.744,-114.9605"/>
</g>
<!-- 199 -->
<g id="node6" class="node">
<title>199</title>
<ellipse fill="none" stroke="#000000" cx="250.106" cy="-96" rx="32.4942" ry="18"/>
<text text-anchor="middle" x="250.106" y="-92.3" font-family="Times,serif" font-size="14.00" fill="#000000">0.077</text>
</g>
<!-- 199&#45;&gt;191 -->
<g id="edge6" class="edge">
<title>199&#45;&gt;191</title>
<path fill="none" stroke="#000000" d="M219.8444,-103.0787C219.6861,-103.1158 219.5276,-103.1529 219.3689,-103.19"/>
<polygon fill="#000000" stroke="#000000" points="221.1321,-99.1829 212.1922,-104.8687 222.7266,-105.9989 221.1321,-99.1829"/>
</g>
<!-- 22 -->
<g id="node10" class="node">
<title>22</title>
<ellipse fill="none" stroke="#000000" cx="243.7468" cy="-28.6391" rx="35.9954" ry="18"/>
<text text-anchor="middle" x="243.7468" y="-24.9391" font-family="Times,serif" font-size="14.00" fill="#000000">&#45;0.077</text>
</g>
<!-- 89 -->
<g id="node11" class="node">
<title>89</title>
<ellipse fill="none" stroke="#000000" cx="314.9564" cy="-18" rx="32.4942" ry="18"/>
<text text-anchor="middle" x="314.9564" y="-14.3" font-family="Times,serif" font-size="14.00" fill="#000000">0.077</text>
</g>
<!-- 89&#45;&gt;22 -->
<g id="edge7" class="edge">
<title>89&#45;&gt;22</title>
<path fill="none" stroke="#000000" d="M283.5156,-22.6974C283.4038,-22.7141 283.292,-22.7308 283.1801,-22.7476"/>
<polygon fill="#000000" stroke="#000000" points="287.4992,-18.5632 278.1262,-23.5026 288.5337,-25.4864 287.4992,-18.5632"/>
</g>
<!-- 95 -->
<g id="node12" class="node">
<title>95</title>
<ellipse fill="none" stroke="#000000" cx="282.6222" cy="-161" rx="32.4942" ry="18"/>
<text text-anchor="middle" x="282.6222" y="-157.3" font-family="Times,serif" font-size="14.00" fill="#000000">0.077</text>
</g>
<!-- 95&#45;&gt;80 -->
<g id="edge8" class="edge">
<title>95&#45;&gt;80</title>
<path fill="none" stroke="#000000" d="M276.289,-178.9068C273.8449,-185.8173 270.9924,-193.8828 268.2971,-201.5035"/>
<polygon fill="#000000" stroke="#000000" points="264.9269,-200.5359 264.8922,-211.1307 271.5264,-202.87 264.9269,-200.5359"/>
</g>
</g>
</svg>
