<?xml version="1.0" encoding="UTF-8" standalone="no"?>
<!DOCTYPE svg PUBLIC "-//W3C//DTD SVG 1.1//EN"
 "http://www.w3.org/Graphics/SVG/1.1/DTD/svg11.dtd">
<!-- Generated by graphviz version 2.40.1 (20161225.0304)
 -->
<!-- Pages: 1 -->
<svg width="399pt" height="408pt"
 viewBox="0.00 0.00 399.30 407.63" xmlns="http://www.w3.org/2000/svg" xmlns:xlink="http://www.w3.org/1999/xlink">
<g id="graph0" class="graph" transform="scale(1 1) rotate(0) translate(4 403.6255)">
<polygon fill="#ffffff" stroke="transparent" points="-4,4 -4,-403.6255 395.3005,-403.6255 395.3005,4 -4,4"/>
<!-- 195 -->
<g id="node1" class="node">
<title>195</title>
<ellipse fill="none" stroke="#000000" cx="83.4971" cy="-188.5043" rx="32.4942" ry="18"/>
<text text-anchor="middle" x="83.4971" y="-184.8043" font-family="Times,serif" font-size="14.00" fill="#000000">0.067</text>
</g>
<!-- 191 -->
<g id="node15" class="node">
<title>191</title>
<ellipse fill="none" stroke="#000000" cx="155.4516" cy="-161.7703" rx="35.9954" ry="18"/>
<text text-anchor="middle" x="155.4516" y="-158.0703" font-family="Times,serif" font-size="14.00" fill="#000000">&#45;0.200</text>
</g>
<!-- 195&#45;&gt;191 -->
<g id="edge1" class="edge">
<title>195&#45;&gt;191</title>
<path fill="none" stroke="#000000" d="M110.7,-178.3973C112.6103,-177.6876 114.5557,-176.9648 116.5129,-176.2376"/>
<polygon fill="#000000" stroke="#000000" points="118.1337,-179.3692 126.2887,-172.6055 115.6957,-172.8075 118.1337,-179.3692"/>
</g>
<!-- 102 -->
<g id="node2" class="node">
<title>102</title>
<ellipse fill="none" stroke="#000000" cx="270.4971" cy="-96.6391" rx="32.4942" ry="18"/>
<text text-anchor="middle" x="270.4971" y="-92.9391" font-family="Times,serif" font-size="14.00" fill="#000000">0.067</text>
</g>
<!-- 115 -->
<g id="node8" class="node">
<title>115</title>
<ellipse fill="none" stroke="#000000" cx="341.7067" cy="-86" rx="35.9954" ry="18"/>
<text text-anchor="middle" x="341.7067" y="-82.3" font-family="Times,serif" font-size="14.00" fill="#000000">&#45;0.067</text>
</g>
<!-- 102&#45;&gt;115 -->
<g id="edge2" class="edge">
<title>102&#45;&gt;115</title>
<path fill="none" stroke="#000000" d="M301.938,-91.9417C302.0497,-91.925 302.1616,-91.9083 302.2735,-91.8915"/>
<polygon fill="#000000" stroke="#000000" points="297.9544,-96.0759 307.3274,-91.1365 296.9199,-89.1527 297.9544,-96.0759"/>
</g>
<!-- 71 -->
<g id="node3" class="node">
<title>71</title>
<ellipse fill="none" stroke="#000000" cx="236.4971" cy="-273.8042" rx="32.4942" ry="18"/>
<text text-anchor="middle" x="236.4971" y="-270.1042" font-family="Times,serif" font-size="14.00" fill="#000000">0.067</text>
</g>
<!-- 80 -->
<g id="node7" class="node">
<title>80</title>
<ellipse fill="none" stroke="#000000" cx="312.6864" cy="-283.3403" rx="35.9954" ry="18"/>
<text text-anchor="middle" x="312.6864" y="-279.6403" font-family="Times,serif" font-size="14.00" fill="#000000">&#45;0.200</text>
</g>
<!-- 71&#45;&gt;80 -->
<g id="edge3" class="edge">
<title>71&#45;&gt;80</title>
<path fill="none" stroke="#000000" d="M268.3668,-277.7931C268.4636,-277.8052 268.5605,-277.8173 268.6575,-277.8295"/>
<polygon fill="#000000" stroke="#000000" points="267.3911,-281.1982 277.7484,-278.9673 268.2605,-274.2524 267.3911,-281.1982"/>
</g>
<!-- 169 -->
<g id="node4" class="node">
<title>169</title>
<ellipse fill="none" stroke="#000000" cx="215.0059" cy="-210.1916" rx="32.4942" ry="18"/>
<text text-anchor="middle" x="215.0059" y="-206.4916" font-family="Times,serif" font-size="14.00" fill="#000000">0.067</text>
</g>
<!-- 169&#45;&gt;191 -->
<g id="edge4" class="edge">
<title>169&#45;&gt;191</title>
<path fill="none" stroke="#000000" d="M196.489,-195.1362C192.0266,-191.5081 187.1686,-187.5582 182.4077,-183.6873"/>
<polygon fill="#000000" stroke="#000000" points="184.541,-180.9109 174.574,-177.318 180.125,-186.3423 184.541,-180.9109"/>
</g>
<!-- 202 -->
<g id="node5" class="node">
<title>202</title>
<ellipse fill="none" stroke="#000000" cx="167.9215" cy="-86" rx="32.4942" ry="18"/>
<text text-anchor="middle" x="167.9215" y="-82.3" font-family="Times,serif" font-size="14.00" fill="#000000">0.067</text>
</g>
<!-- 202&#45;&gt;191 -->
<g id="edge5" class="edge">
<title>202&#45;&gt;191</title>
<path fill="none" stroke="#000000" d="M164.9663,-103.9565C163.5017,-112.856 161.6995,-123.8065 160.0589,-133.7748"/>
<polygon fill="#000000" stroke="#000000" points="156.5992,-133.2444 158.4288,-143.6801 163.5063,-134.3812 156.5992,-133.2444"/>
</g>
<!-- 199 -->
<g id="node6" class="node">
<title>199</title>
<ellipse fill="none" stroke="#000000" cx="144.7039" cy="-324.2063" rx="32.4942" ry="18"/>
<text text-anchor="middle" x="144.7039" y="-320.5063" font-family="Times,serif" font-size="14.00" fill="#000000">0.133</text>
</g>
<!-- 188 -->
<g id="node13" class="node">
<title>188</title>
<ellipse fill="none" stroke="#000000" cx="188.5991" cy="-381.6255" rx="35.9954" ry="18"/>
<text text-anchor="middle" x="188.5991" y="-377.9255" font-family="Times,serif" font-size="14.00" fill="#000000">&#45;0.067</text>
</g>
<!-- 199&#45;&gt;188 -->
<g id="edge6" class="edge">
<title>199&#45;&gt;188</title>
<path fill="none" stroke="#000000" d="M157.4002,-340.8143C161.1222,-345.6831 165.2788,-351.1203 169.3136,-356.3982"/>
<polygon fill="#000000" stroke="#000000" points="166.6197,-358.6373 175.4737,-364.4562 172.1809,-354.386 166.6197,-358.6373"/>
</g>
<!-- 189 -->
<g id="node14" class="node">
<title>189</title>
<ellipse fill="none" stroke="#000000" cx="120.7468" cy="-256" rx="35.9954" ry="18"/>
<text text-anchor="middle" x="120.7468" y="-252.3" font-family="Times,serif" font-size="14.00" fill="#000000">&#45;0.067</text>
</g>
<!-- 199&#45;&gt;189 -->
<g id="edge7" class="edge">
<title>199&#45;&gt;189</title>
<path fill="none" stroke="#000000" d="M138.4094,-306.2859C135.9803,-299.3701 133.1452,-291.2985 130.4665,-283.6721"/>
<polygon fill="#000000" stroke="#000000" points="133.6986,-282.3126 127.0824,-274.0375 127.0942,-284.6324 133.6986,-282.3126"/>
</g>
<!-- 22 -->
<g id="node9" class="node">
<title>22</title>
<ellipse fill="none" stroke="#000000" cx="35.7468" cy="-28.6391" rx="35.9954" ry="18"/>
<text text-anchor="middle" x="35.7468" y="-24.9391" font-family="Times,serif" font-size="14.00" fill="#000000">&#45;0.067</text>
</g>
<!-- 73 -->
<g id="node10" class="node">
<title>73</title>
<ellipse fill="none" stroke="#000000" cx="358.8034" cy="-222" rx="32.4942" ry="18"/>
<text text-anchor="middle" x="358.8034" y="-218.3" font-family="Times,serif" font-size="14.00" fill="#000000">0.067</text>
</g>
<!-- 73&#45;&gt;80 -->
<g id="edge8" class="edge">
<title>73&#45;&gt;80</title>
<path fill="none" stroke="#000000" d="M346.2017,-238.7615C341.7014,-244.7474 336.5268,-251.6301 331.6113,-258.1682"/>
<polygon fill="#000000" stroke="#000000" points="328.8057,-256.0758 325.5939,-266.172 334.4008,-260.2823 328.8057,-256.0758"/>
</g>
<!-- 89 -->
<g id="node11" class="node">
<title>89</title>
<ellipse fill="none" stroke="#000000" cx="106.9564" cy="-18" rx="32.4942" ry="18"/>
<text text-anchor="middle" x="106.9564" y="-14.3" font-family="Times,serif" font-size="14.00" fill="#000000">0.067</text>
</g>
<!-- 89&#45;&gt;22 -->
<g id="edge9" class="edge">
<title>89&#45;&gt;22</title>
<path fill="none" stroke="#000000" d="M75.5156,-22.6974C75.4038,-22.7141 75.292,-22.7308 75.1801,-22.7476"/>
<polygon fill="#000000" stroke="#000000" points="79.4992,-18.5632 70.1262,-23.5026 80.5337,-25.4864 79.4992,-18.5632"/>
</g>
<!-- 95 -->
<g id="node12" class="node">
<title>95</title>
<ellipse fill="none" stroke="#000000" cx="342.2116" cy="-354.1815" rx="32.4942" ry="18"/>
<text text-anchor="middle" x="342.2116" y="-350.4815" font-family="Times,serif" font-size="14.00" fill="#000000">0.067</text>
</g>
<!-- 95&#45;&gt;80 -->
<g id="edge10" class="edge">
<title>95&#45;&gt;80</title>
<path fill="none" stroke="#000000" d="M334.7611,-336.3053C331.4843,-328.4432 327.5646,-319.0382 323.9434,-310.3499"/>
<polygon fill="#000000" stroke="#000000" points="327.1099,-308.8493 320.0322,-300.9654 320.6486,-311.5423 327.1099,-308.8493"/>
</g>
</g>
</svg>
