<?xml version="1.0" encoding="UTF-8" standalone="no"?>
<!DOCTYPE svg PUBLIC "-//W3C//DTD SVG 1.1//EN"
 "http://www.w3.org/Graphics/SVG/1.1/DTD/svg11.dtd">
<!-- Generated by graphviz version 2.40.1 (20161225.0304)
 -->
<!-- Pages: 1 -->
<svg width="489pt" height="482pt"
 viewBox="0.00 0.00 489.45 481.70" xmlns="http://www.w3.org/2000/svg" xmlns:xlink="http://www.w3.org/1999/xlink">
<g id="graph0" class="graph" transform="scale(1 1) rotate(0) translate(4 477.7004)">
<polygon fill="#ffffff" stroke="transparent" points="-4,4 -4,-477.7004 485.4536,-477.7004 485.4536,4 -4,4"/>
<!-- 35 -->
<g id="node1" class="node">
<title>35</title>
<ellipse fill="none" stroke="#000000" cx="197.7468" cy="-100.6391" rx="35.9954" ry="18"/>
<text text-anchor="middle" x="197.7468" y="-96.9391" font-family="Times,serif" font-size="14.00" fill="#000000">&#45;0.050</text>
</g>
<!-- 196 -->
<g id="node2" class="node">
<title>196</title>
<ellipse fill="none" stroke="#000000" cx="35.7468" cy="-108" rx="35.9954" ry="18"/>
<text text-anchor="middle" x="35.7468" y="-104.3" font-family="Times,serif" font-size="14.00" fill="#000000">&#45;0.050</text>
</g>
<!-- 101 -->
<g id="node3" class="node">
<title>101</title>
<ellipse fill="none" stroke="#000000" cx="439.1371" cy="-254.0856" rx="35.9954" ry="18"/>
<text text-anchor="middle" x="439.1371" y="-250.3856" font-family="Times,serif" font-size="14.00" fill="#000000">&#45;0.100</text>
</g>
<!-- 102 -->
<g id="node4" class="node">
<title>102</title>
<ellipse fill="none" stroke="#000000" cx="86.4971" cy="-352.6391" rx="32.4942" ry="18"/>
<text text-anchor="middle" x="86.4971" y="-348.9391" font-family="Times,serif" font-size="14.00" fill="#000000">0.050</text>
</g>
<!-- 115 -->
<g id="node11" class="node">
<title>115</title>
<ellipse fill="none" stroke="#000000" cx="157.7067" cy="-342" rx="35.9954" ry="18"/>
<text text-anchor="middle" x="157.7067" y="-338.3" font-family="Times,serif" font-size="14.00" fill="#000000">&#45;0.050</text>
</g>
<!-- 102&#45;&gt;115 -->
<g id="edge1" class="edge">
<title>102&#45;&gt;115</title>
<path fill="none" stroke="#000000" d="M117.938,-347.9417C118.0497,-347.925 118.1616,-347.9083 118.2735,-347.8915"/>
<polygon fill="#000000" stroke="#000000" points="113.9544,-352.0759 123.3274,-347.1365 112.9199,-345.1527 113.9544,-352.0759"/>
</g>
<!-- 199 -->
<g id="node5" class="node">
<title>199</title>
<ellipse fill="none" stroke="#000000" cx="299.6286" cy="-395.712" rx="32.4942" ry="18"/>
<text text-anchor="middle" x="299.6286" y="-392.012" font-family="Times,serif" font-size="14.00" fill="#000000">0.150</text>
</g>
<!-- 186 -->
<g id="node16" class="node">
<title>186</title>
<ellipse fill="none" stroke="#000000" cx="375.5097" cy="-407.4894" rx="35.9954" ry="18"/>
<text text-anchor="middle" x="375.5097" y="-403.7894" font-family="Times,serif" font-size="14.00" fill="#000000">&#45;0.050</text>
</g>
<!-- 199&#45;&gt;186 -->
<g id="edge2" class="edge">
<title>199&#45;&gt;186</title>
<path fill="none" stroke="#000000" d="M330.9304,-400.5703C331.0376,-400.5869 331.1448,-400.6036 331.2521,-400.6202"/>
<polygon fill="#000000" stroke="#000000" points="330.907,-404.1085 341.3255,-402.1837 331.9807,-397.1913 330.907,-404.1085"/>
</g>
<!-- 188 -->
<g id="node18" class="node">
<title>188</title>
<ellipse fill="none" stroke="#000000" cx="272.252" cy="-324" rx="35.9954" ry="18"/>
<text text-anchor="middle" x="272.252" y="-320.3" font-family="Times,serif" font-size="14.00" fill="#000000">&#45;0.050</text>
</g>
<!-- 199&#45;&gt;188 -->
<g id="edge3" class="edge">
<title>199&#45;&gt;188</title>
<path fill="none" stroke="#000000" d="M292.8613,-377.9854C289.8242,-370.0297 286.1701,-360.4581 282.7877,-351.5979"/>
<polygon fill="#000000" stroke="#000000" points="285.968,-350.1148 279.1316,-342.0207 279.4283,-352.6114 285.968,-350.1148"/>
</g>
<!-- 189 -->
<g id="node19" class="node">
<title>189</title>
<ellipse fill="none" stroke="#000000" cx="251.7468" cy="-455.7004" rx="35.9954" ry="18"/>
<text text-anchor="middle" x="251.7468" y="-452.0004" font-family="Times,serif" font-size="14.00" fill="#000000">&#45;0.050</text>
</g>
<!-- 199&#45;&gt;189 -->
<g id="edge4" class="edge">
<title>199&#45;&gt;189</title>
<path fill="none" stroke="#000000" d="M286.2908,-412.4221C281.8011,-418.047 276.688,-424.453 271.7974,-430.5802"/>
<polygon fill="#000000" stroke="#000000" points="268.8486,-428.664 265.3457,-438.663 274.3195,-433.0308 268.8486,-428.664"/>
</g>
<!-- 169 -->
<g id="node6" class="node">
<title>169</title>
<ellipse fill="none" stroke="#000000" cx="227.3869" cy="-177.9513" rx="32.4942" ry="18"/>
<text text-anchor="middle" x="227.3869" y="-174.2513" font-family="Times,serif" font-size="14.00" fill="#000000">0.050</text>
</g>
<!-- 191 -->
<g id="node20" class="node">
<title>191</title>
<ellipse fill="none" stroke="#000000" cx="153.2042" cy="-201.2798" rx="35.9954" ry="18"/>
<text text-anchor="middle" x="153.2042" y="-197.5798" font-family="Times,serif" font-size="14.00" fill="#000000">&#45;0.150</text>
</g>
<!-- 169&#45;&gt;191 -->
<g id="edge5" class="edge">
<title>169&#45;&gt;191</title>
<path fill="none" stroke="#000000" d="M198.9181,-186.9039C197.2327,-187.434 195.5221,-187.9719 193.8014,-188.513"/>
<polygon fill="#000000" stroke="#000000" points="192.4289,-185.2756 183.9395,-191.6143 194.5289,-191.9532 192.4289,-185.2756"/>
</g>
<!-- 202 -->
<g id="node7" class="node">
<title>202</title>
<ellipse fill="none" stroke="#000000" cx="94.2165" cy="-152.1346" rx="32.4942" ry="18"/>
<text text-anchor="middle" x="94.2165" y="-148.4346" font-family="Times,serif" font-size="14.00" fill="#000000">0.100</text>
</g>
<!-- 202&#45;&gt;196 -->
<g id="edge6" class="edge">
<title>202&#45;&gt;196</title>
<path fill="none" stroke="#000000" d="M74.747,-137.4384C71.2131,-134.771 67.4642,-131.9412 63.7422,-129.1317"/>
<polygon fill="#000000" stroke="#000000" points="65.8209,-126.3156 55.7308,-123.0844 61.6036,-131.9026 65.8209,-126.3156"/>
</g>
<!-- 202&#45;&gt;191 -->
<g id="edge7" class="edge">
<title>202&#45;&gt;191</title>
<path fill="none" stroke="#000000" d="M112.2353,-167.1468C116.75,-170.9082 121.6896,-175.0236 126.5273,-179.0541"/>
<polygon fill="#000000" stroke="#000000" points="124.5561,-181.9673 134.4794,-185.6793 129.0368,-176.5892 124.5561,-181.9673"/>
</g>
<!-- 71 -->
<g id="node8" class="node">
<title>71</title>
<ellipse fill="none" stroke="#000000" cx="383.8115" cy="-198" rx="32.4942" ry="18"/>
<text text-anchor="middle" x="383.8115" y="-194.3" font-family="Times,serif" font-size="14.00" fill="#000000">0.100</text>
</g>
<!-- 71&#45;&gt;101 -->
<g id="edge9" class="edge">
<title>71&#45;&gt;101</title>
<path fill="none" stroke="#000000" d="M399.5176,-213.9219C404.6131,-219.0873 410.3788,-224.9322 415.9026,-230.532"/>
<polygon fill="#000000" stroke="#000000" points="413.6852,-233.2679 423.1996,-237.9291 418.6686,-228.352 413.6852,-233.2679"/>
</g>
<!-- 80 -->
<g id="node10" class="node">
<title>80</title>
<ellipse fill="none" stroke="#000000" cx="323.563" cy="-248.8621" rx="35.9954" ry="18"/>
<text text-anchor="middle" x="323.563" y="-245.1621" font-family="Times,serif" font-size="14.00" fill="#000000">&#45;0.150</text>
</g>
<!-- 71&#45;&gt;80 -->
<g id="edge8" class="edge">
<title>71&#45;&gt;80</title>
<path fill="none" stroke="#000000" d="M365.7349,-213.2603C360.7047,-217.5068 355.1379,-222.2064 349.7428,-226.7609"/>
<polygon fill="#000000" stroke="#000000" points="347.4273,-224.1353 342.0438,-233.2605 351.9428,-229.4841 347.4273,-224.1353"/>
</g>
<!-- 77 -->
<g id="node9" class="node">
<title>77</title>
<ellipse fill="none" stroke="#000000" cx="268.9564" cy="-90" rx="32.4942" ry="18"/>
<text text-anchor="middle" x="268.9564" y="-86.3" font-family="Times,serif" font-size="14.00" fill="#000000">0.050</text>
</g>
<!-- 77&#45;&gt;35 -->
<g id="edge10" class="edge">
<title>77&#45;&gt;35</title>
<path fill="none" stroke="#000000" d="M237.5156,-94.6974C237.4038,-94.7141 237.292,-94.7308 237.1801,-94.7476"/>
<polygon fill="#000000" stroke="#000000" points="241.4992,-90.5632 232.1262,-95.5026 242.5337,-97.4864 241.4992,-90.5632"/>
</g>
<!-- 195 -->
<g id="node12" class="node">
<title>195</title>
<ellipse fill="none" stroke="#000000" cx="144.4095" cy="-278.5611" rx="32.4942" ry="18"/>
<text text-anchor="middle" x="144.4095" y="-274.8611" font-family="Times,serif" font-size="14.00" fill="#000000">0.050</text>
</g>
<!-- 195&#45;&gt;191 -->
<g id="edge11" class="edge">
<title>195&#45;&gt;191</title>
<path fill="none" stroke="#000000" d="M146.4937,-260.2465C147.5342,-251.1033 148.8163,-239.8375 149.9801,-229.6111"/>
<polygon fill="#000000" stroke="#000000" points="153.4817,-229.7945 151.135,-219.4629 146.5266,-229.003 153.4817,-229.7945"/>
</g>
<!-- 22 -->
<g id="node13" class="node">
<title>22</title>
<ellipse fill="none" stroke="#000000" cx="377.7468" cy="-28.6391" rx="35.9954" ry="18"/>
<text text-anchor="middle" x="377.7468" y="-24.9391" font-family="Times,serif" font-size="14.00" fill="#000000">&#45;0.050</text>
</g>
<!-- 73 -->
<g id="node14" class="node">
<title>73</title>
<ellipse fill="none" stroke="#000000" cx="248.4971" cy="-247.468" rx="32.4942" ry="18"/>
<text text-anchor="middle" x="248.4971" y="-243.768" font-family="Times,serif" font-size="14.00" fill="#000000">0.050</text>
</g>
<!-- 73&#45;&gt;80 -->
<g id="edge12" class="edge">
<title>73&#45;&gt;80</title>
<path fill="none" stroke="#000000" d="M281.2037,-248.0754C281.3321,-248.0778 281.4606,-248.0802 281.5892,-248.0826"/>
<polygon fill="#000000" stroke="#000000" points="277.3375,-251.504 287.4008,-248.1905 277.4676,-244.5052 277.3375,-251.504"/>
</g>
<!-- 89 -->
<g id="node15" class="node">
<title>89</title>
<ellipse fill="none" stroke="#000000" cx="448.9564" cy="-18" rx="32.4942" ry="18"/>
<text text-anchor="middle" x="448.9564" y="-14.3" font-family="Times,serif" font-size="14.00" fill="#000000">0.050</text>
</g>
<!-- 89&#45;&gt;22 -->
<g id="edge13" class="edge">
<title>89&#45;&gt;22</title>
<path fill="none" stroke="#000000" d="M417.5156,-22.6974C417.4038,-22.7141 417.292,-22.7308 417.1801,-22.7476"/>
<polygon fill="#000000" stroke="#000000" points="421.4992,-18.5632 412.1262,-23.5026 422.5337,-25.4864 421.4992,-18.5632"/>
</g>
<!-- 95 -->
<g id="node17" class="node">
<title>95</title>
<ellipse fill="none" stroke="#000000" cx="379.1252" cy="-304.9975" rx="32.4942" ry="18"/>
<text text-anchor="middle" x="379.1252" y="-301.2975" font-family="Times,serif" font-size="14.00" fill="#000000">0.100</text>
</g>
<!-- 95&#45;&gt;101 -->
<g id="edge15" class="edge">
<title>95&#45;&gt;101</title>
<path fill="none" stroke="#000000" d="M397.1308,-289.7223C402.1412,-285.4716 407.6862,-280.7674 413.0601,-276.2084"/>
<polygon fill="#000000" stroke="#000000" points="415.3675,-278.8407 420.7288,-269.7025 410.839,-273.5028 415.3675,-278.8407"/>
</g>
<!-- 95&#45;&gt;80 -->
<g id="edge14" class="edge">
<title>95&#45;&gt;80</title>
<path fill="none" stroke="#000000" d="M363.3519,-289.0615C358.2347,-283.8915 352.4443,-278.0413 346.8968,-272.4366"/>
<polygon fill="#000000" stroke="#000000" points="349.0909,-269.678 339.5687,-265.0329 344.1158,-274.6023 349.0909,-269.678"/>
</g>
</g>
</svg>
