<?xml version="1.0" encoding="UTF-8" standalone="no"?>
<!DOCTYPE svg PUBLIC "-//W3C//DTD SVG 1.1//EN"
 "http://www.w3.org/Graphics/SVG/1.1/DTD/svg11.dtd">
<!-- Generated by graphviz version 2.40.1 (20161225.0304)
 -->
<!-- Pages: 1 -->
<svg width="525pt" height="412pt"
 viewBox="0.00 0.00 525.45 411.64" xmlns="http://www.w3.org/2000/svg" xmlns:xlink="http://www.w3.org/1999/xlink">
<g id="graph0" class="graph" transform="scale(1 1) rotate(0) translate(4 407.6391)">
<polygon fill="#ffffff" stroke="transparent" points="-4,4 -4,-407.6391 521.4536,-407.6391 521.4536,4 -4,4"/>
<!-- 35 -->
<g id="node1" class="node">
<title>35</title>
<ellipse fill="none" stroke="#000000" cx="308.7468" cy="-49.6391" rx="35.9954" ry="18"/>
<text text-anchor="middle" x="308.7468" y="-45.9391" font-family="Times,serif" font-size="14.00" fill="#000000">&#45;0.048</text>
</g>
<!-- 195 -->
<g id="node2" class="node">
<title>195</title>
<ellipse fill="none" stroke="#000000" cx="193.8501" cy="-65.6409" rx="32.4942" ry="18"/>
<text text-anchor="middle" x="193.8501" y="-61.9409" font-family="Times,serif" font-size="14.00" fill="#000000">0.000</text>
</g>
<!-- 191 -->
<g id="node18" class="node">
<title>191</title>
<ellipse fill="none" stroke="#000000" cx="246.4472" cy="-126.2667" rx="35.9954" ry="18"/>
<text text-anchor="middle" x="246.4472" y="-122.5667" font-family="Times,serif" font-size="14.00" fill="#000000">&#45;0.143</text>
</g>
<!-- 195&#45;&gt;191 -->
<g id="edge1" class="edge">
<title>195&#45;&gt;191</title>
<path fill="none" stroke="#000000" d="M207.9452,-81.8875C213.2818,-88.0387 219.4798,-95.1828 225.323,-101.9179"/>
<polygon fill="#000000" stroke="#000000" points="222.7495,-104.2926 231.9465,-109.5525 228.037,-99.7053 222.7495,-104.2926"/>
</g>
<!-- 196 -->
<g id="node3" class="node">
<title>196</title>
<ellipse fill="none" stroke="#000000" cx="135.9694" cy="-230.9634" rx="35.9954" ry="18"/>
<text text-anchor="middle" x="135.9694" y="-227.2634" font-family="Times,serif" font-size="14.00" fill="#000000">&#45;0.143</text>
</g>
<!-- 101 -->
<g id="node4" class="node">
<title>101</title>
<ellipse fill="none" stroke="#000000" cx="245.7468" cy="-233.6391" rx="35.9954" ry="18"/>
<text text-anchor="middle" x="245.7468" y="-229.9391" font-family="Times,serif" font-size="14.00" fill="#000000">&#45;0.095</text>
</g>
<!-- 102 -->
<g id="node5" class="node">
<title>102</title>
<ellipse fill="none" stroke="#000000" cx="410.4971" cy="-385.6391" rx="32.4942" ry="18"/>
<text text-anchor="middle" x="410.4971" y="-381.9391" font-family="Times,serif" font-size="14.00" fill="#000000">0.048</text>
</g>
<!-- 115 -->
<g id="node12" class="node">
<title>115</title>
<ellipse fill="none" stroke="#000000" cx="481.7067" cy="-375" rx="35.9954" ry="18"/>
<text text-anchor="middle" x="481.7067" y="-371.3" font-family="Times,serif" font-size="14.00" fill="#000000">&#45;0.048</text>
</g>
<!-- 102&#45;&gt;115 -->
<g id="edge2" class="edge">
<title>102&#45;&gt;115</title>
<path fill="none" stroke="#000000" d="M441.938,-380.9417C442.0497,-380.925 442.1616,-380.9083 442.2735,-380.8915"/>
<polygon fill="#000000" stroke="#000000" points="437.9544,-385.0759 447.3274,-380.1365 436.9199,-378.1527 437.9544,-385.0759"/>
</g>
<!-- 199 -->
<g id="node6" class="node">
<title>199</title>
<ellipse fill="none" stroke="#000000" cx="115.4267" cy="-98.3276" rx="32.4942" ry="18"/>
<text text-anchor="middle" x="115.4267" y="-94.6276" font-family="Times,serif" font-size="14.00" fill="#000000">0.238</text>
</g>
<!-- 199&#45;&gt;195 -->
<g id="edge5" class="edge">
<title>199&#45;&gt;195</title>
<path fill="none" stroke="#000000" d="M141.5406,-87.4434C146.9641,-85.1829 152.7652,-82.765 158.458,-80.3923"/>
<polygon fill="#000000" stroke="#000000" points="159.9665,-83.5555 167.8503,-76.4776 157.2734,-77.0942 159.9665,-83.5555"/>
</g>
<!-- 202 -->
<g id="node8" class="node">
<title>202</title>
<ellipse fill="none" stroke="#000000" cx="173.7255" cy="-160.2116" rx="32.4942" ry="18"/>
<text text-anchor="middle" x="173.7255" y="-156.5116" font-family="Times,serif" font-size="14.00" fill="#000000">0.048</text>
</g>
<!-- 199&#45;&gt;202 -->
<g id="edge3" class="edge">
<title>199&#45;&gt;202</title>
<path fill="none" stroke="#000000" d="M130.744,-114.5869C136.9873,-121.2141 144.3327,-129.0112 151.1678,-136.2667"/>
<polygon fill="#000000" stroke="#000000" points="148.9034,-138.9672 158.3081,-143.846 153.9985,-134.1673 148.9034,-138.9672"/>
</g>
<!-- 186 -->
<g id="node17" class="node">
<title>186</title>
<ellipse fill="none" stroke="#000000" cx="98.8847" cy="-18" rx="35.9954" ry="18"/>
<text text-anchor="middle" x="98.8847" y="-14.3" font-family="Times,serif" font-size="14.00" fill="#000000">&#45;0.048</text>
</g>
<!-- 199&#45;&gt;186 -->
<g id="edge4" class="edge">
<title>199&#45;&gt;186</title>
<path fill="none" stroke="#000000" d="M111.6731,-80.1C109.6004,-70.035 106.9817,-57.3188 104.6546,-46.0185"/>
<polygon fill="#000000" stroke="#000000" points="108.0686,-45.2439 102.6235,-36.1554 101.2125,-46.6559 108.0686,-45.2439"/>
</g>
<!-- 188 -->
<g id="node19" class="node">
<title>188</title>
<ellipse fill="none" stroke="#000000" cx="35.7468" cy="-78.5241" rx="35.9954" ry="18"/>
<text text-anchor="middle" x="35.7468" y="-74.8241" font-family="Times,serif" font-size="14.00" fill="#000000">&#45;0.048</text>
</g>
<!-- 199&#45;&gt;188 -->
<g id="edge6" class="edge">
<title>199&#45;&gt;188</title>
<path fill="none" stroke="#000000" d="M85.7569,-90.9535C83.1104,-90.2957 80.3997,-89.622 77.676,-88.9451"/>
<polygon fill="#000000" stroke="#000000" points="78.3961,-85.5176 67.8471,-86.5022 76.7076,-92.311 78.3961,-85.5176"/>
</g>
<!-- 189 -->
<g id="node20" class="node">
<title>189</title>
<ellipse fill="none" stroke="#000000" cx="78.5337" cy="-174.8439" rx="32.4942" ry="18"/>
<text text-anchor="middle" x="78.5337" y="-171.1439" font-family="Times,serif" font-size="14.00" fill="#000000">0.000</text>
</g>
<!-- 199&#45;&gt;189 -->
<g id="edge7" class="edge">
<title>199&#45;&gt;189</title>
<path fill="none" stroke="#000000" d="M106.87,-116.0743C102.3067,-125.5385 96.5971,-137.3803 91.5011,-147.9495"/>
<polygon fill="#000000" stroke="#000000" points="88.2345,-146.6657 87.044,-157.1935 94.5399,-149.7059 88.2345,-146.6657"/>
</g>
<!-- 73 -->
<g id="node7" class="node">
<title>73</title>
<ellipse fill="none" stroke="#000000" cx="421.9726" cy="-306.6886" rx="32.4942" ry="18"/>
<text text-anchor="middle" x="421.9726" y="-302.9886" font-family="Times,serif" font-size="14.00" fill="#000000">0.048</text>
</g>
<!-- 80 -->
<g id="node11" class="node">
<title>80</title>
<ellipse fill="none" stroke="#000000" cx="352.1744" cy="-279.039" rx="35.9954" ry="18"/>
<text text-anchor="middle" x="352.1744" y="-275.339" font-family="Times,serif" font-size="14.00" fill="#000000">&#45;0.143</text>
</g>
<!-- 73&#45;&gt;80 -->
<g id="edge8" class="edge">
<title>73&#45;&gt;80</title>
<path fill="none" stroke="#000000" d="M395.1864,-296.0776C393.5477,-295.4285 391.8838,-294.7693 390.2101,-294.1063"/>
<polygon fill="#000000" stroke="#000000" points="391.2131,-290.7391 380.6269,-290.3101 388.635,-297.247 391.2131,-290.7391"/>
</g>
<!-- 202&#45;&gt;196 -->
<g id="edge9" class="edge">
<title>202&#45;&gt;196</title>
<path fill="none" stroke="#000000" d="M164.3925,-177.7008C160.1138,-185.7188 154.9473,-195.4004 150.1992,-204.298"/>
<polygon fill="#000000" stroke="#000000" points="147.0775,-202.7137 145.4573,-213.184 153.2532,-206.0094 147.0775,-202.7137"/>
</g>
<!-- 202&#45;&gt;191 -->
<g id="edge10" class="edge">
<title>202&#45;&gt;191</title>
<path fill="none" stroke="#000000" d="M198.7522,-148.5297C202.6348,-146.7174 206.7089,-144.8157 210.7717,-142.9193"/>
<polygon fill="#000000" stroke="#000000" points="212.5541,-145.9498 220.1352,-138.5486 209.5933,-139.6068 212.5541,-145.9498"/>
</g>
<!-- 71 -->
<g id="node9" class="node">
<title>71</title>
<ellipse fill="none" stroke="#000000" cx="319.8038" cy="-207" rx="32.4942" ry="18"/>
<text text-anchor="middle" x="319.8038" y="-203.3" font-family="Times,serif" font-size="14.00" fill="#000000">0.095</text>
</g>
<!-- 71&#45;&gt;101 -->
<g id="edge12" class="edge">
<title>71&#45;&gt;101</title>
<path fill="none" stroke="#000000" d="M292.2277,-216.9194C289.7809,-217.7996 287.275,-218.701 284.7568,-219.6068"/>
<polygon fill="#000000" stroke="#000000" points="283.3076,-216.4085 275.0826,-223.0867 285.677,-222.9953 283.3076,-216.4085"/>
</g>
<!-- 71&#45;&gt;80 -->
<g id="edge11" class="edge">
<title>71&#45;&gt;80</title>
<path fill="none" stroke="#000000" d="M327.8055,-224.8074C331.5295,-233.095 336.0379,-243.1281 340.1592,-252.2998"/>
<polygon fill="#000000" stroke="#000000" points="336.9735,-253.7496 344.2647,-261.4365 343.3585,-250.8804 336.9735,-253.7496"/>
</g>
<!-- 77 -->
<g id="node10" class="node">
<title>77</title>
<ellipse fill="none" stroke="#000000" cx="379.9564" cy="-39" rx="32.4942" ry="18"/>
<text text-anchor="middle" x="379.9564" y="-35.3" font-family="Times,serif" font-size="14.00" fill="#000000">0.048</text>
</g>
<!-- 77&#45;&gt;35 -->
<g id="edge13" class="edge">
<title>77&#45;&gt;35</title>
<path fill="none" stroke="#000000" d="M348.5156,-43.6974C348.4038,-43.7141 348.292,-43.7308 348.1801,-43.7476"/>
<polygon fill="#000000" stroke="#000000" points="352.4992,-39.5632 343.1262,-44.5026 353.5337,-46.4864 352.4992,-39.5632"/>
</g>
<!-- 22 -->
<g id="node13" class="node">
<title>22</title>
<ellipse fill="none" stroke="#000000" cx="224.7468" cy="-385.6391" rx="35.9954" ry="18"/>
<text text-anchor="middle" x="224.7468" y="-381.9391" font-family="Times,serif" font-size="14.00" fill="#000000">&#45;0.048</text>
</g>
<!-- 169 -->
<g id="node14" class="node">
<title>169</title>
<ellipse fill="none" stroke="#000000" cx="322.9211" cy="-128.1591" rx="32.4942" ry="18"/>
<text text-anchor="middle" x="322.9211" y="-124.4591" font-family="Times,serif" font-size="14.00" fill="#000000">0.048</text>
</g>
<!-- 169&#45;&gt;191 -->
<g id="edge14" class="edge">
<title>169&#45;&gt;191</title>
<path fill="none" stroke="#000000" d="M290.0455,-127.3456C289.8835,-127.3416 289.7215,-127.3375 289.5593,-127.3335"/>
<polygon fill="#000000" stroke="#000000" points="292.3048,-123.9005 282.2212,-127.1519 292.1315,-130.8984 292.3048,-123.9005"/>
</g>
<!-- 184 -->
<g id="node15" class="node">
<title>184</title>
<ellipse fill="none" stroke="#000000" cx="130.001" cy="-307.2354" rx="32.4942" ry="18"/>
<text text-anchor="middle" x="130.001" y="-303.5354" font-family="Times,serif" font-size="14.00" fill="#000000">0.048</text>
</g>
<!-- 184&#45;&gt;196 -->
<g id="edge15" class="edge">
<title>184&#45;&gt;196</title>
<path fill="none" stroke="#000000" d="M131.4155,-289.16C132.1165,-280.2016 132.979,-269.1786 133.7642,-259.1443"/>
<polygon fill="#000000" stroke="#000000" points="137.2536,-259.416 134.5445,-249.1734 130.2749,-258.8698 137.2536,-259.416"/>
</g>
<!-- 89 -->
<g id="node16" class="node">
<title>89</title>
<ellipse fill="none" stroke="#000000" cx="295.9564" cy="-375" rx="32.4942" ry="18"/>
<text text-anchor="middle" x="295.9564" y="-371.3" font-family="Times,serif" font-size="14.00" fill="#000000">0.048</text>
</g>
<!-- 89&#45;&gt;22 -->
<g id="edge16" class="edge">
<title>89&#45;&gt;22</title>
<path fill="none" stroke="#000000" d="M264.5156,-379.6974C264.4038,-379.7141 264.292,-379.7308 264.1801,-379.7476"/>
<polygon fill="#000000" stroke="#000000" points="268.4992,-375.5632 259.1262,-380.5026 269.5337,-382.4864 268.4992,-375.5632"/>
</g>
<!-- 189&#45;&gt;196 -->
<g id="edge17" class="edge">
<title>189&#45;&gt;196</title>
<path fill="none" stroke="#000000" d="M94.8388,-190.7754C100.2489,-196.0615 106.3867,-202.0586 112.2394,-207.7772"/>
<polygon fill="#000000" stroke="#000000" points="109.8255,-210.312 119.4241,-214.7972 114.7175,-205.3051 109.8255,-210.312"/>
</g>
<!-- 95 -->
<g id="node21" class="node">
<title>95</title>
<ellipse fill="none" stroke="#000000" cx="277.9141" cy="-305.5494" rx="32.4942" ry="18"/>
<text text-anchor="middle" x="277.9141" y="-301.8494" font-family="Times,serif" font-size="14.00" fill="#000000">0.095</text>
</g>
<!-- 95&#45;&gt;101 -->
<g id="edge19" class="edge">
<title>95&#45;&gt;101</title>
<path fill="none" stroke="#000000" d="M269.9626,-287.7738C266.301,-279.5881 261.8762,-269.6965 257.8161,-260.62"/>
<polygon fill="#000000" stroke="#000000" points="260.8851,-258.9094 253.6068,-251.2102 254.4953,-261.7678 260.8851,-258.9094"/>
</g>
<!-- 95&#45;&gt;80 -->
<g id="edge18" class="edge">
<title>95&#45;&gt;80</title>
<path fill="none" stroke="#000000" d="M305.5659,-295.6779C308.1071,-294.7707 310.7118,-293.8409 313.3279,-292.9069"/>
<polygon fill="#000000" stroke="#000000" points="314.517,-296.1988 322.7581,-289.5404 312.1635,-289.6063 314.517,-296.1988"/>
</g>
</g>
</svg>
