<?xml version="1.0" encoding="UTF-8" standalone="no"?>
<!DOCTYPE svg PUBLIC "-//W3C//DTD SVG 1.1//EN"
 "http://www.w3.org/Graphics/SVG/1.1/DTD/svg11.dtd">
<!-- Generated by graphviz version 2.40.1 (20161225.0304)
 -->
<!-- Pages: 1 -->
<svg width="519pt" height="435pt"
 viewBox="0.00 0.00 518.73 434.64" xmlns="http://www.w3.org/2000/svg" xmlns:xlink="http://www.w3.org/1999/xlink">
<g id="graph0" class="graph" transform="scale(1 1) rotate(0) translate(4 430.6391)">
<polygon fill="#ffffff" stroke="transparent" points="-4,4 -4,-430.6391 514.733,-430.6391 514.733,4 -4,4"/>
<!-- 195 -->
<g id="node1" class="node">
<title>195</title>
<ellipse fill="none" stroke="#000000" cx="70.4971" cy="-41.4956" rx="32.4942" ry="18"/>
<text text-anchor="middle" x="70.4971" y="-37.7956" font-family="Times,serif" font-size="14.00" fill="#000000">0.091</text>
</g>
<!-- 189 -->
<g id="node21" class="node">
<title>189</title>
<ellipse fill="none" stroke="#000000" cx="75.0563" cy="-103.0104" rx="35.9954" ry="18"/>
<text text-anchor="middle" x="75.0563" y="-99.3104" font-family="Times,serif" font-size="14.00" fill="#000000">&#45;0.136</text>
</g>
<!-- 195&#45;&gt;189 -->
<g id="edge1" class="edge">
<title>195&#45;&gt;189</title>
<path fill="none" stroke="#000000" d="M71.8404,-59.6194C72.1897,-64.3329 72.5746,-69.5256 72.9529,-74.6304"/>
<polygon fill="#000000" stroke="#000000" points="69.4773,-75.0897 73.7069,-84.8037 76.4581,-74.5723 69.4773,-75.0897"/>
</g>
<!-- 191 -->
<g id="node22" class="node">
<title>191</title>
<ellipse fill="none" stroke="#000000" cx="160.0575" cy="-68.6797" rx="35.9954" ry="18"/>
<text text-anchor="middle" x="160.0575" y="-64.9797" font-family="Times,serif" font-size="14.00" fill="#000000">&#45;0.182</text>
</g>
<!-- 195&#45;&gt;191 -->
<g id="edge2" class="edge">
<title>195&#45;&gt;191</title>
<path fill="none" stroke="#000000" d="M99.3276,-50.2465C105.7866,-52.207 112.7549,-54.322 119.5881,-56.3961"/>
<polygon fill="#000000" stroke="#000000" points="118.8422,-59.8273 129.4277,-59.3827 120.8754,-53.1291 118.8422,-59.8273"/>
</g>
<!-- 196 -->
<g id="node2" class="node">
<title>196</title>
<ellipse fill="none" stroke="#000000" cx="155.1798" cy="-221.0399" rx="35.9954" ry="18"/>
<text text-anchor="middle" x="155.1798" y="-217.3399" font-family="Times,serif" font-size="14.00" fill="#000000">&#45;0.091</text>
</g>
<!-- 69 -->
<g id="node3" class="node">
<title>69</title>
<ellipse fill="none" stroke="#000000" cx="269.7907" cy="-321.7831" rx="35.9954" ry="18"/>
<text text-anchor="middle" x="269.7907" y="-318.0831" font-family="Times,serif" font-size="14.00" fill="#000000">&#45;0.091</text>
</g>
<!-- 199 -->
<g id="node4" class="node">
<title>199</title>
<ellipse fill="none" stroke="#000000" cx="116.2824" cy="-18" rx="32.4942" ry="18"/>
<text text-anchor="middle" x="116.2824" y="-14.3" font-family="Times,serif" font-size="14.00" fill="#000000">0.091</text>
</g>
<!-- 199&#45;&gt;189 -->
<g id="edge3" class="edge">
<title>199&#45;&gt;189</title>
<path fill="none" stroke="#000000" d="M107.7403,-35.6142C102.0468,-47.3545 94.4563,-63.0066 88.0234,-76.2717"/>
<polygon fill="#000000" stroke="#000000" points="84.8018,-74.8938 83.5875,-85.4188 91.1002,-77.9482 84.8018,-74.8938"/>
</g>
<!-- 199&#45;&gt;191 -->
<g id="edge4" class="edge">
<title>199&#45;&gt;191</title>
<path fill="none" stroke="#000000" d="M130.374,-34.3143C133.1296,-37.5045 136.0748,-40.9143 139.0002,-44.3011"/>
<polygon fill="#000000" stroke="#000000" points="136.5062,-46.7681 145.6917,-52.048 141.8036,-42.1923 136.5062,-46.7681"/>
</g>
<!-- 202 -->
<g id="node5" class="node">
<title>202</title>
<ellipse fill="none" stroke="#000000" cx="141.5007" cy="-146.4373" rx="32.4942" ry="18"/>
<text text-anchor="middle" x="141.5007" y="-142.7373" font-family="Times,serif" font-size="14.00" fill="#000000">0.136</text>
</g>
<!-- 202&#45;&gt;196 -->
<g id="edge5" class="edge">
<title>202&#45;&gt;196</title>
<path fill="none" stroke="#000000" d="M144.812,-164.4965C146.3798,-173.047 148.2882,-183.4549 150.0383,-192.9994"/>
<polygon fill="#000000" stroke="#000000" points="146.6053,-193.6837 151.8516,-202.8884 153.4906,-192.4211 146.6053,-193.6837"/>
</g>
<!-- 202&#45;&gt;189 -->
<g id="edge6" class="edge">
<title>202&#45;&gt;189</title>
<path fill="none" stroke="#000000" d="M120.4773,-132.6968C115.7034,-129.5767 110.5393,-126.2015 105.4635,-122.884"/>
<polygon fill="#000000" stroke="#000000" points="107.3746,-119.9519 97.0891,-117.4106 103.5449,-125.8114 107.3746,-119.9519"/>
</g>
<!-- 202&#45;&gt;191 -->
<g id="edge7" class="edge">
<title>202&#45;&gt;191</title>
<path fill="none" stroke="#000000" d="M145.8047,-128.4027C148.0531,-118.9813 150.8548,-107.2413 153.3777,-96.6696"/>
<polygon fill="#000000" stroke="#000000" points="156.8599,-97.1558 155.7769,-86.6165 150.0511,-95.5309 156.8599,-97.1558"/>
</g>
<!-- 76 -->
<g id="node6" class="node">
<title>76</title>
<ellipse fill="none" stroke="#000000" cx="244.7468" cy="-142.6391" rx="35.9954" ry="18"/>
<text text-anchor="middle" x="244.7468" y="-138.9391" font-family="Times,serif" font-size="14.00" fill="#000000">&#45;0.045</text>
</g>
<!-- 80 -->
<g id="node7" class="node">
<title>80</title>
<ellipse fill="none" stroke="#000000" cx="339.4048" cy="-286.9961" rx="35.9954" ry="18"/>
<text text-anchor="middle" x="339.4048" y="-283.2961" font-family="Times,serif" font-size="14.00" fill="#000000">&#45;0.045</text>
</g>
<!-- 80&#45;&gt;69 -->
<g id="edge8" class="edge">
<title>80&#45;&gt;69</title>
<path fill="none" stroke="#000000" d="M313.8784,-299.752C310.757,-301.3117 307.5283,-302.9252 304.3029,-304.5369"/>
<polygon fill="#000000" stroke="#000000" points="302.6948,-301.4278 295.3141,-309.0288 305.8239,-307.6895 302.6948,-301.4278"/>
</g>
<!-- 148 -->
<g id="node8" class="node">
<title>148</title>
<ellipse fill="none" stroke="#000000" cx="336.4971" cy="-47.6391" rx="32.4942" ry="18"/>
<text text-anchor="middle" x="336.4971" y="-43.9391" font-family="Times,serif" font-size="14.00" fill="#000000">0.045</text>
</g>
<!-- 178 -->
<g id="node17" class="node">
<title>178</title>
<ellipse fill="none" stroke="#000000" cx="407.7067" cy="-37" rx="35.9954" ry="18"/>
<text text-anchor="middle" x="407.7067" y="-33.3" font-family="Times,serif" font-size="14.00" fill="#000000">&#45;0.045</text>
</g>
<!-- 148&#45;&gt;178 -->
<g id="edge9" class="edge">
<title>148&#45;&gt;178</title>
<path fill="none" stroke="#000000" d="M367.938,-42.9417C368.0497,-42.925 368.1616,-42.9083 368.2735,-42.8915"/>
<polygon fill="#000000" stroke="#000000" points="363.9544,-47.0759 373.3274,-42.1365 362.9199,-40.1527 363.9544,-47.0759"/>
</g>
<!-- 22 -->
<g id="node9" class="node">
<title>22</title>
<ellipse fill="none" stroke="#000000" cx="35.7468" cy="-370.6391" rx="35.9954" ry="18"/>
<text text-anchor="middle" x="35.7468" y="-366.9391" font-family="Times,serif" font-size="14.00" fill="#000000">&#45;0.045</text>
</g>
<!-- 89 -->
<g id="node10" class="node">
<title>89</title>
<ellipse fill="none" stroke="#000000" cx="106.9564" cy="-360" rx="32.4942" ry="18"/>
<text text-anchor="middle" x="106.9564" y="-356.3" font-family="Times,serif" font-size="14.00" fill="#000000">0.045</text>
</g>
<!-- 89&#45;&gt;22 -->
<g id="edge10" class="edge">
<title>89&#45;&gt;22</title>
<path fill="none" stroke="#000000" d="M75.5156,-364.6974C75.4038,-364.7141 75.292,-364.7308 75.1801,-364.7476"/>
<polygon fill="#000000" stroke="#000000" points="79.4992,-360.5632 70.1262,-365.5026 80.5337,-367.4864 79.4992,-360.5632"/>
</g>
<!-- 27 -->
<g id="node11" class="node">
<title>27</title>
<ellipse fill="none" stroke="#000000" cx="315.9564" cy="-132" rx="32.4942" ry="18"/>
<text text-anchor="middle" x="315.9564" y="-128.3" font-family="Times,serif" font-size="14.00" fill="#000000">0.045</text>
</g>
<!-- 27&#45;&gt;76 -->
<g id="edge11" class="edge">
<title>27&#45;&gt;76</title>
<path fill="none" stroke="#000000" d="M284.5156,-136.6974C284.4038,-136.7141 284.292,-136.7308 284.1801,-136.7476"/>
<polygon fill="#000000" stroke="#000000" points="288.4992,-132.5632 279.1262,-137.5026 289.5337,-139.4864 288.4992,-132.5632"/>
</g>
<!-- 29 -->
<g id="node12" class="node">
<title>29</title>
<ellipse fill="none" stroke="#000000" cx="298.4971" cy="-408.6391" rx="32.4942" ry="18"/>
<text text-anchor="middle" x="298.4971" y="-404.9391" font-family="Times,serif" font-size="14.00" fill="#000000">0.045</text>
</g>
<!-- 114 -->
<g id="node18" class="node">
<title>114</title>
<ellipse fill="none" stroke="#000000" cx="369.7067" cy="-398" rx="35.9954" ry="18"/>
<text text-anchor="middle" x="369.7067" y="-394.3" font-family="Times,serif" font-size="14.00" fill="#000000">&#45;0.045</text>
</g>
<!-- 29&#45;&gt;114 -->
<g id="edge12" class="edge">
<title>29&#45;&gt;114</title>
<path fill="none" stroke="#000000" d="M329.938,-403.9417C330.0497,-403.925 330.1616,-403.9083 330.2735,-403.8915"/>
<polygon fill="#000000" stroke="#000000" points="325.9544,-408.0759 335.3274,-403.1365 324.9199,-401.1527 325.9544,-408.0759"/>
</g>
<!-- 95 -->
<g id="node13" class="node">
<title>95</title>
<ellipse fill="none" stroke="#000000" cx="340.3113" cy="-208" rx="32.4942" ry="18"/>
<text text-anchor="middle" x="340.3113" y="-204.3" font-family="Times,serif" font-size="14.00" fill="#000000">0.045</text>
</g>
<!-- 95&#45;&gt;80 -->
<g id="edge13" class="edge">
<title>95&#45;&gt;80</title>
<path fill="none" stroke="#000000" d="M340.101,-226.3219C339.9912,-235.8934 339.8543,-247.8204 339.7311,-258.5604"/>
<polygon fill="#000000" stroke="#000000" points="336.2289,-258.7341 339.6139,-268.7736 343.2285,-258.8145 336.2289,-258.7341"/>
</g>
<!-- 99 -->
<g id="node14" class="node">
<title>99</title>
<ellipse fill="none" stroke="#000000" cx="203.4971" cy="-353.9372" rx="32.4942" ry="18"/>
<text text-anchor="middle" x="203.4971" y="-350.2372" font-family="Times,serif" font-size="14.00" fill="#000000">0.045</text>
</g>
<!-- 99&#45;&gt;69 -->
<g id="edge14" class="edge">
<title>99&#45;&gt;69</title>
<path fill="none" stroke="#000000" d="M228.1824,-341.9642C230.2762,-340.9487 232.4182,-339.9098 234.5719,-338.8651"/>
<polygon fill="#000000" stroke="#000000" points="236.5059,-341.8171 243.976,-334.3039 233.4511,-335.5189 236.5059,-341.8171"/>
</g>
<!-- 101 -->
<g id="node15" class="node">
<title>101</title>
<ellipse fill="none" stroke="#000000" cx="474.9862" cy="-354.5064" rx="35.9954" ry="18"/>
<text text-anchor="middle" x="474.9862" y="-350.8064" font-family="Times,serif" font-size="14.00" fill="#000000">&#45;0.045</text>
</g>
<!-- 71 -->
<g id="node16" class="node">
<title>71</title>
<ellipse fill="none" stroke="#000000" cx="408.0768" cy="-323.6795" rx="32.4942" ry="18"/>
<text text-anchor="middle" x="408.0768" y="-319.9795" font-family="Times,serif" font-size="14.00" fill="#000000">0.091</text>
</g>
<!-- 71&#45;&gt;80 -->
<g id="edge15" class="edge">
<title>71&#45;&gt;80</title>
<path fill="none" stroke="#000000" d="M384.4438,-311.0552C380.7774,-309.0967 376.9301,-307.0415 373.0936,-304.9922"/>
<polygon fill="#000000" stroke="#000000" points="374.7211,-301.8935 364.2515,-300.2689 371.4228,-308.0678 374.7211,-301.8935"/>
</g>
<!-- 71&#45;&gt;101 -->
<g id="edge16" class="edge">
<title>71&#45;&gt;101</title>
<path fill="none" stroke="#000000" d="M433.3723,-335.3339C435.2042,-336.1778 437.0708,-337.0378 438.9483,-337.9028"/>
<polygon fill="#000000" stroke="#000000" points="437.7695,-341.2133 448.3165,-342.219 440.6987,-334.8556 437.7695,-341.2133"/>
</g>
<!-- 186 -->
<g id="node19" class="node">
<title>186</title>
<ellipse fill="none" stroke="#000000" cx="232.7829" cy="-35.0527" rx="32.4942" ry="18"/>
<text text-anchor="middle" x="232.7829" y="-31.3527" font-family="Times,serif" font-size="14.00" fill="#000000">0.045</text>
</g>
<!-- 186&#45;&gt;191 -->
<g id="edge17" class="edge">
<title>186&#45;&gt;191</title>
<path fill="none" stroke="#000000" d="M207.7549,-46.6252C203.9646,-48.3778 199.9917,-50.2148 196.0251,-52.0489"/>
<polygon fill="#000000" stroke="#000000" points="194.4776,-48.9083 186.8698,-56.2821 197.4155,-55.262 194.4776,-48.9083"/>
</g>
<!-- 188 -->
<g id="node20" class="node">
<title>188</title>
<ellipse fill="none" stroke="#000000" cx="159.5147" cy="-294.2364" rx="32.4942" ry="18"/>
<text text-anchor="middle" x="159.5147" y="-290.5364" font-family="Times,serif" font-size="14.00" fill="#000000">0.045</text>
</g>
<!-- 188&#45;&gt;196 -->
<g id="edge18" class="edge">
<title>188&#45;&gt;196</title>
<path fill="none" stroke="#000000" d="M158.4431,-276.1429C157.9638,-268.0489 157.3874,-258.3163 156.8533,-249.2975"/>
<polygon fill="#000000" stroke="#000000" points="160.3392,-248.9545 156.254,-239.1789 153.3514,-249.3684 160.3392,-248.9545"/>
</g>
</g>
</svg>
